<svg xmlns="http://www.w3.org/2000/svg" viewBox="-70.0 0 862.9 2080.0" font-family="sans-serif">
<rect x="-70.0" y="0" width="862.9" height="2080.0" fill="white"/>
<line x1="-70.0" y1="2080.0" x2="792.9" y2="2080.0" stroke="#f1f1f1"/>
<line x1="-70.0" y1="1980.0" x2="792.9" y2="1980.0" stroke="#f1f1f1"/>
<line x1="-70.0" y1="1880.0" x2="792.9" y2="1880.0" stroke="#f1f1f1"/>
<line x1="-70.0" y1="1780.0" x2="792.9" y2="1780.0" stroke="#f1f1f1"/>
<line x1="-70.0" y1="1680.0" x2="792.9" y2="1680.0" stroke="#f1f1f1"/>
<line x1="-70.0" y1="1580.0" x2="792.9" y2="1580.0" stroke="#f1f1f1"/>
<line x1="-70.0" y1="1480.0" x2="792.9" y2="1480.0" stroke="#f1f1f1"/>
<line x1="-70.0" y1="1380.0" x2="792.9" y2="1380.0" stroke="#f1f1f1"/>
<line x1="-70.0" y1="1280.0" x2="792.9" y2="1280.0" stroke="#f1f1f1"/>
<line x1="-70.0" y1="1180.0" x2="792.9" y2="1180.0" stroke="#f1f1f1"/>
<line x1="-70.0" y1="1080.0" x2="792.9" y2="1080.0" stroke="#f1f1f1"/>
<line x1="-70.0" y1="980.0" x2="792.9" y2="980.0" stroke="#f1f1f1"/>
<line x1="-70.0" y1="880.0" x2="792.9" y2="880.0" stroke="#f1f1f1"/>
<line x1="-70.0" y1="780.0" x2="792.9" y2="780.0" stroke="#f1f1f1"/>
<line x1="-70.0" y1="680.0" x2="792.9" y2="680.0" stroke="#f1f1f1"/>
<line x1="-70.0" y1="580.0" x2="792.9" y2="580.0" stroke="#f1f1f1"/>
<line x1="-70.0" y1="480.0" x2="792.9" y2="480.0" stroke="#f1f1f1"/>
<line x1="-70.0" y1="380.0" x2="792.9" y2="380.0" stroke="#f1f1f1"/>
<line x1="-70.0" y1="280.0" x2="792.9" y2="280.0" stroke="#f1f1f1"/>
<line x1="-70.0" y1="180.0" x2="792.9" y2="180.0" stroke="#f1f1f1"/>
<line x1="-70.0" y1="80.0" x2="792.9" y2="80.0" stroke="#f1f1f1"/>
<line x1="-70.0" y1="2080.0" x2="792.9" y2="2080.0" stroke="#ddd"/><text x="-66.0" y="2077.0" font-size="15" fill="#999">0</text>
<line x1="-70.0" y1="1830.0" x2="792.9" y2="1830.0" stroke="#ddd"/><text x="-66.0" y="1827.0" font-size="15" fill="#999">250</text>
<line x1="-70.0" y1="1580.0" x2="792.9" y2="1580.0" stroke="#ddd"/><text x="-66.0" y="1577.0" font-size="15" fill="#999">500</text>
<line x1="-70.0" y1="1330.0" x2="792.9" y2="1330.0" stroke="#ddd"/><text x="-66.0" y="1327.0" font-size="15" fill="#999">750</text>
<line x1="-70.0" y1="1080.0" x2="792.9" y2="1080.0" stroke="#ddd"/><text x="-66.0" y="1077.0" font-size="15" fill="#999">1000</text>
<line x1="-70.0" y1="830.0" x2="792.9" y2="830.0" stroke="#ddd"/><text x="-66.0" y="827.0" font-size="15" fill="#999">1250</text>
<line x1="-70.0" y1="580.0" x2="792.9" y2="580.0" stroke="#ddd"/><text x="-66.0" y="577.0" font-size="15" fill="#999">1500</text>
<line x1="-70.0" y1="330.0" x2="792.9" y2="330.0" stroke="#ddd"/><text x="-66.0" y="327.0" font-size="15" fill="#999">1750</text>
<line x1="-70.0" y1="80.0" x2="792.9" y2="80.0" stroke="#ddd"/><text x="-66.0" y="77.0" font-size="15" fill="#999">2000</text>
<line x1="0.0" y1="2080.0" x2="0.0" y2="80.0" stroke="#f3e0e0"/><text x="0.0" y="2098.0" font-size="11" fill="#a55" text-anchor="middle">C1</text>
<line x1="99.7" y1="2080.0" x2="99.7" y2="80.0" stroke="#f3e0e0"/><text x="99.7" y="2098.0" font-size="11" fill="#a55" text-anchor="middle">C2</text>
<line x1="199.3" y1="2080.0" x2="199.3" y2="80.0" stroke="#f3e0e0"/><text x="199.3" y="2098.0" font-size="11" fill="#a55" text-anchor="middle">C3</text>
<line x1="296.9" y1="2080.0" x2="296.9" y2="80.0" stroke="#f3e0e0"/><text x="296.9" y="2098.0" font-size="11" fill="#a55" text-anchor="middle">C4</text>
<line x1="402.6" y1="2080.0" x2="402.6" y2="80.0" stroke="#f3e0e0"/><text x="402.6" y="2098.0" font-size="11" fill="#a55" text-anchor="middle">C5</text>
<line x1="504.0" y1="2080.0" x2="504.0" y2="80.0" stroke="#f3e0e0"/><text x="504.0" y="2098.0" font-size="11" fill="#a55" text-anchor="middle">C6</text>
<line x1="593.7" y1="2080.0" x2="593.7" y2="80.0" stroke="#f3e0e0"/><text x="593.7" y="2098.0" font-size="11" fill="#a55" text-anchor="middle">C7</text>
<line x1="642.9" y1="2080.0" x2="642.9" y2="80.0" stroke="#f3e0e0"/><text x="642.9" y="2098.0" font-size="11" fill="#a55" text-anchor="middle">G7</text>
<text x="-55.0" y="28" font-size="19" font-weight="bold">Lyon &amp; Healy Style 25 - profile dots (physics-refined F/N/S, bezier U/L) Z mm</text>
<polygon points="0.0,146.9 14.2,136.4 27.7,117.8 41.8,102.3 56.2,89.4 70.1,85.0 84.5,85.0 99.7,85.0 113.9,85.0 128.2,85.0 142.4,88.9 156.6,97.9 170.8,85.0 185.1,85.0 199.3,88.1 213.5,124.3 227.4,158.7 241.0,179.6 254.3,202.1 267.8,219.7 281.6,237.9 296.9,258.0 312.1,277.7 327.2,296.7 342.3,314.8 357.3,331.6 372.4,347.1 387.5,360.9 402.6,372.7 417.2,382.0 431.5,385.8 445.8,367.3 460.6,354.5 475.7,344.3 490.1,331.6 504.0,318.1 517.4,311.1 530.8,300.1 543.4,274.3 556.0,252.2 568.6,233.0 581.2,211.6 593.7,187.1 606.3,175.5 618.5,160.3 630.7,117.9 642.9,85.0 642.9,189.1 630.7,206.6 618.5,226.1 606.3,249.3 593.7,283.7 581.2,314.6 568.6,342.5 556.0,367.4 543.4,389.4 530.8,408.6 517.4,426.1 504.0,440.7 490.1,453.0 475.7,462.8 460.6,470.2 445.8,474.7 431.5,476.6 417.2,480.7 402.6,485.3 387.5,504.8 372.4,508.3 357.3,499.1 342.3,468.1 327.2,463.4 312.1,452.6 296.9,455.7 281.6,473.2 267.8,420.9 254.3,380.6 241.0,369.8 227.4,359.2 213.5,348.7 199.3,338.6 185.1,329.4 170.8,321.2 156.6,314.2 142.4,308.6 128.2,304.6 113.9,302.3 99.7,306.8 84.5,303.9 70.1,308.2 56.2,314.7 41.8,328.6 27.7,360.7 14.2,361.8 0.0,369.0" fill="#caa011" fill-opacity="0.13"/>
<line x1="0.0" y1="1750.2" x2="0.0" y2="156.9" stroke="#cc0000" stroke-width="2.83" stroke-linecap="round"/>
<line x1="14.2" y1="1717.7" x2="14.2" y2="155.2" stroke="#cfcfcf" stroke-width="2.83" stroke-linecap="round"/>
<line x1="27.7" y1="1686.5" x2="27.7" y2="157.7" stroke="#cfcfcf" stroke-width="2.84" stroke-linecap="round"/>
<line x1="41.8" y1="1654.4" x2="41.8" y2="125.6" stroke="#111111" stroke-width="2.37" stroke-linecap="round"/>
<line x1="56.2" y1="1621.2" x2="56.2" y2="99.4" stroke="#cfcfcf" stroke-width="2.38" stroke-linecap="round"/>
<line x1="70.1" y1="1589.4" x2="70.1" y2="81.5" stroke="#cfcfcf" stroke-width="2.38" stroke-linecap="round"/>
<line x1="84.5" y1="1556.0" x2="84.5" y2="99.7" stroke="#cfcfcf" stroke-width="2.30" stroke-linecap="round"/>
<line x1="99.7" y1="1521.1" x2="99.7" y2="117.4" stroke="#cc0000" stroke-width="2.39" stroke-linecap="round"/>
<line x1="113.9" y1="1488.6" x2="113.9" y2="93.8" stroke="#cfcfcf" stroke-width="2.39" stroke-linecap="round"/>
<line x1="128.2" y1="1455.9" x2="128.2" y2="92.9" stroke="#cfcfcf" stroke-width="2.39" stroke-linecap="round"/>
<line x1="142.4" y1="1423.2" x2="142.4" y2="110.8" stroke="#111111" stroke-width="2.66" stroke-linecap="round"/>
<line x1="156.6" y1="1390.6" x2="156.6" y2="110.0" stroke="#cfcfcf" stroke-width="2.31" stroke-linecap="round"/>
<line x1="170.8" y1="1357.9" x2="170.8" y2="77.3" stroke="#cfcfcf" stroke-width="2.29" stroke-linecap="round"/>
<line x1="185.1" y1="1325.4" x2="185.1" y2="91.7" stroke="#cfcfcf" stroke-width="2.18" stroke-linecap="round"/>
<line x1="199.3" y1="1292.7" x2="199.3" y2="98.1" stroke="#cc0000" stroke-width="2.08" stroke-linecap="round"/>
<line x1="213.5" y1="1260.1" x2="213.5" y2="134.3" stroke="#cfcfcf" stroke-width="1.96" stroke-linecap="round"/>
<line x1="227.4" y1="1228.1" x2="227.4" y2="168.7" stroke="#cfcfcf" stroke-width="1.85" stroke-linecap="round"/>
<line x1="241.0" y1="1196.9" x2="241.0" y2="189.6" stroke="#111111" stroke-width="1.80" stroke-linecap="round"/>
<line x1="254.3" y1="1166.2" x2="254.3" y2="232.8" stroke="#cfcfcf" stroke-width="1.70" stroke-linecap="round"/>
<line x1="267.8" y1="1135.2" x2="267.8" y2="292.8" stroke="#cfcfcf" stroke-width="1.60" stroke-linecap="round"/>
<line x1="281.6" y1="1103.7" x2="281.6" y2="355.4" stroke="#cfcfcf" stroke-width="1.55" stroke-linecap="round"/>
<line x1="296.9" y1="1068.4" x2="296.9" y2="340.1" stroke="#cc0000" stroke-width="1.45" stroke-linecap="round"/>
<line x1="312.1" y1="1033.5" x2="312.1" y2="340.8" stroke="#cfcfcf" stroke-width="1.35" stroke-linecap="round"/>
<line x1="327.2" y1="998.9" x2="327.2" y2="357.2" stroke="#cfcfcf" stroke-width="1.30" stroke-linecap="round"/>
<line x1="342.3" y1="964.4" x2="342.3" y2="366.6" stroke="#111111" stroke-width="1.25" stroke-linecap="round"/>
<line x1="357.3" y1="929.8" x2="357.3" y2="405.7" stroke="#cfcfcf" stroke-width="1.20" stroke-linecap="round"/>
<line x1="372.4" y1="895.2" x2="372.4" y2="420.3" stroke="#cfcfcf" stroke-width="1.15" stroke-linecap="round"/>
<line x1="387.5" y1="860.5" x2="387.5" y2="420.6" stroke="#cfcfcf" stroke-width="1.10" stroke-linecap="round"/>
<line x1="402.6" y1="826.0" x2="402.6" y2="403.0" stroke="#cc0000" stroke-width="1.05" stroke-linecap="round"/>
<line x1="417.2" y1="792.3" x2="417.2" y2="401.9" stroke="#cfcfcf" stroke-width="1.00" stroke-linecap="round"/>
<line x1="431.5" y1="759.4" x2="431.5" y2="395.8" stroke="#cfcfcf" stroke-width="0.95" stroke-linecap="round"/>
<line x1="445.8" y1="726.5" x2="445.8" y2="377.3" stroke="#111111" stroke-width="0.92" stroke-linecap="round"/>
<line x1="460.6" y1="692.6" x2="460.6" y2="364.5" stroke="#cfcfcf" stroke-width="0.88" stroke-linecap="round"/>
<line x1="475.7" y1="658.0" x2="475.7" y2="354.3" stroke="#cfcfcf" stroke-width="0.85" stroke-linecap="round"/>
<line x1="490.1" y1="624.9" x2="490.1" y2="341.6" stroke="#cfcfcf" stroke-width="0.80" stroke-linecap="round"/>
<line x1="504.0" y1="593.0" x2="504.0" y2="328.1" stroke="#cc0000" stroke-width="0.76" stroke-linecap="round"/>
<line x1="517.4" y1="562.2" x2="517.4" y2="321.1" stroke="#cfcfcf" stroke-width="0.73" stroke-linecap="round"/>
<line x1="530.8" y1="531.4" x2="530.8" y2="310.1" stroke="#cfcfcf" stroke-width="0.70" stroke-linecap="round"/>
<line x1="543.4" y1="502.5" x2="543.4" y2="284.3" stroke="#111111" stroke-width="0.68" stroke-linecap="round"/>
<line x1="556.0" y1="473.7" x2="556.0" y2="262.2" stroke="#cfcfcf" stroke-width="0.66" stroke-linecap="round"/>
<line x1="568.6" y1="444.8" x2="568.6" y2="243.0" stroke="#cfcfcf" stroke-width="0.64" stroke-linecap="round"/>
<line x1="581.2" y1="415.9" x2="581.2" y2="221.6" stroke="#cfcfcf" stroke-width="0.62" stroke-linecap="round"/>
<line x1="593.7" y1="387.0" x2="593.7" y2="197.1" stroke="#cc0000" stroke-width="0.60" stroke-linecap="round"/>
<line x1="606.3" y1="358.1" x2="606.3" y2="185.5" stroke="#cfcfcf" stroke-width="0.58" stroke-linecap="round"/>
<line x1="618.5" y1="330.1" x2="618.5" y2="172.8" stroke="#cfcfcf" stroke-width="0.56" stroke-linecap="round"/>
<line x1="630.7" y1="302.1" x2="630.7" y2="154.2" stroke="#111111" stroke-width="0.54" stroke-linecap="round"/>
<line x1="642.9" y1="274.1" x2="642.9" y2="138.1" stroke="#cfcfcf" stroke-width="0.52" stroke-linecap="round"/>
<polyline points="0.0,1750.2 14.2,1717.7 27.7,1686.5 41.8,1654.4 56.2,1621.2 70.1,1589.4 84.5,1556.0 99.7,1521.1 113.9,1488.6 128.2,1455.9 142.4,1423.2 156.6,1390.6 170.8,1357.9 185.1,1325.4 199.3,1292.7 213.5,1260.1 227.4,1228.1 241.0,1196.9 254.3,1166.2 267.8,1135.2 281.6,1103.7 296.9,1068.4 312.1,1033.5 327.2,998.9 342.3,964.4 357.3,929.8 372.4,895.2 387.5,860.5 402.6,826.0 417.2,792.3 431.5,759.4 445.8,726.5 460.6,692.6 475.7,658.0 490.1,624.9 504.0,593.0 517.4,562.2 530.8,531.4 543.4,502.5 556.0,473.7 568.6,444.8 581.2,415.9 593.7,387.0 606.3,358.1 618.5,330.1 630.7,302.1 642.9,274.1" fill="none" stroke="#7a4a1e" stroke-width="2.5"/>
<polyline points="0.0,146.9 14.2,136.4 27.7,117.8 41.8,102.3 56.2,89.4 70.1,85.0 84.5,85.0 99.7,85.0 113.9,85.0 128.2,85.0 142.4,88.9 156.6,97.9 170.8,85.0 185.1,85.0 199.3,88.1 213.5,124.3 227.4,158.7 241.0,179.6 254.3,202.1 267.8,219.7 281.6,237.9 296.9,258.0 312.1,277.7 327.2,296.7 342.3,314.8 357.3,331.6 372.4,347.1 387.5,360.9 402.6,372.7 417.2,382.0 431.5,385.8 445.8,367.3 460.6,354.5 475.7,344.3 490.1,331.6 504.0,318.1 517.4,311.1 530.8,300.1 543.4,274.3 556.0,252.2 568.6,233.0 581.2,211.6 593.7,187.1 606.3,175.5 618.5,160.3 630.7,117.9 642.9,85.0" fill="none" stroke="#7b2fbe" stroke-width="2"/>
<polyline points="0.0,369.0 14.2,361.8 27.7,360.7 41.8,328.6 56.2,314.7 70.1,308.2 84.5,303.9 99.7,306.8 113.9,302.3 128.2,304.6 142.4,308.6 156.6,314.2 170.8,321.2 185.1,329.4 199.3,338.6 213.5,348.7 227.4,359.2 241.0,369.8 254.3,380.6 267.8,420.9 281.6,473.2 296.9,455.7 312.1,452.6 327.2,463.4 342.3,468.1 357.3,499.1 372.4,508.3 387.5,504.8 402.6,485.3 417.2,480.7 431.5,476.6 445.8,474.7 460.6,470.2 475.7,462.8 490.1,453.0 504.0,440.7 517.4,426.1 530.8,408.6 543.4,389.4 556.0,367.4 568.6,342.5 581.2,314.6 593.7,283.7 606.3,249.3 618.5,226.1 630.7,206.6 642.9,189.1" fill="none" stroke="#1a9a1a" stroke-width="1.5" stroke-dasharray="6 4"/>
<circle cx="0.0" cy="1750.2" r="2.8" fill="#8B4513"/>
<circle cx="0.0" cy="361.9" r="2.6" fill="#ff8c00"/>
<circle cx="0.0" cy="279.3" r="2.6" fill="#1a9a1a"/>
<circle cx="0.0" cy="191.9" r="2.6" fill="#2a52be"/>
<circle cx="0.0" cy="156.9" r="2.6" fill="#000000"/>
<circle cx="14.2" cy="1717.7" r="2.8" fill="#8B4513"/>
<circle cx="14.2" cy="356.8" r="2.6" fill="#ff8c00"/>
<circle cx="14.2" cy="275.9" r="2.6" fill="#1a9a1a"/>
<circle cx="14.2" cy="190.2" r="2.6" fill="#2a52be"/>
<circle cx="14.2" cy="155.2" r="2.6" fill="#000000"/>
<circle cx="27.7" cy="1686.5" r="2.8" fill="#8B4513"/>
<circle cx="27.7" cy="355.7" r="2.6" fill="#ff8c00"/>
<circle cx="27.7" cy="276.6" r="2.6" fill="#1a9a1a"/>
<circle cx="27.7" cy="192.7" r="2.6" fill="#2a52be"/>
<circle cx="27.7" cy="157.7" r="2.6" fill="#000000"/>
<circle cx="41.8" cy="1654.4" r="2.8" fill="#8B4513"/>
<circle cx="41.8" cy="323.6" r="2.6" fill="#ff8c00"/>
<circle cx="41.8" cy="244.5" r="2.6" fill="#1a9a1a"/>
<circle cx="41.8" cy="160.6" r="2.6" fill="#2a52be"/>
<circle cx="41.8" cy="125.6" r="2.6" fill="#000000"/>
<circle cx="56.2" cy="1621.2" r="2.8" fill="#8B4513"/>
<circle cx="56.2" cy="296.5" r="2.6" fill="#ff8c00"/>
<circle cx="56.2" cy="217.8" r="2.6" fill="#1a9a1a"/>
<circle cx="56.2" cy="134.4" r="2.6" fill="#2a52be"/>
<circle cx="56.2" cy="99.4" r="2.6" fill="#000000"/>
<circle cx="70.1" cy="1589.4" r="2.8" fill="#8B4513"/>
<circle cx="70.1" cy="277.2" r="2.6" fill="#ff8c00"/>
<circle cx="70.1" cy="199.1" r="2.6" fill="#1a9a1a"/>
<circle cx="70.1" cy="116.5" r="2.6" fill="#2a52be"/>
<circle cx="70.1" cy="81.5" r="2.6" fill="#000000"/>
<circle cx="84.5" cy="1556.0" r="2.8" fill="#8B4513"/>
<circle cx="84.5" cy="289.7" r="2.6" fill="#ff8c00"/>
<circle cx="84.5" cy="214.5" r="2.6" fill="#1a9a1a"/>
<circle cx="84.5" cy="134.7" r="2.6" fill="#2a52be"/>
<circle cx="84.5" cy="99.7" r="2.6" fill="#000000"/>
<circle cx="99.7" cy="1521.1" r="2.8" fill="#8B4513"/>
<circle cx="99.7" cy="301.8" r="2.6" fill="#ff8c00"/>
<circle cx="99.7" cy="229.2" r="2.6" fill="#1a9a1a"/>
<circle cx="99.7" cy="152.4" r="2.6" fill="#2a52be"/>
<circle cx="99.7" cy="117.4" r="2.6" fill="#000000"/>
<circle cx="113.9" cy="1488.6" r="2.8" fill="#8B4513"/>
<circle cx="113.9" cy="277.2" r="2.6" fill="#ff8c00"/>
<circle cx="113.9" cy="205.1" r="2.6" fill="#1a9a1a"/>
<circle cx="113.9" cy="128.8" r="2.6" fill="#2a52be"/>
<circle cx="113.9" cy="93.8" r="2.6" fill="#000000"/>
<circle cx="128.2" cy="1455.9" r="2.8" fill="#8B4513"/>
<circle cx="128.2" cy="272.8" r="2.6" fill="#ff8c00"/>
<circle cx="128.2" cy="202.4" r="2.6" fill="#1a9a1a"/>
<circle cx="128.2" cy="127.9" r="2.6" fill="#2a52be"/>
<circle cx="128.2" cy="92.9" r="2.6" fill="#000000"/>
<circle cx="142.4" cy="1423.2" r="2.8" fill="#8B4513"/>
<circle cx="142.4" cy="285.1" r="2.6" fill="#ff8c00"/>
<circle cx="142.4" cy="217.5" r="2.6" fill="#1a9a1a"/>
<circle cx="142.4" cy="145.8" r="2.6" fill="#2a52be"/>
<circle cx="142.4" cy="110.8" r="2.6" fill="#000000"/>
<circle cx="156.6" cy="1390.6" r="2.8" fill="#8B4513"/>
<circle cx="156.6" cy="280.8" r="2.6" fill="#ff8c00"/>
<circle cx="156.6" cy="214.8" r="2.6" fill="#1a9a1a"/>
<circle cx="156.6" cy="145.0" r="2.6" fill="#2a52be"/>
<circle cx="156.6" cy="110.0" r="2.6" fill="#000000"/>
<circle cx="170.8" cy="1357.9" r="2.8" fill="#8B4513"/>
<circle cx="170.8" cy="248.1" r="2.6" fill="#ff8c00"/>
<circle cx="170.8" cy="182.1" r="2.6" fill="#1a9a1a"/>
<circle cx="170.8" cy="112.3" r="2.6" fill="#2a52be"/>
<circle cx="170.8" cy="77.3" r="2.6" fill="#000000"/>
<circle cx="185.1" cy="1325.4" r="2.8" fill="#8B4513"/>
<circle cx="185.1" cy="257.5" r="2.6" fill="#ff8c00"/>
<circle cx="185.1" cy="194.0" r="2.6" fill="#1a9a1a"/>
<circle cx="185.1" cy="126.7" r="2.6" fill="#2a52be"/>
<circle cx="185.1" cy="91.7" r="2.6" fill="#000000"/>
<circle cx="199.3" cy="1292.7" r="2.8" fill="#8B4513"/>
<circle cx="199.3" cy="259.7" r="2.6" fill="#ff8c00"/>
<circle cx="199.3" cy="198.2" r="2.6" fill="#1a9a1a"/>
<circle cx="199.3" cy="133.1" r="2.6" fill="#2a52be"/>
<circle cx="199.3" cy="98.1" r="2.6" fill="#000000"/>
<circle cx="213.5" cy="1260.1" r="2.8" fill="#8B4513"/>
<circle cx="213.5" cy="288.3" r="2.6" fill="#ff8c00"/>
<circle cx="213.5" cy="230.5" r="2.6" fill="#1a9a1a"/>
<circle cx="213.5" cy="169.3" r="2.6" fill="#2a52be"/>
<circle cx="213.5" cy="134.3" r="2.6" fill="#000000"/>
<circle cx="227.4" cy="1228.1" r="2.8" fill="#8B4513"/>
<circle cx="227.4" cy="315.5" r="2.6" fill="#ff8c00"/>
<circle cx="227.4" cy="261.2" r="2.6" fill="#1a9a1a"/>
<circle cx="227.4" cy="203.7" r="2.6" fill="#2a52be"/>
<circle cx="227.4" cy="168.7" r="2.6" fill="#000000"/>
<circle cx="241.0" cy="1196.9" r="2.8" fill="#8B4513"/>
<circle cx="241.0" cy="330.7" r="2.6" fill="#ff8c00"/>
<circle cx="241.0" cy="279.2" r="2.6" fill="#1a9a1a"/>
<circle cx="241.0" cy="224.6" r="2.6" fill="#2a52be"/>
<circle cx="241.0" cy="189.6" r="2.6" fill="#000000"/>
<circle cx="254.3" cy="1166.2" r="2.8" fill="#8B4513"/>
<circle cx="254.3" cy="365.8" r="2.6" fill="#ff8c00"/>
<circle cx="254.3" cy="318.3" r="2.6" fill="#1a9a1a"/>
<circle cx="254.3" cy="267.8" r="2.6" fill="#2a52be"/>
<circle cx="254.3" cy="232.8" r="2.6" fill="#000000"/>
<circle cx="267.8" cy="1135.2" r="2.8" fill="#8B4513"/>
<circle cx="267.8" cy="415.9" r="2.6" fill="#ff8c00"/>
<circle cx="267.8" cy="373.1" r="2.6" fill="#1a9a1a"/>
<circle cx="267.8" cy="327.8" r="2.6" fill="#2a52be"/>
<circle cx="267.8" cy="292.8" r="2.6" fill="#000000"/>
<circle cx="281.6" cy="1103.7" r="2.8" fill="#8B4513"/>
<circle cx="281.6" cy="468.2" r="2.6" fill="#ff8c00"/>
<circle cx="281.6" cy="430.4" r="2.6" fill="#1a9a1a"/>
<circle cx="281.6" cy="390.4" r="2.6" fill="#2a52be"/>
<circle cx="281.6" cy="355.4" r="2.6" fill="#000000"/>
<circle cx="296.9" cy="1068.4" r="2.8" fill="#8B4513"/>
<circle cx="296.9" cy="450.7" r="2.6" fill="#ff8c00"/>
<circle cx="296.9" cy="414.0" r="2.6" fill="#1a9a1a"/>
<circle cx="296.9" cy="375.1" r="2.6" fill="#2a52be"/>
<circle cx="296.9" cy="340.1" r="2.6" fill="#000000"/>
<circle cx="312.1" cy="1033.5" r="2.8" fill="#8B4513"/>
<circle cx="312.1" cy="447.6" r="2.6" fill="#ff8c00"/>
<circle cx="312.1" cy="412.8" r="2.6" fill="#1a9a1a"/>
<circle cx="312.1" cy="375.8" r="2.6" fill="#2a52be"/>
<circle cx="312.1" cy="340.8" r="2.6" fill="#000000"/>
<circle cx="327.2" cy="998.9" r="2.8" fill="#8B4513"/>
<circle cx="327.2" cy="458.4" r="2.6" fill="#ff8c00"/>
<circle cx="327.2" cy="426.2" r="2.6" fill="#1a9a1a"/>
<circle cx="327.2" cy="392.2" r="2.6" fill="#2a52be"/>
<circle cx="327.2" cy="357.2" r="2.6" fill="#000000"/>
<circle cx="342.3" cy="964.4" r="2.8" fill="#8B4513"/>
<circle cx="342.3" cy="463.1" r="2.6" fill="#ff8c00"/>
<circle cx="342.3" cy="433.2" r="2.6" fill="#1a9a1a"/>
<circle cx="342.3" cy="401.6" r="2.6" fill="#2a52be"/>
<circle cx="342.3" cy="366.6" r="2.6" fill="#000000"/>
<circle cx="357.3" cy="929.8" r="2.8" fill="#8B4513"/>
<circle cx="357.3" cy="494.1" r="2.6" fill="#ff8c00"/>
<circle cx="357.3" cy="468.2" r="2.6" fill="#1a9a1a"/>
<circle cx="357.3" cy="440.7" r="2.6" fill="#2a52be"/>
<circle cx="357.3" cy="405.7" r="2.6" fill="#000000"/>
<circle cx="372.4" cy="895.2" r="2.8" fill="#8B4513"/>
<circle cx="372.4" cy="503.3" r="2.6" fill="#ff8c00"/>
<circle cx="372.4" cy="480.0" r="2.6" fill="#1a9a1a"/>
<circle cx="372.4" cy="455.3" r="2.6" fill="#2a52be"/>
<circle cx="372.4" cy="420.3" r="2.6" fill="#000000"/>
<circle cx="387.5" cy="860.5" r="2.8" fill="#8B4513"/>
<circle cx="387.5" cy="499.8" r="2.6" fill="#ff8c00"/>
<circle cx="387.5" cy="478.4" r="2.6" fill="#1a9a1a"/>
<circle cx="387.5" cy="455.6" r="2.6" fill="#2a52be"/>
<circle cx="387.5" cy="420.6" r="2.6" fill="#000000"/>
<circle cx="402.6" cy="826.0" r="2.8" fill="#8B4513"/>
<circle cx="402.6" cy="480.3" r="2.6" fill="#ff8c00"/>
<circle cx="402.6" cy="459.8" r="2.6" fill="#1a9a1a"/>
<circle cx="402.6" cy="438.0" r="2.6" fill="#2a52be"/>
<circle cx="402.6" cy="403.0" r="2.6" fill="#000000"/>
<circle cx="417.2" cy="792.3" r="2.8" fill="#8B4513"/>
<circle cx="417.2" cy="475.7" r="2.6" fill="#ff8c00"/>
<circle cx="417.2" cy="456.8" r="2.6" fill="#1a9a1a"/>
<circle cx="417.2" cy="436.9" r="2.6" fill="#2a52be"/>
<circle cx="417.2" cy="401.9" r="2.6" fill="#000000"/>
<circle cx="431.5" cy="759.4" r="2.8" fill="#8B4513"/>
<circle cx="431.5" cy="466.6" r="2.6" fill="#ff8c00"/>
<circle cx="431.5" cy="449.2" r="2.6" fill="#1a9a1a"/>
<circle cx="431.5" cy="430.8" r="2.6" fill="#2a52be"/>
<circle cx="431.5" cy="395.8" r="2.6" fill="#000000"/>
<circle cx="445.8" cy="726.5" r="2.8" fill="#8B4513"/>
<circle cx="445.8" cy="446.5" r="2.6" fill="#ff8c00"/>
<circle cx="445.8" cy="429.9" r="2.6" fill="#1a9a1a"/>
<circle cx="445.8" cy="412.3" r="2.6" fill="#2a52be"/>
<circle cx="445.8" cy="377.3" r="2.6" fill="#000000"/>
<circle cx="460.6" cy="692.6" r="2.8" fill="#8B4513"/>
<circle cx="460.6" cy="431.5" r="2.6" fill="#ff8c00"/>
<circle cx="460.6" cy="416.0" r="2.6" fill="#1a9a1a"/>
<circle cx="460.6" cy="399.5" r="2.6" fill="#2a52be"/>
<circle cx="460.6" cy="364.5" r="2.6" fill="#000000"/>
<circle cx="475.7" cy="658.0" r="2.8" fill="#8B4513"/>
<circle cx="475.7" cy="418.6" r="2.6" fill="#ff8c00"/>
<circle cx="475.7" cy="404.4" r="2.6" fill="#1a9a1a"/>
<circle cx="475.7" cy="389.3" r="2.6" fill="#2a52be"/>
<circle cx="475.7" cy="354.3" r="2.6" fill="#000000"/>
<circle cx="490.1" cy="624.9" r="2.8" fill="#8B4513"/>
<circle cx="490.1" cy="403.7" r="2.6" fill="#ff8c00"/>
<circle cx="490.1" cy="390.5" r="2.6" fill="#1a9a1a"/>
<circle cx="490.1" cy="376.6" r="2.6" fill="#2a52be"/>
<circle cx="490.1" cy="341.6" r="2.6" fill="#000000"/>
<circle cx="504.0" cy="593.0" r="2.8" fill="#8B4513"/>
<circle cx="504.0" cy="388.2" r="2.6" fill="#ff8c00"/>
<circle cx="504.0" cy="376.0" r="2.6" fill="#1a9a1a"/>
<circle cx="504.0" cy="363.1" r="2.6" fill="#2a52be"/>
<circle cx="504.0" cy="328.1" r="2.6" fill="#000000"/>
<circle cx="517.4" cy="562.2" r="2.8" fill="#8B4513"/>
<circle cx="517.4" cy="378.6" r="2.6" fill="#ff8c00"/>
<circle cx="517.4" cy="367.8" r="2.6" fill="#1a9a1a"/>
<circle cx="517.4" cy="356.1" r="2.6" fill="#2a52be"/>
<circle cx="517.4" cy="321.1" r="2.6" fill="#000000"/>
<circle cx="530.8" cy="531.4" r="2.8" fill="#8B4513"/>
<circle cx="530.8" cy="365.4" r="2.6" fill="#ff8c00"/>
<circle cx="530.8" cy="355.5" r="2.6" fill="#1a9a1a"/>
<circle cx="530.8" cy="345.1" r="2.6" fill="#2a52be"/>
<circle cx="530.8" cy="310.1" r="2.6" fill="#000000"/>
<circle cx="543.4" cy="502.5" r="2.8" fill="#8B4513"/>
<circle cx="543.4" cy="339.2" r="2.6" fill="#ff8c00"/>
<circle cx="543.4" cy="329.6" r="2.6" fill="#1a9a1a"/>
<circle cx="543.4" cy="319.3" r="2.6" fill="#2a52be"/>
<circle cx="543.4" cy="284.3" r="2.6" fill="#000000"/>
<circle cx="556.0" cy="473.7" r="2.8" fill="#8B4513"/>
<circle cx="556.0" cy="316.5" r="2.6" fill="#ff8c00"/>
<circle cx="556.0" cy="307.2" r="2.6" fill="#1a9a1a"/>
<circle cx="556.0" cy="297.2" r="2.6" fill="#2a52be"/>
<circle cx="556.0" cy="262.2" r="2.6" fill="#000000"/>
<circle cx="568.6" cy="444.8" r="2.8" fill="#8B4513"/>
<circle cx="568.6" cy="296.1" r="2.6" fill="#ff8c00"/>
<circle cx="568.6" cy="287.3" r="2.6" fill="#1a9a1a"/>
<circle cx="568.6" cy="278.0" r="2.6" fill="#2a52be"/>
<circle cx="568.6" cy="243.0" r="2.6" fill="#000000"/>
<circle cx="581.2" cy="415.9" r="2.8" fill="#8B4513"/>
<circle cx="581.2" cy="274.0" r="2.6" fill="#ff8c00"/>
<circle cx="581.2" cy="265.5" r="2.6" fill="#1a9a1a"/>
<circle cx="581.2" cy="256.6" r="2.6" fill="#2a52be"/>
<circle cx="581.2" cy="221.6" r="2.6" fill="#000000"/>
<circle cx="593.7" cy="387.0" r="2.8" fill="#8B4513"/>
<circle cx="593.7" cy="248.9" r="2.6" fill="#ff8c00"/>
<circle cx="593.7" cy="240.8" r="2.6" fill="#1a9a1a"/>
<circle cx="593.7" cy="232.1" r="2.6" fill="#2a52be"/>
<circle cx="593.7" cy="197.1" r="2.6" fill="#000000"/>
<circle cx="606.3" cy="358.1" r="2.8" fill="#8B4513"/>
<circle cx="606.3" cy="235.5" r="2.6" fill="#ff8c00"/>
<circle cx="606.3" cy="228.3" r="2.6" fill="#1a9a1a"/>
<circle cx="606.3" cy="220.5" r="2.6" fill="#2a52be"/>
<circle cx="606.3" cy="185.5" r="2.6" fill="#000000"/>
<circle cx="618.5" cy="330.1" r="2.8" fill="#8B4513"/>
<circle cx="618.5" cy="221.1" r="2.6" fill="#ff8c00"/>
<circle cx="618.5" cy="214.7" r="2.6" fill="#1a9a1a"/>
<circle cx="618.5" cy="207.8" r="2.6" fill="#2a52be"/>
<circle cx="618.5" cy="172.8" r="2.6" fill="#000000"/>
<circle cx="630.7" cy="302.1" r="2.8" fill="#8B4513"/>
<circle cx="630.7" cy="201.6" r="2.6" fill="#ff8c00"/>
<circle cx="630.7" cy="195.6" r="2.6" fill="#1a9a1a"/>
<circle cx="630.7" cy="189.2" r="2.6" fill="#2a52be"/>
<circle cx="630.7" cy="154.2" r="2.6" fill="#000000"/>
<circle cx="642.9" cy="274.1" r="2.8" fill="#8B4513"/>
<circle cx="642.9" cy="184.1" r="2.6" fill="#ff8c00"/>
<circle cx="642.9" cy="178.7" r="2.6" fill="#1a9a1a"/>
<circle cx="642.9" cy="173.1" r="2.6" fill="#2a52be"/>
<circle cx="642.9" cy="138.1" r="2.6" fill="#000000"/>
<circle cx="652.9" cy="50" r="6" fill="#8B4513"/><text x="665.9" y="55" font-size="15" fill="#8B4513">G grommet</text>
<circle cx="652.9" cy="72" r="6" fill="#ff8c00"/><text x="665.9" y="77" font-size="15" fill="#ff8c00">S sharp</text>
<circle cx="652.9" cy="94" r="6" fill="#1a9a1a"/><text x="665.9" y="99" font-size="15" fill="#1a9a1a">N natural</text>
<circle cx="652.9" cy="116" r="6" fill="#2a52be"/><text x="665.9" y="121" font-size="15" fill="#2a52be">F flat pin</text>
<circle cx="652.9" cy="138" r="6" fill="#000000"/><text x="665.9" y="143" font-size="15" fill="#000000">T tuner</text>
<circle cx="652.9" cy="160" r="6" fill="#7b2fbe"/><text x="665.9" y="165" font-size="15" fill="#7b2fbe">U neck top</text>
<circle cx="652.9" cy="182" r="6" fill="#1a9a1a"/><text x="665.9" y="187" font-size="15" fill="#1a9a1a">L neck bot</text>
</svg>