0
SECTION
2
ENTITIES
0
LWPOLYLINE
8
PROFILE_OUTER
90
1676
70
1
10
803.94
20
1974.81
10
760.98
20
1980.88
10
717.23
20
1986.24
10
673.58
20
1981.95
10
673.70
20
1977.31
10
673.93
20
1973.91
10
674.27
20
1966.94
10
674.50
20
1961.40
10
674.62
20
1948.54
10
674.85
20
1936.21
10
674.96
20
1923.70
10
675.19
20
1911.55
10
675.42
20
1899.40
10
675.65
20
1888.50
10
675.88
20
1877.60
10
676.11
20
1873.67
10
676.11
20
1869.74
10
676.00
20
1866.17
10
675.77
20
1861.70
10
675.31
20
1857.23
10
674.62
20
1855.27
10
674.04
20
1852.94
10
673.36
20
1850.98
10
672.67
20
1849.19
10
671.98
20
1847.23
10
671.29
20
1845.44
10
670.60
20
1843.65
10
670.02
20
1841.87
10
669.45
20
1840.08
10
668.88
20
1838.29
10
668.30
20
1836.50
10
667.73
20
1834.72
10
667.15
20
1832.93
10
666.58
20
1831.14
10
666.00
20
1829.36
10
665.43
20
1827.75
10
664.86
20
1826.14
10
664.28
20
1824.53
10
663.82
20
1822.93
10
663.25
20
1821.85
10
662.79
20
1820.24
10
662.33
20
1818.46
10
661.64
20
1817.03
10
661.07
20
1815.60
10
660.49
20
1813.99
10
659.92
20
1812.03
10
659.34
20
1810.06
10
658.65
20
1808.81
10
658.08
20
1807.20
10
657.62
20
1805.41
10
656.93
20
1803.81
10
656.36
20
1801.48
10
655.67
20
1799.52
10
654.75
20
1797.73
10
653.95
20
1795.77
10
653.03
20
1794.16
10
652.22
20
1792.37
10
651.53
20
1790.40
10
650.73
20
1789.33
10
650.04
20
1787.72
10
649.58
20
1785.94
10
648.89
20
1784.33
10
648.32
20
1782.19
10
647.63
20
1780.22
10
646.83
20
1778.43
10
646.14
20
1776.29
10
645.33
20
1774.68
10
644.53
20
1773.25
10
643.95
20
1771.64
10
643.26
20
1770.57
10
642.69
20
1768.96
10
642.23
20
1767.18
10
641.54
20
1765.75
10
640.85
20
1764.32
10
640.28
20
1762.35
10
639.59
20
1760.39
10
638.79
20
1758.60
10
637.98
20
1756.81
10
637.18
20
1755.03
10
636.37
20
1753.24
10
635.68
20
1750.92
10
634.88
20
1748.95
10
633.96
20
1747.16
10
633.27
20
1745.02
10
632.47
20
1743.41
10
631.78
20
1741.80
10
631.21
20
1740.02
10
630.52
20
1738.94
10
629.94
20
1737.34
10
629.48
20
1735.55
10
628.79
20
1734.12
10
628.22
20
1732.15
10
627.53
20
1730.19
10
626.73
20
1728.40
10
626.04
20
1726.08
10
625.23
20
1724.29
10
624.43
20
1722.68
10
623.74
20
1720.90
10
623.05
20
1719.11
10
622.36
20
1717.32
10
621.56
20
1715.54
10
620.75
20
1713.57
10
619.95
20
1711.61
10
619.03
20
1709.64
10
618.23
20
1707.32
10
617.31
20
1705.53
10
616.28
20
1703.92
10
615.59
20
1701.42
10
614.78
20
1699.46
10
613.75
20
1697.67
10
612.95
20
1695.70
10
612.03
20
1694.09
10
611.22
20
1692.31
10
610.53
20
1690.34
10
609.73
20
1689.27
10
609.04
20
1687.66
10
608.58
20
1685.88
10
607.89
20
1684.27
10
607.32
20
1681.94
10
606.63
20
1679.80
10
605.82
20
1677.83
10
605.02
20
1675.69
10
604.10
20
1674.26
10
603.30
20
1672.47
10
602.61
20
1670.51
10
601.80
20
1669.44
10
601.12
20
1667.83
10
600.54
20
1666.04
10
599.85
20
1664.43
10
599.28
20
1662.11
10
598.59
20
1660.14
10
597.79
20
1658.36
10
597.10
20
1656.21
10
596.29
20
1654.61
10
595.49
20
1653.18
10
594.91
20
1651.57
10
594.22
20
1650.50
10
593.65
20
1648.89
10
593.19
20
1647.10
10
592.50
20
1645.67
10
591.81
20
1644.24
10
591.24
20
1642.28
10
590.55
20
1640.31
10
589.86
20
1638.52
10
589.17
20
1636.92
10
588.48
20
1635.31
10
587.79
20
1633.70
10
587.22
20
1631.38
10
586.53
20
1629.41
10
585.73
20
1627.62
10
585.04
20
1625.66
10
584.23
20
1624.05
10
583.43
20
1622.62
10
582.85
20
1620.83
10
582.17
20
1619.76
10
581.48
20
1618.87
10
581.02
20
1617.26
10
580.44
20
1615.65
10
579.75
20
1614.22
10
579.18
20
1612.08
10
578.49
20
1610.11
10
577.69
20
1608.33
10
577.00
20
1606.18
10
576.19
20
1604.57
10
575.39
20
1603.14
10
574.82
20
1601.54
10
574.13
20
1600.46
10
573.55
20
1598.86
10
573.09
20
1597.07
10
572.29
20
1595.64
10
571.60
20
1593.67
10
570.91
20
1591.53
10
569.99
20
1589.56
10
569.19
20
1587.24
10
568.27
20
1585.46
10
567.35
20
1583.85
10
566.66
20
1582.06
10
565.97
20
1580.27
10
565.28
20
1578.49
10
564.59
20
1576.70
10
563.90
20
1575.27
10
563.22
20
1573.84
10
562.64
20
1572.05
10
562.07
20
1570.27
10
561.26
20
1569.20
10
560.57
20
1567.77
10
560.00
20
1566.16
10
559.31
20
1564.73
10
558.74
20
1563.30
10
558.05
20
1562.05
10
557.47
20
1560.26
10
557.01
20
1558.30
10
556.32
20
1556.87
10
555.64
20
1555.44
10
555.06
20
1553.47
10
554.37
20
1551.51
10
553.57
20
1549.72
10
552.76
20
1548.11
10
551.96
20
1546.50
10
551.27
20
1544.89
10
550.58
20
1543.29
10
549.89
20
1541.50
10
549.20
20
1539.71
10
548.52
20
1537.93
10
547.83
20
1536.50
10
547.14
20
1535.07
10
546.56
20
1533.28
10
545.99
20
1531.49
10
545.30
20
1530.42
10
544.73
20
1528.99
10
544.27
20
1527.38
10
543.58
20
1525.95
10
542.89
20
1524.52
10
542.20
20
1522.74
10
541.51
20
1520.95
10
540.71
20
1519.16
10
539.90
20
1517.73
10
539.10
20
1516.30
10
538.52
20
1514.52
10
537.95
20
1512.73
10
537.26
20
1511.66
10
536.69
20
1510.05
10
536.23
20
1508.26
10
535.42
20
1506.66
10
534.73
20
1504.51
10
533.93
20
1502.55
10
533.01
20
1500.76
10
532.21
20
1498.62
10
531.29
20
1497.01
10
530.37
20
1495.58
10
529.79
20
1493.97
10
529.11
20
1492.90
10
528.53
20
1491.29
10
528.07
20
1489.50
10
527.38
20
1488.07
10
526.69
20
1486.64
10
526.12
20
1484.68
10
525.43
20
1482.71
10
524.74
20
1480.93
10
524.05
20
1479.32
10
523.36
20
1477.71
10
522.67
20
1476.10
10
521.99
20
1474.49
10
521.30
20
1472.71
10
520.61
20
1470.92
10
519.80
20
1469.13
10
518.88
20
1467.70
10
518.08
20
1465.92
10
517.39
20
1463.95
10
516.70
20
1462.16
10
516.01
20
1460.56
10
515.32
20
1458.95
10
514.63
20
1457.34
10
513.95
20
1455.73
10
513.26
20
1453.94
10
512.57
20
1452.16
10
511.76
20
1450.37
10
510.84
20
1448.94
10
510.04
20
1446.98
10
509.35
20
1444.83
10
508.55
20
1442.87
10
507.74
20
1441.26
10
506.94
20
1439.65
10
506.25
20
1438.04
10
505.68
20
1436.43
10
504.99
20
1435.36
10
504.41
20
1433.75
10
503.95
20
1431.97
10
503.15
20
1430.54
10
502.46
20
1428.57
10
501.77
20
1426.43
10
500.85
20
1424.46
10
500.05
20
1422.50
10
499.13
20
1421.07
10
498.21
20
1419.82
10
497.64
20
1418.21
10
496.95
20
1417.14
10
496.26
20
1416.24
10
495.80
20
1414.81
10
495.23
20
1413.38
10
494.54
20
1412.13
10
493.96
20
1409.99
10
493.27
20
1408.02
10
492.35
20
1406.24
10
491.44
20
1404.27
10
490.52
20
1402.31
10
489.60
20
1400.34
10
488.79
20
1398.37
10
487.99
20
1396.77
10
487.19
20
1395.16
10
486.50
20
1393.55
10
485.81
20
1391.94
10
485.12
20
1390.15
10
484.43
20
1388.37
10
483.51
20
1386.58
10
482.59
20
1384.62
10
481.67
20
1382.65
10
480.75
20
1380.68
10
479.95
20
1378.54
10
479.03
20
1376.93
10
478.11
20
1375.50
10
477.54
20
1373.89
10
476.85
20
1372.82
10
476.16
20
1371.93
10
475.70
20
1370.32
10
475.13
20
1368.89
10
474.44
20
1367.64
10
473.86
20
1365.67
10
473.17
20
1363.71
10
472.26
20
1361.92
10
471.45
20
1359.96
10
470.53
20
1358.53
10
469.73
20
1356.92
10
469.04
20
1355.13
10
468.12
20
1354.06
10
467.32
20
1352.63
10
466.74
20
1351.02
10
466.05
20
1349.59
10
465.37
20
1348.16
10
464.68
20
1346.38
10
463.99
20
1344.59
10
463.18
20
1342.80
10
462.38
20
1340.84
10
461.58
20
1338.87
10
460.66
20
1336.91
10
459.85
20
1334.76
10
458.93
20
1333.15
10
458.01
20
1331.73
10
457.44
20
1330.12
10
456.75
20
1329.04
10
456.06
20
1328.15
10
455.60
20
1326.54
10
455.03
20
1325.11
10
454.22
20
1323.86
10
453.54
20
1321.72
10
452.73
20
1319.57
10
451.81
20
1317.61
10
450.89
20
1315.47
10
449.86
20
1314.04
10
448.94
20
1312.25
10
448.25
20
1310.28
10
447.45
20
1309.21
10
446.76
20
1307.96
10
446.19
20
1306.53
10
445.50
20
1305.28
10
444.92
20
1303.85
10
444.23
20
1302.78
10
443.66
20
1301.17
10
443.08
20
1299.38
10
442.17
20
1297.95
10
441.36
20
1295.99
10
440.67
20
1293.84
10
439.75
20
1291.88
10
438.95
20
1289.91
10
438.03
20
1288.48
10
437.11
20
1287.23
10
436.54
20
1285.62
10
435.85
20
1284.55
10
435.27
20
1282.94
10
434.82
20
1281.16
10
434.01
20
1279.55
10
433.32
20
1277.41
10
432.63
20
1275.08
10
431.60
20
1273.12
10
430.68
20
1271.15
10
429.65
20
1269.72
10
428.73
20
1268.11
10
428.04
20
1266.33
10
427.24
20
1265.26
10
426.55
20
1264.00
10
426.09
20
1262.57
10
425.40
20
1261.32
10
424.82
20
1260.07
10
424.13
20
1259.00
10
423.56
20
1257.39
10
422.99
20
1255.61
10
422.07
20
1254.18
10
421.26
20
1252.21
10
420.57
20
1250.07
10
419.66
20
1248.10
10
418.85
20
1246.14
10
417.93
20
1244.71
10
417.01
20
1243.46
10
416.44
20
1241.85
10
415.75
20
1240.78
10
415.06
20
1239.88
10
414.60
20
1238.45
10
414.03
20
1237.02
10
413.34
20
1235.77
10
412.65
20
1234.34
10
411.96
20
1232.56
10
411.27
20
1230.77
10
410.47
20
1228.98
10
409.55
20
1227.55
10
408.74
20
1225.77
10
408.06
20
1223.80
10
407.25
20
1222.01
10
406.45
20
1220.58
10
405.64
20
1219.15
10
404.95
20
1217.73
10
404.38
20
1216.30
10
403.69
20
1215.22
10
403.00
20
1214.33
10
402.54
20
1212.72
10
401.97
20
1211.29
10
401.16
20
1210.04
10
400.48
20
1208.08
10
399.67
20
1206.11
10
398.75
20
1204.32
10
397.95
20
1202.36
10
397.03
20
1200.93
10
396.23
20
1199.14
10
395.65
20
1197.18
10
394.85
20
1195.93
10
394.16
20
1194.68
10
393.58
20
1193.25
10
392.90
20
1191.99
10
392.32
20
1190.57
10
391.63
20
1189.49
10
390.94
20
1188.60
10
390.48
20
1187.17
10
389.91
20
1185.74
10
389.22
20
1184.49
10
388.53
20
1183.06
10
387.84
20
1181.27
10
387.15
20
1179.49
10
386.35
20
1177.70
10
385.43
20
1176.27
10
384.63
20
1174.48
10
383.94
20
1172.52
10
383.13
20
1170.73
10
382.33
20
1169.30
10
381.53
20
1167.87
10
380.84
20
1166.44
10
380.26
20
1165.01
10
379.57
20
1163.94
10
378.88
20
1163.05
10
378.42
20
1161.44
10
377.85
20
1160.01
10
377.16
20
1158.76
10
376.59
20
1156.79
10
375.90
20
1154.83
10
374.98
20
1153.04
10
374.18
20
1151.08
10
373.26
20
1149.65
10
372.34
20
1148.40
10
371.65
20
1146.79
10
370.84
20
1145.72
10
370.16
20
1144.29
10
369.70
20
1142.68
10
368.89
20
1141.25
10
368.20
20
1139.10
10
367.51
20
1136.78
10
366.48
20
1134.82
10
365.45
20
1132.85
10
364.41
20
1130.89
10
363.38
20
1128.92
10
362.58
20
1126.95
10
361.77
20
1125.52
10
360.97
20
1124.10
10
360.28
20
1122.67
10
359.70
20
1121.24
10
359.02
20
1120.16
10
358.44
20
1118.56
10
357.87
20
1116.77
10
357.06
20
1115.34
10
356.26
20
1113.91
10
355.68
20
1111.94
10
355.00
20
1109.98
10
354.19
20
1108.19
10
353.39
20
1106.76
10
352.58
20
1105.33
10
351.89
20
1103.90
10
351.32
20
1102.47
10
350.63
20
1101.40
10
350.06
20
1099.79
10
349.60
20
1098.01
10
348.79
20
1096.58
10
348.11
20
1094.61
10
347.42
20
1092.47
10
346.38
20
1090.50
10
345.46
20
1088.54
10
344.43
20
1087.11
10
343.51
20
1085.50
10
342.82
20
1083.71
10
342.02
20
1082.64
10
341.33
20
1081.21
10
340.87
20
1079.60
10
340.18
20
1078.17
10
339.49
20
1076.74
10
338.80
20
1074.78
10
338.11
20
1072.81
10
337.31
20
1070.85
10
336.39
20
1069.24
10
335.59
20
1067.27
10
334.90
20
1065.13
10
334.09
20
1063.16
10
333.29
20
1061.74
10
332.49
20
1060.31
10
331.80
20
1058.88
10
331.22
20
1057.45
10
330.53
20
1056.37
10
329.96
20
1054.77
10
329.50
20
1052.98
10
328.70
20
1051.55
10
328.01
20
1049.58
10
327.32
20
1047.44
10
326.40
20
1045.47
10
325.59
20
1043.51
10
324.68
20
1042.08
10
323.76
20
1040.83
10
323.18
20
1039.22
10
322.49
20
1038.15
10
321.80
20
1037.26
10
321.35
20
1035.65
10
320.77
20
1034.04
10
320.08
20
1032.61
10
319.51
20
1030.47
10
318.82
20
1028.50
10
318.01
20
1026.71
10
317.33
20
1024.57
10
316.52
20
1022.96
10
315.72
20
1021.53
10
315.14
20
1019.92
10
314.45
20
1018.85
10
313.77
20
1017.96
10
313.31
20
1016.35
10
312.73
20
1014.92
10
312.04
20
1013.67
10
311.47
20
1011.70
10
310.78
20
1009.74
10
309.86
20
1007.95
10
309.06
20
1005.99
10
308.14
20
1004.56
10
307.33
20
1002.95
10
306.64
20
1001.16
10
305.84
20
1000.09
10
305.15
20
998.66
10
304.69
20
997.05
10
304.00
20
995.62
10
303.31
20
994.19
10
302.63
20
992.41
10
301.94
20
990.62
10
301.13
20
988.83
10
300.33
20
987.40
10
299.52
20
985.97
10
298.95
20
984.19
10
298.38
20
982.40
10
297.57
20
981.33
10
296.88
20
979.90
10
296.31
20
978.29
10
295.62
20
976.86
10
294.93
20
975.43
10
294.24
20
973.64
10
293.55
20
971.86
10
292.75
20
970.07
10
291.83
20
968.64
10
291.03
20
966.85
10
290.22
20
964.89
10
289.42
20
963.10
10
288.61
20
961.49
10
287.81
20
959.89
10
287.12
20
958.28
10
286.43
20
956.67
10
285.74
20
954.70
10
285.05
20
952.74
10
284.13
20
950.77
10
283.22
20
948.63
10
282.30
20
946.48
10
281.38
20
944.34
10
280.57
20
942.20
10
279.66
20
940.77
10
278.74
20
939.52
10
278.16
20
937.91
10
277.47
20
936.84
10
276.90
20
935.41
10
276.44
20
933.80
10
275.64
20
932.37
10
274.95
20
930.22
10
274.26
20
927.90
10
273.34
20
925.94
10
272.53
20
923.97
10
271.62
20
922.36
10
270.70
20
920.93
10
270.12
20
919.15
10
269.43
20
918.07
10
268.74
20
917.18
10
268.29
20
915.75
10
267.71
20
914.32
10
267.02
20
913.07
10
266.45
20
910.93
10
265.76
20
908.96
10
264.84
20
907.17
10
264.04
20
905.21
10
263.12
20
903.60
10
262.31
20
901.81
10
261.62
20
899.85
10
260.82
20
898.78
10
260.13
20
897.35
10
259.67
20
895.74
10
258.98
20
894.31
10
258.29
20
892.88
10
257.60
20
891.09
10
256.92
20
889.31
10
256.11
20
887.52
10
255.19
20
886.09
10
254.39
20
884.30
10
253.70
20
882.34
10
252.90
20
880.55
10
252.09
20
879.12
10
251.29
20
877.69
10
250.60
20
876.26
10
250.02
20
874.83
10
249.34
20
873.76
10
248.76
20
872.15
10
248.30
20
870.37
10
247.50
20
868.94
10
246.81
20
866.97
10
246.12
20
864.83
10
245.20
20
862.86
10
244.40
20
860.72
10
243.48
20
859.11
10
242.56
20
857.68
10
241.99
20
856.07
10
241.30
20
855.00
10
240.61
20
854.11
10
240.15
20
852.50
10
239.57
20
851.07
10
238.88
20
849.82
10
238.31
20
847.85
10
237.62
20
845.89
10
236.82
20
844.10
10
236.13
20
841.95
10
235.32
20
840.35
10
234.52
20
838.92
10
233.95
20
837.31
10
233.26
20
836.24
10
232.57
20
835.34
10
232.11
20
833.74
10
231.53
20
832.31
10
230.84
20
831.06
10
230.27
20
828.91
10
229.58
20
826.77
10
228.66
20
824.80
10
227.86
20
822.66
10
226.94
20
821.05
10
226.14
20
819.26
10
225.45
20
817.30
10
224.64
20
816.22
10
223.95
20
814.79
10
223.49
20
813.19
10
222.81
20
811.76
10
222.12
20
810.33
10
221.43
20
808.54
10
220.74
20
806.75
10
219.93
20
804.97
10
219.13
20
803.54
10
218.33
20
802.11
10
217.75
20
800.32
10
217.18
20
798.53
10
216.49
20
797.46
10
215.91
20
796.03
10
215.46
20
794.43
10
214.77
20
793.00
10
214.08
20
791.57
10
213.39
20
789.78
10
212.70
20
787.99
10
211.89
20
786.21
10
210.98
20
784.78
10
210.06
20
783.53
10
209.37
20
781.74
10
208.68
20
779.95
10
207.88
20
778.88
10
207.19
20
777.45
10
206.61
20
775.84
10
205.92
20
774.41
10
205.35
20
772.09
10
204.66
20
770.12
10
203.74
20
768.34
10
202.82
20
766.37
10
201.90
20
764.41
10
200.98
20
762.44
10
200.07
20
760.48
10
199.15
20
759.05
10
198.23
20
757.62
10
197.54
20
756.19
10
196.96
20
754.76
10
196.28
20
753.69
10
195.70
20
752.08
10
195.24
20
750.29
10
194.44
20
748.86
10
193.75
20
746.90
10
193.06
20
744.75
10
192.14
20
742.79
10
191.34
20
740.82
10
190.42
20
739.39
10
189.50
20
738.14
10
188.93
20
736.53
10
188.24
20
735.46
10
187.55
20
734.57
10
187.09
20
733.14
10
186.51
20
731.71
10
185.82
20
730.46
10
185.14
20
729.03
10
184.45
20
727.24
10
183.76
20
725.45
10
182.84
20
723.67
10
181.92
20
721.70
10
181.00
20
719.74
10
180.08
20
717.77
10
179.28
20
715.63
10
178.36
20
714.02
10
177.44
20
712.59
10
176.87
20
710.98
10
176.18
20
709.91
10
175.49
20
709.01
10
175.03
20
707.59
10
174.45
20
706.33
10
173.77
20
705.26
10
173.19
20
704.01
10
172.50
20
702.76
10
171.93
20
700.97
10
171.35
20
699.01
10
170.43
20
697.58
10
169.63
20
695.61
10
168.94
20
693.47
10
167.91
20
691.50
10
166.87
20
689.54
10
165.84
20
687.75
10
164.81
20
685.96
10
163.89
20
684.18
10
162.97
20
682.75
10
162.05
20
681.32
10
161.36
20
679.89
10
160.79
20
678.46
10
160.10
20
677.39
10
159.41
20
676.49
10
158.95
20
675.06
10
158.38
20
673.81
10
157.69
20
672.74
10
157.00
20
671.49
10
156.31
20
669.70
10
155.62
20
667.92
10
154.70
20
666.13
10
153.78
20
664.17
10
152.86
20
662.20
10
151.71
20
660.23
10
150.68
20
657.73
10
149.53
20
655.77
10
148.15
20
653.98
10
147.12
20
652.01
10
145.97
20
650.59
10
144.94
20
648.98
10
144.25
20
647.19
10
143.45
20
646.12
10
142.76
20
644.69
10
142.30
20
643.08
10
141.61
20
641.65
10
140.92
20
640.22
10
140.23
20
638.43
10
139.54
20
636.65
10
138.51
20
634.86
10
137.47
20
632.90
10
136.44
20
630.93
10
135.41
20
628.96
10
134.49
20
627.00
10
133.45
20
625.57
10
132.53
20
623.96
10
131.96
20
622.17
10
131.16
20
621.10
10
130.47
20
619.85
10
129.89
20
618.42
10
129.09
20
617.17
10
128.40
20
615.92
10
127.60
20
614.85
10
126.91
20
613.24
10
126.33
20
611.45
10
125.41
20
610.02
10
124.61
20
608.06
10
123.92
20
605.91
10
122.89
20
603.95
10
121.85
20
601.98
10
120.82
20
600.20
10
119.79
20
598.41
10
118.87
20
596.62
10
117.95
20
595.19
10
117.03
20
593.76
10
116.34
20
592.33
10
115.77
20
590.91
10
115.08
20
589.83
10
114.50
20
588.22
10
114.04
20
586.44
10
113.24
20
585.01
10
112.55
20
582.86
10
111.86
20
580.54
10
110.83
20
578.40
10
109.79
20
576.25
10
108.76
20
574.29
10
107.73
20
572.32
10
106.81
20
570.36
10
105.89
20
569.11
10
104.97
20
567.85
10
104.28
20
566.60
10
103.71
20
565.17
10
103.02
20
564.10
10
102.33
20
563.21
10
101.87
20
561.96
10
101.30
20
560.71
10
100.61
20
559.64
10
100.03
20
558.38
10
99.34
20
557.31
10
98.77
20
555.88
10
98.20
20
554.27
10
97.28
20
553.02
10
96.36
20
551.77
10
95.67
20
549.99
10
94.86
20
548.20
10
93.83
20
546.59
10
92.68
20
545.34
10
91.65
20
543.91
10
90.84
20
542.30
10
89.81
20
540.87
10
88.78
20
539.80
10
87.74
20
538.73
10
86.83
20
537.66
10
85.91
20
536.59
10
84.87
20
535.87
10
83.95
20
534.98
10
83.26
20
533.91
10
82.12
20
533.01
10
80.97
20
532.12
10
79.93
20
531.22
10
79.02
20
530.33
10
78.10
20
529.26
10
76.95
20
528.54
10
75.91
20
527.83
10
75.23
20
526.94
10
74.19
20
526.22
10
73.16
20
525.33
10
71.89
20
524.61
10
70.63
20
523.90
10
69.48
20
523.18
10
68.33
20
522.47
10
67.19
20
521.75
10
66.04
20
521.04
10
65.00
20
520.33
10
64.09
20
519.43
10
62.94
20
518.72
10
61.79
20
517.82
10
60.64
20
516.93
10
59.49
20
516.04
10
58.34
20
515.14
10
57.19
20
514.25
10
56.05
20
513.36
10
54.67
20
512.46
10
53.40
20
511.39
10
52.03
20
510.32
10
50.30
20
509.43
10
49.04
20
508.35
10
47.66
20
507.28
10
45.94
20
506.39
10
44.79
20
505.14
10
43.53
20
504.07
10
41.92
20
503.17
10
40.77
20
502.10
10
39.51
20
501.03
10
37.90
20
500.13
10
36.75
20
498.88
10
35.49
20
497.81
10
33.88
20
496.92
10
32.73
20
495.85
10
31.47
20
494.77
10
30.21
20
493.88
10
29.40
20
492.81
10
28.48
20
491.91
10
27.45
20
491.20
10
26.87
20
490.13
10
26.19
20
489.06
10
25.27
20
488.16
10
24.35
20
487.09
10
23.43
20
485.66
10
22.51
20
484.23
10
21.48
20
482.80
10
20.33
20
481.55
10
19.29
20
479.94
10
18.49
20
478.16
10
17.46
20
476.55
10
16.31
20
475.30
10
15.27
20
473.69
10
14.47
20
471.90
10
13.55
20
470.29
10
12.63
20
468.69
10
11.71
20
467.08
10
11.03
20
465.47
10
10.34
20
463.86
10
9.65
20
461.90
10
8.96
20
459.93
10
7.47
20
457.96
10
5.97
20
442.42
10
5.63
20
427.05
10
5.51
20
411.51
10
5.51
20
395.43
10
5.63
20
380.06
10
6.32
20
364.87
10
8.15
20
349.50
10
9.99
20
347.54
10
11.26
20
345.57
10
12.52
20
343.61
10
13.78
20
342.00
10
15.16
20
340.57
10
16.19
20
338.96
10
17.23
20
337.53
10
18.38
20
336.64
10
19.52
20
335.75
10
20.67
20
334.85
10
21.82
20
333.96
10
23.20
20
333.07
10
24.69
20
331.99
10
26.42
20
330.92
10
28.14
20
329.85
10
29.86
20
328.78
10
31.58
20
327.70
10
33.77
20
326.99
10
35.60
20
326.10
10
37.21
20
325.38
10
38.93
20
324.67
10
40.66
20
323.95
10
42.49
20
323.24
10
44.33
20
322.52
10
46.74
20
321.81
10
49.16
20
321.09
10
52.03
20
320.56
10
54.55
20
319.84
10
58.00
20
319.31
10
60.98
20
318.59
10
68.33
20
318.06
10
74.77
20
317.70
10
82.12
20
317.52
10
89.12
20
317.52
10
96.47
20
317.70
10
102.90
20
318.06
10
109.68
20
318.59
10
112.09
20
319.31
10
115.19
20
319.84
10
117.37
20
320.56
10
119.56
20
321.09
10
121.39
20
321.81
10
123.58
20
322.34
10
125.30
20
323.06
10
127.02
20
323.77
10
128.52
20
324.49
10
130.01
20
325.20
10
131.96
20
325.92
10
133.80
20
326.63
10
135.29
20
327.53
10
137.13
20
328.24
10
138.97
20
328.96
10
140.69
20
329.67
10
142.30
20
330.39
10
143.45
20
331.28
10
145.05
20
331.99
10
146.78
20
332.89
10
148.50
20
333.78
10
150.11
20
334.67
10
151.37
20
335.75
10
153.09
20
336.64
10
154.70
20
337.53
10
155.96
20
338.60
10
157.11
20
339.32
10
158.03
20
340.21
10
159.18
20
340.93
10
160.21
20
341.64
10
160.90
20
342.54
10
162.05
20
343.25
10
163.08
20
343.96
10
164.12
20
344.86
10
165.27
20
345.57
10
166.30
20
346.47
10
167.45
20
347.18
10
168.48
20
347.90
10
169.17
20
348.79
10
170.32
20
349.50
10
171.35
20
350.22
10
172.27
20
351.11
10
173.31
20
351.83
10
174.34
20
352.72
10
175.49
20
353.44
10
176.52
20
354.33
10
177.21
20
355.40
10
178.36
20
356.29
10
179.51
20
357.19
10
180.54
20
358.08
10
181.46
20
358.97
10
182.38
20
360.05
10
183.53
20
360.76
10
184.56
20
361.65
10
185.25
20
362.73
10
186.40
20
363.62
10
187.43
20
364.87
10
188.58
20
366.12
10
189.96
20
367.19
10
191.11
20
368.44
10
192.37
20
369.52
10
193.86
20
370.41
10
194.90
20
371.48
10
195.93
20
372.55
10
196.96
20
373.63
10
198.11
20
374.70
10
199.38
20
375.77
10
200.64
20
376.66
10
201.56
20
377.74
10
202.48
20
378.81
10
203.63
20
379.52
10
204.66
20
380.42
10
205.35
20
381.49
10
206.38
20
382.38
10
207.30
20
383.81
10
208.33
20
385.24
10
209.83
20
386.49
10
211.21
20
387.92
10
212.70
20
388.99
10
214.08
20
390.07
10
215.11
20
391.32
10
216.37
20
392.03
10
217.52
20
392.92
10
218.21
20
394.00
10
219.25
20
394.89
10
220.16
20
396.14
10
221.20
20
397.39
10
222.58
20
398.46
10
223.72
20
399.71
10
224.99
20
400.79
10
226.37
20
401.68
10
227.40
20
402.75
10
228.55
20
403.47
10
229.58
20
404.54
10
230.27
20
405.79
10
231.42
20
406.86
10
232.45
20
408.11
10
233.37
20
409.54
10
234.63
20
410.79
10
235.78
20
412.22
10
237.05
20
413.29
10
238.42
20
414.19
10
239.34
20
415.26
10
240.38
20
416.15
10
241.41
20
416.87
10
241.99
20
417.94
10
242.67
20
419.01
10
243.71
20
419.91
10
244.51
20
421.33
10
245.43
20
422.76
10
246.69
20
424.02
10
247.96
20
425.44
10
249.34
20
426.52
10
250.60
20
427.77
10
251.52
20
429.20
10
252.67
20
430.09
10
253.70
20
430.98
10
254.39
20
432.06
10
255.31
20
432.95
10
256.23
20
434.02
10
257.15
20
435.09
10
258.06
20
436.17
10
259.21
20
437.24
10
260.48
20
438.31
10
261.74
20
439.20
10
262.66
20
440.45
10
263.58
20
441.70
10
264.73
20
442.60
10
265.76
20
443.49
10
266.45
20
444.56
10
267.48
20
445.46
10
268.40
20
446.89
10
269.43
20
448.14
10
270.81
20
449.21
10
271.96
20
450.46
10
273.22
20
451.71
10
274.49
20
452.78
10
275.29
20
454.03
10
276.21
20
454.93
10
277.24
20
455.64
10
277.82
20
456.71
10
278.51
20
457.79
10
279.54
20
458.68
10
280.46
20
459.93
10
281.49
20
461.18
10
282.87
20
462.25
10
284.02
20
463.50
10
285.28
20
464.58
10
286.78
20
465.47
10
287.92
20
466.54
10
289.07
20
467.44
10
290.22
20
468.33
10
291.48
20
469.22
10
292.75
20
470.12
10
294.01
20
471.01
10
295.05
20
471.90
10
296.08
20
472.80
10
297.34
20
473.51
10
298.49
20
474.22
10
299.18
20
475.12
10
300.33
20
475.83
10
301.36
20
476.55
10
302.40
20
477.44
10
303.43
20
478.16
10
304.35
20
479.05
10
305.50
20
479.76
10
306.53
20
480.48
10
307.22
20
481.37
10
308.37
20
482.09
10
309.40
20
482.80
10
310.43
20
483.70
10
311.81
20
484.41
10
312.96
20
485.30
10
314.22
20
486.20
10
315.83
20
486.91
10
316.98
20
487.80
10
318.24
20
488.70
10
319.85
20
489.41
10
321.12
20
490.31
10
322.49
20
491.02
10
323.87
20
491.74
10
325.02
20
492.45
10
326.17
20
493.17
10
327.32
20
493.88
10
328.47
20
494.59
10
329.61
20
495.31
10
331.11
20
496.02
10
332.60
20
496.74
10
334.32
20
497.45
10
336.16
20
498.17
10
338.34
20
498.70
10
340.18
20
499.42
10
342.36
20
499.96
10
344.20
20
500.67
10
347.53
20
501.21
10
350.52
20
501.92
10
355.11
20
502.46
10
359.36
20
502.81
10
364.53
20
502.99
10
369.35
20
502.99
10
374.52
20
502.81
10
378.20
20
502.46
10
382.21
20
501.92
10
384.63
20
501.21
10
387.38
20
500.67
10
389.22
20
499.96
10
391.40
20
499.42
10
393.24
20
498.70
10
395.42
20
498.17
10
397.26
20
497.45
10
398.98
20
496.74
10
400.59
20
496.02
10
402.31
20
495.13
10
404.04
20
494.24
10
405.76
20
493.34
10
407.02
20
492.27
10
408.63
20
491.38
10
410.35
20
490.49
10
411.73
20
489.41
10
413.34
20
488.70
10
414.60
20
487.80
10
415.75
20
486.73
10
417.36
20
485.84
10
418.62
20
484.77
10
419.77
20
483.70
10
421.38
20
482.80
10
422.64
20
481.73
10
423.79
20
480.48
10
425.17
20
479.59
10
426.20
20
478.51
10
427.12
20
477.44
10
428.15
20
476.55
10
428.84
20
475.48
10
429.42
20
474.40
10
430.45
20
473.69
10
431.37
20
472.80
10
432.17
20
471.72
10
433.44
20
470.83
10
434.70
20
469.76
10
435.85
20
468.33
10
437.11
20
467.08
10
438.03
20
465.65
10
439.06
20
464.40
10
440.21
20
463.33
10
440.90
20
461.72
10
441.71
20
460.29
10
442.63
20
459.22
10
443.54
20
458.14
10
444.46
20
457.07
10
445.15
20
455.64
10
445.96
20
454.39
10
446.87
20
453.50
10
447.56
20
452.25
10
448.25
20
451.17
10
448.94
20
449.92
10
449.52
20
448.67
10
450.32
20
447.78
10
451.01
20
446.71
10
451.58
20
445.46
10
452.39
20
444.56
10
453.19
20
443.49
10
453.88
20
442.42
10
454.68
20
441.53
10
455.37
20
440.45
10
455.95
20
439.20
10
456.75
20
438.31
10
457.44
20
437.24
10
458.01
20
436.17
10
458.70
20
435.27
10
459.39
20
434.20
10
459.97
20
432.95
10
460.77
20
432.06
10
461.46
20
430.98
10
462.03
20
429.73
10
462.72
20
428.48
10
463.30
20
427.05
10
464.10
20
425.80
10
465.02
20
424.73
10
465.71
20
422.94
10
466.63
20
421.33
10
467.66
20
419.91
10
468.58
20
417.94
10
469.61
20
415.97
10
470.53
20
414.01
10
471.45
20
412.04
10
472.37
20
410.26
10
473.06
20
408.47
10
473.75
20
406.68
10
474.44
20
405.25
10
475.13
20
404.00
10
475.70
20
402.57
10
476.16
20
401.14
10
476.85
20
400.25
10
477.54
20
399.18
10
478.11
20
397.57
10
479.03
20
396.32
10
479.95
20
394.89
10
480.75
20
392.92
10
481.67
20
390.96
10
482.36
20
388.81
10
483.05
20
386.85
10
483.86
20
385.42
10
484.32
20
383.63
10
484.89
20
382.02
10
485.58
20
380.95
10
486.15
20
379.34
10
487.07
20
377.91
10
487.99
20
376.31
10
488.79
20
374.16
10
489.71
20
372.20
10
490.40
20
370.05
10
491.09
20
368.09
10
491.89
20
366.66
10
492.35
20
364.87
10
492.93
20
363.26
10
493.62
20
362.19
10
494.19
20
360.76
10
494.88
20
359.33
10
495.68
20
357.90
10
496.49
20
356.47
10
497.29
20
354.69
10
497.98
20
352.72
10
498.56
20
350.75
10
499.25
20
349.33
10
499.93
20
347.90
10
500.39
20
346.11
10
500.97
20
344.50
10
501.66
20
343.43
10
502.23
20
341.64
10
503.04
20
340.03
10
503.84
20
338.25
10
504.53
20
335.92
10
505.33
20
333.96
10
506.02
20
331.81
10
506.60
20
329.49
10
507.28
20
327.88
10
507.74
20
326.10
10
508.32
20
324.49
10
509.01
20
323.42
10
509.58
20
321.63
10
510.16
20
319.84
10
510.96
20
318.41
10
511.76
20
316.98
10
512.57
20
315.20
10
513.26
20
313.41
10
513.95
20
311.62
10
514.63
20
310.02
10
515.32
20
308.41
10
516.01
20
306.80
10
516.70
20
305.19
10
517.39
20
303.40
10
518.08
20
301.44
10
518.65
20
299.47
10
519.34
20
298.04
10
520.03
20
296.61
10
520.49
20
294.83
10
521.07
20
293.22
10
521.76
20
292.15
10
522.33
20
290.36
10
523.13
20
288.75
10
523.94
20
286.97
10
524.63
20
284.82
10
525.43
20
283.03
10
526.12
20
281.07
10
526.69
20
278.75
10
527.38
20
277.14
10
528.07
20
275.53
10
528.76
20
273.92
10
529.45
20
272.13
10
530.14
20
270.17
10
530.71
20
268.20
10
531.40
20
266.77
10
532.09
20
265.34
10
532.55
20
263.56
10
533.13
20
261.95
10
533.81
20
260.88
10
534.39
20
259.27
10
535.08
20
257.66
10
535.77
20
256.05
10
536.46
20
254.44
10
537.15
20
252.66
10
537.83
20
250.87
10
538.52
20
249.08
10
539.21
20
247.30
10
540.02
20
245.69
10
540.82
20
243.90
10
541.51
20
241.58
10
542.31
20
239.79
10
543.00
20
237.83
10
543.58
20
235.68
10
544.27
20
234.07
10
544.73
20
232.29
10
545.30
20
230.68
10
545.99
20
229.61
10
546.56
20
227.82
10
547.14
20
226.03
10
547.83
20
224.60
10
548.52
20
223.18
10
549.20
20
221.39
10
549.89
20
219.60
10
550.58
20
217.81
10
551.27
20
215.85
10
552.08
20
214.06
10
552.88
20
212.10
10
553.57
20
209.60
10
554.37
20
207.63
10
555.06
20
205.49
10
555.64
20
203.16
10
556.32
20
201.55
10
556.78
20
199.77
10
557.36
20
198.16
10
558.05
20
197.09
10
558.62
20
195.30
10
559.20
20
193.51
10
559.89
20
192.08
10
560.57
20
190.65
10
561.26
20
188.87
10
561.95
20
187.08
10
562.64
20
185.29
10
563.33
20
183.51
10
564.13
20
181.90
10
564.94
20
180.11
10
565.63
20
177.79
10
566.43
20
176.00
10
567.12
20
174.04
10
567.69
20
171.89
10
568.38
20
170.28
10
568.84
20
168.50
10
569.42
20
166.89
10
570.11
20
165.82
10
570.68
20
164.03
10
571.26
20
162.24
10
572.06
20
160.81
10
572.86
20
159.39
10
573.67
20
157.60
10
574.36
20
155.81
10
575.05
20
154.02
10
575.73
20
152.60
10
576.42
20
151.17
10
576.88
20
149.56
10
577.57
20
148.13
10
578.38
20
147.06
10
579.06
20
145.27
10
579.98
20
143.66
10
581.02
20
142.23
10
581.94
20
140.27
10
582.97
20
138.30
10
583.66
20
136.16
10
584.35
20
134.19
10
585.15
20
132.76
10
585.61
20
130.97
10
586.19
20
129.37
10
586.87
20
128.29
10
587.45
20
126.87
10
588.14
20
125.44
10
589.06
20
124.01
10
589.98
20
122.58
10
590.89
20
120.79
10
591.93
20
119.00
10
592.96
20
117.22
10
594.00
20
115.25
10
595.03
20
113.29
10
595.72
20
111.14
10
596.52
20
109.18
10
597.44
20
107.75
10
598.01
20
105.96
10
598.59
20
104.35
10
599.28
20
103.28
10
599.85
20
102.03
10
600.66
20
100.96
10
601.35
20
99.71
10
601.92
20
98.45
10
602.61
20
97.56
10
603.30
20
96.49
10
603.87
20
95.06
10
604.56
20
93.99
10
605.14
20
92.74
10
605.82
20
91.66
10
606.63
20
90.59
10
607.32
20
88.98
10
608.01
20
87.55
10
608.81
20
86.48
10
609.50
20
85.23
10
610.30
20
84.16
10
610.99
20
82.91
10
611.57
20
81.30
10
612.26
20
80.05
10
613.29
20
78.80
10
614.32
20
77.55
10
615.36
20
75.76
10
616.62
20
73.97
10
617.88
20
72.19
10
619.15
20
70.40
10
620.41
20
68.61
10
621.56
20
66.83
10
622.71
20
65.04
10
623.86
20
63.61
10
624.66
20
62.00
10
625.35
20
60.39
10
626.38
20
59.32
10
627.42
20
58.25
10
628.11
20
57.00
10
628.91
20
55.93
10
629.83
20
55.03
10
630.63
20
53.96
10
631.55
20
53.07
10
632.24
20
52.00
10
633.16
20
51.10
10
634.19
20
50.21
10
635.00
20
48.78
10
636.26
20
47.53
10
637.64
20
46.46
10
638.90
20
44.85
10
640.16
20
43.24
10
641.43
20
41.63
10
642.69
20
40.03
10
643.95
20
38.77
10
644.99
20
37.52
10
646.02
20
36.27
10
647.05
20
35.20
10
648.55
20
34.31
10
649.81
20
33.24
10
650.96
20
31.98
10
652.34
20
30.91
10
653.49
20
29.66
10
654.52
20
28.41
10
655.67
20
27.52
10
656.36
20
26.45
10
657.39
20
25.55
10
658.54
20
24.84
10
659.46
20
23.76
10
660.49
20
22.87
10
661.64
20
21.98
10
662.79
20
21.08
10
663.94
20
20.19
10
665.09
20
19.30
10
666.23
20
18.40
10
667.38
20
17.69
10
668.76
20
16.97
10
670.14
20
16.26
10
671.40
20
15.37
10
673.01
20
14.65
10
674.27
20
13.76
10
675.42
20
12.87
10
677.03
20
12.15
10
678.29
20
11.26
10
679.44
20
9.29
10
718.38
20
7.50
10
756.85
20
7.33
10
795.09
20
7.50
10
833.34
20
8.58
10
870.66
20
9.65
10
907.76
20
11.08
10
944.86
20
14.47
10
944.05
20
18.05
10
943.25
20
20.73
10
942.44
20
23.41
10
941.64
20
29.48
10
941.53
20
35.92
10
941.53
20
42.88
10
941.64
20
49.32
10
942.33
20
55.57
10
943.02
20
63.08
10
943.71
20
70.40
10
944.28
20
73.80
10
944.63
20
77.19
10
944.63
20
79.87
10
944.40
20
82.55
10
943.71
20
85.59
10
942.56
20
86.66
10
941.41
20
87.91
10
940.38
20
89.16
10
939.23
20
90.23
10
938.08
20
91.31
10
936.93
20
92.38
10
935.78
20
93.81
10
934.98
20
95.42
10
934.29
20
101.13
10
933.49
20
106.85
10
932.80
20
113.11
10
932.34
20
119.54
10
931.99
20
128.29
10
931.76
20
136.51
10
931.76
20
144.55
10
931.76
20
149.02
10
931.99
20
153.49
10
932.22
20
157.96
10
932.68
20
162.42
10
933.14
20
165.10
10
933.37
20
167.78
10
933.49
20
173.86
10
933.72
20
179.40
10
933.83
20
185.47
10
934.06
20
191.01
10
934.18
20
197.09
10
934.18
20
202.63
10
934.29
20
210.67
10
934.18
20
215.67
10
933.95
20
221.03
10
933.60
20
225.86
10
933.14
20
233.00
10
932.80
20
239.61
10
932.68
20
246.05
10
932.57
20
250.51
10
932.80
20
254.80
10
933.37
20
258.55
10
934.06
20
262.84
10
934.86
20
264.81
10
935.55
20
267.31
10
936.01
20
269.99
10
936.47
20
272.67
10
936.59
20
275.17
10
936.24
20
277.85
10
935.90
20
280.53
10
935.09
20
283.03
10
934.18
20
285.00
10
933.37
20
287.50
10
932.45
20
289.29
10
931.65
20
291.25
10
930.96
20
293.76
10
930.04
20
295.54
10
929.35
20
297.51
10
928.78
20
300.01
10
928.09
20
301.97
10
927.51
20
304.65
10
926.94
20
307.33
10
926.37
20
310.19
10
925.91
20
313.23
10
925.56
20
316.63
10
925.10
20
319.49
10
924.76
20
322.88
10
924.30
20
325.56
10
923.84
20
328.24
10
923.38
20
330.92
10
922.92
20
333.60
10
922.46
20
337.35
10
922.00
20
341.11
10
921.54
20
346.65
10
921.08
20
352.36
10
920.74
20
358.62
10
920.28
20
364.16
10
919.93
20
372.02
10
919.47
20
378.45
10
919.13
20
385.42
10
918.67
20
390.07
10
918.33
20
533.37
10
918.10
20
676.14
10
918.10
20
818.73
10
918.10
20
959.53
10
918.33
20
1100.33
10
918.79
20
1240.42
10
919.36
20
1381.94
10
919.70
20
1384.62
10
919.82
20
1387.30
10
919.82
20
1396.23
10
919.93
20
1404.63
10
920.16
20
1412.85
10
920.16
20
1421.78
10
920.28
20
1429.29
10
920.74
20
1436.79
10
921.31
20
1444.83
10
922.00
20
1446.80
10
922.81
20
1448.58
10
923.38
20
1450.91
10
924.07
20
1452.69
10
925.10
20
1454.30
10
926.14
20
1456.09
10
927.17
20
1457.88
10
928.20
20
1459.66
10
929.12
20
1461.45
10
930.04
20
1465.20
10
930.73
20
1468.95
10
930.96
20
1474.31
10
930.96
20
1479.67
10
930.96
20
1512.20
10
930.73
20
1544.72
10
930.39
20
1580.63
10
930.16
20
1614.22
10
930.04
20
1649.25
10
930.04
20
1682.84
10
930.16
20
1721.43
10
930.16
20
1732.33
10
930.27
20
1743.77
10
930.27
20
1751.99
10
930.16
20
1760.74
10
929.93
20
1768.07
10
929.58
20
1778.25
10
929.35
20
1783.44
10
929.24
20
1788.80
10
929.24
20
1793.62
10
929.47
20
1798.27
10
929.70
20
1802.91
10
930.16
20
1807.56
10
930.84
20
1809.17
10
931.42
20
1811.31
10
932.11
20
1813.28
10
933.14
20
1815.06
10
934.06
20
1817.03
10
935.09
20
1818.46
10
936.47
20
1819.71
10
937.62
20
1821.14
10
938.88
20
1822.03
10
940.61
20
1822.75
10
941.99
20
1823.64
10
943.48
20
1824.35
10
944.97
20
1825.07
10
946.23
20
1825.78
10
947.50
20
1826.86
10
948.76
20
1827.93
10
951.63
20
1829.00
10
954.39
20
1830.25
10
957.15
20
1831.68
10
960.25
20
1832.93
10
963.12
20
1834.36
10
966.10
20
1835.43
10
968.97
20
1836.50
10
969.78
20
1837.76
10
971.73
20
1838.65
10
973.57
20
1843.65
10
974.14
20
1848.66
10
974.60
20
1853.66
10
974.95
20
1861.52
10
975.41
20
1869.38
10
976.55
20
1877.07
10
976.55
20
1886.36
10
975.75
20
1891.36
10
975.64
20
1896.54
10
975.64
20
1905.12
10
975.75
20
1910.84
10
976.55
20
1916.38
10
976.55
20
1931.39
10
932.80
20
1944.79
10
889.84
20
1956.76
10
846.89
20
1968.37
0
LWPOLYLINE
8
PROFILE_WINDOW
90
1249
70
1
10
842.37
20
1812.38
10
845.26
20
1812.63
10
847.83
20
1812.38
10
850.57
20
1811.88
10
853.30
20
1810.88
10
853.78
20
1804.88
10
853.94
20
1798.87
10
853.94
20
1793.37
10
853.78
20
1786.37
10
853.30
20
1779.36
10
852.66
20
1777.36
10
852.17
20
1772.11
10
851.69
20
1766.60
10
851.21
20
1761.60
10
850.73
20
1756.60
10
850.41
20
1748.09
10
850.24
20
1743.09
10
850.41
20
1738.09
10
850.57
20
1721.58
10
850.73
20
1705.07
10
850.89
20
1659.54
10
850.73
20
1613.76
10
850.41
20
1565.48
10
849.92
20
1529.46
10
849.60
20
1491.93
10
849.12
20
1486.68
10
848.80
20
1479.42
10
848.64
20
1474.67
10
848.64
20
1469.67
10
848.80
20
1466.42
10
849.28
20
1463.16
10
849.76
20
1461.91
10
850.41
20
1460.91
10
851.21
20
1460.16
10
851.85
20
1458.66
10
852.50
20
1457.16
10
853.62
20
1455.91
10
854.59
20
1454.41
10
855.39
20
1451.66
10
856.35
20
1449.66
10
857.32
20
1447.65
10
857.80
20
1445.15
10
858.28
20
1442.90
10
858.93
20
1441.90
10
859.41
20
1437.15
10
859.57
20
1432.40
10
859.73
20
1423.39
10
859.57
20
1414.13
10
859.09
20
1405.13
10
858.44
20
1399.62
10
857.96
20
1392.37
10
857.80
20
1389.87
10
857.96
20
1387.37
10
858.28
20
1383.86
10
859.09
20
1380.61
10
860.05
20
1379.11
10
860.70
20
1204.75
10
861.34
20
1030.39
10
861.98
20
835.77
10
862.14
20
640.90
10
862.14
20
445.28
10
861.98
20
422.26
10
861.66
20
396.00
10
861.18
20
390.74
10
860.86
20
384.74
10
860.37
20
379.49
10
860.05
20
373.48
10
859.89
20
370.73
10
859.89
20
364.73
10
859.73
20
359.47
10
859.57
20
354.47
10
859.41
20
349.47
10
858.93
20
344.47
10
858.44
20
342.21
10
857.96
20
339.96
10
857.64
20
336.21
10
857.16
20
333.21
10
856.68
20
330.46
10
856.19
20
327.45
10
855.71
20
324.45
10
855.07
20
322.95
10
854.59
20
321.20
10
854.10
20
319.20
10
853.62
20
315.45
10
853.14
20
311.69
10
852.66
20
307.94
10
852.17
20
303.69
10
851.69
20
299.44
10
850.89
20
297.94
10
850.24
20
295.68
10
849.60
20
293.18
10
848.64
20
291.68
10
847.83
20
290.18
10
847.19
20
288.43
10
846.39
20
287.68
10
845.74
20
286.68
10
845.26
20
285.43
10
844.78
20
283.43
10
844.30
20
281.43
10
843.97
20
278.42
10
843.49
20
275.67
10
843.17
20
272.67
10
842.69
20
270.42
10
842.21
20
268.42
10
841.72
20
267.17
10
841.24
20
265.92
10
840.76
20
264.17
10
840.28
20
262.41
10
839.47
20
260.66
10
838.67
20
258.16
10
837.86
20
255.66
10
836.58
20
254.16
10
835.29
20
252.66
10
834.49
20
250.41
10
833.52
20
248.91
10
832.24
20
247.65
10
831.27
20
246.15
10
830.47
20
244.15
10
829.50
20
242.65
10
828.06
20
241.40
10
827.09
20
239.40
10
826.13
20
237.40
10
824.52
20
236.15
10
822.91
20
234.90
10
821.79
20
233.65
10
820.66
20
232.90
10
819.53
20
232.15
10
818.73
20
231.39
10
818.09
20
230.39
10
817.44
20
229.14
10
816.00
20
228.14
10
814.71
20
227.14
10
813.58
20
225.89
10
811.98
20
225.14
10
810.53
20
224.39
10
809.73
20
223.39
10
808.28
20
222.64
10
806.83
20
221.89
10
805.55
20
221.14
10
804.10
20
220.39
10
802.65
20
219.89
10
801.85
20
219.14
10
801.04
20
218.39
10
799.92
20
217.64
10
798.79
20
216.89
10
796.38
20
216.14
10
793.81
20
215.38
10
790.75
20
214.88
10
788.18
20
214.13
10
782.55
20
213.63
10
778.21
20
213.38
10
772.58
20
213.38
10
767.44
20
213.63
10
761.81
20
214.13
10
759.24
20
214.88
10
756.18
20
215.38
10
754.42
20
216.14
10
752.16
20
216.64
10
750.40
20
217.39
10
748.79
20
218.14
10
747.18
20
218.89
10
745.57
20
219.64
10
743.96
20
220.39
10
742.36
20
221.14
10
740.75
20
221.89
10
739.14
20
222.64
10
737.53
20
223.39
10
736.57
20
224.39
10
735.12
20
225.14
10
733.51
20
225.89
10
732.55
20
226.89
10
731.10
20
227.64
10
729.49
20
228.39
10
728.53
20
229.39
10
727.56
20
230.39
10
726.12
20
231.14
10
725.15
20
232.15
10
724.35
20
233.15
10
722.90
20
233.90
10
721.45
20
234.65
10
720.49
20
235.65
10
719.52
20
236.65
10
718.08
20
237.40
10
717.11
20
238.40
10
716.31
20
239.40
10
714.86
20
240.15
10
713.41
20
240.90
10
712.45
20
241.90
10
711.48
20
242.90
10
710.04
20
243.65
10
709.07
20
244.65
10
708.27
20
245.65
10
706.98
20
246.40
10
705.70
20
247.15
10
704.89
20
248.41
10
704.09
20
249.66
10
702.48
20
250.66
10
701.19
20
251.91
10
700.07
20
253.66
10
698.30
20
254.91
10
696.53
20
256.16
10
695.57
20
258.16
10
694.60
20
260.16
10
693.16
20
261.41
10
692.19
20
262.91
10
691.39
20
264.67
10
690.42
20
265.67
10
689.46
20
266.67
10
688.97
20
267.92
10
688.33
20
268.92
10
687.53
20
269.67
10
686.88
20
270.67
10
686.08
20
271.42
10
685.12
20
272.17
10
684.47
20
273.42
10
683.83
20
274.42
10
683.03
20
275.42
10
682.06
20
276.42
10
681.10
20
277.42
10
680.13
20
278.67
10
679.17
20
280.18
10
677.72
20
281.43
10
676.59
20
282.93
10
675.63
20
284.93
10
674.02
20
286.18
10
672.41
20
287.43
10
671.45
20
289.68
10
670.00
20
291.68
10
668.39
20
293.18
10
667.43
20
295.68
10
665.98
20
297.94
10
664.37
20
299.44
10
663.41
20
301.94
10
661.96
20
304.19
10
660.35
20
305.69
10
659.39
20
308.19
10
657.94
20
310.44
10
656.33
20
311.94
10
655.37
20
314.70
10
654.08
20
317.20
10
652.64
20
318.95
10
651.83
20
321.45
10
651.03
20
323.95
10
650.22
20
325.45
10
649.58
20
326.95
10
648.94
20
328.46
10
648.30
20
329.71
10
647.65
20
330.71
10
646.85
20
331.71
10
646.37
20
333.21
10
645.88
20
334.46
10
645.24
20
335.46
10
644.76
20
336.96
10
644.11
20
338.21
10
643.31
20
339.21
10
642.67
20
340.71
10
642.02
20
342.21
10
641.38
20
343.46
10
640.58
20
344.72
10
639.77
20
345.97
10
638.97
20
347.72
10
637.84
20
349.22
10
636.56
20
350.72
10
635.75
20
353.22
10
634.95
20
355.72
10
634.15
20
357.47
10
633.66
20
359.22
10
633.18
20
360.98
10
632.70
20
362.23
10
632.06
20
363.23
10
631.25
20
364.23
10
630.61
20
365.98
10
629.97
20
367.73
10
629.00
20
368.98
10
628.20
20
370.48
10
627.55
20
372.73
10
626.75
20
374.48
10
626.11
20
376.24
10
625.62
20
377.99
10
625.14
20
379.74
10
624.66
20
380.99
10
624.02
20
381.99
10
623.21
20
382.99
10
622.57
20
384.74
10
621.93
20
386.49
10
620.80
20
387.74
10
619.84
20
389.24
10
619.03
20
391.49
10
618.07
20
393.25
10
616.94
20
394.75
10
616.14
20
396.50
10
615.49
20
398.75
10
614.69
20
400.00
10
613.89
20
401.25
10
613.40
20
403.00
10
612.92
20
404.75
10
612.44
20
406.00
10
611.80
20
407.25
10
611.15
20
408.51
10
610.51
20
410.26
10
609.87
20
412.01
10
608.90
20
413.51
10
608.10
20
415.26
10
607.46
20
417.51
10
606.65
20
418.76
10
605.85
20
420.01
10
605.37
20
421.76
10
604.88
20
423.26
10
604.24
20
424.27
10
603.76
20
425.52
10
603.11
20
426.52
10
602.31
20
427.27
10
601.67
20
429.02
10
600.86
20
430.52
10
599.90
20
432.02
10
599.26
20
434.52
10
598.61
20
436.77
10
597.81
20
438.27
10
597.33
20
440.28
10
596.84
20
442.28
10
596.36
20
443.53
10
595.56
20
444.78
10
594.75
20
446.03
10
593.95
20
447.78
10
592.82
20
449.28
10
591.54
20
450.78
10
590.73
20
453.53
10
589.77
20
456.04
10
588.64
20
457.79
10
588.00
20
460.54
10
587.36
20
463.04
10
586.55
20
464.54
10
586.07
20
467.04
10
585.59
20
469.54
10
584.62
20
471.04
10
583.66
20
472.80
10
582.85
20
475.05
10
581.89
20
476.55
10
580.76
20
477.80
10
579.96
20
479.30
10
579.32
20
481.30
10
578.51
20
482.55
10
577.71
20
483.80
10
577.23
20
485.30
10
576.74
20
486.55
10
576.10
20
487.30
10
575.62
20
488.56
10
574.98
20
489.56
10
574.17
20
490.56
10
573.53
20
492.56
10
572.40
20
494.31
10
571.12
20
495.81
10
570.15
20
498.56
10
568.87
20
501.06
10
567.42
20
502.81
10
566.62
20
505.32
10
565.81
20
507.82
10
565.01
20
509.57
10
564.53
20
511.57
10
564.20
20
513.57
10
563.40
20
514.82
10
562.60
20
516.07
10
561.79
20
517.82
10
560.51
20
519.32
10
559.06
20
520.83
10
558.09
20
523.33
10
556.65
20
525.58
10
555.04
20
527.08
10
554.07
20
529.58
10
552.95
20
531.83
10
551.66
20
533.33
10
551.02
20
535.83
10
550.38
20
538.09
10
549.57
20
539.59
10
549.09
20
541.59
10
548.45
20
543.34
10
547.64
20
544.34
10
547.00
20
545.59
10
546.36
20
546.59
10
545.55
20
547.34
10
545.07
20
548.59
10
544.43
20
549.59
10
543.62
20
550.59
10
542.98
20
551.84
10
542.34
20
552.85
10
541.53
20
553.60
10
541.05
20
555.10
10
540.57
20
556.35
10
539.92
20
557.60
10
538.96
20
558.85
10
538.00
20
560.10
10
537.03
20
561.35
10
536.07
20
562.85
10
534.78
20
564.10
10
533.81
20
565.60
10
533.01
20
567.60
10
532.05
20
569.11
10
530.76
20
570.36
10
529.79
20
571.86
10
528.99
20
574.11
10
527.54
20
575.61
10
526.10
20
577.11
10
525.13
20
579.61
10
524.17
20
582.11
10
522.72
20
583.61
10
521.76
20
585.37
10
520.95
20
587.62
10
519.99
20
589.12
10
518.70
20
590.37
10
517.74
20
591.87
10
516.93
20
593.62
10
515.97
20
594.62
10
515.00
20
595.62
10
514.52
20
596.87
10
513.88
20
597.87
10
513.07
20
598.62
10
512.43
20
599.62
10
511.79
20
600.38
10
510.98
20
601.13
10
510.50
20
602.38
10
509.86
20
603.38
10
509.05
20
604.38
10
508.41
20
605.88
10
507.77
20
607.13
10
506.96
20
608.13
10
506.48
20
609.38
10
505.84
20
610.38
10
505.03
20
611.13
10
504.39
20
612.38
10
503.75
20
613.38
10
502.94
20
614.38
10
502.46
20
615.63
10
501.82
20
616.64
10
501.01
20
617.39
10
500.37
20
618.39
10
499.41
20
619.14
10
498.28
20
619.89
10
497.48
20
621.14
10
496.03
20
622.14
10
494.42
20
623.14
10
493.30
20
625.14
10
491.69
20
626.89
10
489.92
20
628.39
10
488.95
20
630.64
10
487.99
20
632.90
10
486.54
20
634.15
10
485.58
20
635.65
10
484.77
20
637.65
10
483.81
20
638.90
10
482.84
20
640.15
10
482.04
20
641.40
10
481.24
20
642.65
10
480.43
20
643.40
10
479.15
20
644.15
10
477.86
20
644.90
10
476.90
20
646.15
10
475.45
20
647.15
10
473.84
20
648.16
10
472.88
20
649.66
10
471.43
20
650.91
10
469.82
20
651.91
10
468.86
20
653.16
10
467.41
20
654.16
10
465.80
20
654.91
10
464.84
20
656.41
10
463.39
20
657.66
10
461.78
20
658.91
10
460.01
20
660.16
10
458.24
20
661.41
10
456.48
20
662.16
10
454.71
20
662.91
10
452.94
20
663.66
10
451.97
20
664.67
10
450.53
20
665.42
10
448.92
20
666.17
10
447.31
20
666.92
10
445.70
20
667.67
10
444.10
20
668.42
10
442.49
20
669.17
10
440.88
20
669.92
10
439.27
20
670.67
10
437.66
20
671.42
10
435.73
20
671.92
10
434.29
20
672.67
10
432.84
20
673.17
10
431.88
20
673.92
10
429.62
20
674.42
10
427.53
20
675.17
10
424.96
20
675.67
10
422.39
20
676.42
10
419.98
20
677.17
10
415.96
20
677.92
10
411.94
20
678.67
10
405.51
20
679.42
10
399.07
20
680.18
10
391.20
20
680.68
10
386.05
20
680.68
10
380.58
20
680.43
10
378.01
20
679.92
10
373.99
20
679.17
10
371.42
20
678.17
10
369.01
20
677.42
10
364.83
20
676.67
10
360.65
20
675.92
10
357.91
20
675.17
10
355.02
20
674.42
10
351.96
20
673.92
10
351.16
20
673.17
10
350.36
20
672.42
10
349.07
20
671.67
10
347.78
20
670.92
10
346.18
20
670.17
10
344.41
20
669.42
10
342.16
20
668.92
10
340.55
20
668.17
10
338.94
20
667.42
10
337.33
20
666.67
10
335.89
20
665.92
10
334.92
20
664.92
10
333.31
20
664.17
10
331.70
20
663.41
10
330.74
20
662.41
10
329.61
20
661.41
10
328.17
20
660.66
10
327.36
20
659.41
10
326.56
20
658.16
10
325.27
20
657.16
10
323.99
20
656.16
10
320.93
20
655.16
10
317.72
20
654.91
10
314.66
20
658.66
10
312.25
20
662.66
10
310.32
20
666.92
10
310.80
20
671.42
10
311.45
20
676.42
10
312.25
20
677.92
10
313.21
20
679.17
10
313.86
20
680.93
10
314.50
20
682.68
10
315.30
20
683.68
10
315.95
20
684.68
10
316.43
20
685.93
10
316.91
20
687.68
10
317.39
20
689.43
10
318.04
20
691.18
10
318.84
20
692.93
10
319.48
20
695.43
10
320.29
20
697.19
10
321.25
20
698.69
10
321.90
20
700.69
10
322.54
20
702.69
10
323.34
20
703.69
10
323.99
20
704.69
10
324.47
20
705.94
10
324.95
20
707.69
10
325.43
20
709.44
10
326.08
20
711.19
10
326.88
20
712.95
10
327.52
20
715.20
10
328.33
20
716.70
10
329.13
20
717.95
10
329.61
20
719.70
10
330.10
20
721.45
10
330.90
20
722.45
10
331.54
20
723.45
10
332.19
20
724.70
10
332.83
20
726.45
10
333.47
20
728.21
10
334.12
20
729.96
10
334.92
20
731.71
10
335.56
20
733.96
10
336.37
20
735.46
10
337.33
20
736.71
10
337.98
20
738.46
10
338.62
20
740.21
10
339.42
20
741.21
10
340.07
20
742.21
10
340.55
20
743.46
10
341.19
20
744.22
10
341.67
20
745.72
10
342.16
20
747.47
10
342.96
20
748.97
10
343.60
20
751.22
10
344.25
20
753.72
10
345.37
20
755.22
10
346.50
20
756.72
10
347.30
20
758.97
10
348.27
20
760.48
10
349.55
20
761.73
10
350.36
20
763.23
10
351.16
20
764.73
10
351.96
20
765.98
10
352.77
20
767.23
10
353.41
20
768.48
10
354.05
20
769.98
10
354.70
20
771.48
10
355.50
20
772.48
10
356.14
20
773.48
10
356.63
20
774.73
10
357.27
20
775.48
10
357.75
20
776.99
10
358.23
20
778.74
10
359.20
20
780.24
10
360.00
20
782.49
10
360.81
20
784.99
10
362.09
20
786.49
10
363.22
20
788.74
10
364.02
20
791.24
10
365.31
20
792.75
10
366.43
20
794.50
10
367.24
20
796.50
10
368.04
20
797.75
10
368.85
20
799.00
10
369.49
20
800.25
10
370.13
20
801.75
10
370.78
20
803.25
10
371.58
20
804.50
10
372.38
20
805.75
10
373.03
20
807.00
10
373.67
20
808.51
10
374.31
20
810.01
10
375.28
20
811.51
10
376.08
20
813.76
10
376.89
20
816.26
10
378.17
20
817.76
10
379.46
20
819.26
10
380.26
20
821.76
10
381.23
20
823.51
10
382.35
20
825.02
10
383.16
20
826.77
10
383.96
20
828.27
10
384.76
20
829.52
10
385.57
20
830.77
10
386.21
20
832.02
10
386.69
20
833.27
10
387.18
20
834.77
10
387.98
20
835.52
10
388.62
20
836.52
10
389.27
20
837.77
10
390.07
20
838.77
10
390.71
20
840.03
10
391.20
20
841.53
10
392.00
20
842.53
10
392.64
20
843.53
10
393.29
20
844.78
10
393.93
20
846.53
10
394.57
20
848.28
10
395.38
20
850.03
10
396.18
20
852.53
10
396.98
20
855.03
10
398.27
20
856.54
10
399.56
20
858.04
10
400.36
20
860.29
10
401.33
20
861.79
10
402.45
20
863.04
10
403.09
20
864.54
10
403.74
20
866.04
10
404.54
20
866.79
10
405.18
20
867.79
10
405.67
20
869.04
10
406.47
20
870.04
10
407.11
20
871.29
10
407.76
20
872.80
10
408.56
20
873.80
10
409.20
20
874.80
10
409.69
20
876.05
10
410.33
20
876.80
10
410.81
20
878.05
10
411.29
20
879.55
10
412.10
20
880.80
10
412.74
20
883.05
10
413.38
20
885.55
10
414.51
20
887.30
10
415.64
20
889.06
10
416.44
20
891.56
10
417.40
20
893.06
10
418.53
20
894.31
10
419.17
20
896.06
10
419.82
20
897.81
10
420.62
20
898.81
10
421.26
20
899.81
10
421.75
20
901.06
10
422.23
20
902.81
10
422.71
20
904.57
10
423.51
20
906.32
10
424.32
20
908.82
10
425.12
20
911.32
10
426.41
20
912.82
10
427.53
20
914.32
10
428.34
20
916.07
10
429.14
20
917.32
10
429.95
20
918.57
10
430.59
20
919.82
10
431.23
20
921.33
10
431.88
20
922.83
10
432.68
20
923.83
10
433.32
20
924.83
10
433.80
20
926.08
10
434.45
20
926.83
10
434.93
20
928.33
10
435.41
20
930.08
10
436.38
20
931.58
10
437.18
20
933.83
10
437.99
20
936.34
10
439.11
20
937.84
10
440.08
20
939.34
10
440.72
20
941.09
10
441.36
20
942.59
10
442.00
20
944.09
10
442.65
20
945.59
10
443.29
20
947.09
10
443.93
20
948.59
10
444.74
20
949.34
10
445.38
20
950.34
10
445.86
20
951.59
10
446.51
20
952.60
10
446.99
20
954.10
10
447.47
20
955.85
10
448.28
20
957.10
10
449.08
20
958.35
10
449.72
20
960.60
10
450.53
20
962.35
10
451.49
20
963.85
10
452.13
20
965.60
10
452.78
20
967.35
10
453.42
20
968.61
10
454.06
20
969.86
10
454.71
20
971.11
10
455.35
20
972.86
10
455.99
20
974.61
10
456.96
20
975.86
10
457.76
20
978.11
10
458.41
20
980.61
10
459.53
20
982.36
10
460.66
20
984.12
10
461.46
20
986.62
10
462.42
20
988.12
10
463.39
20
989.37
10
463.87
20
991.12
10
464.35
20
992.87
10
465.16
20
993.87
10
465.80
20
994.87
10
466.44
20
996.12
10
467.09
20
997.87
10
467.73
20
999.62
10
468.37
20
1001.38
10
469.18
20
1003.13
10
469.82
20
1005.38
10
470.63
20
1006.88
10
471.59
20
1008.13
10
472.23
20
1009.88
10
472.88
20
1011.63
10
473.68
20
1012.63
10
474.32
20
1013.63
10
474.81
20
1014.88
10
475.29
20
1016.64
10
475.77
20
1018.39
10
476.57
20
1020.14
10
477.38
20
1022.64
10
478.18
20
1025.14
10
479.47
20
1026.64
10
480.59
20
1028.14
10
481.40
20
1029.89
10
482.20
20
1031.14
10
483.01
20
1032.40
10
483.49
20
1033.65
10
483.97
20
1035.40
10
484.45
20
1037.15
10
485.26
20
1038.40
10
486.06
20
1039.65
10
486.70
20
1041.90
10
487.51
20
1043.65
10
488.47
20
1045.15
10
489.28
20
1046.90
10
489.92
20
1049.16
10
490.72
20
1050.66
10
491.69
20
1051.91
10
492.33
20
1053.91
10
492.97
20
1055.91
10
493.78
20
1057.16
10
494.58
20
1058.41
10
495.06
20
1060.91
10
495.71
20
1062.91
10
496.67
20
1064.67
10
497.48
20
1067.42
10
498.28
20
1070.17
10
499.41
20
1071.67
10
500.37
20
1073.17
10
501.01
20
1074.92
10
501.82
20
1075.67
10
502.46
20
1076.67
10
502.94
20
1077.92
10
503.59
20
1078.92
10
504.07
20
1080.68
10
504.55
20
1082.68
10
505.36
20
1084.18
10
506.00
20
1086.43
10
506.64
20
1088.93
10
507.61
20
1090.43
10
508.41
20
1091.93
10
509.05
20
1093.68
10
509.86
20
1094.43
10
510.50
20
1095.43
10
510.98
20
1096.69
10
511.63
20
1097.69
10
512.11
20
1099.19
10
512.59
20
1100.94
10
513.39
20
1102.19
10
514.04
20
1104.44
10
514.68
20
1106.94
10
515.81
20
1108.69
10
516.93
20
1110.44
10
517.74
20
1112.95
10
518.70
20
1114.45
10
519.83
20
1115.70
10
520.47
20
1117.70
10
521.11
20
1119.70
10
521.92
20
1120.95
10
522.72
20
1122.20
10
523.20
20
1124.45
10
523.85
20
1126.20
10
524.81
20
1127.70
10
525.61
20
1130.21
10
526.42
20
1132.71
10
527.54
20
1134.21
10
528.51
20
1135.96
10
529.15
20
1137.96
10
529.96
20
1138.96
10
530.60
20
1139.96
10
531.08
20
1141.21
10
531.72
20
1141.96
10
532.21
20
1143.46
10
532.69
20
1145.22
10
533.65
20
1146.72
10
534.46
20
1148.97
10
535.26
20
1151.47
10
536.39
20
1152.97
10
537.35
20
1154.47
10
538.00
20
1156.22
10
538.80
20
1156.97
10
539.44
20
1157.97
10
539.92
20
1159.22
10
540.41
20
1161.23
10
540.89
20
1163.23
10
541.53
20
1165.23
10
542.34
20
1166.98
10
542.98
20
1169.23
10
543.78
20
1170.73
10
544.59
20
1171.98
10
545.07
20
1173.98
10
545.55
20
1175.98
10
546.36
20
1177.24
10
547.00
20
1179.49
10
547.64
20
1181.99
10
548.61
20
1183.74
10
549.41
20
1185.74
10
550.05
20
1187.99
10
550.86
20
1188.99
10
551.50
20
1190.24
10
551.98
20
1191.74
10
552.47
20
1193.75
10
552.95
20
1195.75
10
553.75
20
1197.75
10
554.56
20
1200.25
10
555.36
20
1202.75
10
556.32
20
1204.25
10
557.13
20
1206.25
10
557.61
20
1208.51
10
558.42
20
1209.76
10
559.06
20
1212.01
10
559.70
20
1214.51
10
560.67
20
1216.26
10
561.47
20
1218.01
10
562.11
20
1220.01
10
562.92
20
1220.76
10
563.56
20
1221.76
10
564.04
20
1223.01
10
564.69
20
1224.02
10
565.17
20
1225.77
10
565.65
20
1227.77
10
566.45
20
1229.27
10
567.10
20
1231.52
10
567.74
20
1234.02
10
568.71
20
1235.52
10
569.51
20
1237.27
10
570.15
20
1239.27
10
570.96
20
1240.28
10
571.60
20
1241.28
10
572.08
20
1242.53
10
572.56
20
1244.28
10
573.05
20
1246.03
10
573.85
20
1247.78
10
574.65
20
1250.28
10
575.46
20
1252.78
10
576.58
20
1254.28
10
577.55
20
1256.04
10
578.19
20
1258.04
10
579.00
20
1259.04
10
579.64
20
1260.04
10
580.12
20
1261.29
10
580.76
20
1262.04
10
581.25
20
1263.54
10
581.73
20
1265.29
10
582.53
20
1266.79
10
583.18
20
1269.04
10
583.82
20
1271.54
10
584.78
20
1273.05
10
585.59
20
1274.80
10
586.23
20
1276.80
10
587.04
20
1277.80
10
587.68
20
1278.80
10
588.16
20
1280.05
10
588.80
20
1280.80
10
589.29
20
1282.30
10
589.77
20
1284.05
10
590.73
20
1285.55
10
591.54
20
1287.80
10
592.34
20
1290.31
10
593.47
20
1291.81
10
594.43
20
1293.31
10
595.07
20
1295.06
10
595.72
20
1296.31
10
596.36
20
1297.56
10
597.00
20
1298.81
10
597.65
20
1300.31
10
598.29
20
1301.81
10
599.09
20
1302.81
10
599.74
20
1303.81
10
600.22
20
1305.07
10
600.86
20
1305.82
10
601.35
20
1307.32
10
601.83
20
1309.07
10
602.63
20
1310.57
10
603.27
20
1313.07
10
603.92
20
1315.82
10
605.04
20
1317.57
10
606.17
20
1319.32
10
606.97
20
1321.83
10
607.94
20
1323.33
10
609.06
20
1324.58
10
609.71
20
1326.33
10
610.35
20
1328.08
10
611.15
20
1329.08
10
611.80
20
1330.08
10
612.28
20
1331.33
10
612.76
20
1333.08
10
613.24
20
1334.83
10
614.05
20
1336.59
10
614.85
20
1339.09
10
615.66
20
1341.59
10
616.94
20
1343.09
10
618.23
20
1344.59
10
619.19
20
1346.09
10
620.16
20
1347.34
10
621.12
20
1348.59
10
621.77
20
1349.84
10
622.25
20
1351.34
10
622.73
20
1353.10
10
623.53
20
1354.10
10
624.18
20
1355.10
10
624.82
20
1356.35
10
625.46
20
1357.85
10
626.11
20
1359.35
10
626.91
20
1360.85
10
627.71
20
1363.35
10
628.52
20
1365.85
10
629.97
20
1367.60
10
631.25
20
1370.11
10
632.22
20
1372.86
10
633.50
20
1374.36
10
634.63
20
1375.86
10
635.27
20
1377.61
10
636.08
20
1378.36
10
636.72
20
1379.36
10
637.20
20
1380.61
10
637.84
20
1381.61
10
638.33
20
1382.86
10
638.81
20
1384.37
10
639.61
20
1385.37
10
640.26
20
1386.37
10
640.90
20
1387.62
10
641.54
20
1389.37
10
642.19
20
1391.12
10
642.99
20
1392.87
10
643.79
20
1395.37
10
644.60
20
1397.87
10
645.88
20
1399.37
10
647.17
20
1400.88
10
647.97
20
1403.13
10
648.94
20
1404.63
10
650.06
20
1405.88
10
650.71
20
1407.63
10
651.35
20
1409.38
10
652.15
20
1410.38
10
652.80
20
1411.38
10
653.28
20
1412.63
10
653.76
20
1414.38
10
654.24
20
1416.14
10
655.05
20
1417.89
10
655.85
20
1420.39
10
656.66
20
1422.89
10
657.94
20
1424.39
10
659.07
20
1425.89
10
659.87
20
1427.64
10
660.68
20
1428.89
10
661.48
20
1430.14
10
661.96
20
1431.39
10
662.44
20
1433.15
10
662.93
20
1434.90
10
663.73
20
1436.15
10
664.37
20
1437.40
10
665.02
20
1438.90
10
665.66
20
1440.65
10
666.30
20
1442.40
10
667.11
20
1444.15
10
667.91
20
1446.65
10
668.72
20
1449.16
10
669.84
20
1450.66
10
670.81
20
1452.16
10
671.45
20
1453.91
10
672.25
20
1454.66
10
672.90
20
1455.66
10
673.38
20
1456.91
10
674.02
20
1457.91
10
674.50
20
1459.41
10
674.99
20
1461.16
10
675.79
20
1462.41
10
676.59
20
1463.66
10
677.24
20
1465.92
10
678.04
20
1467.67
10
679.01
20
1469.17
10
679.81
20
1470.92
10
680.45
20
1473.17
10
681.26
20
1474.67
10
682.22
20
1475.92
10
682.86
20
1477.42
10
683.51
20
1478.92
10
684.31
20
1479.67
10
684.95
20
1480.68
10
685.44
20
1481.93
10
686.08
20
1482.93
10
686.56
20
1484.43
10
687.05
20
1486.18
10
687.85
20
1487.43
10
688.65
20
1488.68
10
689.30
20
1490.93
10
690.10
20
1492.68
10
691.23
20
1494.18
10
692.03
20
1496.69
10
692.83
20
1499.19
10
693.96
20
1500.69
10
694.92
20
1502.44
10
695.57
20
1504.44
10
696.37
20
1505.44
10
697.01
20
1506.44
10
697.50
20
1507.69
10
698.14
20
1508.44
10
698.62
20
1509.94
10
699.10
20
1511.69
10
700.07
20
1513.20
10
700.87
20
1515.45
10
701.68
20
1517.95
10
702.96
20
1519.45
10
704.25
20
1520.95
10
705.05
20
1523.20
10
706.02
20
1524.70
10
706.98
20
1525.95
10
707.47
20
1527.95
10
707.95
20
1529.96
10
708.75
20
1531.21
10
709.56
20
1532.46
10
710.20
20
1534.71
10
711.00
20
1536.46
10
712.13
20
1537.96
10
712.93
20
1540.46
10
713.74
20
1542.96
10
714.86
20
1544.47
10
715.83
20
1545.97
10
716.47
20
1547.72
10
717.27
20
1548.47
10
717.92
20
1549.47
10
718.40
20
1550.72
10
719.04
20
1551.72
10
719.52
20
1553.22
10
720.01
20
1554.97
10
720.81
20
1556.22
10
721.45
20
1557.47
10
722.10
20
1558.97
10
722.74
20
1560.73
10
723.38
20
1562.48
10
724.19
20
1564.23
10
724.99
20
1566.73
10
725.79
20
1569.23
10
726.92
20
1570.73
10
727.89
20
1572.23
10
728.53
20
1573.98
10
729.33
20
1574.73
10
729.98
20
1575.73
10
730.46
20
1576.99
10
731.10
20
1577.99
10
731.58
20
1579.49
10
732.07
20
1581.24
10
732.87
20
1582.49
10
733.67
20
1583.74
10
734.32
20
1585.99
10
735.12
20
1587.74
10
736.25
20
1589.24
10
737.05
20
1591.74
10
737.85
20
1594.25
10
738.98
20
1595.75
10
739.94
20
1597.25
10
740.59
20
1599.00
10
741.39
20
1599.75
10
742.03
20
1600.75
10
742.52
20
1602.00
10
743.16
20
1603.00
10
743.64
20
1604.50
10
744.12
20
1606.25
10
744.93
20
1607.50
10
745.73
20
1608.76
10
746.38
20
1611.01
10
747.18
20
1612.76
10
748.14
20
1614.26
10
748.95
20
1616.01
10
749.59
20
1618.26
10
750.40
20
1619.76
10
751.36
20
1621.01
10
752.00
20
1623.01
10
752.65
20
1625.02
10
753.45
20
1626.27
10
754.25
20
1627.52
10
754.74
20
1629.77
10
755.38
20
1631.52
10
756.18
20
1633.02
10
756.99
20
1634.77
10
757.63
20
1637.02
10
758.43
20
1638.52
10
759.40
20
1639.77
10
760.04
20
1641.78
10
760.69
20
1643.78
10
761.49
20
1645.03
10
762.29
20
1646.28
10
762.78
20
1648.53
10
763.42
20
1650.28
10
764.38
20
1651.78
10
765.19
20
1654.28
10
765.99
20
1656.79
10
767.12
20
1658.29
10
768.08
20
1660.04
10
768.73
20
1662.04
10
769.53
20
1663.04
10
770.17
20
1664.04
10
770.65
20
1665.29
10
771.30
20
1666.04
10
771.78
20
1667.54
10
772.26
20
1669.29
10
773.07
20
1670.79
10
773.71
20
1673.30
10
774.35
20
1676.05
10
775.48
20
1677.80
10
776.44
20
1679.55
10
777.25
20
1681.55
10
778.05
20
1682.80
10
778.85
20
1684.05
10
779.34
20
1685.30
10
779.82
20
1687.05
10
780.30
20
1688.81
10
781.27
20
1690.06
10
782.07
20
1692.31
10
782.87
20
1694.81
10
784.00
20
1696.56
10
785.13
20
1698.31
10
785.93
20
1700.06
10
786.73
20
1701.31
10
787.54
20
1702.56
10
788.18
20
1703.81
10
788.66
20
1705.57
10
789.15
20
1707.57
10
789.95
20
1708.82
10
790.59
20
1711.07
10
791.24
20
1713.57
10
792.36
20
1715.32
10
793.49
20
1717.07
10
794.29
20
1719.57
10
795.26
20
1721.08
10
796.22
20
1722.33
10
796.70
20
1724.08
10
797.18
20
1725.83
10
797.99
20
1726.83
10
798.63
20
1727.83
10
799.27
20
1729.08
10
799.92
20
1730.83
10
800.56
20
1732.58
10
801.20
20
1734.33
10
802.01
20
1736.09
10
802.65
20
1738.34
10
803.46
20
1739.84
10
804.26
20
1741.09
10
804.74
20
1743.09
10
805.22
20
1745.09
10
806.03
20
1746.34
10
806.83
20
1747.59
10
807.47
20
1749.84
10
808.28
20
1751.59
10
809.24
20
1753.10
10
809.89
20
1754.85
10
810.53
20
1756.60
10
811.17
20
1757.85
10
811.82
20
1759.10
10
812.30
20
1760.35
10
812.78
20
1762.10
10
813.26
20
1763.85
10
814.07
20
1765.10
10
814.87
20
1766.35
10
815.51
20
1768.61
10
816.32
20
1770.36
10
817.28
20
1771.86
10
818.09
20
1773.61
10
818.73
20
1775.86
10
819.53
20
1777.36
10
820.50
20
1778.61
10
821.14
20
1780.36
10
821.79
20
1782.11
10
822.59
20
1783.11
10
823.23
20
1784.12
10
823.71
20
1785.37
10
824.36
20
1786.12
10
824.84
20
1787.12
10
825.32
20
1788.37
10
826.13
20
1789.37
10
826.77
20
1790.37
10
827.41
20
1791.62
10
828.22
20
1792.37
10
828.86
20
1793.62
10
829.34
20
1795.12
10
830.15
20
1796.37
10
830.95
20
1797.62
10
831.75
20
1798.87
10
832.56
20
1800.13
10
833.36
20
1801.38
10
834.17
20
1802.63
10
834.81
20
1803.88
10
835.45
20
1805.38
10
836.26
20
1806.13
10
836.90
20
1807.13
10
837.38
20
1808.38
10
838.19
20
1809.38
10
838.83
20
1810.38
10
839.47
20
1811.63
0
ENDSEC
0
EOF