  0
SECTION
  2
HEADER
  9
$ACADVER
  1
AC1027
  9
$ACADMAINTVER
 70
105
  9
$DWGCODEPAGE
  3
ANSI_1252
  9
$LASTSAVEDBY
  1
ezdxf
  9
$REQUIREDVERSIONS
160
0
  9
$INSBASE
 10
0.0
 20
0.0
 30
0.0
  9
$EXTMIN
 10
1e+20
 20
1e+20
 30
1e+20
  9
$EXTMAX
 10
-1e+20
 20
-1e+20
 30
-1e+20
  9
$LIMMIN
 10
0.0
 20
0.0
  9
$LIMMAX
 10
420.0
 20
297.0
  9
$ORTHOMODE
 70
0
  9
$REGENMODE
 70
1
  9
$FILLMODE
 70
1
  9
$QTEXTMODE
 70
0
  9
$MIRRTEXT
 70
1
  9
$LTSCALE
 40
1.0
  9
$ATTMODE
 70
1
  9
$TEXTSIZE
 40
2.5
  9
$TRACEWID
 40
1.0
  9
$TEXTSTYLE
  7
Standard
  9
$CLAYER
  8
0
  9
$CELTYPE
  6
ByLayer
  9
$CECOLOR
 62
256
  9
$CELTSCALE
 40
1.0
  9
$DISPSILH
 70
0
  9
$DIMSCALE
 40
1.0
  9
$DIMASZ
 40
2.5
  9
$DIMEXO
 40
0.625
  9
$DIMDLI
 40
3.75
  9
$DIMRND
 40
0.0
  9
$DIMDLE
 40
0.0
  9
$DIMEXE
 40
1.25
  9
$DIMTP
 40
0.0
  9
$DIMTM
 40
0.0
  9
$DIMTXT
 40
2.5
  9
$DIMCEN
 40
2.5
  9
$DIMTSZ
 40
0.0
  9
$DIMTOL
 70
0
  9
$DIMLIM
 70
0
  9
$DIMTIH
 70
0
  9
$DIMTOH
 70
0
  9
$DIMSE1
 70
0
  9
$DIMSE2
 70
0
  9
$DIMTAD
 70
1
  9
$DIMZIN
 70
8
  9
$DIMBLK
  1

  9
$DIMASO
 70
1
  9
$DIMSHO
 70
1
  9
$DIMPOST
  1

  9
$DIMAPOST
  1

  9
$DIMALT
 70
0
  9
$DIMALTD
 70
3
  9
$DIMALTF
 40
0.03937007874
  9
$DIMLFAC
 40
1.0
  9
$DIMTOFL
 70
1
  9
$DIMTVP
 40
0.0
  9
$DIMTIX
 70
0
  9
$DIMSOXD
 70
0
  9
$DIMSAH
 70
0
  9
$DIMBLK1
  1

  9
$DIMBLK2
  1

  9
$DIMSTYLE
  2
ISO-25
  9
$DIMCLRD
 70
0
  9
$DIMCLRE
 70
0
  9
$DIMCLRT
 70
0
  9
$DIMTFAC
 40
1.0
  9
$DIMGAP
 40
0.625
  9
$DIMJUST
 70
0
  9
$DIMSD1
 70
0
  9
$DIMSD2
 70
0
  9
$DIMTOLJ
 70
0
  9
$DIMTZIN
 70
8
  9
$DIMALTZ
 70
0
  9
$DIMALTTZ
 70
0
  9
$DIMUPT
 70
0
  9
$DIMDEC
 70
2
  9
$DIMTDEC
 70
2
  9
$DIMALTU
 70
2
  9
$DIMALTTD
 70
3
  9
$DIMTXSTY
  7
Standard
  9
$DIMAUNIT
 70
0
  9
$DIMADEC
 70
0
  9
$DIMALTRND
 40
0.0
  9
$DIMAZIN
 70
0
  9
$DIMDSEP
 70
44
  9
$DIMATFIT
 70
3
  9
$DIMFRAC
 70
0
  9
$DIMLDRBLK
  1

  9
$DIMLUNIT
 70
2
  9
$DIMLWD
 70
-2
  9
$DIMLWE
 70
-2
  9
$DIMTMOVE
 70
0
  9
$DIMFXL
 40
1.0
  9
$DIMFXLON
 70
0
  9
$DIMJOGANG
 40
0.785398163397
  9
$DIMTFILL
 70
0
  9
$DIMTFILLCLR
 70
0
  9
$DIMARCSYM
 70
0
  9
$DIMLTYPE
  6

  9
$DIMLTEX1
  6

  9
$DIMLTEX2
  6

  9
$DIMTXTDIRECTION
 70
0
  9
$LUNITS
 70
2
  9
$LUPREC
 70
4
  9
$SKETCHINC
 40
1.0
  9
$FILLETRAD
 40
10.0
  9
$AUNITS
 70
0
  9
$AUPREC
 70
2
  9
$MENU
  1
.
  9
$ELEVATION
 40
0.0
  9
$PELEVATION
 40
0.0
  9
$THICKNESS
 40
0.0
  9
$LIMCHECK
 70
0
  9
$CHAMFERA
 40
0.0
  9
$CHAMFERB
 40
0.0
  9
$CHAMFERC
 40
0.0
  9
$CHAMFERD
 40
0.0
  9
$SKPOLY
 70
0
  9
$TDCREATE
 40
2461196.8099189815
  9
$TDUCREATE
 40
2458532.153996898
  9
$TDUPDATE
 40
2461196.8099189815
  9
$TDUUPDATE
 40
2458532.1544311
  9
$TDINDWG
 40
0.0
  9
$TDUSRTIMER
 40
0.0
  9
$USRTIMER
 70
1
  9
$ANGBASE
 50
0.0
  9
$ANGDIR
 70
0
  9
$PDMODE
 70
0
  9
$PDSIZE
 40
0.0
  9
$PLINEWID
 40
0.0
  9
$SPLFRAME
 70
0
  9
$SPLINETYPE
 70
6
  9
$SPLINESEGS
 70
8
  9
$HANDSEED
  5
188
  9
$SURFTAB1
 70
6
  9
$SURFTAB2
 70
6
  9
$SURFTYPE
 70
6
  9
$SURFU
 70
6
  9
$SURFV
 70
6
  9
$UCSBASE
  2

  9
$UCSNAME
  2

  9
$UCSORG
 10
0.0
 20
0.0
 30
0.0
  9
$UCSXDIR
 10
1.0
 20
0.0
 30
0.0
  9
$UCSYDIR
 10
0.0
 20
1.0
 30
0.0
  9
$UCSORTHOREF
  2

  9
$UCSORTHOVIEW
 70
0
  9
$UCSORGTOP
 10
0.0
 20
0.0
 30
0.0
  9
$UCSORGBOTTOM
 10
0.0
 20
0.0
 30
0.0
  9
$UCSORGLEFT
 10
0.0
 20
0.0
 30
0.0
  9
$UCSORGRIGHT
 10
0.0
 20
0.0
 30
0.0
  9
$UCSORGFRONT
 10
0.0
 20
0.0
 30
0.0
  9
$UCSORGBACK
 10
0.0
 20
0.0
 30
0.0
  9
$PUCSBASE
  2

  9
$PUCSNAME
  2

  9
$PUCSORG
 10
0.0
 20
0.0
 30
0.0
  9
$PUCSXDIR
 10
1.0
 20
0.0
 30
0.0
  9
$PUCSYDIR
 10
0.0
 20
1.0
 30
0.0
  9
$PUCSORTHOREF
  2

  9
$PUCSORTHOVIEW
 70
0
  9
$PUCSORGTOP
 10
0.0
 20
0.0
 30
0.0
  9
$PUCSORGBOTTOM
 10
0.0
 20
0.0
 30
0.0
  9
$PUCSORGLEFT
 10
0.0
 20
0.0
 30
0.0
  9
$PUCSORGRIGHT
 10
0.0
 20
0.0
 30
0.0
  9
$PUCSORGFRONT
 10
0.0
 20
0.0
 30
0.0
  9
$PUCSORGBACK
 10
0.0
 20
0.0
 30
0.0
  9
$USERI1
 70
0
  9
$USERI2
 70
0
  9
$USERI3
 70
0
  9
$USERI4
 70
0
  9
$USERI5
 70
0
  9
$USERR1
 40
0.0
  9
$USERR2
 40
0.0
  9
$USERR3
 40
0.0
  9
$USERR4
 40
0.0
  9
$USERR5
 40
0.0
  9
$WORLDVIEW
 70
1
  9
$SHADEDGE
 70
3
  9
$SHADEDIF
 70
70
  9
$TILEMODE
 70
1
  9
$MAXACTVP
 70
64
  9
$PINSBASE
 10
0.0
 20
0.0
 30
0.0
  9
$PLIMCHECK
 70
0
  9
$PEXTMIN
 10
1e+20
 20
1e+20
 30
1e+20
  9
$PEXTMAX
 10
-1e+20
 20
-1e+20
 30
-1e+20
  9
$PLIMMIN
 10
0.0
 20
0.0
  9
$PLIMMAX
 10
420.0
 20
297.0
  9
$UNITMODE
 70
0
  9
$VISRETAIN
 70
1
  9
$PLINEGEN
 70
0
  9
$PSLTSCALE
 70
1
  9
$TREEDEPTH
 70
3020
  9
$CMLSTYLE
  2
Standard
  9
$CMLJUST
 70
0
  9
$CMLSCALE
 40
20.0
  9
$PROXYGRAPHICS
 70
1
  9
$MEASUREMENT
 70
1
  9
$CELWEIGHT
370
-1
  9
$ENDCAPS
280
0
  9
$JOINSTYLE
280
0
  9
$LWDISPLAY
290
0
  9
$INSUNITS
 70
6
  9
$HYPERLINKBASE
  1

  9
$STYLESHEET
  1

  9
$XEDIT
290
1
  9
$CEPSNTYPE
380
0
  9
$PSTYLEMODE
290
1
  9
$FINGERPRINTGUID
  2
{AC4050E9-218E-445D-975B-474A74E927F5}
  9
$VERSIONGUID
  2
{E64F0654-C0C3-46D7-8185-65D1AF02C97D}
  9
$EXTNAMES
290
1
  9
$PSVPSCALE
 40
0.0
  9
$OLESTARTUP
290
0
  9
$SORTENTS
280
127
  9
$INDEXCTL
280
0
  9
$HIDETEXT
280
1
  9
$XCLIPFRAME
280
1
  9
$HALOGAP
280
0
  9
$OBSCOLOR
 70
257
  9
$OBSLTYPE
280
0
  9
$INTERSECTIONDISPLAY
280
0
  9
$INTERSECTIONCOLOR
 70
257
  9
$DIMASSOC
280
2
  9
$PROJECTNAME
  1

  9
$CAMERADISPLAY
290
0
  9
$LENSLENGTH
 40
50.0
  9
$CAMERAHEIGHT
 40
0.0
  9
$STEPSPERSEC
 40
24.0
  9
$STEPSIZE
 40
100.0
  9
$3DDWFPREC
 40
2.0
  9
$PSOLWIDTH
 40
0.005
  9
$PSOLHEIGHT
 40
0.08
  9
$LOFTANG1
 40
1.570796326795
  9
$LOFTANG2
 40
1.570796326795
  9
$LOFTMAG1
 40
0.0
  9
$LOFTMAG2
 40
0.0
  9
$LOFTPARAM
 70
7
  9
$LOFTNORMALS
280
1
  9
$LATITUDE
 40
37.795
  9
$LONGITUDE
 40
-122.394
  9
$NORTHDIRECTION
 40
0.0
  9
$TIMEZONE
 70
-8000
  9
$LIGHTGLYPHDISPLAY
280
1
  9
$TILEMODELIGHTSYNCH
280
1
  9
$CMATERIAL
347
20
  9
$SOLIDHIST
280
0
  9
$SHOWHIST
280
1
  9
$DWFFRAME
280
2
  9
$DGNFRAME
280
2
  9
$REALWORLDSCALE
290
1
  9
$INTERFERECOLOR
 62
256
  9
$CSHADOW
280
0
  9
$SHADOWPLANELOCATION
 40
0.0
  0
ENDSEC
  0
SECTION
  2
CLASSES
  0
CLASS
  1
ACDBDICTIONARYWDFLT
  2
AcDbDictionaryWithDefault
  3
ObjectDBX Classes
 90
0
 91
0
280
0
281
0
  0
CLASS
  1
SUN
  2
AcDbSun
  3
SCENEOE
 90
1153
 91
0
280
0
281
0
  0
CLASS
  1
VISUALSTYLE
  2
AcDbVisualStyle
  3
ObjectDBX Classes
 90
4095
 91
0
280
0
281
0
  0
CLASS
  1
MATERIAL
  2
AcDbMaterial
  3
ObjectDBX Classes
 90
1153
 91
0
280
0
281
0
  0
CLASS
  1
SCALE
  2
AcDbScale
  3
ObjectDBX Classes
 90
1153
 91
0
280
0
281
0
  0
CLASS
  1
TABLESTYLE
  2
AcDbTableStyle
  3
ObjectDBX Classes
 90
4095
 91
0
280
0
281
0
  0
CLASS
  1
MLEADERSTYLE
  2
AcDbMLeaderStyle
  3
ACDB_MLEADERSTYLE_CLASS
 90
4095
 91
0
280
0
281
0
  0
CLASS
  1
DICTIONARYVAR
  2
AcDbDictionaryVar
  3
ObjectDBX Classes
 90
0
 91
0
280
0
281
0
  0
CLASS
  1
CELLSTYLEMAP
  2
AcDbCellStyleMap
  3
ObjectDBX Classes
 90
1152
 91
0
280
0
281
0
  0
CLASS
  1
MENTALRAYRENDERSETTINGS
  2
AcDbMentalRayRenderSettings
  3
SCENEOE
 90
1024
 91
0
280
0
281
0
  0
CLASS
  1
ACDBDETAILVIEWSTYLE
  2
AcDbDetailViewStyle
  3
ObjectDBX Classes
 90
1025
 91
0
280
0
281
0
  0
CLASS
  1
ACDBSECTIONVIEWSTYLE
  2
AcDbSectionViewStyle
  3
ObjectDBX Classes
 90
1025
 91
0
280
0
281
0
  0
CLASS
  1
RASTERVARIABLES
  2
AcDbRasterVariables
  3
ISM
 90
0
 91
0
280
0
281
0
  0
CLASS
  1
ACDBPLACEHOLDER
  2
AcDbPlaceHolder
  3
ObjectDBX Classes
 90
0
 91
0
280
0
281
0
  0
CLASS
  1
LAYOUT
  2
AcDbLayout
  3
ObjectDBX Classes
 90
0
 91
0
280
0
281
0
  0
ENDSEC
  0
SECTION
  2
TABLES
  0
TABLE
  2
VPORT
  5
8
330
0
100
AcDbSymbolTable
 70
1
  0
VPORT
  5
23
330
8
100
AcDbSymbolTableRecord
100
AcDbViewportTableRecord
  2
*Active
 70
0
 10
0.0
 20
0.0
 11
1.0
 21
1.0
 12
0.0
 22
0.0
 13
0.0
 23
0.0
 14
0.5
 24
0.5
 15
0.5
 25
0.5
 16
0.0
 26
0.0
 36
1.0
 17
0.0
 27
0.0
 37
0.0
 40
1000.0
 41
1.34
 42
50.0
 43
0.0
 44
0.0
 50
0.0
 51
0.0
 71
0
 72
1000
 73
1
 74
3
 75
0
 76
0
 77
0
 78
0
281
0
 65
0
146
0.0
  0
ENDTAB
  0
TABLE
  2
LTYPE
  5
2
330
0
100
AcDbSymbolTable
 70
3
  0
LTYPE
  5
24
330
2
100
AcDbSymbolTableRecord
100
AcDbLinetypeTableRecord
  2
ByBlock
 70
0
  3

 72
65
 73
0
 40
0.0
  0
LTYPE
  5
25
330
2
100
AcDbSymbolTableRecord
100
AcDbLinetypeTableRecord
  2
ByLayer
 70
0
  3

 72
65
 73
0
 40
0.0
  0
LTYPE
  5
26
330
2
100
AcDbSymbolTableRecord
100
AcDbLinetypeTableRecord
  2
Continuous
 70
0
  3

 72
65
 73
0
 40
0.0
  0
ENDTAB
  0
TABLE
  2
LAYER
  5
1
330
0
100
AcDbSymbolTable
 70
12
  0
LAYER
  5
27
330
1
100
AcDbSymbolTableRecord
100
AcDbLayerTableRecord
  2
0
 70
0
 62
7
  6
Continuous
370
-3
390
13
347
21
  0
LAYER
  5
28
330
1
100
AcDbSymbolTableRecord
100
AcDbLayerTableRecord
  2
Defpoints
 70
0
 62
7
  6
Continuous
290
0
370
-3
390
13
347
21
  0
LAYER
  5
2F
330
1
100
AcDbSymbolTableRecord
100
AcDbLayerTableRecord
  2
STRINGS
 70
0
 62
7
  6
Continuous
370
-3
390
13
347
21
  0
LAYER
  5
30
330
1
100
AcDbSymbolTableRecord
100
AcDbLayerTableRecord
  2
DOT_G
 70
0
 62
7
  6
Continuous
370
-3
390
13
347
21
  0
LAYER
  5
31
330
1
100
AcDbSymbolTableRecord
100
AcDbLayerTableRecord
  2
DOT_S
 70
0
 62
7
  6
Continuous
370
-3
390
13
347
21
  0
LAYER
  5
32
330
1
100
AcDbSymbolTableRecord
100
AcDbLayerTableRecord
  2
DOT_N
 70
0
 62
7
  6
Continuous
370
-3
390
13
347
21
  0
LAYER
  5
33
330
1
100
AcDbSymbolTableRecord
100
AcDbLayerTableRecord
  2
DOT_F
 70
0
 62
7
  6
Continuous
370
-3
390
13
347
21
  0
LAYER
  5
34
330
1
100
AcDbSymbolTableRecord
100
AcDbLayerTableRecord
  2
DOT_T
 70
0
 62
7
  6
Continuous
370
-3
390
13
347
21
  0
LAYER
  5
35
330
1
100
AcDbSymbolTableRecord
100
AcDbLayerTableRecord
  2
RIB
 70
0
 62
7
  6
Continuous
370
-3
390
13
347
21
  0
LAYER
  5
36
330
1
100
AcDbSymbolTableRecord
100
AcDbLayerTableRecord
  2
NECK_U
 70
0
 62
7
  6
Continuous
370
-3
390
13
347
21
  0
LAYER
  5
37
330
1
100
AcDbSymbolTableRecord
100
AcDbLayerTableRecord
  2
NECK_L
 70
0
 62
7
  6
Continuous
370
-3
390
13
347
21
  0
LAYER
  5
38
330
1
100
AcDbSymbolTableRecord
100
AcDbLayerTableRecord
  2
LABELS
 70
0
 62
7
  6
Continuous
370
-3
390
13
347
21
  0
ENDTAB
  0
TABLE
  2
STYLE
  5
5
330
0
100
AcDbSymbolTable
 70
1
  0
STYLE
  5
29
330
5
100
AcDbSymbolTableRecord
100
AcDbTextStyleTableRecord
  2
Standard
 70
0
 40
0.0
 41
1.0
 50
0.0
 71
0
 42
2.5
  3
txt
  4

  0
ENDTAB
  0
TABLE
  2
VIEW
  5
7
330
0
100
AcDbSymbolTable
 70
0
  0
ENDTAB
  0
TABLE
  2
UCS
  5
6
330
0
100
AcDbSymbolTable
 70
0
  0
ENDTAB
  0
TABLE
  2
APPID
  5
3
330
0
100
AcDbSymbolTable
 70
3
  0
APPID
  5
2A
330
3
100
AcDbSymbolTableRecord
100
AcDbRegAppTableRecord
  2
ACAD
 70
0
  0
APPID
  5
185
330
3
100
AcDbSymbolTableRecord
100
AcDbRegAppTableRecord
  2
HATCHBACKGROUNDCOLOR
 70
0
  0
APPID
  5
186
330
3
100
AcDbSymbolTableRecord
100
AcDbRegAppTableRecord
  2
EZDXF
 70
0
  0
ENDTAB
  0
TABLE
  2
DIMSTYLE
  5
4
330
0
100
AcDbSymbolTable
 70
1
100
AcDbDimStyleTable
  0
DIMSTYLE
105
2B
330
4
100
AcDbSymbolTableRecord
100
AcDbDimStyleTableRecord
  2
Standard
 70
0
 40
1.0
 41
2.5
 42
0.625
 43
3.75
 44
1.25
 45
0.0
 46
0.0
 47
0.0
 48
0.0
 49
2.5
140
2.5
141
2.5
142
0.0
143
0.03937007874
144
1.0
145
0.0
146
1.0
147
0.625
148
0.0
 69
0
 70
0
 71
0
 72
0
 73
0
 74
0
 75
0
 76
0
 77
1
 78
8
 79
3
170
0
171
3
172
1
173
0
174
0
175
0
176
0
177
0
178
0
179
2
271
2
272
2
273
2
274
3
275
0
276
0
277
2
278
44
279
0
280
0
281
0
282
0
283
0
284
8
285
0
286
0
288
0
289
3
290
0
371
-2
372
-2
  0
ENDTAB
  0
TABLE
  2
BLOCK_RECORD
  5
9
330
0
100
AcDbSymbolTable
 70
2
  0
BLOCK_RECORD
  5
17
330
9
100
AcDbSymbolTableRecord
100
AcDbBlockTableRecord
  2
*Model_Space
340
1A
 70
0
280
1
281
0
  0
BLOCK_RECORD
  5
1B
330
9
100
AcDbSymbolTableRecord
100
AcDbBlockTableRecord
  2
*Paper_Space
340
1E
 70
0
280
1
281
0
  0
ENDTAB
  0
ENDSEC
  0
SECTION
  2
BLOCKS
  0
BLOCK
  5
18
330
17
100
AcDbEntity
  8
0
100
AcDbBlockBegin
  2
*Model_Space
 70
0
 10
0.0
 20
0.0
 30
0.0
  3
*Model_Space
  1

  0
ENDBLK
  5
19
330
17
100
AcDbEntity
  8
0
100
AcDbBlockEnd
  0
BLOCK
  5
1C
330
1B
100
AcDbEntity
  8
0
100
AcDbBlockBegin
  2
*Paper_Space
 70
0
 10
0.0
 20
0.0
 30
0.0
  3
*Paper_Space
  1

  0
ENDBLK
  5
1D
330
1B
100
AcDbEntity
  8
0
100
AcDbBlockEnd
  0
ENDSEC
  0
SECTION
  2
ENTITIES
  0
LINE
  5
39
330
17
100
AcDbEntity
  8
STRINGS
100
AcDbLine
 10
0.0
 20
329.8
 30
0.0
 11
0.0
 21
1923.1
 31
0.0
  0
CIRCLE
  5
3A
330
17
100
AcDbEntity
  8
DOT_G
100
AcDbCircle
 10
0.0
 20
329.8
 30
0.0
 40
2.0
  0
CIRCLE
  5
3B
330
17
100
AcDbEntity
  8
DOT_S
100
AcDbCircle
 10
0.0
 20
1718.1
 30
0.0
 40
2.0
  0
CIRCLE
  5
3C
330
17
100
AcDbEntity
  8
DOT_N
100
AcDbCircle
 10
0.0
 20
1800.6
 30
0.0
 40
2.0
  0
CIRCLE
  5
3D
330
17
100
AcDbEntity
  8
DOT_F
100
AcDbCircle
 10
0.0
 20
1888.1
 30
0.0
 40
2.0
  0
CIRCLE
  5
3E
330
17
100
AcDbEntity
  8
DOT_T
100
AcDbCircle
 10
0.0
 20
1923.1
 30
0.0
 40
2.0
  0
TEXT
  5
3F
330
17
100
AcDbEntity
  8
LABELS
100
AcDbText
 10
0.0
 20
317.8
 30
0.0
 40
6.0
  1
C1
 11
0.0
 21
317.8
 31
0.0
100
AcDbText
  0
LINE
  5
40
330
17
100
AcDbEntity
  8
STRINGS
100
AcDbLine
 10
14.2
 20
362.3
 30
0.0
 11
14.2
 21
1924.8
 31
0.0
  0
CIRCLE
  5
41
330
17
100
AcDbEntity
  8
DOT_G
100
AcDbCircle
 10
14.2
 20
362.3
 30
0.0
 40
2.0
  0
CIRCLE
  5
42
330
17
100
AcDbEntity
  8
DOT_S
100
AcDbCircle
 10
14.2
 20
1723.2
 30
0.0
 40
2.0
  0
CIRCLE
  5
43
330
17
100
AcDbEntity
  8
DOT_N
100
AcDbCircle
 10
14.2
 20
1804.1
 30
0.0
 40
2.0
  0
CIRCLE
  5
44
330
17
100
AcDbEntity
  8
DOT_F
100
AcDbCircle
 10
14.2
 20
1889.8
 30
0.0
 40
2.0
  0
CIRCLE
  5
45
330
17
100
AcDbEntity
  8
DOT_T
100
AcDbCircle
 10
14.2
 20
1924.8
 30
0.0
 40
2.0
  0
TEXT
  5
46
330
17
100
AcDbEntity
  8
LABELS
100
AcDbText
 10
14.2
 20
350.3
 30
0.0
 40
6.0
  1
D1
 11
14.2
 21
350.3
 31
0.0
100
AcDbText
  0
LINE
  5
47
330
17
100
AcDbEntity
  8
STRINGS
100
AcDbLine
 10
27.7
 20
393.5
 30
0.0
 11
27.7
 21
1922.3
 31
0.0
  0
CIRCLE
  5
48
330
17
100
AcDbEntity
  8
DOT_G
100
AcDbCircle
 10
27.7
 20
393.5
 30
0.0
 40
2.0
  0
CIRCLE
  5
49
330
17
100
AcDbEntity
  8
DOT_S
100
AcDbCircle
 10
27.7
 20
1724.3
 30
0.0
 40
2.0
  0
CIRCLE
  5
4A
330
17
100
AcDbEntity
  8
DOT_N
100
AcDbCircle
 10
27.7
 20
1803.4
 30
0.0
 40
2.0
  0
CIRCLE
  5
4B
330
17
100
AcDbEntity
  8
DOT_F
100
AcDbCircle
 10
27.7
 20
1887.3
 30
0.0
 40
2.0
  0
CIRCLE
  5
4C
330
17
100
AcDbEntity
  8
DOT_T
100
AcDbCircle
 10
27.7
 20
1922.3
 30
0.0
 40
2.0
  0
TEXT
  5
4D
330
17
100
AcDbEntity
  8
LABELS
100
AcDbText
 10
27.7
 20
381.5
 30
0.0
 40
6.0
  1
E1
 11
27.7
 21
381.5
 31
0.0
100
AcDbText
  0
LINE
  5
4E
330
17
100
AcDbEntity
  8
STRINGS
100
AcDbLine
 10
41.8
 20
425.6
 30
0.0
 11
41.8
 21
1954.4
 31
0.0
  0
CIRCLE
  5
4F
330
17
100
AcDbEntity
  8
DOT_G
100
AcDbCircle
 10
41.8
 20
425.6
 30
0.0
 40
2.0
  0
CIRCLE
  5
50
330
17
100
AcDbEntity
  8
DOT_S
100
AcDbCircle
 10
41.8
 20
1756.4
 30
0.0
 40
2.0
  0
CIRCLE
  5
51
330
17
100
AcDbEntity
  8
DOT_N
100
AcDbCircle
 10
41.8
 20
1835.5
 30
0.0
 40
2.0
  0
CIRCLE
  5
52
330
17
100
AcDbEntity
  8
DOT_F
100
AcDbCircle
 10
41.8
 20
1919.4
 30
0.0
 40
2.0
  0
CIRCLE
  5
53
330
17
100
AcDbEntity
  8
DOT_T
100
AcDbCircle
 10
41.8
 20
1954.4
 30
0.0
 40
2.0
  0
TEXT
  5
54
330
17
100
AcDbEntity
  8
LABELS
100
AcDbText
 10
41.8
 20
413.6
 30
0.0
 40
6.0
  1
F1
 11
41.8
 21
413.6
 31
0.0
100
AcDbText
  0
LINE
  5
55
330
17
100
AcDbEntity
  8
STRINGS
100
AcDbLine
 10
56.2
 20
458.8
 30
0.0
 11
56.2
 21
1980.6
 31
0.0
  0
CIRCLE
  5
56
330
17
100
AcDbEntity
  8
DOT_G
100
AcDbCircle
 10
56.2
 20
458.8
 30
0.0
 40
2.0
  0
CIRCLE
  5
57
330
17
100
AcDbEntity
  8
DOT_S
100
AcDbCircle
 10
56.2
 20
1783.4
 30
0.0
 40
2.0
  0
CIRCLE
  5
58
330
17
100
AcDbEntity
  8
DOT_N
100
AcDbCircle
 10
56.2
 20
1862.2
 30
0.0
 40
2.0
  0
CIRCLE
  5
59
330
17
100
AcDbEntity
  8
DOT_F
100
AcDbCircle
 10
56.2
 20
1945.6
 30
0.0
 40
2.0
  0
CIRCLE
  5
5A
330
17
100
AcDbEntity
  8
DOT_T
100
AcDbCircle
 10
56.2
 20
1980.6
 30
0.0
 40
2.0
  0
TEXT
  5
5B
330
17
100
AcDbEntity
  8
LABELS
100
AcDbText
 10
56.2
 20
446.8
 30
0.0
 40
6.0
  1
G1
 11
56.2
 21
446.8
 31
0.0
100
AcDbText
  0
LINE
  5
5C
330
17
100
AcDbEntity
  8
STRINGS
100
AcDbLine
 10
70.1
 20
490.6
 30
0.0
 11
70.1
 21
1996.0
 31
0.0
  0
CIRCLE
  5
5D
330
17
100
AcDbEntity
  8
DOT_G
100
AcDbCircle
 10
70.1
 20
490.6
 30
0.0
 40
2.0
  0
CIRCLE
  5
5E
330
17
100
AcDbEntity
  8
DOT_S
100
AcDbCircle
 10
70.1
 20
1802.8
 30
0.0
 40
2.0
  0
CIRCLE
  5
5F
330
17
100
AcDbEntity
  8
DOT_N
100
AcDbCircle
 10
70.1
 20
1880.9
 30
0.0
 40
2.0
  0
CIRCLE
  5
60
330
17
100
AcDbEntity
  8
DOT_F
100
AcDbCircle
 10
70.1
 20
1963.5
 30
0.0
 40
2.0
  0
CIRCLE
  5
61
330
17
100
AcDbEntity
  8
DOT_T
100
AcDbCircle
 10
70.1
 20
1996.0
 30
0.0
 40
2.0
  0
TEXT
  5
62
330
17
100
AcDbEntity
  8
LABELS
100
AcDbText
 10
70.1
 20
478.6
 30
0.0
 40
6.0
  1
A1
 11
70.1
 21
478.6
 31
0.0
100
AcDbText
  0
LINE
  5
63
330
17
100
AcDbEntity
  8
STRINGS
100
AcDbLine
 10
84.5
 20
524.0
 30
0.0
 11
84.5
 21
1980.3
 31
0.0
  0
CIRCLE
  5
64
330
17
100
AcDbEntity
  8
DOT_G
100
AcDbCircle
 10
84.5
 20
524.0
 30
0.0
 40
2.0
  0
CIRCLE
  5
65
330
17
100
AcDbEntity
  8
DOT_S
100
AcDbCircle
 10
84.5
 20
1790.3
 30
0.0
 40
2.0
  0
CIRCLE
  5
66
330
17
100
AcDbEntity
  8
DOT_N
100
AcDbCircle
 10
84.5
 20
1865.6
 30
0.0
 40
2.0
  0
CIRCLE
  5
67
330
17
100
AcDbEntity
  8
DOT_F
100
AcDbCircle
 10
84.5
 20
1945.3
 30
0.0
 40
2.0
  0
CIRCLE
  5
68
330
17
100
AcDbEntity
  8
DOT_T
100
AcDbCircle
 10
84.5
 20
1980.3
 30
0.0
 40
2.0
  0
TEXT
  5
69
330
17
100
AcDbEntity
  8
LABELS
100
AcDbText
 10
84.5
 20
512.0
 30
0.0
 40
6.0
  1
B1
 11
84.5
 21
512.0
 31
0.0
100
AcDbText
  0
LINE
  5
6A
330
17
100
AcDbEntity
  8
STRINGS
100
AcDbLine
 10
99.7
 20
558.9
 30
0.0
 11
99.7
 21
1962.6
 31
0.0
  0
CIRCLE
  5
6B
330
17
100
AcDbEntity
  8
DOT_G
100
AcDbCircle
 10
99.7
 20
558.9
 30
0.0
 40
2.0
  0
CIRCLE
  5
6C
330
17
100
AcDbEntity
  8
DOT_S
100
AcDbCircle
 10
99.7
 20
1778.3
 30
0.0
 40
2.0
  0
CIRCLE
  5
6D
330
17
100
AcDbEntity
  8
DOT_N
100
AcDbCircle
 10
99.7
 20
1850.8
 30
0.0
 40
2.0
  0
CIRCLE
  5
6E
330
17
100
AcDbEntity
  8
DOT_F
100
AcDbCircle
 10
99.7
 20
1927.6
 30
0.0
 40
2.0
  0
CIRCLE
  5
6F
330
17
100
AcDbEntity
  8
DOT_T
100
AcDbCircle
 10
99.7
 20
1962.6
 30
0.0
 40
2.0
  0
TEXT
  5
70
330
17
100
AcDbEntity
  8
LABELS
100
AcDbText
 10
99.7
 20
546.9
 30
0.0
 40
6.0
  1
C2
 11
99.7
 21
546.9
 31
0.0
100
AcDbText
  0
LINE
  5
71
330
17
100
AcDbEntity
  8
STRINGS
100
AcDbLine
 10
113.9
 20
591.4
 30
0.0
 11
113.9
 21
1986.2
 31
0.0
  0
CIRCLE
  5
72
330
17
100
AcDbEntity
  8
DOT_G
100
AcDbCircle
 10
113.9
 20
591.4
 30
0.0
 40
2.0
  0
CIRCLE
  5
73
330
17
100
AcDbEntity
  8
DOT_S
100
AcDbCircle
 10
113.9
 20
1802.8
 30
0.0
 40
2.0
  0
CIRCLE
  5
74
330
17
100
AcDbEntity
  8
DOT_N
100
AcDbCircle
 10
113.9
 20
1874.9
 30
0.0
 40
2.0
  0
CIRCLE
  5
75
330
17
100
AcDbEntity
  8
DOT_F
100
AcDbCircle
 10
113.9
 20
1951.2
 30
0.0
 40
2.0
  0
CIRCLE
  5
76
330
17
100
AcDbEntity
  8
DOT_T
100
AcDbCircle
 10
113.9
 20
1986.2
 30
0.0
 40
2.0
  0
TEXT
  5
77
330
17
100
AcDbEntity
  8
LABELS
100
AcDbText
 10
113.9
 20
579.4
 30
0.0
 40
6.0
  1
D2
 11
113.9
 21
579.4
 31
0.0
100
AcDbText
  0
LINE
  5
78
330
17
100
AcDbEntity
  8
STRINGS
100
AcDbLine
 10
128.2
 20
624.1
 30
0.0
 11
128.2
 21
1987.1
 31
0.0
  0
CIRCLE
  5
79
330
17
100
AcDbEntity
  8
DOT_G
100
AcDbCircle
 10
128.2
 20
624.1
 30
0.0
 40
2.0
  0
CIRCLE
  5
7A
330
17
100
AcDbEntity
  8
DOT_S
100
AcDbCircle
 10
128.2
 20
1807.2
 30
0.0
 40
2.0
  0
CIRCLE
  5
7B
330
17
100
AcDbEntity
  8
DOT_N
100
AcDbCircle
 10
128.2
 20
1877.6
 30
0.0
 40
2.0
  0
CIRCLE
  5
7C
330
17
100
AcDbEntity
  8
DOT_F
100
AcDbCircle
 10
128.2
 20
1952.1
 30
0.0
 40
2.0
  0
CIRCLE
  5
7D
330
17
100
AcDbEntity
  8
DOT_T
100
AcDbCircle
 10
128.2
 20
1987.1
 30
0.0
 40
2.0
  0
TEXT
  5
7E
330
17
100
AcDbEntity
  8
LABELS
100
AcDbText
 10
128.2
 20
612.1
 30
0.0
 40
6.0
  1
E2
 11
128.2
 21
612.1
 31
0.0
100
AcDbText
  0
LINE
  5
7F
330
17
100
AcDbEntity
  8
STRINGS
100
AcDbLine
 10
142.4
 20
656.8
 30
0.0
 11
142.4
 21
1969.2
 31
0.0
  0
CIRCLE
  5
80
330
17
100
AcDbEntity
  8
DOT_G
100
AcDbCircle
 10
142.4
 20
656.8
 30
0.0
 40
2.0
  0
CIRCLE
  5
81
330
17
100
AcDbEntity
  8
DOT_S
100
AcDbCircle
 10
142.4
 20
1794.8
 30
0.0
 40
2.0
  0
CIRCLE
  5
82
330
17
100
AcDbEntity
  8
DOT_N
100
AcDbCircle
 10
142.4
 20
1862.5
 30
0.0
 40
2.0
  0
CIRCLE
  5
83
330
17
100
AcDbEntity
  8
DOT_F
100
AcDbCircle
 10
142.4
 20
1934.2
 30
0.0
 40
2.0
  0
CIRCLE
  5
84
330
17
100
AcDbEntity
  8
DOT_T
100
AcDbCircle
 10
142.4
 20
1969.2
 30
0.0
 40
2.0
  0
TEXT
  5
85
330
17
100
AcDbEntity
  8
LABELS
100
AcDbText
 10
142.4
 20
644.8
 30
0.0
 40
6.0
  1
F2
 11
142.4
 21
644.8
 31
0.0
100
AcDbText
  0
LINE
  5
86
330
17
100
AcDbEntity
  8
STRINGS
100
AcDbLine
 10
156.6
 20
689.4
 30
0.0
 11
156.6
 21
1970.0
 31
0.0
  0
CIRCLE
  5
87
330
17
100
AcDbEntity
  8
DOT_G
100
AcDbCircle
 10
156.6
 20
689.4
 30
0.0
 40
2.0
  0
CIRCLE
  5
88
330
17
100
AcDbEntity
  8
DOT_S
100
AcDbCircle
 10
156.6
 20
1799.1
 30
0.0
 40
2.0
  0
CIRCLE
  5
89
330
17
100
AcDbEntity
  8
DOT_N
100
AcDbCircle
 10
156.6
 20
1865.1
 30
0.0
 40
2.0
  0
CIRCLE
  5
8A
330
17
100
AcDbEntity
  8
DOT_F
100
AcDbCircle
 10
156.6
 20
1935.0
 30
0.0
 40
2.0
  0
CIRCLE
  5
8B
330
17
100
AcDbEntity
  8
DOT_T
100
AcDbCircle
 10
156.6
 20
1970.0
 30
0.0
 40
2.0
  0
TEXT
  5
8C
330
17
100
AcDbEntity
  8
LABELS
100
AcDbText
 10
156.6
 20
677.4
 30
0.0
 40
6.0
  1
G2
 11
156.6
 21
677.4
 31
0.0
100
AcDbText
  0
LINE
  5
8D
330
17
100
AcDbEntity
  8
STRINGS
100
AcDbLine
 10
170.8
 20
722.1
 30
0.0
 11
170.8
 21
1996.0
 31
0.0
  0
CIRCLE
  5
8E
330
17
100
AcDbEntity
  8
DOT_G
100
AcDbCircle
 10
170.8
 20
722.1
 30
0.0
 40
2.0
  0
CIRCLE
  5
8F
330
17
100
AcDbEntity
  8
DOT_S
100
AcDbCircle
 10
170.8
 20
1831.8
 30
0.0
 40
2.0
  0
CIRCLE
  5
90
330
17
100
AcDbEntity
  8
DOT_N
100
AcDbCircle
 10
170.8
 20
1897.8
 30
0.0
 40
2.0
  0
CIRCLE
  5
91
330
17
100
AcDbEntity
  8
DOT_F
100
AcDbCircle
 10
170.8
 20
1967.7
 30
0.0
 40
2.0
  0
CIRCLE
  5
92
330
17
100
AcDbEntity
  8
DOT_T
100
AcDbCircle
 10
170.8
 20
1996.0
 30
0.0
 40
2.0
  0
TEXT
  5
93
330
17
100
AcDbEntity
  8
LABELS
100
AcDbText
 10
170.8
 20
710.1
 30
0.0
 40
6.0
  1
A2
 11
170.8
 21
710.1
 31
0.0
100
AcDbText
  0
LINE
  5
94
330
17
100
AcDbEntity
  8
STRINGS
100
AcDbLine
 10
185.1
 20
754.6
 30
0.0
 11
185.1
 21
1978.1
 31
0.0
  0
CIRCLE
  5
95
330
17
100
AcDbEntity
  8
DOT_G
100
AcDbCircle
 10
185.1
 20
754.6
 30
0.0
 40
2.0
  0
CIRCLE
  5
96
330
17
100
AcDbEntity
  8
DOT_S
100
AcDbCircle
 10
185.1
 20
1813.4
 30
0.0
 40
2.0
  0
CIRCLE
  5
97
330
17
100
AcDbEntity
  8
DOT_N
100
AcDbCircle
 10
185.1
 20
1876.4
 30
0.0
 40
2.0
  0
CIRCLE
  5
98
330
17
100
AcDbEntity
  8
DOT_F
100
AcDbCircle
 10
185.1
 20
1943.1
 30
0.0
 40
2.0
  0
CIRCLE
  5
99
330
17
100
AcDbEntity
  8
DOT_T
100
AcDbCircle
 10
185.1
 20
1978.1
 30
0.0
 40
2.0
  0
TEXT
  5
9A
330
17
100
AcDbEntity
  8
LABELS
100
AcDbText
 10
185.1
 20
742.6
 30
0.0
 40
6.0
  1
B2
 11
185.1
 21
742.6
 31
0.0
100
AcDbText
  0
LINE
  5
9B
330
17
100
AcDbEntity
  8
STRINGS
100
AcDbLine
 10
199.3
 20
787.3
 30
0.0
 11
199.3
 21
1974.5
 31
0.0
  0
CIRCLE
  5
9C
330
17
100
AcDbEntity
  8
DOT_G
100
AcDbCircle
 10
199.3
 20
787.3
 30
0.0
 40
2.0
  0
CIRCLE
  5
9D
330
17
100
AcDbEntity
  8
DOT_S
100
AcDbCircle
 10
199.3
 20
1813.8
 30
0.0
 40
2.0
  0
CIRCLE
  5
9E
330
17
100
AcDbEntity
  8
DOT_N
100
AcDbCircle
 10
199.3
 20
1874.8
 30
0.0
 40
2.0
  0
CIRCLE
  5
9F
330
17
100
AcDbEntity
  8
DOT_F
100
AcDbCircle
 10
199.3
 20
1939.5
 30
0.0
 40
2.0
  0
CIRCLE
  5
A0
330
17
100
AcDbEntity
  8
DOT_T
100
AcDbCircle
 10
199.3
 20
1974.5
 30
0.0
 40
2.0
  0
TEXT
  5
A1
330
17
100
AcDbEntity
  8
LABELS
100
AcDbText
 10
199.3
 20
775.3
 30
0.0
 40
6.0
  1
C3
 11
199.3
 21
775.3
 31
0.0
100
AcDbText
  0
LINE
  5
A2
330
17
100
AcDbEntity
  8
STRINGS
100
AcDbLine
 10
213.5
 20
819.9
 30
0.0
 11
213.5
 21
1949.1
 31
0.0
  0
CIRCLE
  5
A3
330
17
100
AcDbEntity
  8
DOT_G
100
AcDbCircle
 10
213.5
 20
819.9
 30
0.0
 40
2.0
  0
CIRCLE
  5
A4
330
17
100
AcDbEntity
  8
DOT_S
100
AcDbCircle
 10
213.5
 20
1794.7
 30
0.0
 40
2.0
  0
CIRCLE
  5
A5
330
17
100
AcDbEntity
  8
DOT_N
100
AcDbCircle
 10
213.5
 20
1852.7
 30
0.0
 40
2.0
  0
CIRCLE
  5
A6
330
17
100
AcDbEntity
  8
DOT_F
100
AcDbCircle
 10
213.5
 20
1914.1
 30
0.0
 40
2.0
  0
CIRCLE
  5
A7
330
17
100
AcDbEntity
  8
DOT_T
100
AcDbCircle
 10
213.5
 20
1949.1
 30
0.0
 40
2.0
  0
TEXT
  5
A8
330
17
100
AcDbEntity
  8
LABELS
100
AcDbText
 10
213.5
 20
807.9
 30
0.0
 40
6.0
  1
D3
 11
213.5
 21
807.9
 31
0.0
100
AcDbText
  0
LINE
  5
A9
330
17
100
AcDbEntity
  8
STRINGS
100
AcDbLine
 10
227.4
 20
851.9
 30
0.0
 11
227.4
 21
1924.1
 31
0.0
  0
CIRCLE
  5
AA
330
17
100
AcDbEntity
  8
DOT_G
100
AcDbCircle
 10
227.4
 20
851.9
 30
0.0
 40
2.0
  0
CIRCLE
  5
AB
330
17
100
AcDbEntity
  8
DOT_S
100
AcDbCircle
 10
227.4
 20
1776.0
 30
0.0
 40
2.0
  0
CIRCLE
  5
AC
330
17
100
AcDbEntity
  8
DOT_N
100
AcDbCircle
 10
227.4
 20
1830.9
 30
0.0
 40
2.0
  0
CIRCLE
  5
AD
330
17
100
AcDbEntity
  8
DOT_F
100
AcDbCircle
 10
227.4
 20
1889.1
 30
0.0
 40
2.0
  0
CIRCLE
  5
AE
330
17
100
AcDbEntity
  8
DOT_T
100
AcDbCircle
 10
227.4
 20
1924.1
 30
0.0
 40
2.0
  0
TEXT
  5
AF
330
17
100
AcDbEntity
  8
LABELS
100
AcDbText
 10
227.4
 20
839.9
 30
0.0
 40
6.0
  1
E3
 11
227.4
 21
839.9
 31
0.0
100
AcDbText
  0
LINE
  5
B0
330
17
100
AcDbEntity
  8
STRINGS
100
AcDbLine
 10
241.0
 20
883.1
 30
0.0
 11
241.0
 21
1904.7
 31
0.0
  0
CIRCLE
  5
B1
330
17
100
AcDbEntity
  8
DOT_G
100
AcDbCircle
 10
241.0
 20
883.1
 30
0.0
 40
2.0
  0
CIRCLE
  5
B2
330
17
100
AcDbEntity
  8
DOT_S
100
AcDbCircle
 10
241.0
 20
1762.1
 30
0.0
 40
2.0
  0
CIRCLE
  5
B3
330
17
100
AcDbEntity
  8
DOT_N
100
AcDbCircle
 10
241.0
 20
1814.3
 30
0.0
 40
2.0
  0
CIRCLE
  5
B4
330
17
100
AcDbEntity
  8
DOT_F
100
AcDbCircle
 10
241.0
 20
1869.7
 30
0.0
 40
2.0
  0
CIRCLE
  5
B5
330
17
100
AcDbEntity
  8
DOT_T
100
AcDbCircle
 10
241.0
 20
1904.7
 30
0.0
 40
2.0
  0
TEXT
  5
B6
330
17
100
AcDbEntity
  8
LABELS
100
AcDbText
 10
241.0
 20
871.1
 30
0.0
 40
6.0
  1
F3
 11
241.0
 21
871.1
 31
0.0
100
AcDbText
  0
LINE
  5
B7
330
17
100
AcDbEntity
  8
STRINGS
100
AcDbLine
 10
254.3
 20
913.8
 30
0.0
 11
254.3
 21
1862.7
 31
0.0
  0
CIRCLE
  5
B8
330
17
100
AcDbEntity
  8
DOT_G
100
AcDbCircle
 10
254.3
 20
913.8
 30
0.0
 40
2.0
  0
CIRCLE
  5
B9
330
17
100
AcDbEntity
  8
DOT_S
100
AcDbCircle
 10
254.3
 20
1728.0
 30
0.0
 40
2.0
  0
CIRCLE
  5
BA
330
17
100
AcDbEntity
  8
DOT_N
100
AcDbCircle
 10
254.3
 20
1776.4
 30
0.0
 40
2.0
  0
CIRCLE
  5
BB
330
17
100
AcDbEntity
  8
DOT_F
100
AcDbCircle
 10
254.3
 20
1827.7
 30
0.0
 40
2.0
  0
CIRCLE
  5
BC
330
17
100
AcDbEntity
  8
DOT_T
100
AcDbCircle
 10
254.3
 20
1862.7
 30
0.0
 40
2.0
  0
TEXT
  5
BD
330
17
100
AcDbEntity
  8
LABELS
100
AcDbText
 10
254.3
 20
901.8
 30
0.0
 40
6.0
  1
G3
 11
254.3
 21
901.8
 31
0.0
100
AcDbText
  0
LINE
  5
BE
330
17
100
AcDbEntity
  8
STRINGS
100
AcDbLine
 10
267.8
 20
944.8
 30
0.0
 11
267.8
 21
1792.8
 31
0.0
  0
CIRCLE
  5
BF
330
17
100
AcDbEntity
  8
DOT_G
100
AcDbCircle
 10
267.8
 20
944.8
 30
0.0
 40
2.0
  0
CIRCLE
  5
C0
330
17
100
AcDbEntity
  8
DOT_S
100
AcDbCircle
 10
267.8
 20
1669.1
 30
0.0
 40
2.0
  0
CIRCLE
  5
C1
330
17
100
AcDbEntity
  8
DOT_N
100
AcDbCircle
 10
267.8
 20
1712.2
 30
0.0
 40
2.0
  0
CIRCLE
  5
C2
330
17
100
AcDbEntity
  8
DOT_F
100
AcDbCircle
 10
267.8
 20
1757.8
 30
0.0
 40
2.0
  0
CIRCLE
  5
C3
330
17
100
AcDbEntity
  8
DOT_T
100
AcDbCircle
 10
267.8
 20
1792.8
 30
0.0
 40
2.0
  0
TEXT
  5
C4
330
17
100
AcDbEntity
  8
LABELS
100
AcDbText
 10
267.8
 20
932.8
 30
0.0
 40
6.0
  1
A3
 11
267.8
 21
932.8
 31
0.0
100
AcDbText
  0
LINE
  5
C5
330
17
100
AcDbEntity
  8
STRINGS
100
AcDbLine
 10
281.6
 20
976.3
 30
0.0
 11
281.6
 21
1725.6
 31
0.0
  0
CIRCLE
  5
C6
330
17
100
AcDbEntity
  8
DOT_G
100
AcDbCircle
 10
281.6
 20
976.3
 30
0.0
 40
2.0
  0
CIRCLE
  5
C7
330
17
100
AcDbEntity
  8
DOT_S
100
AcDbCircle
 10
281.6
 20
1612.7
 30
0.0
 40
2.0
  0
CIRCLE
  5
C8
330
17
100
AcDbEntity
  8
DOT_N
100
AcDbCircle
 10
281.6
 20
1650.5
 30
0.0
 40
2.0
  0
CIRCLE
  5
C9
330
17
100
AcDbEntity
  8
DOT_F
100
AcDbCircle
 10
281.6
 20
1690.6
 30
0.0
 40
2.0
  0
CIRCLE
  5
CA
330
17
100
AcDbEntity
  8
DOT_T
100
AcDbCircle
 10
281.6
 20
1725.6
 30
0.0
 40
2.0
  0
TEXT
  5
CB
330
17
100
AcDbEntity
  8
LABELS
100
AcDbText
 10
281.6
 20
964.3
 30
0.0
 40
6.0
  1
B3
 11
281.6
 21
964.3
 31
0.0
100
AcDbText
  0
LINE
  5
CC
330
17
100
AcDbEntity
  8
STRINGS
100
AcDbLine
 10
296.9
 20
1011.6
 30
0.0
 11
296.9
 21
1737.7
 31
0.0
  0
CIRCLE
  5
CD
330
17
100
AcDbEntity
  8
DOT_G
100
AcDbCircle
 10
296.9
 20
1011.6
 30
0.0
 40
2.0
  0
CIRCLE
  5
CE
330
17
100
AcDbEntity
  8
DOT_S
100
AcDbCircle
 10
296.9
 20
1627.3
 30
0.0
 40
2.0
  0
CIRCLE
  5
CF
330
17
100
AcDbEntity
  8
DOT_N
100
AcDbCircle
 10
296.9
 20
1663.9
 30
0.0
 40
2.0
  0
CIRCLE
  5
D0
330
17
100
AcDbEntity
  8
DOT_F
100
AcDbCircle
 10
296.9
 20
1702.7
 30
0.0
 40
2.0
  0
CIRCLE
  5
D1
330
17
100
AcDbEntity
  8
DOT_T
100
AcDbCircle
 10
296.9
 20
1737.7
 30
0.0
 40
2.0
  0
TEXT
  5
D2
330
17
100
AcDbEntity
  8
LABELS
100
AcDbText
 10
296.9
 20
999.6
 30
0.0
 40
6.0
  1
C4
 11
296.9
 21
999.6
 31
0.0
100
AcDbText
  0
LINE
  5
D3
330
17
100
AcDbEntity
  8
STRINGS
100
AcDbLine
 10
312.1
 20
1046.5
 30
0.0
 11
312.1
 21
1742.3
 31
0.0
  0
CIRCLE
  5
D4
330
17
100
AcDbEntity
  8
DOT_G
100
AcDbCircle
 10
312.1
 20
1046.5
 30
0.0
 40
2.0
  0
CIRCLE
  5
D5
330
17
100
AcDbEntity
  8
DOT_S
100
AcDbCircle
 10
312.1
 20
1635.2
 30
0.0
 40
2.0
  0
CIRCLE
  5
D6
330
17
100
AcDbEntity
  8
DOT_N
100
AcDbCircle
 10
312.1
 20
1670.2
 30
0.0
 40
2.0
  0
CIRCLE
  5
D7
330
17
100
AcDbEntity
  8
DOT_F
100
AcDbCircle
 10
312.1
 20
1707.3
 30
0.0
 40
2.0
  0
CIRCLE
  5
D8
330
17
100
AcDbEntity
  8
DOT_T
100
AcDbCircle
 10
312.1
 20
1742.3
 30
0.0
 40
2.0
  0
TEXT
  5
D9
330
17
100
AcDbEntity
  8
LABELS
100
AcDbText
 10
312.1
 20
1034.5
 30
0.0
 40
6.0
  1
D4
 11
312.1
 21
1034.5
 31
0.0
100
AcDbText
  0
LINE
  5
DA
330
17
100
AcDbEntity
  8
STRINGS
100
AcDbLine
 10
327.2
 20
1081.1
 30
0.0
 11
327.2
 21
1731.7
 31
0.0
  0
CIRCLE
  5
DB
330
17
100
AcDbEntity
  8
DOT_G
100
AcDbCircle
 10
327.2
 20
1081.1
 30
0.0
 40
2.0
  0
CIRCLE
  5
DC
330
17
100
AcDbEntity
  8
DOT_S
100
AcDbCircle
 10
327.2
 20
1629.5
 30
0.0
 40
2.0
  0
CIRCLE
  5
DD
330
17
100
AcDbEntity
  8
DOT_N
100
AcDbCircle
 10
327.2
 20
1662.1
 30
0.0
 40
2.0
  0
CIRCLE
  5
DE
330
17
100
AcDbEntity
  8
DOT_F
100
AcDbCircle
 10
327.2
 20
1696.7
 30
0.0
 40
2.0
  0
CIRCLE
  5
DF
330
17
100
AcDbEntity
  8
DOT_T
100
AcDbCircle
 10
327.2
 20
1731.7
 30
0.0
 40
2.0
  0
TEXT
  5
E0
330
17
100
AcDbEntity
  8
LABELS
100
AcDbText
 10
327.2
 20
1069.1
 30
0.0
 40
6.0
  1
E4
 11
327.2
 21
1069.1
 31
0.0
100
AcDbText
  0
LINE
  5
E1
330
17
100
AcDbEntity
  8
STRINGS
100
AcDbLine
 10
342.3
 20
1115.6
 30
0.0
 11
342.3
 21
1714.5
 31
0.0
  0
CIRCLE
  5
E2
330
17
100
AcDbEntity
  8
DOT_G
100
AcDbCircle
 10
342.3
 20
1115.6
 30
0.0
 40
2.0
  0
CIRCLE
  5
E3
330
17
100
AcDbEntity
  8
DOT_S
100
AcDbCircle
 10
342.3
 20
1618.0
 30
0.0
 40
2.0
  0
CIRCLE
  5
E4
330
17
100
AcDbEntity
  8
DOT_N
100
AcDbCircle
 10
342.3
 20
1647.9
 30
0.0
 40
2.0
  0
CIRCLE
  5
E5
330
17
100
AcDbEntity
  8
DOT_F
100
AcDbCircle
 10
342.3
 20
1679.5
 30
0.0
 40
2.0
  0
CIRCLE
  5
E6
330
17
100
AcDbEntity
  8
DOT_T
100
AcDbCircle
 10
342.3
 20
1714.5
 30
0.0
 40
2.0
  0
TEXT
  5
E7
330
17
100
AcDbEntity
  8
LABELS
100
AcDbText
 10
342.3
 20
1103.6
 30
0.0
 40
6.0
  1
F4
 11
342.3
 21
1103.6
 31
0.0
100
AcDbText
  0
LINE
  5
E8
330
17
100
AcDbEntity
  8
STRINGS
100
AcDbLine
 10
357.3
 20
1150.2
 30
0.0
 11
357.3
 21
1667.0
 31
0.0
  0
CIRCLE
  5
E9
330
17
100
AcDbEntity
  8
DOT_G
100
AcDbCircle
 10
357.3
 20
1150.2
 30
0.0
 40
2.0
  0
CIRCLE
  5
EA
330
17
100
AcDbEntity
  8
DOT_S
100
AcDbCircle
 10
357.3
 20
1579.5
 30
0.0
 40
2.0
  0
CIRCLE
  5
EB
330
17
100
AcDbEntity
  8
DOT_N
100
AcDbCircle
 10
357.3
 20
1605.0
 30
0.0
 40
2.0
  0
CIRCLE
  5
EC
330
17
100
AcDbEntity
  8
DOT_F
100
AcDbCircle
 10
357.3
 20
1632.0
 30
0.0
 40
2.0
  0
CIRCLE
  5
ED
330
17
100
AcDbEntity
  8
DOT_T
100
AcDbCircle
 10
357.3
 20
1667.0
 30
0.0
 40
2.0
  0
TEXT
  5
EE
330
17
100
AcDbEntity
  8
LABELS
100
AcDbText
 10
357.3
 20
1138.2
 30
0.0
 40
6.0
  1
G4
 11
357.3
 21
1138.2
 31
0.0
100
AcDbText
  0
LINE
  5
EF
330
17
100
AcDbEntity
  8
STRINGS
100
AcDbLine
 10
372.4
 20
1184.8
 30
0.0
 11
372.4
 21
1651.8
 31
0.0
  0
CIRCLE
  5
F0
330
17
100
AcDbEntity
  8
DOT_G
100
AcDbCircle
 10
372.4
 20
1184.8
 30
0.0
 40
2.0
  0
CIRCLE
  5
F1
330
17
100
AcDbEntity
  8
DOT_S
100
AcDbCircle
 10
372.4
 20
1569.7
 30
0.0
 40
2.0
  0
CIRCLE
  5
F2
330
17
100
AcDbEntity
  8
DOT_N
100
AcDbCircle
 10
372.4
 20
1592.6
 30
0.0
 40
2.0
  0
CIRCLE
  5
F3
330
17
100
AcDbEntity
  8
DOT_F
100
AcDbCircle
 10
372.4
 20
1616.8
 30
0.0
 40
2.0
  0
CIRCLE
  5
F4
330
17
100
AcDbEntity
  8
DOT_T
100
AcDbCircle
 10
372.4
 20
1651.8
 30
0.0
 40
2.0
  0
TEXT
  5
F5
330
17
100
AcDbEntity
  8
LABELS
100
AcDbText
 10
372.4
 20
1172.8
 30
0.0
 40
6.0
  1
A4
 11
372.4
 21
1172.8
 31
0.0
100
AcDbText
  0
LINE
  5
F6
330
17
100
AcDbEntity
  8
STRINGS
100
AcDbLine
 10
387.5
 20
1219.5
 30
0.0
 11
387.5
 21
1654.8
 31
0.0
  0
CIRCLE
  5
F7
330
17
100
AcDbEntity
  8
DOT_G
100
AcDbCircle
 10
387.5
 20
1219.5
 30
0.0
 40
2.0
  0
CIRCLE
  5
F8
330
17
100
AcDbEntity
  8
DOT_S
100
AcDbCircle
 10
387.5
 20
1576.2
 30
0.0
 40
2.0
  0
CIRCLE
  5
F9
330
17
100
AcDbEntity
  8
DOT_N
100
AcDbCircle
 10
387.5
 20
1597.4
 30
0.0
 40
2.0
  0
CIRCLE
  5
FA
330
17
100
AcDbEntity
  8
DOT_F
100
AcDbCircle
 10
387.5
 20
1619.8
 30
0.0
 40
2.0
  0
CIRCLE
  5
FB
330
17
100
AcDbEntity
  8
DOT_T
100
AcDbCircle
 10
387.5
 20
1654.8
 30
0.0
 40
2.0
  0
TEXT
  5
FC
330
17
100
AcDbEntity
  8
LABELS
100
AcDbText
 10
387.5
 20
1207.5
 30
0.0
 40
6.0
  1
B4
 11
387.5
 21
1207.5
 31
0.0
100
AcDbText
  0
LINE
  5
FD
330
17
100
AcDbEntity
  8
STRINGS
100
AcDbLine
 10
402.6
 20
1254.0
 30
0.0
 11
402.6
 21
1671.7
 31
0.0
  0
CIRCLE
  5
FE
330
17
100
AcDbEntity
  8
DOT_G
100
AcDbCircle
 10
402.6
 20
1254.0
 30
0.0
 40
2.0
  0
CIRCLE
  5
FF
330
17
100
AcDbEntity
  8
DOT_S
100
AcDbCircle
 10
402.6
 20
1595.0
 30
0.0
 40
2.0
  0
CIRCLE
  5
100
330
17
100
AcDbEntity
  8
DOT_N
100
AcDbCircle
 10
402.6
 20
1615.2
 30
0.0
 40
2.0
  0
CIRCLE
  5
101
330
17
100
AcDbEntity
  8
DOT_F
100
AcDbCircle
 10
402.6
 20
1636.7
 30
0.0
 40
2.0
  0
CIRCLE
  5
102
330
17
100
AcDbEntity
  8
DOT_T
100
AcDbCircle
 10
402.6
 20
1671.7
 30
0.0
 40
2.0
  0
TEXT
  5
103
330
17
100
AcDbEntity
  8
LABELS
100
AcDbText
 10
402.6
 20
1242.0
 30
0.0
 40
6.0
  1
C5
 11
402.6
 21
1242.0
 31
0.0
100
AcDbText
  0
LINE
  5
104
330
17
100
AcDbEntity
  8
STRINGS
100
AcDbLine
 10
417.2
 20
1287.7
 30
0.0
 11
417.2
 21
1674.2
 31
0.0
  0
CIRCLE
  5
105
330
17
100
AcDbEntity
  8
DOT_G
100
AcDbCircle
 10
417.2
 20
1287.7
 30
0.0
 40
2.0
  0
CIRCLE
  5
106
330
17
100
AcDbEntity
  8
DOT_S
100
AcDbCircle
 10
417.2
 20
1600.9
 30
0.0
 40
2.0
  0
CIRCLE
  5
107
330
17
100
AcDbEntity
  8
DOT_N
100
AcDbCircle
 10
417.2
 20
1619.5
 30
0.0
 40
2.0
  0
CIRCLE
  5
108
330
17
100
AcDbEntity
  8
DOT_F
100
AcDbCircle
 10
417.2
 20
1639.2
 30
0.0
 40
2.0
  0
CIRCLE
  5
109
330
17
100
AcDbEntity
  8
DOT_T
100
AcDbCircle
 10
417.2
 20
1674.2
 30
0.0
 40
2.0
  0
TEXT
  5
10A
330
17
100
AcDbEntity
  8
LABELS
100
AcDbText
 10
417.2
 20
1275.7
 30
0.0
 40
6.0
  1
D5
 11
417.2
 21
1275.7
 31
0.0
100
AcDbText
  0
LINE
  5
10B
330
17
100
AcDbEntity
  8
STRINGS
100
AcDbLine
 10
431.5
 20
1320.6
 30
0.0
 11
431.5
 21
1682.4
 31
0.0
  0
CIRCLE
  5
10C
330
17
100
AcDbEntity
  8
DOT_G
100
AcDbCircle
 10
431.5
 20
1320.6
 30
0.0
 40
2.0
  0
CIRCLE
  5
10D
330
17
100
AcDbEntity
  8
DOT_S
100
AcDbCircle
 10
431.5
 20
1611.8
 30
0.0
 40
2.0
  0
CIRCLE
  5
10E
330
17
100
AcDbEntity
  8
DOT_N
100
AcDbCircle
 10
431.5
 20
1629.1
 30
0.0
 40
2.0
  0
CIRCLE
  5
10F
330
17
100
AcDbEntity
  8
DOT_F
100
AcDbCircle
 10
431.5
 20
1647.4
 30
0.0
 40
2.0
  0
CIRCLE
  5
110
330
17
100
AcDbEntity
  8
DOT_T
100
AcDbCircle
 10
431.5
 20
1682.4
 30
0.0
 40
2.0
  0
TEXT
  5
111
330
17
100
AcDbEntity
  8
LABELS
100
AcDbText
 10
431.5
 20
1308.6
 30
0.0
 40
6.0
  1
E5
 11
431.5
 21
1308.6
 31
0.0
100
AcDbText
  0
LINE
  5
112
330
17
100
AcDbEntity
  8
STRINGS
100
AcDbLine
 10
445.8
 20
1353.5
 30
0.0
 11
445.8
 21
1701.9
 31
0.0
  0
CIRCLE
  5
113
330
17
100
AcDbEntity
  8
DOT_G
100
AcDbCircle
 10
445.8
 20
1353.5
 30
0.0
 40
2.0
  0
CIRCLE
  5
114
330
17
100
AcDbEntity
  8
DOT_S
100
AcDbCircle
 10
445.8
 20
1632.7
 30
0.0
 40
2.0
  0
CIRCLE
  5
115
330
17
100
AcDbEntity
  8
DOT_N
100
AcDbCircle
 10
445.8
 20
1649.3
 30
0.0
 40
2.0
  0
CIRCLE
  5
116
330
17
100
AcDbEntity
  8
DOT_F
100
AcDbCircle
 10
445.8
 20
1666.9
 30
0.0
 40
2.0
  0
CIRCLE
  5
117
330
17
100
AcDbEntity
  8
DOT_T
100
AcDbCircle
 10
445.8
 20
1701.9
 30
0.0
 40
2.0
  0
TEXT
  5
118
330
17
100
AcDbEntity
  8
LABELS
100
AcDbText
 10
445.8
 20
1341.5
 30
0.0
 40
6.0
  1
F5
 11
445.8
 21
1341.5
 31
0.0
100
AcDbText
  0
LINE
  5
119
330
17
100
AcDbEntity
  8
STRINGS
100
AcDbLine
 10
460.6
 20
1387.4
 30
0.0
 11
460.6
 21
1718.2
 31
0.0
  0
CIRCLE
  5
11A
330
17
100
AcDbEntity
  8
DOT_G
100
AcDbCircle
 10
460.6
 20
1387.4
 30
0.0
 40
2.0
  0
CIRCLE
  5
11B
330
17
100
AcDbEntity
  8
DOT_S
100
AcDbCircle
 10
460.6
 20
1650.9
 30
0.0
 40
2.0
  0
CIRCLE
  5
11C
330
17
100
AcDbEntity
  8
DOT_N
100
AcDbCircle
 10
460.6
 20
1666.6
 30
0.0
 40
2.0
  0
CIRCLE
  5
11D
330
17
100
AcDbEntity
  8
DOT_F
100
AcDbCircle
 10
460.6
 20
1683.2
 30
0.0
 40
2.0
  0
CIRCLE
  5
11E
330
17
100
AcDbEntity
  8
DOT_T
100
AcDbCircle
 10
460.6
 20
1718.2
 30
0.0
 40
2.0
  0
TEXT
  5
11F
330
17
100
AcDbEntity
  8
LABELS
100
AcDbText
 10
460.6
 20
1375.4
 30
0.0
 40
6.0
  1
G5
 11
460.6
 21
1375.4
 31
0.0
100
AcDbText
  0
LINE
  5
120
330
17
100
AcDbEntity
  8
STRINGS
100
AcDbLine
 10
475.7
 20
1422.0
 30
0.0
 11
475.7
 21
1730.3
 31
0.0
  0
CIRCLE
  5
121
330
17
100
AcDbEntity
  8
DOT_G
100
AcDbCircle
 10
475.7
 20
1422.0
 30
0.0
 40
2.0
  0
CIRCLE
  5
122
330
17
100
AcDbEntity
  8
DOT_S
100
AcDbCircle
 10
475.7
 20
1665.5
 30
0.0
 40
2.0
  0
CIRCLE
  5
123
330
17
100
AcDbEntity
  8
DOT_N
100
AcDbCircle
 10
475.7
 20
1680.0
 30
0.0
 40
2.0
  0
CIRCLE
  5
124
330
17
100
AcDbEntity
  8
DOT_F
100
AcDbCircle
 10
475.7
 20
1695.3
 30
0.0
 40
2.0
  0
CIRCLE
  5
125
330
17
100
AcDbEntity
  8
DOT_T
100
AcDbCircle
 10
475.7
 20
1730.3
 30
0.0
 40
2.0
  0
TEXT
  5
126
330
17
100
AcDbEntity
  8
LABELS
100
AcDbText
 10
475.7
 20
1410.0
 30
0.0
 40
6.0
  1
A5
 11
475.7
 21
1410.0
 31
0.0
100
AcDbText
  0
LINE
  5
127
330
17
100
AcDbEntity
  8
STRINGS
100
AcDbLine
 10
490.1
 20
1455.1
 30
0.0
 11
490.1
 21
1743.0
 31
0.0
  0
CIRCLE
  5
128
330
17
100
AcDbEntity
  8
DOT_G
100
AcDbCircle
 10
490.1
 20
1455.1
 30
0.0
 40
2.0
  0
CIRCLE
  5
129
330
17
100
AcDbEntity
  8
DOT_S
100
AcDbCircle
 10
490.1
 20
1680.4
 30
0.0
 40
2.0
  0
CIRCLE
  5
12A
330
17
100
AcDbEntity
  8
DOT_N
100
AcDbCircle
 10
490.1
 20
1693.8
 30
0.0
 40
2.0
  0
CIRCLE
  5
12B
330
17
100
AcDbEntity
  8
DOT_F
100
AcDbCircle
 10
490.1
 20
1708.0
 30
0.0
 40
2.0
  0
CIRCLE
  5
12C
330
17
100
AcDbEntity
  8
DOT_T
100
AcDbCircle
 10
490.1
 20
1743.0
 30
0.0
 40
2.0
  0
TEXT
  5
12D
330
17
100
AcDbEntity
  8
LABELS
100
AcDbText
 10
490.1
 20
1443.1
 30
0.0
 40
6.0
  1
B5
 11
490.1
 21
1443.1
 31
0.0
100
AcDbText
  0
LINE
  5
12E
330
17
100
AcDbEntity
  8
STRINGS
100
AcDbLine
 10
504.0
 20
1487.0
 30
0.0
 11
504.0
 21
1751.7
 31
0.0
  0
CIRCLE
  5
12F
330
17
100
AcDbEntity
  8
DOT_G
100
AcDbCircle
 10
504.0
 20
1487.0
 30
0.0
 40
2.0
  0
CIRCLE
  5
130
330
17
100
AcDbEntity
  8
DOT_S
100
AcDbCircle
 10
504.0
 20
1691.6
 30
0.0
 40
2.0
  0
CIRCLE
  5
131
330
17
100
AcDbEntity
  8
DOT_N
100
AcDbCircle
 10
504.0
 20
1703.8
 30
0.0
 40
2.0
  0
CIRCLE
  5
132
330
17
100
AcDbEntity
  8
DOT_F
100
AcDbCircle
 10
504.0
 20
1716.7
 30
0.0
 40
2.0
  0
CIRCLE
  5
133
330
17
100
AcDbEntity
  8
DOT_T
100
AcDbCircle
 10
504.0
 20
1751.7
 30
0.0
 40
2.0
  0
TEXT
  5
134
330
17
100
AcDbEntity
  8
LABELS
100
AcDbText
 10
504.0
 20
1475.0
 30
0.0
 40
6.0
  1
C6
 11
504.0
 21
1475.0
 31
0.0
100
AcDbText
  0
LINE
  5
135
330
17
100
AcDbEntity
  8
STRINGS
100
AcDbLine
 10
517.4
 20
1517.8
 30
0.0
 11
517.4
 21
1758.0
 31
0.0
  0
CIRCLE
  5
136
330
17
100
AcDbEntity
  8
DOT_G
100
AcDbCircle
 10
517.4
 20
1517.8
 30
0.0
 40
2.0
  0
CIRCLE
  5
137
330
17
100
AcDbEntity
  8
DOT_S
100
AcDbCircle
 10
517.4
 20
1700.6
 30
0.0
 40
2.0
  0
CIRCLE
  5
138
330
17
100
AcDbEntity
  8
DOT_N
100
AcDbCircle
 10
517.4
 20
1711.5
 30
0.0
 40
2.0
  0
CIRCLE
  5
139
330
17
100
AcDbEntity
  8
DOT_F
100
AcDbCircle
 10
517.4
 20
1723.0
 30
0.0
 40
2.0
  0
CIRCLE
  5
13A
330
17
100
AcDbEntity
  8
DOT_T
100
AcDbCircle
 10
517.4
 20
1758.0
 30
0.0
 40
2.0
  0
TEXT
  5
13B
330
17
100
AcDbEntity
  8
LABELS
100
AcDbText
 10
517.4
 20
1505.8
 30
0.0
 40
6.0
  1
D6
 11
517.4
 21
1505.8
 31
0.0
100
AcDbText
  0
LINE
  5
13C
330
17
100
AcDbEntity
  8
STRINGS
100
AcDbLine
 10
530.8
 20
1548.6
 30
0.0
 11
530.8
 21
1769.1
 31
0.0
  0
CIRCLE
  5
13D
330
17
100
AcDbEntity
  8
DOT_G
100
AcDbCircle
 10
530.8
 20
1548.6
 30
0.0
 40
2.0
  0
CIRCLE
  5
13E
330
17
100
AcDbEntity
  8
DOT_S
100
AcDbCircle
 10
530.8
 20
1713.8
 30
0.0
 40
2.0
  0
CIRCLE
  5
13F
330
17
100
AcDbEntity
  8
DOT_N
100
AcDbCircle
 10
530.8
 20
1723.7
 30
0.0
 40
2.0
  0
CIRCLE
  5
140
330
17
100
AcDbEntity
  8
DOT_F
100
AcDbCircle
 10
530.8
 20
1734.1
 30
0.0
 40
2.0
  0
CIRCLE
  5
141
330
17
100
AcDbEntity
  8
DOT_T
100
AcDbCircle
 10
530.8
 20
1769.1
 30
0.0
 40
2.0
  0
TEXT
  5
142
330
17
100
AcDbEntity
  8
LABELS
100
AcDbText
 10
530.8
 20
1536.6
 30
0.0
 40
6.0
  1
E6
 11
530.8
 21
1536.6
 31
0.0
100
AcDbText
  0
LINE
  5
143
330
17
100
AcDbEntity
  8
STRINGS
100
AcDbLine
 10
543.4
 20
1577.5
 30
0.0
 11
543.4
 21
1795.6
 31
0.0
  0
CIRCLE
  5
144
330
17
100
AcDbEntity
  8
DOT_G
100
AcDbCircle
 10
543.4
 20
1577.5
 30
0.0
 40
2.0
  0
CIRCLE
  5
145
330
17
100
AcDbEntity
  8
DOT_S
100
AcDbCircle
 10
543.4
 20
1740.6
 30
0.0
 40
2.0
  0
CIRCLE
  5
146
330
17
100
AcDbEntity
  8
DOT_N
100
AcDbCircle
 10
543.4
 20
1750.3
 30
0.0
 40
2.0
  0
CIRCLE
  5
147
330
17
100
AcDbEntity
  8
DOT_F
100
AcDbCircle
 10
543.4
 20
1760.6
 30
0.0
 40
2.0
  0
CIRCLE
  5
148
330
17
100
AcDbEntity
  8
DOT_T
100
AcDbCircle
 10
543.4
 20
1795.6
 30
0.0
 40
2.0
  0
TEXT
  5
149
330
17
100
AcDbEntity
  8
LABELS
100
AcDbText
 10
543.4
 20
1565.5
 30
0.0
 40
6.0
  1
F6
 11
543.4
 21
1565.5
 31
0.0
100
AcDbText
  0
LINE
  5
14A
330
17
100
AcDbEntity
  8
STRINGS
100
AcDbLine
 10
556.0
 20
1606.3
 30
0.0
 11
556.0
 21
1817.6
 31
0.0
  0
CIRCLE
  5
14B
330
17
100
AcDbEntity
  8
DOT_G
100
AcDbCircle
 10
556.0
 20
1606.3
 30
0.0
 40
2.0
  0
CIRCLE
  5
14C
330
17
100
AcDbEntity
  8
DOT_S
100
AcDbCircle
 10
556.0
 20
1763.4
 30
0.0
 40
2.0
  0
CIRCLE
  5
14D
330
17
100
AcDbEntity
  8
DOT_N
100
AcDbCircle
 10
556.0
 20
1772.7
 30
0.0
 40
2.0
  0
CIRCLE
  5
14E
330
17
100
AcDbEntity
  8
DOT_F
100
AcDbCircle
 10
556.0
 20
1782.6
 30
0.0
 40
2.0
  0
CIRCLE
  5
14F
330
17
100
AcDbEntity
  8
DOT_T
100
AcDbCircle
 10
556.0
 20
1817.6
 30
0.0
 40
2.0
  0
TEXT
  5
150
330
17
100
AcDbEntity
  8
LABELS
100
AcDbText
 10
556.0
 20
1594.3
 30
0.0
 40
6.0
  1
G6
 11
556.0
 21
1594.3
 31
0.0
100
AcDbText
  0
LINE
  5
151
330
17
100
AcDbEntity
  8
STRINGS
100
AcDbLine
 10
568.6
 20
1635.2
 30
0.0
 11
568.6
 21
1836.6
 31
0.0
  0
CIRCLE
  5
152
330
17
100
AcDbEntity
  8
DOT_G
100
AcDbCircle
 10
568.6
 20
1635.2
 30
0.0
 40
2.0
  0
CIRCLE
  5
153
330
17
100
AcDbEntity
  8
DOT_S
100
AcDbCircle
 10
568.6
 20
1783.4
 30
0.0
 40
2.0
  0
CIRCLE
  5
154
330
17
100
AcDbEntity
  8
DOT_N
100
AcDbCircle
 10
568.6
 20
1792.2
 30
0.0
 40
2.0
  0
CIRCLE
  5
155
330
17
100
AcDbEntity
  8
DOT_F
100
AcDbCircle
 10
568.6
 20
1801.6
 30
0.0
 40
2.0
  0
CIRCLE
  5
156
330
17
100
AcDbEntity
  8
DOT_T
100
AcDbCircle
 10
568.6
 20
1836.6
 30
0.0
 40
2.0
  0
TEXT
  5
157
330
17
100
AcDbEntity
  8
LABELS
100
AcDbText
 10
568.6
 20
1623.2
 30
0.0
 40
6.0
  1
A6
 11
568.6
 21
1623.2
 31
0.0
100
AcDbText
  0
LINE
  5
158
330
17
100
AcDbEntity
  8
STRINGS
100
AcDbLine
 10
581.2
 20
1664.1
 30
0.0
 11
581.2
 21
1859.4
 31
0.0
  0
CIRCLE
  5
159
330
17
100
AcDbEntity
  8
DOT_G
100
AcDbCircle
 10
581.2
 20
1664.1
 30
0.0
 40
2.0
  0
CIRCLE
  5
15A
330
17
100
AcDbEntity
  8
DOT_S
100
AcDbCircle
 10
581.2
 20
1806.9
 30
0.0
 40
2.0
  0
CIRCLE
  5
15B
330
17
100
AcDbEntity
  8
DOT_N
100
AcDbCircle
 10
581.2
 20
1815.4
 30
0.0
 40
2.0
  0
CIRCLE
  5
15C
330
17
100
AcDbEntity
  8
DOT_F
100
AcDbCircle
 10
581.2
 20
1824.4
 30
0.0
 40
2.0
  0
CIRCLE
  5
15D
330
17
100
AcDbEntity
  8
DOT_T
100
AcDbCircle
 10
581.2
 20
1859.4
 30
0.0
 40
2.0
  0
TEXT
  5
15E
330
17
100
AcDbEntity
  8
LABELS
100
AcDbText
 10
581.2
 20
1652.1
 30
0.0
 40
6.0
  1
B6
 11
581.2
 21
1652.1
 31
0.0
100
AcDbText
  0
LINE
  5
15F
330
17
100
AcDbEntity
  8
STRINGS
100
AcDbLine
 10
593.7
 20
1693.0
 30
0.0
 11
593.7
 21
1883.9
 31
0.0
  0
CIRCLE
  5
160
330
17
100
AcDbEntity
  8
DOT_G
100
AcDbCircle
 10
593.7
 20
1693.0
 30
0.0
 40
2.0
  0
CIRCLE
  5
161
330
17
100
AcDbEntity
  8
DOT_S
100
AcDbCircle
 10
593.7
 20
1831.9
 30
0.0
 40
2.0
  0
CIRCLE
  5
162
330
17
100
AcDbEntity
  8
DOT_N
100
AcDbCircle
 10
593.7
 20
1840.1
 30
0.0
 40
2.0
  0
CIRCLE
  5
163
330
17
100
AcDbEntity
  8
DOT_F
100
AcDbCircle
 10
593.7
 20
1848.9
 30
0.0
 40
2.0
  0
CIRCLE
  5
164
330
17
100
AcDbEntity
  8
DOT_T
100
AcDbCircle
 10
593.7
 20
1883.9
 30
0.0
 40
2.0
  0
TEXT
  5
165
330
17
100
AcDbEntity
  8
LABELS
100
AcDbText
 10
593.7
 20
1681.0
 30
0.0
 40
6.0
  1
C7
 11
593.7
 21
1681.0
 31
0.0
100
AcDbText
  0
LINE
  5
166
330
17
100
AcDbEntity
  8
STRINGS
100
AcDbLine
 10
606.3
 20
1721.9
 30
0.0
 11
606.3
 21
1894.1
 31
0.0
  0
CIRCLE
  5
167
330
17
100
AcDbEntity
  8
DOT_G
100
AcDbCircle
 10
606.3
 20
1721.9
 30
0.0
 40
2.0
  0
CIRCLE
  5
168
330
17
100
AcDbEntity
  8
DOT_S
100
AcDbCircle
 10
606.3
 20
1844.2
 30
0.0
 40
2.0
  0
CIRCLE
  5
169
330
17
100
AcDbEntity
  8
DOT_N
100
AcDbCircle
 10
606.3
 20
1851.4
 30
0.0
 40
2.0
  0
CIRCLE
  5
16A
330
17
100
AcDbEntity
  8
DOT_F
100
AcDbCircle
 10
606.3
 20
1859.1
 30
0.0
 40
2.0
  0
CIRCLE
  5
16B
330
17
100
AcDbEntity
  8
DOT_T
100
AcDbCircle
 10
606.3
 20
1894.1
 30
0.0
 40
2.0
  0
TEXT
  5
16C
330
17
100
AcDbEntity
  8
LABELS
100
AcDbText
 10
606.3
 20
1709.9
 30
0.0
 40
6.0
  1
D7
 11
606.3
 21
1709.9
 31
0.0
100
AcDbText
  0
LINE
  5
16D
330
17
100
AcDbEntity
  8
STRINGS
100
AcDbLine
 10
618.5
 20
1749.9
 30
0.0
 11
618.5
 21
1906.7
 31
0.0
  0
CIRCLE
  5
16E
330
17
100
AcDbEntity
  8
DOT_G
100
AcDbCircle
 10
618.5
 20
1749.9
 30
0.0
 40
2.0
  0
CIRCLE
  5
16F
330
17
100
AcDbEntity
  8
DOT_S
100
AcDbCircle
 10
618.5
 20
1858.4
 30
0.0
 40
2.0
  0
CIRCLE
  5
170
330
17
100
AcDbEntity
  8
DOT_N
100
AcDbCircle
 10
618.5
 20
1864.9
 30
0.0
 40
2.0
  0
CIRCLE
  5
171
330
17
100
AcDbEntity
  8
DOT_F
100
AcDbCircle
 10
618.5
 20
1871.7
 30
0.0
 40
2.0
  0
CIRCLE
  5
172
330
17
100
AcDbEntity
  8
DOT_T
100
AcDbCircle
 10
618.5
 20
1906.7
 30
0.0
 40
2.0
  0
TEXT
  5
173
330
17
100
AcDbEntity
  8
LABELS
100
AcDbText
 10
618.5
 20
1737.9
 30
0.0
 40
6.0
  1
E7
 11
618.5
 21
1737.9
 31
0.0
100
AcDbText
  0
LINE
  5
174
330
17
100
AcDbEntity
  8
STRINGS
100
AcDbLine
 10
630.7
 20
1777.9
 30
0.0
 11
630.7
 21
1924.9
 31
0.0
  0
CIRCLE
  5
175
330
17
100
AcDbEntity
  8
DOT_G
100
AcDbCircle
 10
630.7
 20
1777.9
 30
0.0
 40
2.0
  0
CIRCLE
  5
176
330
17
100
AcDbEntity
  8
DOT_S
100
AcDbCircle
 10
630.7
 20
1877.7
 30
0.0
 40
2.0
  0
CIRCLE
  5
177
330
17
100
AcDbEntity
  8
DOT_N
100
AcDbCircle
 10
630.7
 20
1883.6
 30
0.0
 40
2.0
  0
CIRCLE
  5
178
330
17
100
AcDbEntity
  8
DOT_F
100
AcDbCircle
 10
630.7
 20
1889.9
 30
0.0
 40
2.0
  0
CIRCLE
  5
179
330
17
100
AcDbEntity
  8
DOT_T
100
AcDbCircle
 10
630.7
 20
1924.9
 30
0.0
 40
2.0
  0
TEXT
  5
17A
330
17
100
AcDbEntity
  8
LABELS
100
AcDbText
 10
630.7
 20
1765.9
 30
0.0
 40
6.0
  1
F7
 11
630.7
 21
1765.9
 31
0.0
100
AcDbText
  0
LINE
  5
17B
330
17
100
AcDbEntity
  8
STRINGS
100
AcDbLine
 10
642.9
 20
1805.9
 30
0.0
 11
642.9
 21
1942.7
 31
0.0
  0
CIRCLE
  5
17C
330
17
100
AcDbEntity
  8
DOT_G
100
AcDbCircle
 10
642.9
 20
1805.9
 30
0.0
 40
2.0
  0
CIRCLE
  5
17D
330
17
100
AcDbEntity
  8
DOT_S
100
AcDbCircle
 10
642.9
 20
1896.6
 30
0.0
 40
2.0
  0
CIRCLE
  5
17E
330
17
100
AcDbEntity
  8
DOT_N
100
AcDbCircle
 10
642.9
 20
1902.0
 30
0.0
 40
2.0
  0
CIRCLE
  5
17F
330
17
100
AcDbEntity
  8
DOT_F
100
AcDbCircle
 10
642.9
 20
1907.7
 30
0.0
 40
2.0
  0
CIRCLE
  5
180
330
17
100
AcDbEntity
  8
DOT_T
100
AcDbCircle
 10
642.9
 20
1942.7
 30
0.0
 40
2.0
  0
TEXT
  5
181
330
17
100
AcDbEntity
  8
LABELS
100
AcDbText
 10
642.9
 20
1793.9
 30
0.0
 40
6.0
  1
G7
 11
642.9
 21
1793.9
 31
0.0
100
AcDbText
  0
LWPOLYLINE
  5
182
330
17
100
AcDbEntity
  8
RIB
100
AcDbPolyline
 90
47
 70
0
 10
0.0
 20
329.8
 10
14.2
 20
362.3
 10
27.7
 20
393.5
 10
41.8
 20
425.6
 10
56.2
 20
458.8
 10
70.1
 20
490.6
 10
84.5
 20
524.0
 10
99.7
 20
558.9
 10
113.9
 20
591.4
 10
128.2
 20
624.1
 10
142.4
 20
656.8
 10
156.6
 20
689.4
 10
170.8
 20
722.1
 10
185.1
 20
754.6
 10
199.3
 20
787.3
 10
213.5
 20
819.9
 10
227.4
 20
851.9
 10
241.0
 20
883.1
 10
254.3
 20
913.8
 10
267.8
 20
944.8
 10
281.6
 20
976.3
 10
296.9
 20
1011.6
 10
312.1
 20
1046.5
 10
327.2
 20
1081.1
 10
342.3
 20
1115.6
 10
357.3
 20
1150.2
 10
372.4
 20
1184.8
 10
387.5
 20
1219.5
 10
402.6
 20
1254.0
 10
417.2
 20
1287.7
 10
431.5
 20
1320.6
 10
445.8
 20
1353.5
 10
460.6
 20
1387.4
 10
475.7
 20
1422.0
 10
490.1
 20
1455.1
 10
504.0
 20
1487.0
 10
517.4
 20
1517.8
 10
530.8
 20
1548.6
 10
543.4
 20
1577.5
 10
556.0
 20
1606.3
 10
568.6
 20
1635.2
 10
581.2
 20
1664.1
 10
593.7
 20
1693.0
 10
606.3
 20
1721.9
 10
618.5
 20
1749.9
 10
630.7
 20
1777.9
 10
642.9
 20
1805.9
  0
LWPOLYLINE
  5
183
330
17
100
AcDbEntity
  8
NECK_U
100
AcDbPolyline
 90
47
 70
0
 10
0.0
 20
1951.1
 10
14.2
 20
1963.4
 10
27.7
 20
1972.3
 10
41.8
 20
1978.9
 10
56.2
 20
1990.6
 10
70.1
 20
2000.0
 10
84.5
 20
1990.3
 10
99.7
 20
1979.5
 10
113.9
 20
1995.0
 10
128.2
 20
1995.0
 10
142.4
 20
1979.2
 10
156.6
 20
1980.0
 10
170.8
 20
2000.0
 10
185.1
 20
1988.1
 10
199.3
 20
1984.5
 10
213.5
 20
1959.1
 10
227.4
 20
1934.1
 10
241.0
 20
1914.7
 10
254.3
 20
1872.7
 10
267.8
 20
1832.3
 10
281.6
 20
1816.5
 10
296.9
 20
1799.2
 10
312.1
 20
1782.5
 10
327.2
 20
1766.7
 10
342.3
 20
1751.7
 10
357.3
 20
1738.0
 10
372.4
 20
1725.5
 10
387.5
 20
1714.6
 10
402.6
 20
1705.5
 10
417.2
 20
1698.7
 10
431.5
 20
1694.0
 10
445.8
 20
1711.9
 10
460.6
 20
1728.2
 10
475.7
 20
1740.3
 10
490.1
 20
1753.0
 10
504.0
 20
1761.7
 10
517.4
 20
1768.0
 10
530.8
 20
1779.1
 10
543.4
 20
1805.6
 10
556.0
 20
1827.6
 10
568.6
 20
1846.6
 10
581.2
 20
1869.4
 10
593.7
 20
1893.9
 10
606.3
 20
1904.1
 10
618.5
 20
1916.7
 10
630.7
 20
1948.6
 10
642.9
 20
1990.2
  0
LWPOLYLINE
  5
184
330
17
100
AcDbEntity
  8
NECK_L
100
AcDbPolyline
 90
47
 70
0
 10
0.0
 20
1649.6
 10
14.2
 20
1694.9
 10
27.7
 20
1719.3
 10
41.8
 20
1751.4
 10
56.2
 20
1778.4
 10
70.1
 20
1796.4
 10
84.5
 20
1785.3
 10
99.7
 20
1773.3
 10
113.9
 20
1797.8
 10
128.2
 20
1802.2
 10
142.4
 20
1789.8
 10
156.6
 20
1789.6
 10
170.8
 20
1777.3
 10
185.1
 20
1763.1
 10
199.3
 20
1747.8
 10
213.5
 20
1731.6
 10
227.4
 20
1715.4
 10
241.0
 20
1699.4
 10
254.3
 20
1684.0
 10
267.8
 20
1664.1
 10
281.6
 20
1607.7
 10
296.9
 20
1622.3
 10
312.1
 20
1626.2
 10
327.2
 20
1614.9
 10
342.3
 20
1605.6
 10
357.3
 20
1574.5
 10
372.4
 20
1564.7
 10
387.5
 20
1571.2
 10
402.6
 20
1590.0
 10
417.2
 20
1595.8
 10
431.5
 20
1601.3
 10
445.8
 20
1609.2
 10
460.6
 20
1619.8
 10
475.7
 20
1633.2
 10
490.1
 20
1648.3
 10
504.0
 20
1664.9
 10
517.4
 20
1682.5
 10
530.8
 20
1701.7
 10
543.4
 20
1721.0
 10
556.0
 20
1741.3
 10
568.6
 20
1762.5
 10
581.2
 20
1784.3
 10
593.7
 20
1806.5
 10
606.3
 20
1829.0
 10
618.5
 20
1850.8
 10
630.7
 20
1872.4
 10
642.9
 20
1891.6
  0
ENDSEC
  0
SECTION
  2
OBJECTS
  0
DICTIONARY
  5
A
330
0
100
AcDbDictionary
281
1
  3
ACAD_COLOR
350
B
  3
ACAD_GROUP
350
C
  3
ACAD_LAYOUT
350
D
  3
ACAD_MATERIAL
350
E
  3
ACAD_MLEADERSTYLE
350
F
  3
ACAD_MLINESTYLE
350
10
  3
ACAD_PLOTSETTINGS
350
11
  3
ACAD_PLOTSTYLENAME
350
12
  3
ACAD_SCALELIST
350
14
  3
ACAD_TABLESTYLE
350
15
  3
ACAD_VISUALSTYLE
350
16
  3
EZDXF_META
350
2D
  0
DICTIONARY
  5
B
330
A
100
AcDbDictionary
281
1
  0
DICTIONARY
  5
C
330
A
100
AcDbDictionary
281
1
  0
DICTIONARY
  5
D
330
A
100
AcDbDictionary
281
1
  3
Model
350
1A
  3
Layout1
350
1E
  0
DICTIONARY
  5
E
330
A
100
AcDbDictionary
281
1
  3
ByBlock
350
1F
  3
ByLayer
350
20
  3
Global
350
21
  0
DICTIONARY
  5
F
330
A
100
AcDbDictionary
281
1
  3
Standard
350
2C
  0
DICTIONARY
  5
10
330
A
100
AcDbDictionary
281
1
  3
Standard
350
22
  0
DICTIONARY
  5
11
330
A
100
AcDbDictionary
281
1
  0
ACDBDICTIONARYWDFLT
  5
12
330
A
100
AcDbDictionary
281
1
  3
Normal
350
13
100
AcDbDictionaryWithDefault
340
13
  0
ACDBPLACEHOLDER
  5
13
330
12
  0
DICTIONARY
  5
14
330
A
100
AcDbDictionary
281
1
  0
DICTIONARY
  5
15
330
A
100
AcDbDictionary
281
1
  0
DICTIONARY
  5
16
330
A
100
AcDbDictionary
281
1
  0
LAYOUT
  5
1A
330
D
100
AcDbPlotSettings
  1

  4
A3
  6

 40
7.5
 41
20.0
 42
7.5
 43
20.0
 44
420.0
 45
297.0
 46
0.0
 47
0.0
 48
0.0
 49
0.0
140
0.0
141
0.0
142
1.0
143
1.0
 70
1024
 72
1
 73
0
 74
5
  7

 75
16
 76
0
 77
2
 78
300
147
1.0
148
0.0
149
0.0
100
AcDbLayout
  1
Model
 70
1
 71
0
 10
0.0
 20
0.0
 11
420.0
 21
297.0
 12
0.0
 22
0.0
 32
0.0
 14
1e+20
 24
1e+20
 34
1e+20
 15
-1e+20
 25
-1e+20
 35
-1e+20
146
0.0
 13
0.0
 23
0.0
 33
0.0
 16
1.0
 26
0.0
 36
0.0
 17
0.0
 27
1.0
 37
0.0
 76
1
330
17
  0
LAYOUT
  5
1E
330
D
100
AcDbPlotSettings
  1

  4
A3
  6

 40
7.5
 41
20.0
 42
7.5
 43
20.0
 44
420.0
 45
297.0
 46
0.0
 47
0.0
 48
0.0
 49
0.0
140
0.0
141
0.0
142
1.0
143
1.0
 70
0
 72
1
 73
0
 74
5
  7

 75
16
 76
0
 77
2
 78
300
147
1.0
148
0.0
149
0.0
100
AcDbLayout
  1
Layout1
 70
1
 71
1
 10
0.0
 20
0.0
 11
420.0
 21
297.0
 12
0.0
 22
0.0
 32
0.0
 14
1e+20
 24
1e+20
 34
1e+20
 15
-1e+20
 25
-1e+20
 35
-1e+20
146
0.0
 13
0.0
 23
0.0
 33
0.0
 16
1.0
 26
0.0
 36
0.0
 17
0.0
 27
1.0
 37
0.0
 76
1
330
1B
  0
MATERIAL
  5
1F
102
{ACAD_REACTORS
330
E
102
}
330
E
100
AcDbMaterial
  1
ByBlock
  2

 70
0
 40
1.0
 71
1
 41
1.0
 91
-1023410177
 42
1.0
 72
1
  3

 73
1
 74
1
 75
1
 44
0.5
 73
0
 45
1.0
 46
1.0
 77
1
  4

 78
1
 79
1
170
1
 48
1.0
171
1
  6

172
1
173
1
174
1
140
1.0
141
1.0
175
1
  7

176
1
177
1
178
1
143
1.0
179
1
  8

270
1
271
1
272
1
145
1.0
146
1.0
273
1
  9

274
1
275
1
276
1
 42
1.0
 72
1
  3

 73
1
 74
1
 75
1
 94
63
  0
MATERIAL
  5
20
102
{ACAD_REACTORS
330
E
102
}
330
E
100
AcDbMaterial
  1
ByLayer
  2

 70
0
 40
1.0
 71
1
 41
1.0
 91
-1023410177
 42
1.0
 72
1
  3

 73
1
 74
1
 75
1
 44
0.5
 73
0
 45
1.0
 46
1.0
 77
1
  4

 78
1
 79
1
170
1
 48
1.0
171
1
  6

172
1
173
1
174
1
140
1.0
141
1.0
175
1
  7

176
1
177
1
178
1
143
1.0
179
1
  8

270
1
271
1
272
1
145
1.0
146
1.0
273
1
  9

274
1
275
1
276
1
 42
1.0
 72
1
  3

 73
1
 74
1
 75
1
 94
63
  0
MATERIAL
  5
21
102
{ACAD_REACTORS
330
E
102
}
330
E
100
AcDbMaterial
  1
Global
  2

 70
0
 40
1.0
 71
1
 41
1.0
 91
-1023410177
 42
1.0
 72
1
  3

 73
1
 74
1
 75
1
 44
0.5
 73
0
 45
1.0
 46
1.0
 77
1
  4

 78
1
 79
1
170
1
 48
1.0
171
1
  6

172
1
173
1
174
1
140
1.0
141
1.0
175
1
  7

176
1
177
1
178
1
143
1.0
179
1
  8

270
1
271
1
272
1
145
1.0
146
1.0
273
1
  9

274
1
275
1
276
1
 42
1.0
 72
1
  3

 73
1
 74
1
 75
1
 94
63
  0
MLINESTYLE
  5
22
102
{ACAD_REACTORS
330
10
102
}
330
10
100
AcDbMlineStyle
  2
Standard
 70
0
  3

 62
256
 51
90.0
 52
90.0
 71
2
 49
0.5
 62
256
  6
BYLAYER
 49
-0.5
 62
256
  6
BYLAYER
  0
MLEADERSTYLE
  5
2C
102
{ACAD_REACTORS
330
F
102
}
330
F
100
AcDbMLeaderStyle
179
2
170
2
171
1
172
0
 90
2
 40
0.0
 41
0.0
173
1
 91
-1056964608
 92
-2
290
1
 42
2.0
291
1
 43
8.0
  3
Standard
 44
4.0
300

342
29
174
1
175
1
176
0
178
1
 93
-1056964608
 45
4.0
292
0
297
0
 46
4.0
 94
-1056964608
 47
1.0
 49
1.0
140
1.0
294
1
141
0.0
177
0
142
1.0
295
0
296
0
143
3.75
271
0
272
9
273
9
  0
DICTIONARY
  5
2D
330
A
100
AcDbDictionary
280
1
281
1
  3
CREATED_BY_EZDXF
350
2E
  3
WRITTEN_BY_EZDXF
350
187
  0
DICTIONARYVAR
  5
2E
330
2D
100
DictionaryVariables
280
0
  1
1.4.4 @ 2026-06-05T00:26:17.075578+00:00
  0
DICTIONARYVAR
  5
187
330
2D
100
DictionaryVariables
280
0
  1
1.4.4 @ 2026-06-05T00:26:17.082773+00:00
  0
ENDSEC
  0
EOF
