0
SECTION
2
ENTITIES
0
LWPOLYLINE
8
STRINGS
90
2
70
0
10
0.00
20
329.80
10
0.00
20
1923.10
0
CIRCLE
8
DOT_G
10
0.00
20
329.80
40
2.00
0
CIRCLE
8
DOT_S
10
0.00
20
1718.10
40
2.00
0
CIRCLE
8
DOT_N
10
0.00
20
1800.60
40
2.00
0
CIRCLE
8
DOT_F
10
0.00
20
1888.10
40
2.00
0
CIRCLE
8
DOT_T
10
0.00
20
1923.10
40
2.00
0
LWPOLYLINE
8
STRINGS
90
2
70
0
10
14.20
20
362.30
10
14.20
20
1924.80
0
CIRCLE
8
DOT_G
10
14.20
20
362.30
40
2.00
0
CIRCLE
8
DOT_S
10
14.20
20
1723.20
40
2.00
0
CIRCLE
8
DOT_N
10
14.20
20
1804.10
40
2.00
0
CIRCLE
8
DOT_F
10
14.20
20
1889.80
40
2.00
0
CIRCLE
8
DOT_T
10
14.20
20
1924.80
40
2.00
0
LWPOLYLINE
8
STRINGS
90
2
70
0
10
27.70
20
393.50
10
27.70
20
1922.30
0
CIRCLE
8
DOT_G
10
27.70
20
393.50
40
2.00
0
CIRCLE
8
DOT_S
10
27.70
20
1724.30
40
2.00
0
CIRCLE
8
DOT_N
10
27.70
20
1803.40
40
2.00
0
CIRCLE
8
DOT_F
10
27.70
20
1887.30
40
2.00
0
CIRCLE
8
DOT_T
10
27.70
20
1922.30
40
2.00
0
LWPOLYLINE
8
STRINGS
90
2
70
0
10
41.80
20
425.60
10
41.80
20
1954.40
0
CIRCLE
8
DOT_G
10
41.80
20
425.60
40
2.00
0
CIRCLE
8
DOT_S
10
41.80
20
1756.40
40
2.00
0
CIRCLE
8
DOT_N
10
41.80
20
1835.50
40
2.00
0
CIRCLE
8
DOT_F
10
41.80
20
1919.40
40
2.00
0
CIRCLE
8
DOT_T
10
41.80
20
1954.40
40
2.00
0
LWPOLYLINE
8
STRINGS
90
2
70
0
10
56.20
20
458.80
10
56.20
20
1980.60
0
CIRCLE
8
DOT_G
10
56.20
20
458.80
40
2.00
0
CIRCLE
8
DOT_S
10
56.20
20
1783.40
40
2.00
0
CIRCLE
8
DOT_N
10
56.20
20
1862.20
40
2.00
0
CIRCLE
8
DOT_F
10
56.20
20
1945.60
40
2.00
0
CIRCLE
8
DOT_T
10
56.20
20
1980.60
40
2.00
0
LWPOLYLINE
8
STRINGS
90
2
70
0
10
70.10
20
490.60
10
70.10
20
1996.00
0
CIRCLE
8
DOT_G
10
70.10
20
490.60
40
2.00
0
CIRCLE
8
DOT_S
10
70.10
20
1802.80
40
2.00
0
CIRCLE
8
DOT_N
10
70.10
20
1880.90
40
2.00
0
CIRCLE
8
DOT_F
10
70.10
20
1963.50
40
2.00
0
CIRCLE
8
DOT_T
10
70.10
20
1996.00
40
2.00
0
LWPOLYLINE
8
STRINGS
90
2
70
0
10
84.50
20
524.00
10
84.50
20
1980.30
0
CIRCLE
8
DOT_G
10
84.50
20
524.00
40
2.00
0
CIRCLE
8
DOT_S
10
84.50
20
1790.30
40
2.00
0
CIRCLE
8
DOT_N
10
84.50
20
1865.60
40
2.00
0
CIRCLE
8
DOT_F
10
84.50
20
1945.30
40
2.00
0
CIRCLE
8
DOT_T
10
84.50
20
1980.30
40
2.00
0
LWPOLYLINE
8
STRINGS
90
2
70
0
10
99.70
20
558.90
10
99.70
20
1962.60
0
CIRCLE
8
DOT_G
10
99.70
20
558.90
40
2.00
0
CIRCLE
8
DOT_S
10
99.70
20
1778.30
40
2.00
0
CIRCLE
8
DOT_N
10
99.70
20
1850.80
40
2.00
0
CIRCLE
8
DOT_F
10
99.70
20
1927.60
40
2.00
0
CIRCLE
8
DOT_T
10
99.70
20
1962.60
40
2.00
0
LWPOLYLINE
8
STRINGS
90
2
70
0
10
113.90
20
591.40
10
113.90
20
1986.20
0
CIRCLE
8
DOT_G
10
113.90
20
591.40
40
2.00
0
CIRCLE
8
DOT_S
10
113.90
20
1802.80
40
2.00
0
CIRCLE
8
DOT_N
10
113.90
20
1874.90
40
2.00
0
CIRCLE
8
DOT_F
10
113.90
20
1951.20
40
2.00
0
CIRCLE
8
DOT_T
10
113.90
20
1986.20
40
2.00
0
LWPOLYLINE
8
STRINGS
90
2
70
0
10
128.20
20
624.10
10
128.20
20
1987.10
0
CIRCLE
8
DOT_G
10
128.20
20
624.10
40
2.00
0
CIRCLE
8
DOT_S
10
128.20
20
1807.20
40
2.00
0
CIRCLE
8
DOT_N
10
128.20
20
1877.60
40
2.00
0
CIRCLE
8
DOT_F
10
128.20
20
1952.10
40
2.00
0
CIRCLE
8
DOT_T
10
128.20
20
1987.10
40
2.00
0
LWPOLYLINE
8
STRINGS
90
2
70
0
10
142.40
20
656.80
10
142.40
20
1969.20
0
CIRCLE
8
DOT_G
10
142.40
20
656.80
40
2.00
0
CIRCLE
8
DOT_S
10
142.40
20
1794.80
40
2.00
0
CIRCLE
8
DOT_N
10
142.40
20
1862.50
40
2.00
0
CIRCLE
8
DOT_F
10
142.40
20
1934.20
40
2.00
0
CIRCLE
8
DOT_T
10
142.40
20
1969.20
40
2.00
0
LWPOLYLINE
8
STRINGS
90
2
70
0
10
156.60
20
689.40
10
156.60
20
1970.00
0
CIRCLE
8
DOT_G
10
156.60
20
689.40
40
2.00
0
CIRCLE
8
DOT_S
10
156.60
20
1799.10
40
2.00
0
CIRCLE
8
DOT_N
10
156.60
20
1865.10
40
2.00
0
CIRCLE
8
DOT_F
10
156.60
20
1935.00
40
2.00
0
CIRCLE
8
DOT_T
10
156.60
20
1970.00
40
2.00
0
LWPOLYLINE
8
STRINGS
90
2
70
0
10
170.80
20
722.10
10
170.80
20
1996.00
0
CIRCLE
8
DOT_G
10
170.80
20
722.10
40
2.00
0
CIRCLE
8
DOT_S
10
170.80
20
1831.80
40
2.00
0
CIRCLE
8
DOT_N
10
170.80
20
1897.80
40
2.00
0
CIRCLE
8
DOT_F
10
170.80
20
1967.70
40
2.00
0
CIRCLE
8
DOT_T
10
170.80
20
1996.00
40
2.00
0
LWPOLYLINE
8
STRINGS
90
2
70
0
10
185.10
20
754.60
10
185.10
20
1978.10
0
CIRCLE
8
DOT_G
10
185.10
20
754.60
40
2.00
0
CIRCLE
8
DOT_S
10
185.10
20
1813.40
40
2.00
0
CIRCLE
8
DOT_N
10
185.10
20
1876.40
40
2.00
0
CIRCLE
8
DOT_F
10
185.10
20
1943.10
40
2.00
0
CIRCLE
8
DOT_T
10
185.10
20
1978.10
40
2.00
0
LWPOLYLINE
8
STRINGS
90
2
70
0
10
199.30
20
787.30
10
199.30
20
1974.50
0
CIRCLE
8
DOT_G
10
199.30
20
787.30
40
2.00
0
CIRCLE
8
DOT_S
10
199.30
20
1813.80
40
2.00
0
CIRCLE
8
DOT_N
10
199.30
20
1874.80
40
2.00
0
CIRCLE
8
DOT_F
10
199.30
20
1939.50
40
2.00
0
CIRCLE
8
DOT_T
10
199.30
20
1974.50
40
2.00
0
LWPOLYLINE
8
STRINGS
90
2
70
0
10
213.50
20
819.90
10
213.50
20
1949.10
0
CIRCLE
8
DOT_G
10
213.50
20
819.90
40
2.00
0
CIRCLE
8
DOT_S
10
213.50
20
1794.70
40
2.00
0
CIRCLE
8
DOT_N
10
213.50
20
1852.70
40
2.00
0
CIRCLE
8
DOT_F
10
213.50
20
1914.10
40
2.00
0
CIRCLE
8
DOT_T
10
213.50
20
1949.10
40
2.00
0
LWPOLYLINE
8
STRINGS
90
2
70
0
10
227.40
20
851.90
10
227.40
20
1924.10
0
CIRCLE
8
DOT_G
10
227.40
20
851.90
40
2.00
0
CIRCLE
8
DOT_S
10
227.40
20
1776.00
40
2.00
0
CIRCLE
8
DOT_N
10
227.40
20
1830.90
40
2.00
0
CIRCLE
8
DOT_F
10
227.40
20
1889.10
40
2.00
0
CIRCLE
8
DOT_T
10
227.40
20
1924.10
40
2.00
0
LWPOLYLINE
8
STRINGS
90
2
70
0
10
241.00
20
883.10
10
241.00
20
1904.70
0
CIRCLE
8
DOT_G
10
241.00
20
883.10
40
2.00
0
CIRCLE
8
DOT_S
10
241.00
20
1762.10
40
2.00
0
CIRCLE
8
DOT_N
10
241.00
20
1814.30
40
2.00
0
CIRCLE
8
DOT_F
10
241.00
20
1869.70
40
2.00
0
CIRCLE
8
DOT_T
10
241.00
20
1904.70
40
2.00
0
LWPOLYLINE
8
STRINGS
90
2
70
0
10
254.30
20
913.80
10
254.30
20
1862.70
0
CIRCLE
8
DOT_G
10
254.30
20
913.80
40
2.00
0
CIRCLE
8
DOT_S
10
254.30
20
1728.00
40
2.00
0
CIRCLE
8
DOT_N
10
254.30
20
1776.40
40
2.00
0
CIRCLE
8
DOT_F
10
254.30
20
1827.70
40
2.00
0
CIRCLE
8
DOT_T
10
254.30
20
1862.70
40
2.00
0
LWPOLYLINE
8
STRINGS
90
2
70
0
10
267.80
20
944.80
10
267.80
20
1792.80
0
CIRCLE
8
DOT_G
10
267.80
20
944.80
40
2.00
0
CIRCLE
8
DOT_S
10
267.80
20
1669.10
40
2.00
0
CIRCLE
8
DOT_N
10
267.80
20
1712.20
40
2.00
0
CIRCLE
8
DOT_F
10
267.80
20
1757.80
40
2.00
0
CIRCLE
8
DOT_T
10
267.80
20
1792.80
40
2.00
0
LWPOLYLINE
8
STRINGS
90
2
70
0
10
281.60
20
976.30
10
281.60
20
1725.60
0
CIRCLE
8
DOT_G
10
281.60
20
976.30
40
2.00
0
CIRCLE
8
DOT_S
10
281.60
20
1612.70
40
2.00
0
CIRCLE
8
DOT_N
10
281.60
20
1650.50
40
2.00
0
CIRCLE
8
DOT_F
10
281.60
20
1690.60
40
2.00
0
CIRCLE
8
DOT_T
10
281.60
20
1725.60
40
2.00
0
LWPOLYLINE
8
STRINGS
90
2
70
0
10
296.90
20
1011.60
10
296.90
20
1737.70
0
CIRCLE
8
DOT_G
10
296.90
20
1011.60
40
2.00
0
CIRCLE
8
DOT_S
10
296.90
20
1627.30
40
2.00
0
CIRCLE
8
DOT_N
10
296.90
20
1663.90
40
2.00
0
CIRCLE
8
DOT_F
10
296.90
20
1702.70
40
2.00
0
CIRCLE
8
DOT_T
10
296.90
20
1737.70
40
2.00
0
LWPOLYLINE
8
STRINGS
90
2
70
0
10
312.10
20
1046.50
10
312.10
20
1742.30
0
CIRCLE
8
DOT_G
10
312.10
20
1046.50
40
2.00
0
CIRCLE
8
DOT_S
10
312.10
20
1635.20
40
2.00
0
CIRCLE
8
DOT_N
10
312.10
20
1670.20
40
2.00
0
CIRCLE
8
DOT_F
10
312.10
20
1707.30
40
2.00
0
CIRCLE
8
DOT_T
10
312.10
20
1742.30
40
2.00
0
LWPOLYLINE
8
STRINGS
90
2
70
0
10
327.20
20
1081.10
10
327.20
20
1731.70
0
CIRCLE
8
DOT_G
10
327.20
20
1081.10
40
2.00
0
CIRCLE
8
DOT_S
10
327.20
20
1629.50
40
2.00
0
CIRCLE
8
DOT_N
10
327.20
20
1662.10
40
2.00
0
CIRCLE
8
DOT_F
10
327.20
20
1696.70
40
2.00
0
CIRCLE
8
DOT_T
10
327.20
20
1731.70
40
2.00
0
LWPOLYLINE
8
STRINGS
90
2
70
0
10
342.30
20
1115.60
10
342.30
20
1714.50
0
CIRCLE
8
DOT_G
10
342.30
20
1115.60
40
2.00
0
CIRCLE
8
DOT_S
10
342.30
20
1618.00
40
2.00
0
CIRCLE
8
DOT_N
10
342.30
20
1647.90
40
2.00
0
CIRCLE
8
DOT_F
10
342.30
20
1679.50
40
2.00
0
CIRCLE
8
DOT_T
10
342.30
20
1714.50
40
2.00
0
LWPOLYLINE
8
STRINGS
90
2
70
0
10
357.30
20
1150.20
10
357.30
20
1667.00
0
CIRCLE
8
DOT_G
10
357.30
20
1150.20
40
2.00
0
CIRCLE
8
DOT_S
10
357.30
20
1579.50
40
2.00
0
CIRCLE
8
DOT_N
10
357.30
20
1605.00
40
2.00
0
CIRCLE
8
DOT_F
10
357.30
20
1632.00
40
2.00
0
CIRCLE
8
DOT_T
10
357.30
20
1667.00
40
2.00
0
LWPOLYLINE
8
STRINGS
90
2
70
0
10
372.40
20
1184.80
10
372.40
20
1651.80
0
CIRCLE
8
DOT_G
10
372.40
20
1184.80
40
2.00
0
CIRCLE
8
DOT_S
10
372.40
20
1569.70
40
2.00
0
CIRCLE
8
DOT_N
10
372.40
20
1592.60
40
2.00
0
CIRCLE
8
DOT_F
10
372.40
20
1616.80
40
2.00
0
CIRCLE
8
DOT_T
10
372.40
20
1651.80
40
2.00
0
LWPOLYLINE
8
STRINGS
90
2
70
0
10
387.50
20
1219.50
10
387.50
20
1654.80
0
CIRCLE
8
DOT_G
10
387.50
20
1219.50
40
2.00
0
CIRCLE
8
DOT_S
10
387.50
20
1576.20
40
2.00
0
CIRCLE
8
DOT_N
10
387.50
20
1597.40
40
2.00
0
CIRCLE
8
DOT_F
10
387.50
20
1619.80
40
2.00
0
CIRCLE
8
DOT_T
10
387.50
20
1654.80
40
2.00
0
LWPOLYLINE
8
STRINGS
90
2
70
0
10
402.60
20
1254.00
10
402.60
20
1671.70
0
CIRCLE
8
DOT_G
10
402.60
20
1254.00
40
2.00
0
CIRCLE
8
DOT_S
10
402.60
20
1595.00
40
2.00
0
CIRCLE
8
DOT_N
10
402.60
20
1615.20
40
2.00
0
CIRCLE
8
DOT_F
10
402.60
20
1636.70
40
2.00
0
CIRCLE
8
DOT_T
10
402.60
20
1671.70
40
2.00
0
LWPOLYLINE
8
STRINGS
90
2
70
0
10
417.20
20
1287.70
10
417.20
20
1674.20
0
CIRCLE
8
DOT_G
10
417.20
20
1287.70
40
2.00
0
CIRCLE
8
DOT_S
10
417.20
20
1600.90
40
2.00
0
CIRCLE
8
DOT_N
10
417.20
20
1619.50
40
2.00
0
CIRCLE
8
DOT_F
10
417.20
20
1639.20
40
2.00
0
CIRCLE
8
DOT_T
10
417.20
20
1674.20
40
2.00
0
LWPOLYLINE
8
STRINGS
90
2
70
0
10
431.50
20
1320.60
10
431.50
20
1682.40
0
CIRCLE
8
DOT_G
10
431.50
20
1320.60
40
2.00
0
CIRCLE
8
DOT_S
10
431.50
20
1611.80
40
2.00
0
CIRCLE
8
DOT_N
10
431.50
20
1629.10
40
2.00
0
CIRCLE
8
DOT_F
10
431.50
20
1647.40
40
2.00
0
CIRCLE
8
DOT_T
10
431.50
20
1682.40
40
2.00
0
LWPOLYLINE
8
STRINGS
90
2
70
0
10
445.80
20
1353.50
10
445.80
20
1701.90
0
CIRCLE
8
DOT_G
10
445.80
20
1353.50
40
2.00
0
CIRCLE
8
DOT_S
10
445.80
20
1632.70
40
2.00
0
CIRCLE
8
DOT_N
10
445.80
20
1649.30
40
2.00
0
CIRCLE
8
DOT_F
10
445.80
20
1666.90
40
2.00
0
CIRCLE
8
DOT_T
10
445.80
20
1701.90
40
2.00
0
LWPOLYLINE
8
STRINGS
90
2
70
0
10
460.60
20
1387.40
10
460.60
20
1718.20
0
CIRCLE
8
DOT_G
10
460.60
20
1387.40
40
2.00
0
CIRCLE
8
DOT_S
10
460.60
20
1650.90
40
2.00
0
CIRCLE
8
DOT_N
10
460.60
20
1666.60
40
2.00
0
CIRCLE
8
DOT_F
10
460.60
20
1683.20
40
2.00
0
CIRCLE
8
DOT_T
10
460.60
20
1718.20
40
2.00
0
LWPOLYLINE
8
STRINGS
90
2
70
0
10
475.70
20
1422.00
10
475.70
20
1730.30
0
CIRCLE
8
DOT_G
10
475.70
20
1422.00
40
2.00
0
CIRCLE
8
DOT_S
10
475.70
20
1665.50
40
2.00
0
CIRCLE
8
DOT_N
10
475.70
20
1680.00
40
2.00
0
CIRCLE
8
DOT_F
10
475.70
20
1695.30
40
2.00
0
CIRCLE
8
DOT_T
10
475.70
20
1730.30
40
2.00
0
LWPOLYLINE
8
STRINGS
90
2
70
0
10
490.10
20
1455.10
10
490.10
20
1743.00
0
CIRCLE
8
DOT_G
10
490.10
20
1455.10
40
2.00
0
CIRCLE
8
DOT_S
10
490.10
20
1680.40
40
2.00
0
CIRCLE
8
DOT_N
10
490.10
20
1693.80
40
2.00
0
CIRCLE
8
DOT_F
10
490.10
20
1708.00
40
2.00
0
CIRCLE
8
DOT_T
10
490.10
20
1743.00
40
2.00
0
LWPOLYLINE
8
STRINGS
90
2
70
0
10
504.00
20
1487.00
10
504.00
20
1751.70
0
CIRCLE
8
DOT_G
10
504.00
20
1487.00
40
2.00
0
CIRCLE
8
DOT_S
10
504.00
20
1691.60
40
2.00
0
CIRCLE
8
DOT_N
10
504.00
20
1703.80
40
2.00
0
CIRCLE
8
DOT_F
10
504.00
20
1716.70
40
2.00
0
CIRCLE
8
DOT_T
10
504.00
20
1751.70
40
2.00
0
LWPOLYLINE
8
STRINGS
90
2
70
0
10
517.40
20
1517.80
10
517.40
20
1758.00
0
CIRCLE
8
DOT_G
10
517.40
20
1517.80
40
2.00
0
CIRCLE
8
DOT_S
10
517.40
20
1700.60
40
2.00
0
CIRCLE
8
DOT_N
10
517.40
20
1711.50
40
2.00
0
CIRCLE
8
DOT_F
10
517.40
20
1723.00
40
2.00
0
CIRCLE
8
DOT_T
10
517.40
20
1758.00
40
2.00
0
LWPOLYLINE
8
STRINGS
90
2
70
0
10
530.80
20
1548.60
10
530.80
20
1769.10
0
CIRCLE
8
DOT_G
10
530.80
20
1548.60
40
2.00
0
CIRCLE
8
DOT_S
10
530.80
20
1713.80
40
2.00
0
CIRCLE
8
DOT_N
10
530.80
20
1723.70
40
2.00
0
CIRCLE
8
DOT_F
10
530.80
20
1734.10
40
2.00
0
CIRCLE
8
DOT_T
10
530.80
20
1769.10
40
2.00
0
LWPOLYLINE
8
STRINGS
90
2
70
0
10
543.40
20
1577.50
10
543.40
20
1795.60
0
CIRCLE
8
DOT_G
10
543.40
20
1577.50
40
2.00
0
CIRCLE
8
DOT_S
10
543.40
20
1740.60
40
2.00
0
CIRCLE
8
DOT_N
10
543.40
20
1750.30
40
2.00
0
CIRCLE
8
DOT_F
10
543.40
20
1760.60
40
2.00
0
CIRCLE
8
DOT_T
10
543.40
20
1795.60
40
2.00
0
LWPOLYLINE
8
STRINGS
90
2
70
0
10
556.00
20
1606.30
10
556.00
20
1817.60
0
CIRCLE
8
DOT_G
10
556.00
20
1606.30
40
2.00
0
CIRCLE
8
DOT_S
10
556.00
20
1763.40
40
2.00
0
CIRCLE
8
DOT_N
10
556.00
20
1772.70
40
2.00
0
CIRCLE
8
DOT_F
10
556.00
20
1782.60
40
2.00
0
CIRCLE
8
DOT_T
10
556.00
20
1817.60
40
2.00
0
LWPOLYLINE
8
STRINGS
90
2
70
0
10
568.60
20
1635.20
10
568.60
20
1836.60
0
CIRCLE
8
DOT_G
10
568.60
20
1635.20
40
2.00
0
CIRCLE
8
DOT_S
10
568.60
20
1783.40
40
2.00
0
CIRCLE
8
DOT_N
10
568.60
20
1792.20
40
2.00
0
CIRCLE
8
DOT_F
10
568.60
20
1801.60
40
2.00
0
CIRCLE
8
DOT_T
10
568.60
20
1836.60
40
2.00
0
LWPOLYLINE
8
STRINGS
90
2
70
0
10
581.20
20
1664.10
10
581.20
20
1859.40
0
CIRCLE
8
DOT_G
10
581.20
20
1664.10
40
2.00
0
CIRCLE
8
DOT_S
10
581.20
20
1806.90
40
2.00
0
CIRCLE
8
DOT_N
10
581.20
20
1815.40
40
2.00
0
CIRCLE
8
DOT_F
10
581.20
20
1824.40
40
2.00
0
CIRCLE
8
DOT_T
10
581.20
20
1859.40
40
2.00
0
LWPOLYLINE
8
STRINGS
90
2
70
0
10
593.70
20
1693.00
10
593.70
20
1883.90
0
CIRCLE
8
DOT_G
10
593.70
20
1693.00
40
2.00
0
CIRCLE
8
DOT_S
10
593.70
20
1831.90
40
2.00
0
CIRCLE
8
DOT_N
10
593.70
20
1840.10
40
2.00
0
CIRCLE
8
DOT_F
10
593.70
20
1848.90
40
2.00
0
CIRCLE
8
DOT_T
10
593.70
20
1883.90
40
2.00
0
LWPOLYLINE
8
STRINGS
90
2
70
0
10
606.30
20
1721.90
10
606.30
20
1894.10
0
CIRCLE
8
DOT_G
10
606.30
20
1721.90
40
2.00
0
CIRCLE
8
DOT_S
10
606.30
20
1844.20
40
2.00
0
CIRCLE
8
DOT_N
10
606.30
20
1851.40
40
2.00
0
CIRCLE
8
DOT_F
10
606.30
20
1859.10
40
2.00
0
CIRCLE
8
DOT_T
10
606.30
20
1894.10
40
2.00
0
LWPOLYLINE
8
STRINGS
90
2
70
0
10
618.50
20
1749.90
10
618.50
20
1906.70
0
CIRCLE
8
DOT_G
10
618.50
20
1749.90
40
2.00
0
CIRCLE
8
DOT_S
10
618.50
20
1858.40
40
2.00
0
CIRCLE
8
DOT_N
10
618.50
20
1864.90
40
2.00
0
CIRCLE
8
DOT_F
10
618.50
20
1871.70
40
2.00
0
CIRCLE
8
DOT_T
10
618.50
20
1906.70
40
2.00
0
LWPOLYLINE
8
STRINGS
90
2
70
0
10
630.70
20
1777.90
10
630.70
20
1924.90
0
CIRCLE
8
DOT_G
10
630.70
20
1777.90
40
2.00
0
CIRCLE
8
DOT_S
10
630.70
20
1877.70
40
2.00
0
CIRCLE
8
DOT_N
10
630.70
20
1883.60
40
2.00
0
CIRCLE
8
DOT_F
10
630.70
20
1889.90
40
2.00
0
CIRCLE
8
DOT_T
10
630.70
20
1924.90
40
2.00
0
LWPOLYLINE
8
STRINGS
90
2
70
0
10
642.90
20
1805.90
10
642.90
20
1942.70
0
CIRCLE
8
DOT_G
10
642.90
20
1805.90
40
2.00
0
CIRCLE
8
DOT_S
10
642.90
20
1896.60
40
2.00
0
CIRCLE
8
DOT_N
10
642.90
20
1902.00
40
2.00
0
CIRCLE
8
DOT_F
10
642.90
20
1907.70
40
2.00
0
CIRCLE
8
DOT_T
10
642.90
20
1942.70
40
2.00
0
LWPOLYLINE
8
RIB
90
47
70
0
10
0.00
20
329.80
10
14.20
20
362.30
10
27.70
20
393.50
10
41.80
20
425.60
10
56.20
20
458.80
10
70.10
20
490.60
10
84.50
20
524.00
10
99.70
20
558.90
10
113.90
20
591.40
10
128.20
20
624.10
10
142.40
20
656.80
10
156.60
20
689.40
10
170.80
20
722.10
10
185.10
20
754.60
10
199.30
20
787.30
10
213.50
20
819.90
10
227.40
20
851.90
10
241.00
20
883.10
10
254.30
20
913.80
10
267.80
20
944.80
10
281.60
20
976.30
10
296.90
20
1011.60
10
312.10
20
1046.50
10
327.20
20
1081.10
10
342.30
20
1115.60
10
357.30
20
1150.20
10
372.40
20
1184.80
10
387.50
20
1219.50
10
402.60
20
1254.00
10
417.20
20
1287.70
10
431.50
20
1320.60
10
445.80
20
1353.50
10
460.60
20
1387.40
10
475.70
20
1422.00
10
490.10
20
1455.10
10
504.00
20
1487.00
10
517.40
20
1517.80
10
530.80
20
1548.60
10
543.40
20
1577.50
10
556.00
20
1606.30
10
568.60
20
1635.20
10
581.20
20
1664.10
10
593.70
20
1693.00
10
606.30
20
1721.90
10
618.50
20
1749.90
10
630.70
20
1777.90
10
642.90
20
1805.90
0
LWPOLYLINE
8
NECK_U
90
47
70
0
10
0.00
20
1951.10
10
14.20
20
1963.40
10
27.70
20
1972.30
10
41.80
20
1978.90
10
56.20
20
1990.60
10
70.10
20
2000.00
10
84.50
20
1990.30
10
99.70
20
1979.50
10
113.90
20
1995.00
10
128.20
20
1995.00
10
142.40
20
1979.20
10
156.60
20
1980.00
10
170.80
20
2000.00
10
185.10
20
1988.10
10
199.30
20
1984.50
10
213.50
20
1959.10
10
227.40
20
1934.10
10
241.00
20
1914.70
10
254.30
20
1872.70
10
267.80
20
1832.30
10
281.60
20
1816.50
10
296.90
20
1799.20
10
312.10
20
1782.50
10
327.20
20
1766.70
10
342.30
20
1751.70
10
357.30
20
1738.00
10
372.40
20
1725.50
10
387.50
20
1714.60
10
402.60
20
1705.50
10
417.20
20
1698.70
10
431.50
20
1694.00
10
445.80
20
1711.90
10
460.60
20
1728.20
10
475.70
20
1740.30
10
490.10
20
1753.00
10
504.00
20
1761.70
10
517.40
20
1768.00
10
530.80
20
1779.10
10
543.40
20
1805.60
10
556.00
20
1827.60
10
568.60
20
1846.60
10
581.20
20
1869.40
10
593.70
20
1893.90
10
606.30
20
1904.10
10
618.50
20
1916.70
10
630.70
20
1948.60
10
642.90
20
1990.20
0
LWPOLYLINE
8
NECK_L
90
47
70
0
10
0.00
20
1649.60
10
14.20
20
1694.90
10
27.70
20
1719.30
10
41.80
20
1751.40
10
56.20
20
1778.40
10
70.10
20
1796.40
10
84.50
20
1785.30
10
99.70
20
1773.30
10
113.90
20
1797.80
10
128.20
20
1802.20
10
142.40
20
1789.80
10
156.60
20
1789.60
10
170.80
20
1777.30
10
185.10
20
1763.10
10
199.30
20
1747.80
10
213.50
20
1731.60
10
227.40
20
1715.40
10
241.00
20
1699.40
10
254.30
20
1684.00
10
267.80
20
1664.10
10
281.60
20
1607.70
10
296.90
20
1622.30
10
312.10
20
1626.20
10
327.20
20
1614.90
10
342.30
20
1605.60
10
357.30
20
1574.50
10
372.40
20
1564.70
10
387.50
20
1571.20
10
402.60
20
1590.00
10
417.20
20
1595.80
10
431.50
20
1601.30
10
445.80
20
1609.20
10
460.60
20
1619.80
10
475.70
20
1633.20
10
490.10
20
1648.30
10
504.00
20
1664.90
10
517.40
20
1682.50
10
530.80
20
1701.70
10
543.40
20
1721.00
10
556.00
20
1741.30
10
568.60
20
1762.50
10
581.20
20
1784.30
10
593.70
20
1806.50
10
606.30
20
1829.00
10
618.50
20
1850.80
10
630.70
20
1872.40
10
642.90
20
1891.60
0
ENDSEC
0
EOF