<svg xmlns="http://www.w3.org/2000/svg" viewBox="-70.0 0 862.9 2080.0" font-family="sans-serif">
<rect x="-70.0" y="0" width="862.9" height="2080.0" fill="white"/>
<line x1="-70.0" y1="2080.0" x2="792.9" y2="2080.0" stroke="#ddd"/><text x="-66.0" y="2077.0" font-size="15" fill="#999">0</text>
<line x1="-70.0" y1="1830.0" x2="792.9" y2="1830.0" stroke="#ddd"/><text x="-66.0" y="1827.0" font-size="15" fill="#999">250</text>
<line x1="-70.0" y1="1580.0" x2="792.9" y2="1580.0" stroke="#ddd"/><text x="-66.0" y="1577.0" font-size="15" fill="#999">500</text>
<line x1="-70.0" y1="1330.0" x2="792.9" y2="1330.0" stroke="#ddd"/><text x="-66.0" y="1327.0" font-size="15" fill="#999">750</text>
<line x1="-70.0" y1="1080.0" x2="792.9" y2="1080.0" stroke="#ddd"/><text x="-66.0" y="1077.0" font-size="15" fill="#999">1000</text>
<line x1="-70.0" y1="830.0" x2="792.9" y2="830.0" stroke="#ddd"/><text x="-66.0" y="827.0" font-size="15" fill="#999">1250</text>
<line x1="-70.0" y1="580.0" x2="792.9" y2="580.0" stroke="#ddd"/><text x="-66.0" y="577.0" font-size="15" fill="#999">1500</text>
<line x1="-70.0" y1="330.0" x2="792.9" y2="330.0" stroke="#ddd"/><text x="-66.0" y="327.0" font-size="15" fill="#999">1750</text>
<line x1="-70.0" y1="80.0" x2="792.9" y2="80.0" stroke="#ddd"/><text x="-66.0" y="77.0" font-size="15" fill="#999">2000</text>
<line x1="0.0" y1="2080.0" x2="0.0" y2="80.0" stroke="#f3e0e0"/><text x="0.0" y="2098.0" font-size="11" fill="#a55" text-anchor="middle">C1</text>
<line x1="99.7" y1="2080.0" x2="99.7" y2="80.0" stroke="#f3e0e0"/><text x="99.7" y="2098.0" font-size="11" fill="#a55" text-anchor="middle">C2</text>
<line x1="199.3" y1="2080.0" x2="199.3" y2="80.0" stroke="#f3e0e0"/><text x="199.3" y="2098.0" font-size="11" fill="#a55" text-anchor="middle">C3</text>
<line x1="296.9" y1="2080.0" x2="296.9" y2="80.0" stroke="#f3e0e0"/><text x="296.9" y="2098.0" font-size="11" fill="#a55" text-anchor="middle">C4</text>
<line x1="402.6" y1="2080.0" x2="402.6" y2="80.0" stroke="#f3e0e0"/><text x="402.6" y="2098.0" font-size="11" fill="#a55" text-anchor="middle">C5</text>
<line x1="504.0" y1="2080.0" x2="504.0" y2="80.0" stroke="#f3e0e0"/><text x="504.0" y="2098.0" font-size="11" fill="#a55" text-anchor="middle">C6</text>
<line x1="593.7" y1="2080.0" x2="593.7" y2="80.0" stroke="#f3e0e0"/><text x="593.7" y="2098.0" font-size="11" fill="#a55" text-anchor="middle">C7</text>
<line x1="642.9" y1="2080.0" x2="642.9" y2="80.0" stroke="#f3e0e0"/><text x="642.9" y="2098.0" font-size="11" fill="#a55" text-anchor="middle">G7</text>
<text x="-55.0" y="28" font-size="18" font-weight="bold">Style 25 dots - F/N/S physics 50/50, U quartic-bezier (bass-anchored)</text>
<polygon points="0.0,128.9 14.2,116.6 27.7,107.7 41.8,101.1 56.2,89.4 70.1,80.0 84.5,89.7 99.7,100.5 113.9,85.0 128.2,85.0 142.4,100.8 156.6,100.0 170.8,80.0 185.1,91.9 199.3,95.5 213.5,120.9 227.4,145.9 241.0,165.3 254.3,207.3 267.8,247.7 281.6,263.5 296.9,280.8 312.1,297.5 327.2,313.3 342.3,328.3 357.3,342.0 372.4,354.5 387.5,365.4 402.6,374.5 417.2,381.3 431.5,386.0 445.8,368.1 460.6,351.8 475.7,339.7 490.1,327.0 504.0,318.3 517.4,312.0 530.8,300.9 543.4,274.4 556.0,252.4 568.6,233.4 581.2,210.6 593.7,186.1 606.3,175.9 618.5,163.3 630.7,131.4 642.9,89.8 642.9,188.4 630.7,207.6 618.5,229.2 606.3,251.0 593.7,273.5 581.2,295.7 568.6,317.5 556.0,338.7 543.4,359.0 530.8,378.3 517.4,397.5 504.0,415.1 490.1,431.7 475.7,446.8 460.6,460.2 445.8,470.8 431.5,478.7 417.2,484.2 402.6,490.0 387.5,508.8 372.4,515.3 357.3,505.5 342.3,474.4 327.2,465.1 312.1,453.8 296.9,457.7 281.6,472.3 267.8,415.9 254.3,396.0 241.0,380.6 227.4,364.6 213.5,348.4 199.3,332.2 185.1,316.9 170.8,302.7 156.6,290.4 142.4,290.2 128.2,277.8 113.9,282.2 99.7,306.7 84.5,294.7 70.1,283.6 56.2,301.6 41.8,328.6 27.7,360.7 14.2,385.1 0.0,430.4" fill="#caa011" fill-opacity="0.13"/>
<line x1="0.0" y1="1750.2" x2="0.0" y2="156.9" stroke="#cc0000" stroke-width="2.83" stroke-linecap="round"/>
<line x1="14.2" y1="1717.7" x2="14.2" y2="155.2" stroke="#cfcfcf" stroke-width="2.83" stroke-linecap="round"/>
<line x1="27.7" y1="1686.5" x2="27.7" y2="157.7" stroke="#cfcfcf" stroke-width="2.84" stroke-linecap="round"/>
<line x1="41.8" y1="1654.4" x2="41.8" y2="125.6" stroke="#111111" stroke-width="2.37" stroke-linecap="round"/>
<line x1="56.2" y1="1621.2" x2="56.2" y2="99.4" stroke="#cfcfcf" stroke-width="2.38" stroke-linecap="round"/>
<line x1="70.1" y1="1589.4" x2="70.1" y2="84.0" stroke="#cfcfcf" stroke-width="2.38" stroke-linecap="round"/>
<line x1="84.5" y1="1556.0" x2="84.5" y2="99.7" stroke="#cfcfcf" stroke-width="2.30" stroke-linecap="round"/>
<line x1="99.7" y1="1521.1" x2="99.7" y2="117.4" stroke="#cc0000" stroke-width="2.39" stroke-linecap="round"/>
<line x1="113.9" y1="1488.6" x2="113.9" y2="93.8" stroke="#cfcfcf" stroke-width="2.39" stroke-linecap="round"/>
<line x1="128.2" y1="1455.9" x2="128.2" y2="92.9" stroke="#cfcfcf" stroke-width="2.39" stroke-linecap="round"/>
<line x1="142.4" y1="1423.2" x2="142.4" y2="110.8" stroke="#111111" stroke-width="2.66" stroke-linecap="round"/>
<line x1="156.6" y1="1390.6" x2="156.6" y2="110.0" stroke="#cfcfcf" stroke-width="2.31" stroke-linecap="round"/>
<line x1="170.8" y1="1357.9" x2="170.8" y2="84.0" stroke="#cfcfcf" stroke-width="2.29" stroke-linecap="round"/>
<line x1="185.1" y1="1325.4" x2="185.1" y2="101.9" stroke="#cfcfcf" stroke-width="2.18" stroke-linecap="round"/>
<line x1="199.3" y1="1292.7" x2="199.3" y2="105.5" stroke="#cc0000" stroke-width="2.08" stroke-linecap="round"/>
<line x1="213.5" y1="1260.1" x2="213.5" y2="130.9" stroke="#cfcfcf" stroke-width="1.96" stroke-linecap="round"/>
<line x1="227.4" y1="1228.1" x2="227.4" y2="155.9" stroke="#cfcfcf" stroke-width="1.85" stroke-linecap="round"/>
<line x1="241.0" y1="1196.9" x2="241.0" y2="175.3" stroke="#111111" stroke-width="1.80" stroke-linecap="round"/>
<line x1="254.3" y1="1166.2" x2="254.3" y2="217.3" stroke="#cfcfcf" stroke-width="1.70" stroke-linecap="round"/>
<line x1="267.8" y1="1135.2" x2="267.8" y2="287.2" stroke="#cfcfcf" stroke-width="1.60" stroke-linecap="round"/>
<line x1="281.6" y1="1103.7" x2="281.6" y2="354.4" stroke="#cfcfcf" stroke-width="1.55" stroke-linecap="round"/>
<line x1="296.9" y1="1068.4" x2="296.9" y2="342.3" stroke="#cc0000" stroke-width="1.45" stroke-linecap="round"/>
<line x1="312.1" y1="1033.5" x2="312.1" y2="337.7" stroke="#cfcfcf" stroke-width="1.35" stroke-linecap="round"/>
<line x1="327.2" y1="998.9" x2="327.2" y2="348.3" stroke="#cfcfcf" stroke-width="1.30" stroke-linecap="round"/>
<line x1="342.3" y1="964.4" x2="342.3" y2="365.5" stroke="#111111" stroke-width="1.25" stroke-linecap="round"/>
<line x1="357.3" y1="929.8" x2="357.3" y2="413.0" stroke="#cfcfcf" stroke-width="1.20" stroke-linecap="round"/>
<line x1="372.4" y1="895.2" x2="372.4" y2="428.2" stroke="#cfcfcf" stroke-width="1.15" stroke-linecap="round"/>
<line x1="387.5" y1="860.5" x2="387.5" y2="425.2" stroke="#cfcfcf" stroke-width="1.10" stroke-linecap="round"/>
<line x1="402.6" y1="826.0" x2="402.6" y2="408.3" stroke="#cc0000" stroke-width="1.05" stroke-linecap="round"/>
<line x1="417.2" y1="792.3" x2="417.2" y2="405.8" stroke="#cfcfcf" stroke-width="1.00" stroke-linecap="round"/>
<line x1="431.5" y1="759.4" x2="431.5" y2="397.6" stroke="#cfcfcf" stroke-width="0.95" stroke-linecap="round"/>
<line x1="445.8" y1="726.5" x2="445.8" y2="378.1" stroke="#111111" stroke-width="0.92" stroke-linecap="round"/>
<line x1="460.6" y1="692.6" x2="460.6" y2="361.8" stroke="#cfcfcf" stroke-width="0.88" stroke-linecap="round"/>
<line x1="475.7" y1="658.0" x2="475.7" y2="349.7" stroke="#cfcfcf" stroke-width="0.85" stroke-linecap="round"/>
<line x1="490.1" y1="624.9" x2="490.1" y2="337.0" stroke="#cfcfcf" stroke-width="0.80" stroke-linecap="round"/>
<line x1="504.0" y1="593.0" x2="504.0" y2="328.3" stroke="#cc0000" stroke-width="0.76" stroke-linecap="round"/>
<line x1="517.4" y1="562.2" x2="517.4" y2="322.0" stroke="#cfcfcf" stroke-width="0.73" stroke-linecap="round"/>
<line x1="530.8" y1="531.4" x2="530.8" y2="310.9" stroke="#cfcfcf" stroke-width="0.70" stroke-linecap="round"/>
<line x1="543.4" y1="502.5" x2="543.4" y2="284.4" stroke="#111111" stroke-width="0.68" stroke-linecap="round"/>
<line x1="556.0" y1="473.7" x2="556.0" y2="262.4" stroke="#cfcfcf" stroke-width="0.66" stroke-linecap="round"/>
<line x1="568.6" y1="444.8" x2="568.6" y2="243.4" stroke="#cfcfcf" stroke-width="0.64" stroke-linecap="round"/>
<line x1="581.2" y1="415.9" x2="581.2" y2="220.6" stroke="#cfcfcf" stroke-width="0.62" stroke-linecap="round"/>
<line x1="593.7" y1="387.0" x2="593.7" y2="196.1" stroke="#cc0000" stroke-width="0.60" stroke-linecap="round"/>
<line x1="606.3" y1="358.1" x2="606.3" y2="185.9" stroke="#cfcfcf" stroke-width="0.58" stroke-linecap="round"/>
<line x1="618.5" y1="330.1" x2="618.5" y2="173.3" stroke="#cfcfcf" stroke-width="0.56" stroke-linecap="round"/>
<line x1="630.7" y1="302.1" x2="630.7" y2="155.1" stroke="#111111" stroke-width="0.54" stroke-linecap="round"/>
<line x1="642.9" y1="274.1" x2="642.9" y2="137.3" stroke="#cfcfcf" stroke-width="0.52" stroke-linecap="round"/>
<polyline points="0.0,1750.2 14.2,1717.7 27.7,1686.5 41.8,1654.4 56.2,1621.2 70.1,1589.4 84.5,1556.0 99.7,1521.1 113.9,1488.6 128.2,1455.9 142.4,1423.2 156.6,1390.6 170.8,1357.9 185.1,1325.4 199.3,1292.7 213.5,1260.1 227.4,1228.1 241.0,1196.9 254.3,1166.2 267.8,1135.2 281.6,1103.7 296.9,1068.4 312.1,1033.5 327.2,998.9 342.3,964.4 357.3,929.8 372.4,895.2 387.5,860.5 402.6,826.0 417.2,792.3 431.5,759.4 445.8,726.5 460.6,692.6 475.7,658.0 490.1,624.9 504.0,593.0 517.4,562.2 530.8,531.4 543.4,502.5 556.0,473.7 568.6,444.8 581.2,415.9 593.7,387.0 606.3,358.1 618.5,330.1 630.7,302.1 642.9,274.1" fill="none" stroke="#7a4a1e" stroke-width="2.5"/>
<polyline points="0.0,128.9 14.2,116.6 27.7,107.7 41.8,101.1 56.2,89.4 70.1,80.0 84.5,89.7 99.7,100.5 113.9,85.0 128.2,85.0 142.4,100.8 156.6,100.0 170.8,80.0 185.1,91.9 199.3,95.5 213.5,120.9 227.4,145.9 241.0,165.3 254.3,207.3 267.8,247.7 281.6,263.5 296.9,280.8 312.1,297.5 327.2,313.3 342.3,328.3 357.3,342.0 372.4,354.5 387.5,365.4 402.6,374.5 417.2,381.3 431.5,386.0 445.8,368.1 460.6,351.8 475.7,339.7 490.1,327.0 504.0,318.3 517.4,312.0 530.8,300.9 543.4,274.4 556.0,252.4 568.6,233.4 581.2,210.6 593.7,186.1 606.3,175.9 618.5,163.3 630.7,131.4 642.9,89.8" fill="none" stroke="#7b2fbe" stroke-width="2"/>
<polyline points="0.0,430.4 14.2,385.1 27.7,360.7 41.8,328.6 56.2,301.6 70.1,283.6 84.5,294.7 99.7,306.7 113.9,282.2 128.2,277.8 142.4,290.2 156.6,290.4 170.8,302.7 185.1,316.9 199.3,332.2 213.5,348.4 227.4,364.6 241.0,380.6 254.3,396.0 267.8,415.9 281.6,472.3 296.9,457.7 312.1,453.8 327.2,465.1 342.3,474.4 357.3,505.5 372.4,515.3 387.5,508.8 402.6,490.0 417.2,484.2 431.5,478.7 445.8,470.8 460.6,460.2 475.7,446.8 490.1,431.7 504.0,415.1 517.4,397.5 530.8,378.3 543.4,359.0 556.0,338.7 568.6,317.5 581.2,295.7 593.7,273.5 606.3,251.0 618.5,229.2 630.7,207.6 642.9,188.4" fill="none" stroke="#1a9a1a" stroke-width="1.5" stroke-dasharray="6 4"/>
<circle cx="0.0" cy="1750.2" r="2.8" fill="#8B4513"/>
<circle cx="0.0" cy="361.9" r="2.6" fill="#ff8c00"/>
<circle cx="0.0" cy="279.4" r="2.6" fill="#1a9a1a"/>
<circle cx="0.0" cy="191.9" r="2.6" fill="#2a52be"/>
<circle cx="0.0" cy="156.9" r="2.6" fill="#000000"/>
<circle cx="14.2" cy="1717.7" r="2.8" fill="#8B4513"/>
<circle cx="14.2" cy="356.8" r="2.6" fill="#ff8c00"/>
<circle cx="14.2" cy="275.9" r="2.6" fill="#1a9a1a"/>
<circle cx="14.2" cy="190.2" r="2.6" fill="#2a52be"/>
<circle cx="14.2" cy="155.2" r="2.6" fill="#000000"/>
<circle cx="27.7" cy="1686.5" r="2.8" fill="#8B4513"/>
<circle cx="27.7" cy="355.7" r="2.6" fill="#ff8c00"/>
<circle cx="27.7" cy="276.6" r="2.6" fill="#1a9a1a"/>
<circle cx="27.7" cy="192.7" r="2.6" fill="#2a52be"/>
<circle cx="27.7" cy="157.7" r="2.6" fill="#000000"/>
<circle cx="41.8" cy="1654.4" r="2.8" fill="#8B4513"/>
<circle cx="41.8" cy="323.6" r="2.6" fill="#ff8c00"/>
<circle cx="41.8" cy="244.5" r="2.6" fill="#1a9a1a"/>
<circle cx="41.8" cy="160.6" r="2.6" fill="#2a52be"/>
<circle cx="41.8" cy="125.6" r="2.6" fill="#000000"/>
<circle cx="56.2" cy="1621.2" r="2.8" fill="#8B4513"/>
<circle cx="56.2" cy="296.6" r="2.6" fill="#ff8c00"/>
<circle cx="56.2" cy="217.8" r="2.6" fill="#1a9a1a"/>
<circle cx="56.2" cy="134.4" r="2.6" fill="#2a52be"/>
<circle cx="56.2" cy="99.4" r="2.6" fill="#000000"/>
<circle cx="70.1" cy="1589.4" r="2.8" fill="#8B4513"/>
<circle cx="70.1" cy="277.2" r="2.6" fill="#ff8c00"/>
<circle cx="70.1" cy="199.1" r="2.6" fill="#1a9a1a"/>
<circle cx="70.1" cy="116.5" r="2.6" fill="#2a52be"/>
<circle cx="70.1" cy="84.0" r="2.6" fill="#000000"/>
<circle cx="84.5" cy="1556.0" r="2.8" fill="#8B4513"/>
<circle cx="84.5" cy="289.7" r="2.6" fill="#ff8c00"/>
<circle cx="84.5" cy="214.4" r="2.6" fill="#1a9a1a"/>
<circle cx="84.5" cy="134.7" r="2.6" fill="#2a52be"/>
<circle cx="84.5" cy="99.7" r="2.6" fill="#000000"/>
<circle cx="99.7" cy="1521.1" r="2.8" fill="#8B4513"/>
<circle cx="99.7" cy="301.7" r="2.6" fill="#ff8c00"/>
<circle cx="99.7" cy="229.2" r="2.6" fill="#1a9a1a"/>
<circle cx="99.7" cy="152.4" r="2.6" fill="#2a52be"/>
<circle cx="99.7" cy="117.4" r="2.6" fill="#000000"/>
<circle cx="113.9" cy="1488.6" r="2.8" fill="#8B4513"/>
<circle cx="113.9" cy="277.2" r="2.6" fill="#ff8c00"/>
<circle cx="113.9" cy="205.1" r="2.6" fill="#1a9a1a"/>
<circle cx="113.9" cy="128.8" r="2.6" fill="#2a52be"/>
<circle cx="113.9" cy="93.8" r="2.6" fill="#000000"/>
<circle cx="128.2" cy="1455.9" r="2.8" fill="#8B4513"/>
<circle cx="128.2" cy="272.8" r="2.6" fill="#ff8c00"/>
<circle cx="128.2" cy="202.4" r="2.6" fill="#1a9a1a"/>
<circle cx="128.2" cy="127.9" r="2.6" fill="#2a52be"/>
<circle cx="128.2" cy="92.9" r="2.6" fill="#000000"/>
<circle cx="142.4" cy="1423.2" r="2.8" fill="#8B4513"/>
<circle cx="142.4" cy="285.2" r="2.6" fill="#ff8c00"/>
<circle cx="142.4" cy="217.5" r="2.6" fill="#1a9a1a"/>
<circle cx="142.4" cy="145.8" r="2.6" fill="#2a52be"/>
<circle cx="142.4" cy="110.8" r="2.6" fill="#000000"/>
<circle cx="156.6" cy="1390.6" r="2.8" fill="#8B4513"/>
<circle cx="156.6" cy="280.9" r="2.6" fill="#ff8c00"/>
<circle cx="156.6" cy="214.9" r="2.6" fill="#1a9a1a"/>
<circle cx="156.6" cy="145.0" r="2.6" fill="#2a52be"/>
<circle cx="156.6" cy="110.0" r="2.6" fill="#000000"/>
<circle cx="170.8" cy="1357.9" r="2.8" fill="#8B4513"/>
<circle cx="170.8" cy="248.2" r="2.6" fill="#ff8c00"/>
<circle cx="170.8" cy="182.2" r="2.6" fill="#1a9a1a"/>
<circle cx="170.8" cy="112.3" r="2.6" fill="#2a52be"/>
<circle cx="170.8" cy="84.0" r="2.6" fill="#000000"/>
<circle cx="185.1" cy="1325.4" r="2.8" fill="#8B4513"/>
<circle cx="185.1" cy="266.6" r="2.6" fill="#ff8c00"/>
<circle cx="185.1" cy="203.6" r="2.6" fill="#1a9a1a"/>
<circle cx="185.1" cy="136.9" r="2.6" fill="#2a52be"/>
<circle cx="185.1" cy="101.9" r="2.6" fill="#000000"/>
<circle cx="199.3" cy="1292.7" r="2.8" fill="#8B4513"/>
<circle cx="199.3" cy="266.2" r="2.6" fill="#ff8c00"/>
<circle cx="199.3" cy="205.2" r="2.6" fill="#1a9a1a"/>
<circle cx="199.3" cy="140.5" r="2.6" fill="#2a52be"/>
<circle cx="199.3" cy="105.5" r="2.6" fill="#000000"/>
<circle cx="213.5" cy="1260.1" r="2.8" fill="#8B4513"/>
<circle cx="213.5" cy="285.3" r="2.6" fill="#ff8c00"/>
<circle cx="213.5" cy="227.3" r="2.6" fill="#1a9a1a"/>
<circle cx="213.5" cy="165.9" r="2.6" fill="#2a52be"/>
<circle cx="213.5" cy="130.9" r="2.6" fill="#000000"/>
<circle cx="227.4" cy="1228.1" r="2.8" fill="#8B4513"/>
<circle cx="227.4" cy="304.0" r="2.6" fill="#ff8c00"/>
<circle cx="227.4" cy="249.1" r="2.6" fill="#1a9a1a"/>
<circle cx="227.4" cy="190.9" r="2.6" fill="#2a52be"/>
<circle cx="227.4" cy="155.9" r="2.6" fill="#000000"/>
<circle cx="241.0" cy="1196.9" r="2.8" fill="#8B4513"/>
<circle cx="241.0" cy="317.9" r="2.6" fill="#ff8c00"/>
<circle cx="241.0" cy="265.7" r="2.6" fill="#1a9a1a"/>
<circle cx="241.0" cy="210.3" r="2.6" fill="#2a52be"/>
<circle cx="241.0" cy="175.3" r="2.6" fill="#000000"/>
<circle cx="254.3" cy="1166.2" r="2.8" fill="#8B4513"/>
<circle cx="254.3" cy="352.0" r="2.6" fill="#ff8c00"/>
<circle cx="254.3" cy="303.6" r="2.6" fill="#1a9a1a"/>
<circle cx="254.3" cy="252.3" r="2.6" fill="#2a52be"/>
<circle cx="254.3" cy="217.3" r="2.6" fill="#000000"/>
<circle cx="267.8" cy="1135.2" r="2.8" fill="#8B4513"/>
<circle cx="267.8" cy="410.9" r="2.6" fill="#ff8c00"/>
<circle cx="267.8" cy="367.8" r="2.6" fill="#1a9a1a"/>
<circle cx="267.8" cy="322.2" r="2.6" fill="#2a52be"/>
<circle cx="267.8" cy="287.2" r="2.6" fill="#000000"/>
<circle cx="281.6" cy="1103.7" r="2.8" fill="#8B4513"/>
<circle cx="281.6" cy="467.3" r="2.6" fill="#ff8c00"/>
<circle cx="281.6" cy="429.5" r="2.6" fill="#1a9a1a"/>
<circle cx="281.6" cy="389.4" r="2.6" fill="#2a52be"/>
<circle cx="281.6" cy="354.4" r="2.6" fill="#000000"/>
<circle cx="296.9" cy="1068.4" r="2.8" fill="#8B4513"/>
<circle cx="296.9" cy="452.7" r="2.6" fill="#ff8c00"/>
<circle cx="296.9" cy="416.1" r="2.6" fill="#1a9a1a"/>
<circle cx="296.9" cy="377.3" r="2.6" fill="#2a52be"/>
<circle cx="296.9" cy="342.3" r="2.6" fill="#000000"/>
<circle cx="312.1" cy="1033.5" r="2.8" fill="#8B4513"/>
<circle cx="312.1" cy="444.8" r="2.6" fill="#ff8c00"/>
<circle cx="312.1" cy="409.8" r="2.6" fill="#1a9a1a"/>
<circle cx="312.1" cy="372.7" r="2.6" fill="#2a52be"/>
<circle cx="312.1" cy="337.7" r="2.6" fill="#000000"/>
<circle cx="327.2" cy="998.9" r="2.8" fill="#8B4513"/>
<circle cx="327.2" cy="450.5" r="2.6" fill="#ff8c00"/>
<circle cx="327.2" cy="417.9" r="2.6" fill="#1a9a1a"/>
<circle cx="327.2" cy="383.3" r="2.6" fill="#2a52be"/>
<circle cx="327.2" cy="348.3" r="2.6" fill="#000000"/>
<circle cx="342.3" cy="964.4" r="2.8" fill="#8B4513"/>
<circle cx="342.3" cy="462.0" r="2.6" fill="#ff8c00"/>
<circle cx="342.3" cy="432.1" r="2.6" fill="#1a9a1a"/>
<circle cx="342.3" cy="400.5" r="2.6" fill="#2a52be"/>
<circle cx="342.3" cy="365.5" r="2.6" fill="#000000"/>
<circle cx="357.3" cy="929.8" r="2.8" fill="#8B4513"/>
<circle cx="357.3" cy="500.5" r="2.6" fill="#ff8c00"/>
<circle cx="357.3" cy="475.0" r="2.6" fill="#1a9a1a"/>
<circle cx="357.3" cy="448.0" r="2.6" fill="#2a52be"/>
<circle cx="357.3" cy="413.0" r="2.6" fill="#000000"/>
<circle cx="372.4" cy="895.2" r="2.8" fill="#8B4513"/>
<circle cx="372.4" cy="510.3" r="2.6" fill="#ff8c00"/>
<circle cx="372.4" cy="487.4" r="2.6" fill="#1a9a1a"/>
<circle cx="372.4" cy="463.2" r="2.6" fill="#2a52be"/>
<circle cx="372.4" cy="428.2" r="2.6" fill="#000000"/>
<circle cx="387.5" cy="860.5" r="2.8" fill="#8B4513"/>
<circle cx="387.5" cy="503.8" r="2.6" fill="#ff8c00"/>
<circle cx="387.5" cy="482.6" r="2.6" fill="#1a9a1a"/>
<circle cx="387.5" cy="460.2" r="2.6" fill="#2a52be"/>
<circle cx="387.5" cy="425.2" r="2.6" fill="#000000"/>
<circle cx="402.6" cy="826.0" r="2.8" fill="#8B4513"/>
<circle cx="402.6" cy="485.0" r="2.6" fill="#ff8c00"/>
<circle cx="402.6" cy="464.8" r="2.6" fill="#1a9a1a"/>
<circle cx="402.6" cy="443.3" r="2.6" fill="#2a52be"/>
<circle cx="402.6" cy="408.3" r="2.6" fill="#000000"/>
<circle cx="417.2" cy="792.3" r="2.8" fill="#8B4513"/>
<circle cx="417.2" cy="479.1" r="2.6" fill="#ff8c00"/>
<circle cx="417.2" cy="460.5" r="2.6" fill="#1a9a1a"/>
<circle cx="417.2" cy="440.8" r="2.6" fill="#2a52be"/>
<circle cx="417.2" cy="405.8" r="2.6" fill="#000000"/>
<circle cx="431.5" cy="759.4" r="2.8" fill="#8B4513"/>
<circle cx="431.5" cy="468.2" r="2.6" fill="#ff8c00"/>
<circle cx="431.5" cy="450.9" r="2.6" fill="#1a9a1a"/>
<circle cx="431.5" cy="432.6" r="2.6" fill="#2a52be"/>
<circle cx="431.5" cy="397.6" r="2.6" fill="#000000"/>
<circle cx="445.8" cy="726.5" r="2.8" fill="#8B4513"/>
<circle cx="445.8" cy="447.3" r="2.6" fill="#ff8c00"/>
<circle cx="445.8" cy="430.7" r="2.6" fill="#1a9a1a"/>
<circle cx="445.8" cy="413.1" r="2.6" fill="#2a52be"/>
<circle cx="445.8" cy="378.1" r="2.6" fill="#000000"/>
<circle cx="460.6" cy="692.6" r="2.8" fill="#8B4513"/>
<circle cx="460.6" cy="429.1" r="2.6" fill="#ff8c00"/>
<circle cx="460.6" cy="413.4" r="2.6" fill="#1a9a1a"/>
<circle cx="460.6" cy="396.8" r="2.6" fill="#2a52be"/>
<circle cx="460.6" cy="361.8" r="2.6" fill="#000000"/>
<circle cx="475.7" cy="658.0" r="2.8" fill="#8B4513"/>
<circle cx="475.7" cy="414.5" r="2.6" fill="#ff8c00"/>
<circle cx="475.7" cy="400.0" r="2.6" fill="#1a9a1a"/>
<circle cx="475.7" cy="384.7" r="2.6" fill="#2a52be"/>
<circle cx="475.7" cy="349.7" r="2.6" fill="#000000"/>
<circle cx="490.1" cy="624.9" r="2.8" fill="#8B4513"/>
<circle cx="490.1" cy="399.6" r="2.6" fill="#ff8c00"/>
<circle cx="490.1" cy="386.2" r="2.6" fill="#1a9a1a"/>
<circle cx="490.1" cy="372.0" r="2.6" fill="#2a52be"/>
<circle cx="490.1" cy="337.0" r="2.6" fill="#000000"/>
<circle cx="504.0" cy="593.0" r="2.8" fill="#8B4513"/>
<circle cx="504.0" cy="388.4" r="2.6" fill="#ff8c00"/>
<circle cx="504.0" cy="376.2" r="2.6" fill="#1a9a1a"/>
<circle cx="504.0" cy="363.3" r="2.6" fill="#2a52be"/>
<circle cx="504.0" cy="328.3" r="2.6" fill="#000000"/>
<circle cx="517.4" cy="562.2" r="2.8" fill="#8B4513"/>
<circle cx="517.4" cy="379.4" r="2.6" fill="#ff8c00"/>
<circle cx="517.4" cy="368.5" r="2.6" fill="#1a9a1a"/>
<circle cx="517.4" cy="357.0" r="2.6" fill="#2a52be"/>
<circle cx="517.4" cy="322.0" r="2.6" fill="#000000"/>
<circle cx="530.8" cy="531.4" r="2.8" fill="#8B4513"/>
<circle cx="530.8" cy="366.2" r="2.6" fill="#ff8c00"/>
<circle cx="530.8" cy="356.3" r="2.6" fill="#1a9a1a"/>
<circle cx="530.8" cy="345.9" r="2.6" fill="#2a52be"/>
<circle cx="530.8" cy="310.9" r="2.6" fill="#000000"/>
<circle cx="543.4" cy="502.5" r="2.8" fill="#8B4513"/>
<circle cx="543.4" cy="339.4" r="2.6" fill="#ff8c00"/>
<circle cx="543.4" cy="329.7" r="2.6" fill="#1a9a1a"/>
<circle cx="543.4" cy="319.4" r="2.6" fill="#2a52be"/>
<circle cx="543.4" cy="284.4" r="2.6" fill="#000000"/>
<circle cx="556.0" cy="473.7" r="2.8" fill="#8B4513"/>
<circle cx="556.0" cy="316.6" r="2.6" fill="#ff8c00"/>
<circle cx="556.0" cy="307.3" r="2.6" fill="#1a9a1a"/>
<circle cx="556.0" cy="297.4" r="2.6" fill="#2a52be"/>
<circle cx="556.0" cy="262.4" r="2.6" fill="#000000"/>
<circle cx="568.6" cy="444.8" r="2.8" fill="#8B4513"/>
<circle cx="568.6" cy="296.6" r="2.6" fill="#ff8c00"/>
<circle cx="568.6" cy="287.8" r="2.6" fill="#1a9a1a"/>
<circle cx="568.6" cy="278.4" r="2.6" fill="#2a52be"/>
<circle cx="568.6" cy="243.4" r="2.6" fill="#000000"/>
<circle cx="581.2" cy="415.9" r="2.8" fill="#8B4513"/>
<circle cx="581.2" cy="273.1" r="2.6" fill="#ff8c00"/>
<circle cx="581.2" cy="264.6" r="2.6" fill="#1a9a1a"/>
<circle cx="581.2" cy="255.6" r="2.6" fill="#2a52be"/>
<circle cx="581.2" cy="220.6" r="2.6" fill="#000000"/>
<circle cx="593.7" cy="387.0" r="2.8" fill="#8B4513"/>
<circle cx="593.7" cy="248.1" r="2.6" fill="#ff8c00"/>
<circle cx="593.7" cy="239.9" r="2.6" fill="#1a9a1a"/>
<circle cx="593.7" cy="231.1" r="2.6" fill="#2a52be"/>
<circle cx="593.7" cy="196.1" r="2.6" fill="#000000"/>
<circle cx="606.3" cy="358.1" r="2.8" fill="#8B4513"/>
<circle cx="606.3" cy="235.8" r="2.6" fill="#ff8c00"/>
<circle cx="606.3" cy="228.6" r="2.6" fill="#1a9a1a"/>
<circle cx="606.3" cy="220.9" r="2.6" fill="#2a52be"/>
<circle cx="606.3" cy="185.9" r="2.6" fill="#000000"/>
<circle cx="618.5" cy="330.1" r="2.8" fill="#8B4513"/>
<circle cx="618.5" cy="221.6" r="2.6" fill="#ff8c00"/>
<circle cx="618.5" cy="215.1" r="2.6" fill="#1a9a1a"/>
<circle cx="618.5" cy="208.3" r="2.6" fill="#2a52be"/>
<circle cx="618.5" cy="173.3" r="2.6" fill="#000000"/>
<circle cx="630.7" cy="302.1" r="2.8" fill="#8B4513"/>
<circle cx="630.7" cy="202.3" r="2.6" fill="#ff8c00"/>
<circle cx="630.7" cy="196.4" r="2.6" fill="#1a9a1a"/>
<circle cx="630.7" cy="190.1" r="2.6" fill="#2a52be"/>
<circle cx="630.7" cy="155.1" r="2.6" fill="#000000"/>
<circle cx="642.9" cy="274.1" r="2.8" fill="#8B4513"/>
<circle cx="642.9" cy="183.4" r="2.6" fill="#ff8c00"/>
<circle cx="642.9" cy="178.0" r="2.6" fill="#1a9a1a"/>
<circle cx="642.9" cy="172.3" r="2.6" fill="#2a52be"/>
<circle cx="642.9" cy="137.3" r="2.6" fill="#000000"/>
<circle cx="652.9" cy="45" r="6" fill="#8B4513"/><text x="665.9" y="50" font-size="14" fill="#8B4513">G grommet</text>
<circle cx="652.9" cy="67" r="6" fill="#ff8c00"/><text x="665.9" y="72" font-size="14" fill="#ff8c00">S sharp</text>
<circle cx="652.9" cy="89" r="6" fill="#1a9a1a"/><text x="665.9" y="94" font-size="14" fill="#1a9a1a">N natural</text>
<circle cx="652.9" cy="111" r="6" fill="#2a52be"/><text x="665.9" y="116" font-size="14" fill="#2a52be">F flat</text>
<circle cx="652.9" cy="133" r="6" fill="#000000"/><text x="665.9" y="138" font-size="14" fill="#000000">T tuner</text>
<circle cx="652.9" cy="155" r="6" fill="#7b2fbe"/><text x="665.9" y="160" font-size="14" fill="#7b2fbe">U neck top</text>
<circle cx="652.9" cy="177" r="6" fill="#1a9a1a"/><text x="665.9" y="182" font-size="14" fill="#1a9a1a">L neck bot</text>
</svg>