  0
SECTION
  2
HEADER
  9
$ACADVER
  1
AC1027
  9
$ACADMAINTVER
 70
105
  9
$DWGCODEPAGE
  3
ANSI_1252
  9
$LASTSAVEDBY
  1
ezdxf
  9
$REQUIREDVERSIONS
160
0
  9
$INSBASE
 10
0.0
 20
0.0
 30
0.0
  9
$EXTMIN
 10
1e+20
 20
1e+20
 30
1e+20
  9
$EXTMAX
 10
-1e+20
 20
-1e+20
 30
-1e+20
  9
$LIMMIN
 10
0.0
 20
0.0
  9
$LIMMAX
 10
420.0
 20
297.0
  9
$ORTHOMODE
 70
0
  9
$REGENMODE
 70
1
  9
$FILLMODE
 70
1
  9
$QTEXTMODE
 70
0
  9
$MIRRTEXT
 70
1
  9
$LTSCALE
 40
1.0
  9
$ATTMODE
 70
1
  9
$TEXTSIZE
 40
2.5
  9
$TRACEWID
 40
1.0
  9
$TEXTSTYLE
  7
Standard
  9
$CLAYER
  8
0
  9
$CELTYPE
  6
ByLayer
  9
$CECOLOR
 62
256
  9
$CELTSCALE
 40
1.0
  9
$DISPSILH
 70
0
  9
$DIMSCALE
 40
1.0
  9
$DIMASZ
 40
2.5
  9
$DIMEXO
 40
0.625
  9
$DIMDLI
 40
3.75
  9
$DIMRND
 40
0.0
  9
$DIMDLE
 40
0.0
  9
$DIMEXE
 40
1.25
  9
$DIMTP
 40
0.0
  9
$DIMTM
 40
0.0
  9
$DIMTXT
 40
2.5
  9
$DIMCEN
 40
2.5
  9
$DIMTSZ
 40
0.0
  9
$DIMTOL
 70
0
  9
$DIMLIM
 70
0
  9
$DIMTIH
 70
0
  9
$DIMTOH
 70
0
  9
$DIMSE1
 70
0
  9
$DIMSE2
 70
0
  9
$DIMTAD
 70
1
  9
$DIMZIN
 70
8
  9
$DIMBLK
  1

  9
$DIMASO
 70
1
  9
$DIMSHO
 70
1
  9
$DIMPOST
  1

  9
$DIMAPOST
  1

  9
$DIMALT
 70
0
  9
$DIMALTD
 70
3
  9
$DIMALTF
 40
0.03937007874
  9
$DIMLFAC
 40
1.0
  9
$DIMTOFL
 70
1
  9
$DIMTVP
 40
0.0
  9
$DIMTIX
 70
0
  9
$DIMSOXD
 70
0
  9
$DIMSAH
 70
0
  9
$DIMBLK1
  1

  9
$DIMBLK2
  1

  9
$DIMSTYLE
  2
ISO-25
  9
$DIMCLRD
 70
0
  9
$DIMCLRE
 70
0
  9
$DIMCLRT
 70
0
  9
$DIMTFAC
 40
1.0
  9
$DIMGAP
 40
0.625
  9
$DIMJUST
 70
0
  9
$DIMSD1
 70
0
  9
$DIMSD2
 70
0
  9
$DIMTOLJ
 70
0
  9
$DIMTZIN
 70
8
  9
$DIMALTZ
 70
0
  9
$DIMALTTZ
 70
0
  9
$DIMUPT
 70
0
  9
$DIMDEC
 70
2
  9
$DIMTDEC
 70
2
  9
$DIMALTU
 70
2
  9
$DIMALTTD
 70
3
  9
$DIMTXSTY
  7
Standard
  9
$DIMAUNIT
 70
0
  9
$DIMADEC
 70
0
  9
$DIMALTRND
 40
0.0
  9
$DIMAZIN
 70
0
  9
$DIMDSEP
 70
44
  9
$DIMATFIT
 70
3
  9
$DIMFRAC
 70
0
  9
$DIMLDRBLK
  1

  9
$DIMLUNIT
 70
2
  9
$DIMLWD
 70
-2
  9
$DIMLWE
 70
-2
  9
$DIMTMOVE
 70
0
  9
$DIMFXL
 40
1.0
  9
$DIMFXLON
 70
0
  9
$DIMJOGANG
 40
0.785398163397
  9
$DIMTFILL
 70
0
  9
$DIMTFILLCLR
 70
0
  9
$DIMARCSYM
 70
0
  9
$DIMLTYPE
  6

  9
$DIMLTEX1
  6

  9
$DIMLTEX2
  6

  9
$DIMTXTDIRECTION
 70
0
  9
$LUNITS
 70
2
  9
$LUPREC
 70
4
  9
$SKETCHINC
 40
1.0
  9
$FILLETRAD
 40
10.0
  9
$AUNITS
 70
0
  9
$AUPREC
 70
2
  9
$MENU
  1
.
  9
$ELEVATION
 40
0.0
  9
$PELEVATION
 40
0.0
  9
$THICKNESS
 40
0.0
  9
$LIMCHECK
 70
0
  9
$CHAMFERA
 40
0.0
  9
$CHAMFERB
 40
0.0
  9
$CHAMFERC
 40
0.0
  9
$CHAMFERD
 40
0.0
  9
$SKPOLY
 70
0
  9
$TDCREATE
 40
2461196.8099189815
  9
$TDUCREATE
 40
2458532.153996898
  9
$TDUPDATE
 40
2461196.8099189815
  9
$TDUUPDATE
 40
2458532.1544311
  9
$TDINDWG
 40
0.0
  9
$TDUSRTIMER
 40
0.0
  9
$USRTIMER
 70
1
  9
$ANGBASE
 50
0.0
  9
$ANGDIR
 70
0
  9
$PDMODE
 70
0
  9
$PDSIZE
 40
0.0
  9
$PLINEWID
 40
0.0
  9
$SPLFRAME
 70
0
  9
$SPLINETYPE
 70
6
  9
$SPLINESEGS
 70
8
  9
$HANDSEED
  5
36
  9
$SURFTAB1
 70
6
  9
$SURFTAB2
 70
6
  9
$SURFTYPE
 70
6
  9
$SURFU
 70
6
  9
$SURFV
 70
6
  9
$UCSBASE
  2

  9
$UCSNAME
  2

  9
$UCSORG
 10
0.0
 20
0.0
 30
0.0
  9
$UCSXDIR
 10
1.0
 20
0.0
 30
0.0
  9
$UCSYDIR
 10
0.0
 20
1.0
 30
0.0
  9
$UCSORTHOREF
  2

  9
$UCSORTHOVIEW
 70
0
  9
$UCSORGTOP
 10
0.0
 20
0.0
 30
0.0
  9
$UCSORGBOTTOM
 10
0.0
 20
0.0
 30
0.0
  9
$UCSORGLEFT
 10
0.0
 20
0.0
 30
0.0
  9
$UCSORGRIGHT
 10
0.0
 20
0.0
 30
0.0
  9
$UCSORGFRONT
 10
0.0
 20
0.0
 30
0.0
  9
$UCSORGBACK
 10
0.0
 20
0.0
 30
0.0
  9
$PUCSBASE
  2

  9
$PUCSNAME
  2

  9
$PUCSORG
 10
0.0
 20
0.0
 30
0.0
  9
$PUCSXDIR
 10
1.0
 20
0.0
 30
0.0
  9
$PUCSYDIR
 10
0.0
 20
1.0
 30
0.0
  9
$PUCSORTHOREF
  2

  9
$PUCSORTHOVIEW
 70
0
  9
$PUCSORGTOP
 10
0.0
 20
0.0
 30
0.0
  9
$PUCSORGBOTTOM
 10
0.0
 20
0.0
 30
0.0
  9
$PUCSORGLEFT
 10
0.0
 20
0.0
 30
0.0
  9
$PUCSORGRIGHT
 10
0.0
 20
0.0
 30
0.0
  9
$PUCSORGFRONT
 10
0.0
 20
0.0
 30
0.0
  9
$PUCSORGBACK
 10
0.0
 20
0.0
 30
0.0
  9
$USERI1
 70
0
  9
$USERI2
 70
0
  9
$USERI3
 70
0
  9
$USERI4
 70
0
  9
$USERI5
 70
0
  9
$USERR1
 40
0.0
  9
$USERR2
 40
0.0
  9
$USERR3
 40
0.0
  9
$USERR4
 40
0.0
  9
$USERR5
 40
0.0
  9
$WORLDVIEW
 70
1
  9
$SHADEDGE
 70
3
  9
$SHADEDIF
 70
70
  9
$TILEMODE
 70
1
  9
$MAXACTVP
 70
64
  9
$PINSBASE
 10
0.0
 20
0.0
 30
0.0
  9
$PLIMCHECK
 70
0
  9
$PEXTMIN
 10
1e+20
 20
1e+20
 30
1e+20
  9
$PEXTMAX
 10
-1e+20
 20
-1e+20
 30
-1e+20
  9
$PLIMMIN
 10
0.0
 20
0.0
  9
$PLIMMAX
 10
420.0
 20
297.0
  9
$UNITMODE
 70
0
  9
$VISRETAIN
 70
1
  9
$PLINEGEN
 70
0
  9
$PSLTSCALE
 70
1
  9
$TREEDEPTH
 70
3020
  9
$CMLSTYLE
  2
Standard
  9
$CMLJUST
 70
0
  9
$CMLSCALE
 40
20.0
  9
$PROXYGRAPHICS
 70
1
  9
$MEASUREMENT
 70
1
  9
$CELWEIGHT
370
-1
  9
$ENDCAPS
280
0
  9
$JOINSTYLE
280
0
  9
$LWDISPLAY
290
0
  9
$INSUNITS
 70
6
  9
$HYPERLINKBASE
  1

  9
$STYLESHEET
  1

  9
$XEDIT
290
1
  9
$CEPSNTYPE
380
0
  9
$PSTYLEMODE
290
1
  9
$FINGERPRINTGUID
  2
{F423C2D0-6AD0-47DB-8742-7E758C9E5545}
  9
$VERSIONGUID
  2
{9381A068-9643-4428-B589-66AFF7BEFE21}
  9
$EXTNAMES
290
1
  9
$PSVPSCALE
 40
0.0
  9
$OLESTARTUP
290
0
  9
$SORTENTS
280
127
  9
$INDEXCTL
280
0
  9
$HIDETEXT
280
1
  9
$XCLIPFRAME
280
1
  9
$HALOGAP
280
0
  9
$OBSCOLOR
 70
257
  9
$OBSLTYPE
280
0
  9
$INTERSECTIONDISPLAY
280
0
  9
$INTERSECTIONCOLOR
 70
257
  9
$DIMASSOC
280
2
  9
$PROJECTNAME
  1

  9
$CAMERADISPLAY
290
0
  9
$LENSLENGTH
 40
50.0
  9
$CAMERAHEIGHT
 40
0.0
  9
$STEPSPERSEC
 40
24.0
  9
$STEPSIZE
 40
100.0
  9
$3DDWFPREC
 40
2.0
  9
$PSOLWIDTH
 40
0.005
  9
$PSOLHEIGHT
 40
0.08
  9
$LOFTANG1
 40
1.570796326795
  9
$LOFTANG2
 40
1.570796326795
  9
$LOFTMAG1
 40
0.0
  9
$LOFTMAG2
 40
0.0
  9
$LOFTPARAM
 70
7
  9
$LOFTNORMALS
280
1
  9
$LATITUDE
 40
37.795
  9
$LONGITUDE
 40
-122.394
  9
$NORTHDIRECTION
 40
0.0
  9
$TIMEZONE
 70
-8000
  9
$LIGHTGLYPHDISPLAY
280
1
  9
$TILEMODELIGHTSYNCH
280
1
  9
$CMATERIAL
347
20
  9
$SOLIDHIST
280
0
  9
$SHOWHIST
280
1
  9
$DWFFRAME
280
2
  9
$DGNFRAME
280
2
  9
$REALWORLDSCALE
290
1
  9
$INTERFERECOLOR
 62
256
  9
$CSHADOW
280
0
  9
$SHADOWPLANELOCATION
 40
0.0
  0
ENDSEC
  0
SECTION
  2
CLASSES
  0
CLASS
  1
ACDBDICTIONARYWDFLT
  2
AcDbDictionaryWithDefault
  3
ObjectDBX Classes
 90
0
 91
0
280
0
281
0
  0
CLASS
  1
SUN
  2
AcDbSun
  3
SCENEOE
 90
1153
 91
0
280
0
281
0
  0
CLASS
  1
VISUALSTYLE
  2
AcDbVisualStyle
  3
ObjectDBX Classes
 90
4095
 91
0
280
0
281
0
  0
CLASS
  1
MATERIAL
  2
AcDbMaterial
  3
ObjectDBX Classes
 90
1153
 91
0
280
0
281
0
  0
CLASS
  1
SCALE
  2
AcDbScale
  3
ObjectDBX Classes
 90
1153
 91
0
280
0
281
0
  0
CLASS
  1
TABLESTYLE
  2
AcDbTableStyle
  3
ObjectDBX Classes
 90
4095
 91
0
280
0
281
0
  0
CLASS
  1
MLEADERSTYLE
  2
AcDbMLeaderStyle
  3
ACDB_MLEADERSTYLE_CLASS
 90
4095
 91
0
280
0
281
0
  0
CLASS
  1
DICTIONARYVAR
  2
AcDbDictionaryVar
  3
ObjectDBX Classes
 90
0
 91
0
280
0
281
0
  0
CLASS
  1
CELLSTYLEMAP
  2
AcDbCellStyleMap
  3
ObjectDBX Classes
 90
1152
 91
0
280
0
281
0
  0
CLASS
  1
MENTALRAYRENDERSETTINGS
  2
AcDbMentalRayRenderSettings
  3
SCENEOE
 90
1024
 91
0
280
0
281
0
  0
CLASS
  1
ACDBDETAILVIEWSTYLE
  2
AcDbDetailViewStyle
  3
ObjectDBX Classes
 90
1025
 91
0
280
0
281
0
  0
CLASS
  1
ACDBSECTIONVIEWSTYLE
  2
AcDbSectionViewStyle
  3
ObjectDBX Classes
 90
1025
 91
0
280
0
281
0
  0
CLASS
  1
RASTERVARIABLES
  2
AcDbRasterVariables
  3
ISM
 90
0
 91
0
280
0
281
0
  0
CLASS
  1
ACDBPLACEHOLDER
  2
AcDbPlaceHolder
  3
ObjectDBX Classes
 90
0
 91
0
280
0
281
0
  0
CLASS
  1
LAYOUT
  2
AcDbLayout
  3
ObjectDBX Classes
 90
0
 91
0
280
0
281
0
  0
ENDSEC
  0
SECTION
  2
TABLES
  0
TABLE
  2
VPORT
  5
8
330
0
100
AcDbSymbolTable
 70
1
  0
VPORT
  5
23
330
8
100
AcDbSymbolTableRecord
100
AcDbViewportTableRecord
  2
*Active
 70
0
 10
0.0
 20
0.0
 11
1.0
 21
1.0
 12
0.0
 22
0.0
 13
0.0
 23
0.0
 14
0.5
 24
0.5
 15
0.5
 25
0.5
 16
0.0
 26
0.0
 36
1.0
 17
0.0
 27
0.0
 37
0.0
 40
1000.0
 41
1.34
 42
50.0
 43
0.0
 44
0.0
 50
0.0
 51
0.0
 71
0
 72
1000
 73
1
 74
3
 75
0
 76
0
 77
0
 78
0
281
0
 65
0
146
0.0
  0
ENDTAB
  0
TABLE
  2
LTYPE
  5
2
330
0
100
AcDbSymbolTable
 70
3
  0
LTYPE
  5
24
330
2
100
AcDbSymbolTableRecord
100
AcDbLinetypeTableRecord
  2
ByBlock
 70
0
  3

 72
65
 73
0
 40
0.0
  0
LTYPE
  5
25
330
2
100
AcDbSymbolTableRecord
100
AcDbLinetypeTableRecord
  2
ByLayer
 70
0
  3

 72
65
 73
0
 40
0.0
  0
LTYPE
  5
26
330
2
100
AcDbSymbolTableRecord
100
AcDbLinetypeTableRecord
  2
Continuous
 70
0
  3

 72
65
 73
0
 40
0.0
  0
ENDTAB
  0
TABLE
  2
LAYER
  5
1
330
0
100
AcDbSymbolTable
 70
4
  0
LAYER
  5
27
330
1
100
AcDbSymbolTableRecord
100
AcDbLayerTableRecord
  2
0
 70
0
 62
7
  6
Continuous
370
-3
390
13
347
21
  0
LAYER
  5
28
330
1
100
AcDbSymbolTableRecord
100
AcDbLayerTableRecord
  2
Defpoints
 70
0
 62
7
  6
Continuous
290
0
370
-3
390
13
347
21
  0
LAYER
  5
2F
330
1
100
AcDbSymbolTableRecord
100
AcDbLayerTableRecord
  2
PROFILE_OUTER
 70
0
 62
7
  6
Continuous
370
-3
390
13
347
21
  0
LAYER
  5
30
330
1
100
AcDbSymbolTableRecord
100
AcDbLayerTableRecord
  2
PROFILE_WINDOW
 70
0
 62
7
  6
Continuous
370
-3
390
13
347
21
  0
ENDTAB
  0
TABLE
  2
STYLE
  5
5
330
0
100
AcDbSymbolTable
 70
1
  0
STYLE
  5
29
330
5
100
AcDbSymbolTableRecord
100
AcDbTextStyleTableRecord
  2
Standard
 70
0
 40
0.0
 41
1.0
 50
0.0
 71
0
 42
2.5
  3
txt
  4

  0
ENDTAB
  0
TABLE
  2
VIEW
  5
7
330
0
100
AcDbSymbolTable
 70
0
  0
ENDTAB
  0
TABLE
  2
UCS
  5
6
330
0
100
AcDbSymbolTable
 70
0
  0
ENDTAB
  0
TABLE
  2
APPID
  5
3
330
0
100
AcDbSymbolTable
 70
3
  0
APPID
  5
2A
330
3
100
AcDbSymbolTableRecord
100
AcDbRegAppTableRecord
  2
ACAD
 70
0
  0
APPID
  5
33
330
3
100
AcDbSymbolTableRecord
100
AcDbRegAppTableRecord
  2
HATCHBACKGROUNDCOLOR
 70
0
  0
APPID
  5
34
330
3
100
AcDbSymbolTableRecord
100
AcDbRegAppTableRecord
  2
EZDXF
 70
0
  0
ENDTAB
  0
TABLE
  2
DIMSTYLE
  5
4
330
0
100
AcDbSymbolTable
 70
1
100
AcDbDimStyleTable
  0
DIMSTYLE
105
2B
330
4
100
AcDbSymbolTableRecord
100
AcDbDimStyleTableRecord
  2
Standard
 70
0
 40
1.0
 41
2.5
 42
0.625
 43
3.75
 44
1.25
 45
0.0
 46
0.0
 47
0.0
 48
0.0
 49
2.5
140
2.5
141
2.5
142
0.0
143
0.03937007874
144
1.0
145
0.0
146
1.0
147
0.625
148
0.0
 69
0
 70
0
 71
0
 72
0
 73
0
 74
0
 75
0
 76
0
 77
1
 78
8
 79
3
170
0
171
3
172
1
173
0
174
0
175
0
176
0
177
0
178
0
179
2
271
2
272
2
273
2
274
3
275
0
276
0
277
2
278
44
279
0
280
0
281
0
282
0
283
0
284
8
285
0
286
0
288
0
289
3
290
0
371
-2
372
-2
  0
ENDTAB
  0
TABLE
  2
BLOCK_RECORD
  5
9
330
0
100
AcDbSymbolTable
 70
2
  0
BLOCK_RECORD
  5
17
330
9
100
AcDbSymbolTableRecord
100
AcDbBlockTableRecord
  2
*Model_Space
340
1A
 70
0
280
1
281
0
  0
BLOCK_RECORD
  5
1B
330
9
100
AcDbSymbolTableRecord
100
AcDbBlockTableRecord
  2
*Paper_Space
340
1E
 70
0
280
1
281
0
  0
ENDTAB
  0
ENDSEC
  0
SECTION
  2
BLOCKS
  0
BLOCK
  5
18
330
17
100
AcDbEntity
  8
0
100
AcDbBlockBegin
  2
*Model_Space
 70
0
 10
0.0
 20
0.0
 30
0.0
  3
*Model_Space
  1

  0
ENDBLK
  5
19
330
17
100
AcDbEntity
  8
0
100
AcDbBlockEnd
  0
BLOCK
  5
1C
330
1B
100
AcDbEntity
  8
0
100
AcDbBlockBegin
  2
*Paper_Space
 70
0
 10
0.0
 20
0.0
 30
0.0
  3
*Paper_Space
  1

  0
ENDBLK
  5
1D
330
1B
100
AcDbEntity
  8
0
100
AcDbBlockEnd
  0
ENDSEC
  0
SECTION
  2
ENTITIES
  0
LWPOLYLINE
  5
31
330
17
100
AcDbEntity
  8
PROFILE_OUTER
100
AcDbPolyline
 90
1676
 70
1
 10
803.9376538146022
 20
1974.8056821227553
 10
760.9844134536505
 20
1980.8809077101762
 10
717.2272354388842
 20
1986.241400875547
 10
673.5849056603773
 20
1981.9530063432503
 10
673.6997538966366
 20
1977.3072455999286
 10
673.929450369155
 20
1973.9122665951934
 10
674.2739950779327
 20
1966.9436254802108
 10
674.5036915504512
 20
1961.4044492093271
 10
674.6185397867104
 20
1948.5392656124363
 10
674.8482362592289
 20
1936.2101313320825
 10
674.963084495488
 20
1923.7023139462165
 10
675.1927809680066
 20
1911.551862771375
 10
675.422477440525
 20
1899.4014115965335
 10
675.6521739130435
 20
1888.5017421602788
 10
675.8818703855619
 20
1877.6020727240239
 10
676.1115668580804
 20
1873.6710444027517
 10
676.1115668580804
 20
1869.7400160814796
 10
675.9967186218213
 20
1866.1663539712322
 10
675.7670221493028
 20
1861.6992763334226
 10
675.3076292042657
 20
1857.2321986956133
 10
674.6185397867104
 20
1855.2666845349772
 10
674.0442986054143
 20
1852.9438041633164
 10
673.3552091878589
 20
1850.9782900026803
 10
672.6661197703035
 20
1849.1914589475564
 10
671.9770303527482
 20
1847.2259447869203
 10
671.2879409351929
 20
1845.4391137317966
 10
670.5988515176374
 20
1843.6522826766727
 10
670.0246103363412
 20
1841.865451621549
 10
669.450369155045
 20
1840.0786205664256
 10
668.8761279737489
 20
1838.2917895113019
 10
668.3018867924528
 20
1836.504958456178
 10
667.7276456111566
 20
1834.7181274010543
 10
667.1534044298605
 20
1832.9312963459306
 10
666.5791632485644
 20
1831.144465290807
 10
666.0049220672684
 20
1829.357634235683
 10
665.4306808859722
 20
1827.7494862860717
 10
664.856439704676
 20
1826.1413383364602
 10
664.2821985233799
 20
1824.533190386849
 10
663.8228055783428
 20
1822.9250424372376
 10
663.2485643970467
 20
1821.8529438041633
 10
662.7891714520099
 20
1820.244795854552
 10
662.329778506973
 20
1818.4579647994283
 10
661.6406890894176
 20
1817.0284999553292
 10
661.0664479081215
 20
1815.5990351112303
 10
660.4922067268253
 20
1813.9908871616187
 10
659.9179655455292
 20
1812.0253730009827
 10
659.3437243642329
 20
1810.0598588403468
 10
658.6546349466776
 20
1808.80907710176
 10
658.0803937653815
 20
1807.2009291521488
 10
657.6210008203445
 20
1805.414098097025
 10
656.9319114027892
 20
1803.8059501474136
 10
656.3576702214931
 20
1801.4830697757527
 10
655.6685808039376
 20
1799.5175556151166
 10
654.7497949138639
 20
1797.730724559993
 10
653.9458572600491
 20
1795.7652103993566
 10
653.0270713699754
 20
1794.1570624497454
 10
652.2231337161608
 20
1792.3702313946217
 10
651.5340442986054
 20
1790.4047172339854
 10
650.7301066447908
 20
1789.3326186009112
 10
650.0410172272354
 20
1787.7244706513
 10
649.5816242821986
 20
1785.937639596176
 10
648.8925348646432
 20
1784.3294916465647
 10
648.318293683347
 20
1782.1852943804165
 10
647.6292042657916
 20
1780.2197802197802
 10
646.825266611977
 20
1778.4329491646565
 10
646.1361771944216
 20
1776.288751898508
 10
645.332239540607
 20
1774.6806039488968
 10
644.5283018867924
 20
1773.2511391047976
 10
643.9540607054963
 20
1771.6429911551863
 10
643.2649712879409
 20
1770.570892522112
 10
642.6907301066448
 20
1768.9627445725007
 10
642.2313371616078
 20
1767.175913517377
 10
641.5422477440525
 20
1765.7464486732779
 10
640.8531583264971
 20
1764.316983829179
 10
640.278917145201
 20
1762.351469668543
 10
639.5898277276457
 20
1760.3859555079066
 10
638.7858900738311
 20
1758.599124452783
 10
637.9819524200163
 20
1756.8122933976592
 10
637.1780147662017
 20
1755.0254623425353
 10
636.3740771123872
 20
1753.2386312874119
 10
635.6849876948318
 20
1750.915750915751
 10
634.8810500410171
 20
1748.950236755115
 10
633.9622641509434
 20
1747.163405699991
 10
633.273174733388
 20
1745.0192084338426
 10
632.4692370795733
 20
1743.4110604842313
 10
631.7801476620181
 20
1741.80291253462
 10
631.2059064807219
 20
1740.016081479496
 10
630.5168170631665
 20
1738.943982846422
 10
629.9425758818704
 20
1737.3358348968104
 10
629.4831829368335
 20
1735.5490038416867
 10
628.7940935192781
 20
1734.1195389975876
 10
628.219852337982
 20
1732.1540248369515
 10
627.5307629204265
 20
1730.1885106763154
 10
626.726825266612
 20
1728.4016796211918
 10
626.0377358490565
 20
1726.078799249531
 10
625.233798195242
 20
1724.2919681944072
 10
624.4298605414274
 20
1722.683820244796
 10
623.740771123872
 20
1720.8969891896722
 10
623.0516817063167
 20
1719.1101581345483
 10
622.3625922887612
 20
1717.3233270794246
 10
621.5586546349466
 20
1715.536496024301
 10
620.754716981132
 20
1713.5709818636649
 10
619.9507793273175
 20
1711.6054677030288
 10
619.0319934372436
 20
1709.6399535423925
 10
618.2280557834291
 20
1707.3170731707316
 10
617.3092698933552
 20
1705.530242115608
 10
616.2756357670221
 20
1703.9220941659967
 10
615.5865463494667
 20
1701.4205306888232
 10
614.7826086956521
 20
1699.4550165281871
 10
613.7489745693191
 20
1697.6681854730634
 10
612.9450369155046
 20
1695.7026713124274
 10
612.0262510254307
 20
1694.094523362816
 10
611.2223133716161
 20
1692.3076923076924
 10
610.5332239540606
 20
1690.3421781470563
 10
609.7292863002461
 20
1689.270079513982
 10
609.0401968826907
 20
1687.6619315643707
 10
608.5808039376539
 20
1685.875100509247
 10
607.8917145200984
 20
1684.2669525596355
 10
607.3174733388023
 20
1681.9440721879746
 10
606.628383921247
 20
1679.7998749218261
 10
605.8244462674322
 20
1677.83436076119
 10
605.0205086136177
 20
1675.6901634950416
 10
604.1017227235438
 20
1674.2606986509425
 10
603.2977850697293
 20
1672.4738675958188
 10
602.6086956521739
 20
1670.5083534351827
 10
601.8047579983594
 20
1669.4362548021084
 10
601.1156685808039
 20
1667.828106852497
 10
600.5414273995077
 20
1666.0412757973734
 10
599.8523379819524
 20
1664.433127847762
 10
599.2780968006563
 20
1662.1102474761012
 10
598.5890073831009
 20
1660.1447333154651
 10
597.7850697292863
 20
1658.3579022603412
 10
597.095980311731
 20
1656.213704994193
 10
596.2920426579163
 20
1654.6055570445815
 10
595.4881050041016
 20
1653.1760922004826
 10
594.9138638228055
 20
1651.567944250871
 10
594.2247744052502
 20
1650.495845617797
 10
593.6505332239541
 20
1648.8876976681854
 10
593.1911402789171
 20
1647.1008666130617
 10
592.5020508613618
 20
1645.6714017689626
 10
591.8129614438064
 20
1644.2419369248637
 10
591.2387202625104
 20
1642.2764227642276
 10
590.5496308449549
 20
1640.3109086035915
 10
589.8605414273994
 20
1638.5240775484676
 10
589.1714520098442
 20
1636.9159295988566
 10
588.4823625922887
 20
1635.307781649245
 10
587.7932731747334
 20
1633.6996336996338
 10
587.2190319934373
 20
1631.376753327973
 10
586.5299425758819
 20
1629.4112391673368
 10
585.7260049220673
 20
1627.624408112213
 10
585.0369155045119
 20
1625.6588939515768
 10
584.2329778506972
 20
1624.0507460019655
 10
583.4290401968826
 20
1622.6212811578664
 10
582.8547990155865
 20
1620.8344501027427
 10
582.1657095980312
 20
1619.7623514696686
 10
581.4766201804758
 20
1618.8689359421066
 10
581.0172272354389
 20
1617.2607879924951
 10
580.4429860541428
 20
1615.6526400428838
 10
579.7538966365873
 20
1614.223175198785
 10
579.1796554552913
 20
1612.0789779326365
 10
578.4905660377358
 20
1610.1134637720002
 10
577.6866283839212
 20
1608.3266327168767
 10
576.9975389663658
 20
1606.1824354507282
 10
576.1936013125512
 20
1604.5742875011167
 10
575.3896636587367
 20
1603.1448226570178
 10
574.8154224774405
 20
1601.5366747074065
 10
574.126333059885
 20
1600.4645760743322
 10
573.552091878589
 20
1598.8564281247209
 10
573.0926989335521
 20
1597.0695970695972
 10
572.2887612797375
 20
1595.640132225498
 10
571.5996718621822
 20
1593.674618064862
 10
570.9105824446267
 20
1591.5304207987135
 10
569.9917965545529
 20
1589.5649066380772
 10
569.1878589007382
 20
1587.2420262664164
 10
568.2690730106644
 20
1585.4551952112927
 10
567.3502871205906
 20
1583.8470472616814
 10
566.6611977030353
 20
1582.0602162065575
 10
565.97210828548
 20
1580.2733851514338
 10
565.2830188679245
 20
1578.4865540963103
 10
564.5939294503693
 20
1576.6997230411866
 10
563.9048400328137
 20
1575.2702581970875
 10
563.2157506152583
 20
1573.8407933529886
 10
562.6415094339623
 20
1572.0539622978647
 10
562.067268252666
 20
1570.267131242741
 10
561.2633305988514
 20
1569.1950326096667
 10
560.5742411812962
 20
1567.7655677655678
 10
560.0
 20
1566.1574198159565
 10
559.3109105824446
 20
1564.7279549718573
 10
558.7366694011484
 20
1563.2984901277584
 10
558.0475799835931
 20
1562.0477083891717
 10
557.473338802297
 20
1560.260877334048
 10
557.0139458572601
 20
1558.295363173412
 10
556.3248564397047
 20
1556.8658983293128
 10
555.6357670221493
 20
1555.436433485214
 10
555.0615258408532
 20
1553.4709193245778
 10
554.3724364232978
 20
1551.5054051639415
 10
553.5684987694832
 20
1549.718574108818
 10
552.7645611156685
 20
1548.1104261592068
 10
551.960623461854
 20
1546.5022782095953
 10
551.2715340442985
 20
1544.894130259984
 10
550.5824446267433
 20
1543.2859823103727
 10
549.8933552091879
 20
1541.4991512552488
 10
549.2042657916325
 20
1539.712320200125
 10
548.5151763740772
 20
1537.9254891450014
 10
547.8260869565217
 20
1536.4960243009023
 10
547.1369975389663
 20
1535.0665594568034
 10
546.5627563576702
 20
1533.2797284016797
 10
545.988515176374
 20
1531.4928973465558
 10
545.2994257588188
 20
1530.4207987134816
 10
544.7251845775226
 20
1528.9913338693827
 10
544.2657916324857
 20
1527.3831859197712
 10
543.5767022149303
 20
1525.9537210756723
 10
542.8876127973749
 20
1524.5242562315732
 10
542.1985233798194
 20
1522.7374251764495
 10
541.5094339622641
 20
1520.950594121326
 10
540.7054963084495
 20
1519.1637630662021
 10
539.901558654635
 20
1517.7342982221032
 10
539.0976210008204
 20
1516.304833378004
 10
538.5233798195243
 20
1514.5180023228804
 10
537.9491386382281
 20
1512.7311712677567
 10
537.2600492206727
 20
1511.6590726346824
 10
536.6858080393765
 20
1510.050924685071
 10
536.2264150943396
 20
1508.2640936299472
 10
535.422477440525
 20
1506.655945680336
 10
534.7333880229696
 20
1504.5117484141874
 10
533.929450369155
 20
1502.5462342535513
 10
533.0106644790812
 20
1500.7594031984274
 10
532.2067268252665
 20
1498.6152059322792
 10
531.2879409351928
 20
1497.0070579826677
 10
530.3691550451189
 20
1495.5775931385688
 10
529.7949138638228
 20
1493.9694451889573
 10
529.1058244462674
 20
1492.8973465558831
 10
528.5315832649713
 20
1491.2891986062718
 10
528.0721903199344
 20
1489.5023675511482
 10
527.383100902379
 20
1488.072902707049
 10
526.6940114848236
 20
1486.6434378629501
 10
526.1197703035275
 20
1484.677923702314
 10
525.430680885972
 20
1482.7124095416777
 10
524.7415914684167
 20
1480.9255784865543
 10
524.0525020508614
 20
1479.3174305369428
 10
523.363412633306
 20
1477.7092825873312
 10
522.6743232157506
 20
1476.10113463772
 10
521.9852337981953
 20
1474.4929866881087
 10
521.2961443806398
 20
1472.7061556329847
 10
520.6070549630845
 20
1470.919324577861
 10
519.8031173092699
 20
1469.1324935227374
 10
518.8843314191961
 20
1467.7030286786382
 10
518.0803937653815
 20
1465.9161976235146
 10
517.3913043478261
 20
1463.9506834628785
 10
516.7022149302708
 20
1462.163852407755
 10
516.0131255127153
 20
1460.5557044581437
 10
515.32403609516
 20
1458.9475565085322
 10
514.6349466776046
 20
1457.3394085589207
 10
513.9458572600493
 20
1455.7312606093094
 10
513.2567678424939
 20
1453.9444295541857
 10
512.5676784249384
 20
1452.157598499062
 10
511.7637407711239
 20
1450.3707674439381
 10
510.8449548810501
 20
1448.9413025998392
 10
510.0410172272355
 20
1446.975788439203
 10
509.35192780968
 20
1444.8315911730547
 10
508.5479901558655
 20
1442.8660770124184
 10
507.74405250205086
 20
1441.257929062807
 10
506.9401148482362
 20
1439.6497811131956
 10
506.25102543068084
 20
1438.0416331635843
 10
505.67678424938475
 20
1436.433485213973
 10
504.9876948318294
 20
1435.3613865808986
 10
504.41345365053326
 20
1433.7532386312876
 10
503.9540607054963
 20
1431.9664075761636
 10
503.1501230516817
 20
1430.5369427320647
 10
502.46103363412635
 20
1428.5714285714287
 10
501.77194421657094
 20
1426.4272313052802
 10
500.8531583264972
 20
1424.4617171446441
 10
500.04922067268257
 20
1422.4962029840078
 10
499.13043478260875
 20
1421.066738139909
 10
498.21164889253487
 20
1419.8159564013224
 10
497.6374077112388
 20
1418.207808451711
 10
496.9483182936833
 20
1417.1357098186368
 10
496.259228876128
 20
1416.2422942910746
 10
495.79983593109097
 20
1414.812829446976
 10
495.2255947497949
 20
1413.3833646028768
 10
494.5365053322395
 20
1412.1325828642903
 10
493.9622641509434
 20
1409.9883855981416
 10
493.27317473338803
 20
1408.0228714375055
 10
492.35438884331427
 20
1406.2360403823818
 10
491.4356029532404
 20
1404.2705262217457
 10
490.51681706316646
 20
1402.3050120611097
 10
489.5980311730927
 20
1400.3394979004736
 10
488.79409351927814
 20
1398.3739837398375
 10
487.99015586546346
 20
1396.7658357902262
 10
487.1862182116489
 20
1395.1576878406147
 10
486.4971287940935
 20
1393.5495398910034
 10
485.80803937653815
 20
1391.9413919413919
 10
485.1189499589828
 20
1390.1545608862682
 10
484.4298605414274
 20
1388.3677298311445
 10
483.5110746513536
 20
1386.5808987760206
 10
482.59228876127975
 20
1384.6153846153845
 10
481.67350287120587
 20
1382.6498704547485
 10
480.7547169811321
 20
1380.6843562941124
 10
479.95077932731743
 20
1378.5401590279637
 10
479.03199343724367
 20
1376.9320110783524
 10
478.1132075471698
 20
1375.5025462342537
 10
477.53896636587365
 20
1373.8943982846422
 10
476.84987694831824
 20
1372.8222996515678
 10
476.160787530763
 20
1371.9288841240061
 10
475.701394585726
 20
1370.3207361743948
 10
475.12715340442986
 20
1368.8912713302957
 10
474.43806398687445
 20
1367.6404895917092
 10
473.86382280557837
 20
1365.674975431073
 10
473.17473338802296
 20
1363.709461270437
 10
472.25594749794914
 20
1361.9226302153131
 10
471.4520098441345
 20
1359.957116054677
 10
470.53322395406076
 20
1358.527651210578
 10
469.72928630024614
 20
1356.9195032609666
 10
469.04019688269074
 20
1355.132672205843
 10
468.121410992617
 20
1354.0605735727686
 10
467.3174733388023
 20
1352.6311087286697
 10
466.7432321575061
 20
1351.0229607790582
 10
466.05414273995075
 20
1349.5934959349593
 10
465.36505332239545
 20
1348.1640310908601
 10
464.67596390484
 20
1346.377200035737
 10
463.98687448728464
 20
1344.590368980613
 10
463.18293683347
 20
1342.803537925489
 10
462.37899917965547
 20
1340.838023764853
 10
461.5750615258408
 20
1338.872509604217
 10
460.65627563576703
 20
1336.9069954435809
 10
459.8523379819524
 20
1334.7627981774322
 10
458.9335520918786
 20
1333.1546502278209
 10
458.0147662018047
 20
1331.7251853837217
 10
457.44052502050863
 20
1330.1170374341104
 10
456.75143560295317
 20
1329.0449388010363
 10
456.06234618539787
 20
1328.1515232734744
 10
455.60295324036093
 20
1326.543375323863
 10
455.02871205906484
 20
1325.113910479764
 10
454.2247744052502
 20
1323.8631287411774
 10
453.53568498769476
 20
1321.7189314750287
 10
452.7317473338802
 20
1319.5747342088805
 10
451.81296144380644
 20
1317.6092200482447
 10
450.89417555373257
 20
1315.465022782096
 10
449.8605414273995
 20
1314.035557937997
 10
448.94175553732566
 20
1312.2487268828734
 10
448.25266611977025
 20
1310.2832127222373
 10
447.4487284659557
 20
1309.211114089163
 10
446.7596390484003
 20
1307.9603323505762
 10
446.18539786710414
 20
1306.5308675064773
 10
445.4963084495488
 20
1305.2800857678908
 10
444.9220672682527
 20
1303.8506209237917
 10
444.2329778506973
 20
1302.7785222907173
 10
443.65873666940115
 20
1301.170374341106
 10
443.08449548810495
 20
1299.3835432859823
 10
442.1657095980312
 20
1297.9540784418832
 10
441.36177194421657
 20
1295.9885642812471
 10
440.67268252666116
 20
1293.8443670150987
 10
439.75389663658734
 20
1291.8788528544626
 10
438.9499589827728
 20
1289.9133386938265
 10
438.03117309269896
 20
1288.4838738497276
 10
437.1123872026251
 20
1287.233092111141
 10
436.53814602132894
 20
1285.6249441615298
 10
435.8490566037736
 20
1284.5528455284555
 10
435.27481542247745
 20
1282.944697578844
 10
434.81542247744056
 20
1281.1578665237203
 10
434.01148482362595
 20
1279.549718574109
 10
433.3223954060706
 20
1277.4055213079603
 10
432.63330598851513
 20
1275.0826409362994
 10
431.59967186218216
 20
1273.1171267756633
 10
430.6808859721083
 20
1271.1516126150273
 10
429.6472518457752
 20
1269.7221477709281
 10
428.72846595570144
 20
1268.1139998213168
 10
428.03937653814603
 20
1266.3271687661932
 10
427.2354388843314
 20
1265.2550701331188
 10
426.546349466776
 20
1264.004288394532
 10
426.0869565217391
 20
1262.5748235504334
 10
425.3978671041838
 20
1261.3240418118467
 10
424.82362592288763
 20
1260.0732600732601
 10
424.1345365053322
 20
1259.0011614401858
 10
423.56029532403613
 20
1257.3930134905745
 10
422.98605414273993
 20
1255.6061824354508
 10
422.0672682526661
 20
1254.1767175913517
 10
421.2633305988515
 20
1252.2112034307156
 10
420.57424118129614
 20
1250.0670061645671
 10
419.65545529122227
 20
1248.101492003931
 10
418.8515176374077
 20
1246.135977843295
 10
417.93273174733395
 20
1244.7065129991959
 10
417.01394585725996
 20
1243.4557312606094
 10
416.43970467596387
 20
1241.847583310998
 10
415.7506152584085
 20
1240.7754846779237
 10
415.0615258408532
 20
1239.882069150362
 10
414.6021328958162
 20
1238.4526043062629
 10
414.0278917145201
 20
1237.0231394621637
 10
413.3388022969647
 20
1235.7723577235772
 10
412.6497128794094
 20
1234.342892879478
 10
411.960623461854
 20
1232.5560618243544
 10
411.27153404429856
 20
1230.769230769231
 10
410.467596390484
 20
1228.982399714107
 10
409.5488105004102
 20
1227.5529348700081
 10
408.74487284659557
 20
1225.7661038148844
 10
408.05578342904016
 20
1223.8005896542484
 10
407.2518457752256
 20
1222.0137585991245
 10
406.44790812141093
 20
1220.5842937550256
 10
405.6439704675964
 20
1219.1548289109264
 10
404.954881050041
 20
1217.7253640668275
 10
404.3806398687449
 20
1216.2958992227284
 10
403.69155045118947
 20
1215.223800589654
 10
403.0024610336341
 20
1214.3303850620923
 10
402.54306808859724
 20
1212.722237112481
 10
401.9688269073011
 20
1211.292772268382
 10
401.1648892534864
 20
1210.0419905297954
 10
400.4757998359311
 20
1208.0764763691593
 10
399.6718621821165
 20
1206.1109622085232
 10
398.7530762920427
 20
1204.3241311533993
 10
397.949138638228
 20
1202.3586169927635
 10
397.0303527481542
 20
1200.9291521486643
 10
396.22641509433964
 20
1199.1423210935407
 10
395.6521739130435
 20
1197.1768069329044
 10
394.8482362592289
 20
1195.9260251943178
 10
394.15914684167353
 20
1194.6752434557313
 10
393.5849056603774
 20
1193.2457786116322
 10
392.895816242822
 20
1191.9949968730457
 10
392.32157506152583
 20
1190.5655320289466
 10
391.6324856439705
 20
1189.4934333958724
 10
390.94339622641513
 20
1188.6000178683105
 10
390.48400328137814
 20
1187.1705530242114
 10
389.90976210008205
 20
1185.7410881801127
 10
389.2206726825267
 20
1184.490306441526
 10
388.5315832649713
 20
1183.060841597427
 10
387.8424938474159
 20
1181.2740105423031
 10
387.15340442986053
 20
1179.4871794871794
 10
386.3494667760459
 20
1177.7003484320558
 10
385.43068088597215
 20
1176.2708835879566
 10
384.6267432321575
 20
1174.484052532833
 10
383.93765381460213
 20
1172.5185383721969
 10
383.1337161607875
 20
1170.7317073170734
 10
382.3297785069729
 20
1169.3022424729743
 10
381.5258408531583
 20
1167.8727776288752
 10
380.836751435603
 20
1166.4433127847763
 10
380.26251025430685
 20
1165.0138479406774
 10
379.57342083675144
 20
1163.941749307603
 10
378.88433141919603
 20
1163.0483337800413
 10
378.42493847415915
 20
1161.4401858304298
 10
377.850697292863
 20
1160.0107209863309
 10
377.16160787530765
 20
1158.7599392477441
 10
376.5873666940115
 20
1156.794425087108
 10
375.8982772764561
 20
1154.828910926472
 10
374.97949138638234
 20
1153.0420798713483
 10
374.17555373256766
 20
1151.0765657107122
 10
373.25676784249384
 20
1149.647100866613
 10
372.3379819524201
 20
1148.3963191280263
 10
371.6488925348646
 20
1146.788171178415
 10
370.84495488105006
 20
1145.7160725453407
 10
370.1558654634947
 20
1144.286607701242
 10
369.69647251845777
 20
1142.6784597516307
 10
368.8925348646431
 20
1141.2489949075316
 10
368.2034454470878
 20
1139.104797641383
 10
367.51435602953245
 20
1136.7819172697223
 10
366.4807219031993
 20
1134.816403109086
 10
365.4470877768663
 20
1132.85088894845
 10
364.41345365053326
 20
1130.8853747878138
 10
363.3798195242002
 20
1128.9198606271777
 10
362.57588187038556
 20
1126.9543464665417
 10
361.771944216571
 20
1125.5248816224425
 10
360.96800656275633
 20
1124.0954167783434
 10
360.278917145201
 20
1122.6659519342445
 10
359.7046759639049
 20
1121.2364870901456
 10
359.0155865463495
 20
1120.1643884570713
 10
358.4413453650533
 20
1118.55624050746
 10
357.8671041837572
 20
1116.769409452336
 10
357.06316652994263
 20
1115.3399446082374
 10
356.25922887612796
 20
1113.9104797641385
 10
355.6849876948318
 20
1111.9449656035024
 10
354.99589827727647
 20
1109.9794514428663
 10
354.19196062346185
 20
1108.1926203877424
 10
353.38802296964724
 20
1106.7631555436433
 10
352.5840853158326
 20
1105.3336906995444
 10
351.8949958982773
 20
1103.9042258554455
 10
351.3207547169811
 20
1102.4747610113463
 10
350.6316652994258
 20
1101.402662378272
 10
350.05742411812963
 20
1099.7945144286607
 10
349.5980311730927
 20
1098.007683373537
 10
348.7940935192781
 20
1096.578218529438
 10
348.1050041017227
 20
1094.6127043688018
 10
347.4159146841674
 20
1092.4685071026533
 10
346.3822805578343
 20
1090.5029929420173
 10
345.4634946677604
 20
1088.5374787813812
 10
344.4298605414274
 20
1087.108013937282
 10
343.51107465135357
 20
1085.499865987671
 10
342.82198523379816
 20
1083.713034932547
 10
342.0180475799836
 20
1082.640936299473
 10
341.3289581624282
 20
1081.211471455374
 10
340.8695652173913
 20
1079.6033235057625
 10
340.1804757998359
 20
1078.1738586616636
 10
339.49138638228055
 20
1076.7443938175645
 10
338.8022969647252
 20
1074.7788796569284
 10
338.1132075471698
 20
1072.8133654962924
 10
337.3092698933552
 20
1070.8478513356563
 10
336.3904840032814
 20
1069.239703386045
 10
335.5865463494668
 20
1067.274189225409
 10
334.89745693191134
 20
1065.1299919592602
 10
334.0935192780968
 20
1063.1644777986241
 10
333.2895816242822
 20
1061.735012954525
 10
332.4856439704676
 20
1060.305548110426
 10
331.7965545529122
 20
1058.876083266327
 10
331.22231337161605
 20
1057.4466184222283
 10
330.53322395406076
 20
1056.374519789154
 10
329.9589827727646
 20
1054.7663718395427
 10
329.4995898277276
 20
1052.979540784419
 10
328.695652173913
 20
1051.5500759403199
 10
328.00656275635765
 20
1049.5845617796838
 10
327.31747333880236
 20
1047.4403645135353
 10
326.3986874487285
 20
1045.4748503528992
 10
325.59474979491387
 20
1043.5093361922632
 10
324.67596390484005
 20
1042.079871348164
 10
323.75717801476617
 20
1040.8290896095775
 10
323.1829368334701
 20
1039.220941659966
 10
322.49384741591473
 20
1038.1488430268919
 10
321.8047579983593
 20
1037.25542749933
 10
321.3453650533224
 20
1035.6472795497184
 10
320.77112387202624
 20
1034.039131600107
 10
320.0820344544709
 20
1032.609666756008
 10
319.50779327317474
 20
1030.4654694898597
 10
318.81870385561933
 20
1028.4999553292237
 10
318.0147662018047
 20
1026.7131242741
 10
317.3256767842494
 20
1024.5689270079513
 10
316.5217391304348
 20
1022.9607790583399
 10
315.7178014766202
 20
1021.5313142142411
 10
315.14356029532405
 20
1019.9231662646298
 10
314.4544708777687
 20
1018.8510676315555
 10
313.76538146021323
 20
1017.9576521039935
 10
313.30598851517635
 20
1016.3495041543822
 10
312.7317473338802
 20
1014.9200393102831
 10
312.0426579163249
 20
1013.6692575716966
 10
311.46841673502877
 20
1011.7037434110605
 10
310.7793273174733
 20
1009.7382292504244
 10
309.86054142739954
 20
1007.9513981953005
 10
309.0566037735849
 20
1005.9858840346645
 10
308.13781788351105
 20
1004.5564191905654
 10
307.3338802296965
 20
1002.9482712409541
 10
306.64479081214114
 20
1001.1614401858304
 10
305.84085315832647
 20
1000.0893415527563
 10
305.1517637407711
 20
998.6598767086572
 10
304.69237079573423
 20
997.0517287590457
 10
304.0032813781789
 20
995.6222639149468
 10
303.3141919606235
 20
994.1927990708479
 10
302.62510254306807
 20
992.4059680157243
 10
301.9360131255127
 20
990.6191369606004
 10
301.1320754716981
 20
988.8323059054767
 10
300.3281378178835
 20
987.4028410613778
 10
299.5242001640689
 20
985.9733762172787
 10
298.9499589827727
 20
984.186545162155
 10
298.37571780147664
 20
982.3997141070313
 10
297.571780147662
 20
981.3276154739569
 10
296.8826907301066
 20
979.898150629858
 10
296.3084495488105
 20
978.2900026802465
 10
295.6193601312552
 20
976.8605378361477
 10
294.9302707136997
 20
975.4310729920486
 10
294.24118129614436
 20
973.6442419369249
 10
293.552091878589
 20
971.8574108818012
 10
292.74815422477445
 20
970.0705798266773
 10
291.8293683347006
 20
968.6411149825784
 10
291.02543068088596
 20
966.8542839274547
 10
290.2214930270714
 20
964.8887697668184
 10
289.41755537325673
 20
963.1019387116949
 10
288.6136177194422
 20
961.4937907620833
 10
287.80968006562756
 20
959.885642812472
 10
287.1205906480722
 20
958.2774948628607
 10
286.4315012305168
 20
956.6693469132495
 10
285.74241181296145
 20
954.7038327526134
 10
285.0533223954061
 20
952.7383185919771
 10
284.1345365053322
 20
950.772804431341
 10
283.2157506152584
 20
948.6286071651926
 10
282.29696472518464
 20
946.484409899044
 10
281.37817883511076
 20
944.3402126328955
 10
280.57424118129614
 20
942.1960153667472
 10
279.6554552912223
 20
940.7665505226481
 10
278.7366694011485
 20
939.5157687840614
 10
278.16242821985236
 20
937.9076208344501
 10
277.473338802297
 20
936.8355222013757
 10
276.89909762100086
 20
935.4060573572768
 10
276.43970467596387
 20
933.7979094076654
 10
275.63576702214925
 20
932.3684445635665
 10
274.94667760459396
 20
930.2242472974181
 10
274.2575881870386
 20
927.9013669257572
 10
273.33880229696473
 20
925.9358527651211
 10
272.5348646431501
 20
923.9703386044848
 10
271.6160787530763
 20
922.3621906548735
 10
270.6972928630025
 20
920.9327258107746
 10
270.12305168170633
 20
919.1458947556508
 10
269.433962264151
 20
918.0737961225767
 10
268.7448728465955
 20
917.1803805950148
 10
268.28547990155863
 20
915.7509157509156
 10
267.7112387202625
 20
914.3214509068167
 10
267.0221493027072
 20
913.0706691682302
 10
266.44790812141105
 20
910.9264719020817
 10
265.7588187038556
 20
908.9609577414454
 10
264.8400328137818
 20
907.1741266863218
 10
264.0360951599672
 20
905.2086125256858
 10
263.1173092698933
 20
903.6004645760745
 10
262.31337161607877
 20
901.8136335209506
 10
261.6242821985234
 20
899.8481193603145
 10
260.82034454470875
 20
898.7760207272402
 10
260.1312551271534
 20
897.3465558831413
 10
259.6718621821165
 20
895.7384079335297
 10
258.98277276456116
 20
894.3089430894308
 10
258.29368334700575
 20
892.8794782453319
 10
257.60459392945035
 20
891.0926471902081
 10
256.915504511895
 20
889.3058161350845
 10
256.1115668580804
 20
887.5189850799608
 10
255.1927809680066
 20
886.0895202358616
 10
254.38884331419194
 20
884.302689180738
 10
253.6997538966366
 20
882.3371750201019
 10
252.89581624282195
 20
880.5503439649782
 10
252.09187858900737
 20
879.1208791208791
 10
251.28794093519275
 20
877.6914142767799
 10
250.59885151763743
 20
876.2619494326811
 10
250.02461033634128
 20
874.8324845885822
 10
249.3355209187859
 20
873.7603859555079
 10
248.76127973748976
 20
872.1522380058966
 10
248.30188679245282
 20
870.3654069507729
 10
247.49794913863823
 20
868.9359421066738
 10
246.80885972108285
 20
866.9704279460377
 10
246.1197703035275
 20
864.8262306798892
 10
245.20098441345365
 20
862.8607165192532
 10
244.39704675963907
 20
860.7165192531046
 10
243.4782608695652
 20
859.1083713034933
 10
242.5594749794914
 20
857.6789064593942
 10
241.98523379819525
 20
856.0707585097829
 10
241.29614438063987
 20
854.9986598767085
 10
240.6070549630845
 20
854.1052443491468
 10
240.14766201804758
 20
852.4970963995353
 10
239.57342083675144
 20
851.0676315554364
 10
238.88433141919606
 20
849.8168498168499
 10
238.31009023789994
 20
847.8513356562138
 10
237.6210008203445
 20
845.8858214955776
 10
236.81706316652995
 20
844.0989904404539
 10
236.12797374897457
 20
841.9547931743055
 10
235.32403609515998
 20
840.3466452246942
 10
234.52009844134537
 20
838.917180380595
 10
233.94585726004922
 20
837.3090324309837
 10
233.25676784249387
 20
836.2369337979094
 10
232.5676784249385
 20
835.3435182703474
 10
232.10828547990155
 20
833.7353703207361
 10
231.5340442986054
 20
832.3059054766373
 10
230.84495488105006
 20
831.0551237380506
 10
230.2707136997539
 20
828.9109264719021
 10
229.5816242821985
 20
826.7667292057537
 10
228.6628383921247
 20
824.8012150451176
 10
227.8589007383101
 20
822.6570177789689
 10
226.94011484823625
 20
821.0488698293576
 10
226.13617719442166
 20
819.2620387742339
 10
225.44708777686628
 20
817.2965246135977
 10
224.6431501230517
 20
816.2244259805236
 10
223.9540607054963
 20
814.7949611364245
 10
223.4946677604594
 20
813.1868131868132
 10
222.80557834290403
 20
811.7573483427143
 10
222.11648892534865
 20
810.3278834986152
 10
221.42739950779327
 20
808.5410524434915
 10
220.7383100902379
 20
806.7542213883678
 10
219.93437243642327
 20
804.9673903332439
 10
219.1304347826087
 20
803.5379254891451
 10
218.32649712879407
 20
802.1084606450462
 10
217.75225594749793
 20
800.3216295899223
 10
217.1780147662018
 20
798.5347985347986
 10
216.4889253486464
 20
797.4626999017242
 10
215.91468416735026
 20
796.0332350576253
 10
215.45529122231338
 20
794.4250871080138
 10
214.76620180475803
 20
792.9956222639149
 10
214.07711238720262
 20
791.566157419816
 10
213.38802296964727
 20
789.7793263646922
 10
212.6989335520919
 20
787.9924953095685
 10
211.89499589827727
 20
786.2056642544449
 10
210.97621000820345
 20
784.7761994103457
 10
210.05742411812963
 20
783.5254176717592
 10
209.36833470057425
 20
781.7385866166353
 10
208.67924528301887
 20
779.9517555615116
 10
207.87530762920426
 20
778.8796569284373
 10
207.18621821164888
 20
777.4501920843384
 10
206.61197703035276
 20
775.8420441347271
 10
205.92288761279738
 20
774.4125792906281
 10
205.3486464315012
 20
772.0896989189672
 10
204.65955701394589
 20
770.1241847583311
 10
203.740771123872
 20
768.3373537032074
 10
202.8219852337982
 20
766.3718395425711
 10
201.90319934372434
 20
764.4063253819351
 10
200.98441345365055
 20
762.440811221299
 10
200.0656275635767
 20
760.475297060663
 10
199.14684167350288
 20
759.0458322165639
 10
198.22805578342906
 20
757.616367372465
 10
197.53896636587368
 20
756.1869025283659
 10
196.96472518457753
 20
754.757437684267
 10
196.27563576702215
 20
753.6853390511926
 10
195.701394585726
 20
752.0771911015813
 10
195.24200164068907
 20
750.2903600464576
 10
194.43806398687448
 20
748.8608952023585
 10
193.7489745693191
 20
746.8953810417224
 10
193.05988515176375
 20
744.7511837755741
 10
192.1410992616899
 20
742.785669614938
 10
191.3371616078753
 20
740.8201554543019
 10
190.4183757178015
 20
739.3906906102028
 10
189.49958982772765
 20
738.1399088716161
 10
188.9253486464315
 20
736.5317609220048
 10
188.23625922887612
 20
735.4596622889306
 10
187.54716981132077
 20
734.5662467613687
 10
187.08777686628383
 20
733.1367819172696
 10
186.5135356849877
 20
731.7073170731708
 10
185.8244462674323
 20
730.4565353345843
 10
185.13535684987696
 20
729.0270704904851
 10
184.44626743232155
 20
727.2402394353614
 10
183.75717801476623
 20
725.4534083802378
 10
182.83839212469235
 20
723.6665773251138
 10
181.91960623461853
 20
721.7010631644778
 10
181.0008203445447
 20
719.7355490038417
 10
180.0820344544709
 20
717.7700348432056
 10
179.27809680065627
 20
715.625837577057
 10
178.35931091058245
 20
714.0176896274457
 10
177.44052502050863
 20
712.5882247833468
 10
176.86628383921249
 20
710.9800768337353
 10
176.1771944216571
 20
709.9079782006612
 10
175.48810500410173
 20
709.0145626730992
 10
175.02871205906482
 20
707.5850978290003
 10
174.45447087776867
 20
706.3343160904136
 10
173.7653814602133
 20
705.2622174573395
 10
173.19114027891715
 20
704.0114357187528
 10
172.50205086136177
 20
702.7606539801662
 10
171.92780968006565
 20
700.9738229250424
 10
171.35356849876948
 20
699.0083087644064
 10
170.43478260869566
 20
697.5788439203075
 10
169.63084495488104
 20
695.6133297596712
 10
168.9417555373257
 20
693.4691324935227
 10
167.90812141099263
 20
691.5036183328866
 10
166.87448728465958
 20
689.5381041722503
 10
165.8408531583265
 20
687.751273117127
 10
164.8072190319934
 20
685.9644420620031
 10
163.88843314191962
 20
684.1776110068794
 10
162.96964725184577
 20
682.7481461627805
 10
162.05086136177195
 20
681.3186813186813
 10
161.36177194421657
 20
679.8892164745824
 10
160.78753076292043
 20
678.4597516304831
 10
160.09844134536505
 20
677.3876529974092
 10
159.40935192780967
 20
676.4942374698472
 10
158.94995898277278
 20
675.0647726257483
 10
158.37571780147664
 20
673.8139908871617
 10
157.68662838392123
 20
672.7418922540874
 10
156.99753896636588
 20
671.4911105155008
 10
156.3084495488105
 20
669.7042794603769
 10
155.61936013125512
 20
667.9174484052533
 10
154.7005742411813
 20
666.1306173501296
 10
153.78178835110745
 20
664.1651031894935
 10
152.86300246103363
 20
662.1995890288572
 10
151.71452009844137
 20
660.2340748682211
 10
150.68088597210829
 20
657.732511391048
 10
149.532403609516
 20
655.7669972304119
 10
148.15422477440524
 20
653.9801661752882
 10
147.12059064807218
 20
652.0146520146519
 10
145.97210828547992
 20
650.585187170553
 10
144.93847415914684
 20
648.9770392209417
 10
144.24938474159146
 20
647.1902081658178
 10
143.44544708777684
 20
646.1181095327437
 10
142.75635767022152
 20
644.6886446886447
 10
142.29696472518455
 20
643.0804967390334
 10
141.6078753076292
 20
641.6510318949345
 10
140.91878589007382
 20
640.2215670508353
 10
140.22969647251844
 20
638.4347359957114
 10
139.5406070549631
 20
636.6479049405878
 10
138.50697292863003
 20
634.8610738854643
 10
137.47333880229698
 20
632.895559724828
 10
136.43970467596392
 20
630.9300455641917
 10
135.40607054963084
 20
628.964531403556
 10
134.48728465955702
 20
626.9990172429196
 10
133.45365053322396
 20
625.5695523988207
 10
132.53486464315012
 20
623.9614044492095
 10
131.960623461854
 20
622.1745733940855
 10
131.15668580803938
 20
621.1024747610114
 10
130.467596390484
 20
619.8516930224249
 10
129.89335520918786
 20
618.4222281783256
 10
129.08941755537325
 20
617.171446439739
 10
128.4003281378179
 20
615.9206647011524
 10
127.5963904840033
 20
614.8485660680785
 10
126.90730106644793
 20
613.2404181184668
 10
126.33305988515177
 20
611.4535870633433
 10
125.41427399507792
 20
610.0241222192442
 10
124.61033634126332
 20
608.0586080586081
 10
123.92124692370795
 20
605.9144107924594
 10
122.88761279737491
 20
603.9488966318236
 10
121.85397867104184
 20
601.9833824711873
 10
120.82034454470876
 20
600.1965514160637
 10
119.78671041837572
 20
598.4097203609398
 10
118.8679245283019
 20
596.6228893058161
 10
117.94913863822806
 20
595.1934244617172
 10
117.03035274815424
 20
593.7639596176183
 10
116.34126333059886
 20
592.3344947735192
 10
115.7670221493027
 20
590.90502992942
 10
115.07793273174734
 20
589.8329312963459
 10
114.50369155045118
 20
588.2247833467344
 10
114.04429860541427
 20
586.4379522916108
 10
113.24036095159967
 20
585.0084874475119
 10
112.5512715340443
 20
582.8642901813635
 10
111.86218211648892
 20
580.5414098097024
 10
110.82854799015587
 20
578.3972125435539
 10
109.79491386382281
 20
576.2530152774057
 10
108.76127973748973
 20
574.2875011167694
 10
107.72764561115669
 20
572.3219869561333
 10
106.80885972108285
 20
570.3564727954973
 10
105.89007383100903
 20
569.1056910569106
 10
104.9712879409352
 20
567.8549093183241
 10
104.28219852337982
 20
566.6041275797373
 10
103.70795734208367
 20
565.1746627356384
 10
103.01886792452831
 20
564.1025641025641
 10
102.32977850697294
 20
563.2091485750021
 10
101.870385561936
 20
561.9583668364156
 10
101.29614438063987
 20
560.7075850978289
 10
100.6070549630845
 20
559.6354864647545
 10
100.03281378178835
 20
558.384704726168
 10
99.34372436423297
 20
557.312606093094
 10
98.76948318293684
 20
555.8831412489949
 10
98.19524200164068
 20
554.2749932993836
 10
97.27645611156686
 20
553.0242115607969
 10
96.35767022149304
 20
551.7734298222103
 10
95.66858080393764
 20
549.9865987670867
 10
94.86464315012304
 20
548.1997677119627
 10
93.83100902378999
 20
546.5916197623515
 10
92.68252666119771
 20
545.3408380237647
 10
91.64889253486464
 20
543.9113731796658
 10
90.84495488105004
 20
542.3032252300546
 10
89.81132075471699
 20
540.8737603859555
 10
88.77768662838392
 20
539.8016617528814
 10
87.74405250205086
 20
538.729563119807
 10
86.82526661197703
 20
537.6574644867329
 10
85.90648072190321
 20
536.5853658536586
 10
84.87284659557014
 20
535.870633431609
 10
83.95406070549632
 20
534.9772179040473
 10
83.26497128794094
 20
533.9051192709729
 10
82.11648892534865
 20
533.011703743411
 10
80.96800656275634
 20
532.118288215849
 10
79.9343724364233
 20
531.2248726882873
 10
79.01558654634947
 20
530.3314571607253
 10
78.09680065627563
 20
529.2593585276512
 10
76.94831829368334
 20
528.5446261056019
 10
75.91468416735029
 20
527.8298936835522
 10
75.22559474979492
 20
526.9364781559902
 10
74.19196062346185
 20
526.2217457339409
 10
73.15832649712878
 20
525.328330206379
 10
71.89499589827729
 20
524.6135977843294
 10
70.63166529942576
 20
523.89886536228
 10
69.48318293683347
 20
523.1841329402305
 10
68.33470057424118
 20
522.4694005181811
 10
67.18621821164888
 20
521.7546680961316
 10
66.0377358490566
 20
521.0399356740822
 10
65.00410172272355
 20
520.3252032520325
 10
64.08531583264971
 20
519.4317877244705
 10
62.93683347005742
 20
518.7170553024212
 10
61.78835110746514
 20
517.8236397748592
 10
60.63986874487285
 20
516.9302242472972
 10
59.49138638228056
 20
516.0368087197355
 10
58.34290401968826
 20
515.1433931921736
 10
57.19442165709598
 20
514.2499776646117
 10
56.04593929450368
 20
513.3565621370498
 10
54.667760459392944
 20
512.4631466094883
 10
53.40442986054143
 20
511.39104797641386
 10
52.026251025430675
 20
510.31894934333957
 10
50.30352748154225
 20
509.4255338157776
 10
49.04019688269073
 20
508.35343518270327
 10
47.662018047579984
 20
507.2813365496294
 10
45.939294503691556
 20
506.3879210220674
 10
44.79081214109926
 20
505.1371392834807
 10
43.52748154224774
 20
504.06504065040656
 10
41.91960623461855
 20
503.17162512284466
 10
40.77112387202625
 20
502.0995264897703
 10
39.507793273174734
 20
501.0274278566962
 10
37.89991796554553
 20
500.13401232913424
 10
36.751435602953244
 20
498.8832305905477
 10
35.488105004101726
 20
497.8111319574734
 10
33.88022969647252
 20
496.9177164299114
 10
32.73174733388023
 20
495.84561779683713
 10
31.46841673502871
 20
494.77351916376324
 10
30.20508613617719
 20
493.8801036362013
 10
29.401148482362593
 20
492.80800500312694
 10
28.482362592288762
 20
491.914589475565
 10
27.448728465955703
 20
491.19985705351564
 10
26.87448728465956
 20
490.1277584204413
 10
26.185397867104182
 20
489.0556597873672
 10
25.266611977030355
 20
488.1622442598053
 10
24.34782608695652
 20
487.09014562673093
 10
23.429040196882692
 20
485.660680782632
 10
22.51025430680886
 20
484.2312159385329
 10
21.476620180475802
 20
482.801751094434
 10
20.328137817883512
 20
481.55096935584754
 10
19.294503691550453
 20
479.94282140623625
 10
18.49056603773585
 20
478.1559903511121
 10
17.456931911402787
 20
476.5478424015008
 10
16.3084495488105
 20
475.2970606629143
 10
15.274815422477442
 20
473.68891271330307
 10
14.470877768662838
 20
471.90208165817916
 10
13.552091878589009
 20
470.29393370856786
 10
12.633305988515177
 20
468.68578575895657
 10
11.714520098441346
 20
467.0776378093451
 10
11.025430680885972
 20
465.4694898597338
 10
10.336341263330599
 20
463.8613419101225
 10
9.647251845775227
 20
461.8958277494862
 10
8.958162428219852
 20
459.9303135888502
 10
7.465135356849877
 20
457.9647994282141
 10
5.9721082854799015
 20
442.41936924863757
 10
5.627563576702215
 20
427.0526221745732
 10
5.512715340442986
 20
411.50719199499684
 10
5.512715340442986
 20
395.4257124988831
 10
5.627563576702215
 20
380.05896542481923
 10
6.316652994257589
 20
364.87090145626746
 10
8.15422477440525
 20
349.50415438220307
 10
9.991796554552913
 20
347.538640221567
 10
11.25512715340443
 20
345.5731260609309
 10
12.518457752255946
 20
343.6076119002949
 10
13.781788351107465
 20
341.9994639506834
 10
15.159967186218212
 20
340.5699991065845
 10
16.193601312551273
 20
338.9618511569732
 10
17.22723543888433
 20
337.53238631287405
 10
18.375717801476622
 20
336.63897078531215
 10
19.52420016406891
 20
335.7455552577502
 10
20.672682526661198
 20
334.8521397301887
 10
21.821164889253488
 20
333.95872420262674
 10
23.199343724364233
 20
333.0653086750648
 10
24.69237079573421
 20
331.99321004199044
 10
26.41509433962264
 20
330.9211114089163
 10
28.137817883511076
 20
329.8490127758422
 10
29.860541427399507
 20
328.7769141427679
 10
31.583264971287942
 20
327.70481550969356
 10
33.76538146021329
 20
326.990083087644
 10
35.602953240360954
 20
326.09666756008227
 10
37.210828547990154
 20
325.3819351380327
 10
38.933552091878596
 20
324.66720271598336
 10
40.656275635767024
 20
323.9524702939338
 10
42.49384741591468
 20
323.237737871884
 10
44.33141919606235
 20
322.5230054498347
 10
46.74323215750616
 20
321.80827302778516
 10
49.15504511894996
 20
321.0935406057358
 10
52.026251025430675
 20
320.5574912891984
 10
54.552912223133724
 20
319.8427588671493
 10
57.99835931091058
 20
319.3067095506119
 10
60.98441345365053
 20
318.5919771285626
 10
68.33470057424118
 20
318.0559278120252
 10
74.766201804758
 20
317.6985616010006
 10
82.11648892534865
 20
317.51987849548823
 10
89.12223133716162
 20
317.51987849548823
 10
96.47251845775226
 20
317.6985616010006
 10
102.90401968826907
 20
318.0559278120252
 10
109.68006562756356
 20
318.5919771285626
 10
112.09187858900737
 20
319.3067095506119
 10
115.19278096800656
 20
319.8427588671493
 10
117.3748974569319
 20
320.5574912891984
 10
119.55701394585728
 20
321.0935406057358
 10
121.39458572600492
 20
321.80827302778516
 10
123.57670221493028
 20
322.3443223443225
 10
125.29942575881871
 20
323.05905476637184
 10
127.02214930270713
 20
323.7737871884214
 10
128.51517637407713
 20
324.48851961047075
 10
130.0082034454471
 20
325.2032520325203
 10
131.960623461854
 20
325.9179844545699
 10
133.79819524200164
 20
326.6327168766192
 10
135.2912223133716
 20
327.52613240418117
 10
137.1287940935193
 20
328.2408648262305
 10
138.96636587366694
 20
328.9555972482803
 10
140.68908941755538
 20
329.6703296703298
 10
142.29696472518455
 20
330.38506209237914
 10
143.44544708777684
 20
331.2784776199411
 10
145.05332239540607
 20
331.99321004199044
 10
146.7760459392945
 20
332.8866255695524
 10
148.49876948318294
 20
333.78004109711435
 10
150.10664479081214
 20
334.6734566246763
 10
151.36997538966364
 20
335.7455552577502
 10
153.0926989335521
 20
336.63897078531215
 10
154.7005742411813
 20
337.53238631287405
 10
155.96390484003282
 20
338.6044849459484
 10
157.11238720262511
 20
339.31921736799774
 10
158.03117309269894
 20
340.2126328955597
 10
159.17965545529123
 20
340.92736531760926
 10
160.21328958162428
 20
341.6420977396586
 10
160.90237899917966
 20
342.53551326722055
 10
162.05086136177195
 20
343.2502456892699
 10
163.084495488105
 20
343.9649781113196
 10
164.11812961443806
 20
344.8583936388816
 10
165.26661197703038
 20
345.5731260609309
 10
166.30024610336343
 20
346.4665415884929
 10
167.44872846595567
 20
347.18127401054244
 10
168.48236259228875
 20
347.8960064325918
 10
169.17145200984413
 20
348.78942196015373
 10
170.31993437243645
 20
349.50415438220307
 10
171.35356849876948
 20
350.21888680425263
 10
172.2723543888433
 20
351.1123023318146
 10
173.30598851517638
 20
351.8270347538639
 10
174.33962264150944
 20
352.7204502814258
 10
175.48810500410173
 20
353.4351827034754
 10
176.52173913043478
 20
354.3285982310371
 10
177.21082854799016
 20
355.40069686411147
 10
178.35931091058245
 20
356.2941123916734
 10
179.50779327317474
 20
357.1875279192354
 10
180.5414273995078
 20
358.0809434467971
 10
181.46021328958162
 20
358.974358974359
 10
182.37899917965547
 20
360.04645760743335
 10
183.52748154224776
 20
360.76119002948246
 10
184.5611156685808
 20
361.65460555704465
 10
185.25020508613616
 20
362.72670419011877
 10
186.39868744872848
 20
363.6201197176807
 10
187.43232157506154
 20
364.87090145626746
 10
188.58080393765383
 20
366.1216831948539
 10
189.95898277276453
 20
367.19378182792826
 10
191.10746513535685
 20
368.444563566515
 10
192.37079573420834
 20
369.5166621995889
 10
193.86382280557834
 20
370.41007772715085
 10
194.8974569319114
 20
371.4821763602252
 10
195.93109105824448
 20
372.55427499329954
 10
196.96472518457753
 20
373.6263736263736
 10
198.11320754716982
 20
374.69847225944795
 10
199.37653814602135
 20
375.7705708925221
 10
200.63986874487284
 20
376.66398642008403
 10
201.5586546349467
 20
377.73608505315815
 10
202.4774405250205
 20
378.8081836862325
 10
203.6259228876128
 20
379.52291610828183
 10
204.65955701394589
 20
380.4163316358438
 10
205.3486464315012
 20
381.4884302689181
 10
206.3822805578343
 20
382.38184579648004
 10
207.3010664479081
 20
383.81131064057894
 10
208.3347005742412
 20
385.24077548467784
 10
209.82772764561113
 20
386.4915572232646
 10
211.2059064807219
 20
387.9210220673634
 10
212.6989335520919
 20
388.99312070043777
 10
214.07711238720262
 20
390.0652193335121
 10
215.11074651353564
 20
391.31600107209863
 10
216.3740771123872
 20
392.03073349414797
 10
217.52255947497946
 20
392.9241490217099
 10
218.2116488925349
 20
393.99624765478427
 10
219.24528301886795
 20
394.88966318234617
 10
220.16406890894172
 20
396.1404449209327
 10
221.19770303527483
 20
397.3912266595194
 10
222.57588187038553
 20
398.46332529259377
 10
223.72436423297785
 20
399.7141070311803
 10
224.98769483182934
 20
400.7862056642544
 10
226.3658736669401
 20
401.67962119181635
 10
227.39950779327316
 20
402.75171982489064
 10
228.54799015586548
 20
403.4664522469402
 10
229.5816242821985
 20
404.5385508800141
 10
230.2707136997539
 20
405.78933261860084
 10
231.41919606234617
 20
406.8614312516752
 10
232.45283018867926
 20
408.1122129902617
 10
233.37161607875305
 20
409.5416778343606
 10
234.63494667760457
 20
410.7924595729473
 10
235.78342904019686
 20
412.2219244170464
 10
237.0467596390484
 20
413.29402305012053
 10
238.42493847415912
 20
414.1874385776825
 10
239.343724364233
 20
415.25953721075683
 10
240.37735849056605
 20
416.15295273831873
 10
241.41099261689908
 20
416.86768516036807
 10
241.98523379819525
 20
417.9397837934422
 10
242.67432321575058
 20
419.01188242651654
 10
243.7079573420837
 20
419.9052979540785
 10
244.5118949958983
 20
421.3347627981774
 10
245.43068088597207
 20
422.7642276422765
 10
246.6940114848236
 20
424.01500938086303
 10
247.95734208367517
 20
425.4444742249619
 10
249.3355209187859
 20
426.5165728580362
 10
250.59885151763743
 20
427.76735459662297
 10
251.51763740771122
 20
429.19681944072187
 10
252.66611977030354
 20
430.0902349682838
 10
253.6997538966366
 20
430.9836504958457
 10
254.38884331419194
 20
432.0557491289196
 10
255.3076292042658
 20
432.94916465648157
 10
256.22641509433964
 20
434.0212632895559
 10
257.1452009844134
 20
435.09336192263027
 10
258.0639868744873
 20
436.1654605557046
 10
259.2124692370796
 20
437.23755918877873
 10
260.47579983593107
 20
438.30965782185285
 10
261.7391304347826
 20
439.20307334941475
 10
262.65791632485644
 20
440.45385508800126
 10
263.57670221493026
 20
441.704636826588
 10
264.72518457752255
 20
442.59805235414996
 10
265.7588187038556
 20
443.4914678817119
 10
266.44790812141105
 20
444.56356651478603
 10
267.4815422477441
 20
445.45698204234793
 10
268.40032813781784
 20
446.88644688644683
 10
269.433962264151
 20
448.13722862503334
 10
270.8121410992617
 20
449.2093272581077
 10
271.96062346185397
 20
450.46010899669443
 10
273.22395406070547
 20
451.71089073528094
 10
274.4872846595571
 20
452.7829893683553
 10
275.29122231337163
 20
454.03377110694174
 10
276.2100082034454
 20
454.9271866345037
 10
277.2436423297785
 20
455.64191905655304
 10
277.8178835110746
 20
456.7140176896274
 10
278.50697292863003
 20
457.78611632270173
 10
279.5406070549631
 20
458.6795318502637
 10
280.4593929450369
 20
459.9303135888502
 10
281.49302707136997
 20
461.1810953274369
 10
282.8712059064807
 20
462.2531939605112
 10
284.019688269073
 20
463.50397569909774
 10
285.2830188679245
 20
464.57607433217186
 10
286.7760459392945
 20
465.4694898597338
 10
287.9245283018868
 20
466.54158849280793
 10
289.07301066447906
 20
467.4350040203699
 10
290.2214930270714
 20
468.32841954793156
 10
291.48482362592284
 20
469.2218350754935
 10
292.74815422477445
 20
470.1152506030555
 10
294.01148482362595
 20
471.0086661306174
 10
295.045118949959
 20
471.90208165817916
 10
296.07875307629206
 20
472.7954971857411
 10
297.3420836751435
 20
473.5102296077907
 10
298.49056603773585
 20
474.22496202984
 10
299.17965545529125
 20
475.1183775574019
 10
300.3281378178835
 20
475.83310997945125
 10
301.36177194421657
 20
476.5478424015008
 10
302.39540607054965
 20
477.4412579290628
 10
303.42904019688274
 20
478.1559903511121
 10
304.3478260869565
 20
479.04940587867407
 10
305.4963084495488
 20
479.76413830072386
 10
306.5299425758819
 20
480.4788707227732
 10
307.2190319934373
 20
481.37228625033515
 10
308.3675143560295
 20
482.0870186723845
 10
309.4011484823626
 20
482.801751094434
 10
310.4347826086957
 20
483.69516662199595
 10
311.8129614438064
 20
484.4098990440453
 10
312.9614438063987
 20
485.30331457160725
 10
314.22477440525023
 20
486.1967300991692
 10
315.8326497128794
 20
486.91146252121854
 10
316.9811320754717
 20
487.8048780487805
 10
318.2444626743232
 20
488.69829357634245
 10
319.8523379819524
 20
489.41302599839173
 10
321.1156685808039
 20
490.3064415259537
 10
322.49384741591473
 20
491.02117394800325
 10
323.8720262510254
 20
491.7359063700526
 10
325.0205086136177
 20
492.4506387921024
 10
326.16899097621
 20
493.1653712141517
 10
327.31747333880236
 20
493.8801036362013
 10
328.4659557013946
 20
494.5948360582506
 10
329.6144380639868
 20
495.3095684803002
 10
331.10746513535685
 20
496.02430090234975
 10
332.60049220672687
 20
496.7390333243991
 10
334.32321575061525
 20
497.4537657464488
 10
336.16078753076295
 20
498.16849816849816
 10
338.34290401968826
 20
498.70454748503533
 10
340.1804757998359
 20
499.4192799070847
 10
342.3625922887612
 20
499.9553292236221
 10
344.200164068909
 20
500.6700616456714
 10
347.5307629204266
 20
501.2061109622086
 10
350.5168170631665
 20
501.9208433842579
 10
355.1107465135357
 20
502.4568927007953
 10
359.36013125512716
 20
502.8142589118199
 10
364.52830188679246
 20
502.99294201733227
 10
369.35192780968003
 20
502.99294201733227
 10
374.52009844134534
 20
502.8142589118199
 10
378.19524200164074
 20
502.4568927007953
 10
382.2149302707137
 20
501.9208433842579
 10
384.6267432321575
 20
501.2061109622086
 10
387.38310090237894
 20
500.6700616456714
 10
389.2206726825267
 20
499.9553292236221
 10
391.402789171452
 20
499.4192799070847
 10
393.24036095159965
 20
498.70454748503533
 10
395.422477440525
 20
498.16849816849816
 10
397.2600492206727
 20
497.4537657464488
 10
398.9827727645611
 20
496.7390333243991
 10
400.5906480721903
 20
496.02430090234975
 10
402.31337161607877
 20
495.1308853747878
 10
404.0360951599672
 20
494.23746984722584
 10
405.75881870385564
 20
493.3440543196639
 10
407.02214930270713
 20
492.27195568659
 10
408.6300246103363
 20
491.37854015902803
 10
410.3527481542248
 20
490.4851246314661
 10
411.73092698933544
 20
489.41302599839173
 10
413.3388022969647
 20
488.69829357634245
 10
414.6021328958162
 20
487.8048780487805
 10
415.7506152584085
 20
486.73277941570615
 10
417.35849056603774
 20
485.8393638881442
 10
418.6218211648892
 20
484.7672652550703
 10
419.77030352748153
 20
483.69516662199595
 10
421.3781788351107
 20
482.801751094434
 10
422.64150943396226
 20
481.7296524613597
 10
423.78999179655455
 20
480.4788707227732
 10
425.1681706316653
 20
479.58545519521124
 10
426.20180475799833
 20
478.5133565621371
 10
427.1205906480722
 20
477.4412579290628
 10
428.15422477440524
 20
476.5478424015008
 10
428.84331419196064
 20
475.4757437684267
 10
429.41755537325673
 20
474.4036451353524
 10
430.4511894995899
 20
473.68891271330307
 10
431.36997538966364
 20
472.7954971857411
 10
432.17391304347825
 20
471.72339855266677
 10
433.43724364232975
 20
470.8299830251048
 10
434.70057424118124
 20
469.7578843920309
 10
435.8490566037736
 20
468.32841954793156
 10
437.1123872026251
 20
467.0776378093451
 10
438.03117309269896
 20
465.648172965246
 10
439.064807219032
 20
464.39739122665947
 10
440.2132895816243
 20
463.3252925935851
 10
440.90237899917963
 20
461.7171446439738
 10
441.7063166529943
 20
460.2876797998749
 10
442.62510254306807
 20
459.21558116680063
 10
443.5438884331419
 20
458.1434825337263
 10
444.46267432321577
 20
457.07138390065217
 10
445.15176374077106
 20
455.64191905655304
 10
445.9557013945857
 20
454.3911373179665
 10
446.8744872846596
 20
453.4977217904048
 10
447.5635767022149
 20
452.24694005181834
 10
448.25266611977025
 20
451.174841418744
 10
448.94175553732566
 20
449.92405968015726
 10
449.5159967186218
 20
448.67327794157075
 10
450.3199343724364
 20
447.7798624140088
 10
451.0090237899918
 20
446.70776378093444
 10
451.5832649712879
 20
445.45698204234793
 10
452.38720262510253
 20
444.56356651478603
 10
453.1911402789171
 20
443.4914678817119
 10
453.8802296964725
 20
442.41936924863757
 10
454.6841673502871
 20
441.5259537210756
 10
455.3732567678425
 20
440.45385508800126
 10
455.9474979491386
 20
439.20307334941475
 10
456.75143560295317
 20
438.30965782185285
 10
457.44052502050863
 20
437.23755918877873
 10
458.0147662018047
 20
436.1654605557046
 10
458.7038556193601
 20
435.27204502814266
 10
459.3929450369155
 20
434.1999463950683
 10
459.9671862182116
 20
432.94916465648157
 10
460.77112387202624
 20
432.0557491289196
 10
461.4602132895816
 20
430.9836504958457
 10
462.0344544708777
 20
429.73286875725904
 10
462.72354388843314
 20
428.48208701867253
 10
463.29778506972934
 20
427.0526221745732
 10
464.1017227235439
 20
425.80184043598666
 10
465.0205086136178
 20
424.72974180291254
 10
465.70959803117313
 20
422.9429107477887
 10
466.62838392124695
 20
421.3347627981774
 10
467.66201804758
 20
419.9052979540785
 10
468.58080393765385
 20
417.9397837934422
 10
469.6144380639868
 20
415.9742696328064
 10
470.53322395406076
 20
414.0087554721701
 10
471.4520098441345
 20
412.0432413115338
 10
472.37079573420834
 20
410.25641025641033
 10
473.05988515176375
 20
408.4695792012867
 10
473.74897456931916
 20
406.6827481461628
 10
474.43806398687445
 20
405.2532833020639
 10
475.12715340442986
 20
404.00250156347715
 10
475.701394585726
 20
402.57303671937825
 10
476.160787530763
 20
401.1435718752794
 10
476.84987694831824
 20
400.25015634771745
 10
477.53896636587365
 20
399.1780577146431
 10
478.1132075471698
 20
397.5699097650318
 10
479.03199343724367
 20
396.31912802644507
 10
479.95077932731743
 20
394.88966318234617
 10
480.7547169811321
 20
392.9241490217099
 10
481.67350287120587
 20
390.9586348610741
 10
482.3625922887613
 20
388.8144375949254
 10
483.0516817063167
 20
386.84892343428913
 10
483.8556193601313
 20
385.41945859019023
 10
484.3150123051682
 20
383.63262753506655
 10
484.88925348646427
 20
382.024479585455
 10
485.5783429040197
 20
380.95238095238113
 10
486.1525840853158
 20
379.34423300276944
 10
487.0713699753897
 20
377.91476815867054
 10
487.99015586546346
 20
376.30662020905925
 10
488.79409351927814
 20
374.1624229429108
 10
489.7128794093519
 20
372.19690878227476
 10
490.4019688269073
 20
370.0527115161263
 10
491.09105824446266
 20
368.08719735549
 10
491.89499589827733
 20
366.6577325113911
 10
492.35438884331427
 20
364.87090145626746
 10
492.92863002461036
 20
363.26275350665594
 10
493.6177194421657
 20
362.1906548735818
 10
494.19196062346185
 20
360.76119002948246
 10
494.8810500410172
 20
359.33172518538356
 10
495.6849876948318
 20
357.9022603412847
 10
496.48892534864643
 20
356.4727954971858
 10
497.292863002461
 20
354.68596444206213
 10
497.98195242001646
 20
352.7204502814258
 10
498.55619360131254
 20
350.7549361207896
 10
499.2452830188679
 20
349.3254712766907
 10
499.9343724364233
 20
347.8960064325918
 10
500.39376538146024
 20
346.1091753774681
 10
500.96800656275633
 20
344.50102742785657
 10
501.6570959803117
 20
343.4289287947825
 10
502.2313371616078
 20
341.6420977396586
 10
503.03527481542244
 20
340.0339497900473
 10
503.83921246923705
 20
338.2471187349234
 10
504.5283018867924
 20
335.9242383632628
 10
505.3322395406071
 20
333.95872420262674
 10
506.0213289581624
 20
331.81452693647805
 10
506.5955701394585
 20
329.49164656481724
 10
507.2846595570139
 20
327.88349861520595
 10
507.74405250205086
 20
326.09666756008227
 10
508.31829368334706
 20
324.48851961047075
 10
509.0073831009023
 20
323.4164209773966
 10
509.5816242821985
 20
321.62958992227277
 10
510.15586546349465
 20
319.8427588671493
 10
510.95980311730926
 20
318.4132940230502
 10
511.7637407711239
 20
316.98382917895105
 10
512.5676784249384
 20
315.19699812382737
 10
513.2567678424939
 20
313.41016706870374
 10
513.9458572600493
 20
311.62333601357983
 10
514.6349466776046
 20
310.01518806396854
 10
515.32403609516
 20
308.40704011435724
 10
516.0131255127153
 20
306.7988921647458
 10
516.7022149302708
 20
305.1907442151345
 10
517.3913043478261
 20
303.4039131600108
 10
518.0803937653815
 20
301.4383989993745
 10
518.6546349466776
 20
299.4728848387385
 10
519.343724364233
 20
298.04341999463935
 10
520.0328137817884
 20
296.61395515054045
 10
520.4922067268252
 20
294.82712409541676
 10
521.0664479081213
 20
293.2189761458053
 10
521.7555373256768
 20
292.1468775127314
 10
522.329778506973
 20
290.3600464576075
 10
523.1337161607876
 20
288.7518985079962
 10
523.9376538146021
 20
286.9650674528723
 10
524.6267432321575
 20
284.8208701867239
 10
525.430680885972
 20
283.03403913159997
 10
526.1197703035275
 20
281.0685249709641
 10
526.6940114848236
 20
278.7456445993031
 10
527.383100902379
 20
277.1374966496918
 10
528.0721903199344
 20
275.5293487000803
 10
528.7612797374898
 20
273.921200750469
 10
529.4503691550451
 20
272.1343696953453
 10
530.1394585726005
 20
270.1688555347093
 10
530.7136997538965
 20
268.203341374073
 10
531.402789171452
 20
266.7738765299741
 10
532.0918785890074
 20
265.34441168587495
 10
532.5512715340444
 20
263.55758063075154
 10
533.1255127153405
 20
261.9494326811398
 10
533.8146021328959
 20
260.8773340480659
 10
534.388843314192
 20
259.2691860984544
 10
535.0779327317473
 20
257.6610381488431
 10
535.7670221493028
 20
256.05289019923185
 10
536.4561115668581
 20
254.4447422496201
 10
537.1452009844133
 20
252.65791119449665
 10
537.8342904019689
 20
250.871080139373
 10
538.5233798195243
 20
249.08424908424908
 10
539.2124692370795
 20
247.29741802912542
 10
540.0164068908941
 20
245.6892700795139
 10
540.8203445447087
 20
243.90243902439025
 10
541.5094339622641
 20
241.5795586527294
 10
542.3133716160787
 20
239.79272759760573
 10
543.0024610336342
 20
237.82721343696943
 10
543.5767022149303
 20
235.683016170821
 10
544.2657916324857
 20
234.0748682212097
 10
544.7251845775226
 20
232.28803716608604
 10
545.2994257588188
 20
230.67988921647452
 10
545.988515176374
 20
229.60779058340043
 10
546.5627563576702
 20
227.82095952827652
 10
547.1369975389663
 20
226.03412847315286
 10
547.8260869565217
 20
224.60466362905396
 10
548.5151763740772
 20
223.17519878495483
 10
549.2042657916325
 20
221.38836772983117
 10
549.8933552091879
 20
219.6015366747075
 10
550.5824446267433
 20
217.8147056195836
 10
551.2715340442985
 20
215.84919145894776
 10
552.0754716981131
 20
214.06236040382387
 10
552.8794093519277
 20
212.0968462431878
 10
553.5684987694832
 20
209.59528276601458
 10
554.3724364232978
 20
207.6297686053783
 10
555.0615258408532
 20
205.48557133922984
 10
555.6357670221493
 20
203.162690967569
 10
556.3248564397047
 20
201.5545430179577
 10
556.7842493847415
 20
199.76771196283406
 10
557.3584905660377
 20
198.15956401322234
 10
558.0475799835931
 20
197.08746538014844
 10
558.6218211648892
 20
195.30063432502453
 10
559.1960623461854
 20
193.51380326990088
 10
559.8851517637409
 20
192.08433842580197
 10
560.5742411812962
 20
190.65487358170265
 10
561.2633305988514
 20
188.8680425265792
 10
561.9524200164069
 20
187.0812114714555
 10
562.6415094339623
 20
185.29438041633162
 10
563.3305988515176
 20
183.50754936120794
 10
564.1345365053322
 20
181.89940141159644
 10
564.9384741591468
 20
180.11257035647276
 10
565.6275635767022
 20
177.78968998481193
 10
566.4315012305168
 20
176.00285892968824
 10
567.1205906480722
 20
174.03734476905197
 10
567.6948318293682
 20
171.89314750290353
 10
568.3839212469237
 20
170.28499955329224
 10
568.8433141919605
 20
168.49816849816855
 10
569.4175553732567
 20
166.89002054855706
 10
570.1066447908122
 20
165.81792191548294
 10
570.6808859721084
 20
164.03109086035906
 10
571.2551271534045
 20
162.2442598052356
 10
572.059064807219
 20
160.8147949611365
 10
572.8630024610336
 20
159.38533011703737
 10
573.6669401148482
 20
157.59849906191369
 10
574.3560295324036
 20
155.81166800679003
 10
575.045118949959
 20
154.02483695166615
 10
575.7342083675144
 20
152.59537210756724
 10
576.4232977850697
 20
151.16590726346834
 10
576.8826907301067
 20
149.55775931385708
 10
577.571780147662
 20
148.12829446975772
 10
578.3757178014766
 20
147.05619583668383
 10
579.064807219032
 20
145.26936478155994
 10
579.9835931091058
 20
143.66121683194865
 10
581.0172272354389
 20
142.23175198784955
 10
581.9360131255128
 20
140.26623782721347
 10
582.9696472518457
 20
138.30072366657743
 10
583.6587366694012
 20
136.15652640042896
 10
584.3478260869565
 20
134.19101223979268
 10
585.1517637407711
 20
132.76154739569378
 10
585.611156685808
 20
130.97471634057013
 10
586.1853978671041
 20
129.3665683909586
 10
586.8744872846596
 20
128.29446975788449
 10
587.4487284659557
 20
126.86500491378538
 10
588.137817883511
 20
125.43554006968627
 10
589.0566037735848
 20
124.00607522558738
 10
589.9753896636587
 20
122.57661038148848
 10
590.8941755537326
 20
120.78977932636481
 10
591.9278096800657
 20
119.00294827124091
 10
592.9614438063987
 20
117.21611721611724
 10
593.9950779327318
 20
115.25060305548097
 10
595.0287120590648
 20
113.28508889484512
 10
595.7178014766201
 20
111.14089162869645
 10
596.5217391304349
 20
109.17537746806039
 10
597.4405250205086
 20
107.74591262396127
 10
598.0147662018048
 20
105.95908156883782
 10
598.5890073831009
 20
104.3509336192261
 10
599.2780968006563
 20
103.2788349861522
 10
599.8523379819524
 20
102.02805324756548
 10
600.656275635767
 20
100.95595461449136
 10
601.3453650533224
 20
99.70517287590464
 10
601.9196062346185
 20
98.45439113731813
 10
602.6086956521739
 20
97.56097560975618
 10
603.2977850697293
 20
96.48887697668185
 10
603.8720262510254
 20
95.05941213258295
 10
604.5611156685808
 20
93.98731349950862
 10
605.1353568498769
 20
92.73653176092189
 10
605.8244462674322
 20
91.66443312784777
 10
606.628383921247
 20
90.59233449477344
 10
607.3174733388023
 20
88.98418654516216
 10
608.0065627563578
 20
87.55472170106327
 10
608.8105004101723
 20
86.48262306798892
 10
609.4995898277276
 20
85.2318413294022
 10
610.3035274815422
 20
84.1597426963281
 10
610.9926168990976
 20
82.90896095774136
 10
611.5668580803937
 20
81.30081300813008
 10
612.2559474979491
 20
80.05003126954358
 10
613.2895816242823
 20
78.79924953095684
 10
614.3232157506152
 20
77.54846779237012
 10
615.3568498769483
 20
75.76163673724668
 10
616.6201804757998
 20
73.97480568212278
 10
617.8835110746514
 20
72.18797462699911
 10
619.1468416735029
 20
70.40114357187521
 10
620.4101722723543
 20
68.61431251675154
 10
621.5586546349466
 20
66.82748146162764
 10
622.707136997539
 20
65.04065040650397
 10
623.8556193601313
 20
63.61118556240508
 10
624.6595570139459
 20
62.0030376127938
 10
625.3486464315013
 20
60.3948896631823
 10
626.3822805578342
 20
59.32279103010796
 10
627.4159146841673
 20
58.250692397034065
 10
628.1050041017228
 20
56.99991065844734
 10
628.9089417555374
 20
55.927812025373
 10
629.8277276456112
 20
55.03439649781106
 10
630.6316652994258
 20
53.96229786473694
 10
631.5504511894995
 20
53.068882337175
 10
632.2395406070549
 20
51.99678370410088
 10
633.1583264971289
 20
51.103368176538936
 10
634.1919606234619
 20
50.20995264897699
 10
634.9958982772765
 20
48.78048780487809
 10
636.259228876128
 20
47.52970606629137
 10
637.6374077112387
 20
46.45760743321725
 10
638.9007383100902
 20
44.84945948360597
 10
640.1640689089418
 20
43.24131153399469
 10
641.4273995077933
 20
41.633163584382956
 10
642.6907301066448
 20
40.02501563477168
 10
643.9540607054963
 20
38.77423389618517
 10
644.9876948318295
 20
37.52345215759845
 10
646.0213289581624
 20
36.272670419011945
 10
647.0549630844955
 20
35.200571785937605
 10
648.5479901558654
 20
34.307156258375656
 10
649.811320754717
 20
33.23505762530154
 10
650.9598031173092
 20
31.98427588671504
 10
652.33798195242
 20
30.912177253640706
 10
653.4864643150123
 20
29.661395515054203
 10
654.5200984413453
 20
28.410613776467475
 10
655.6685808039376
 20
27.51719824890553
 10
656.3576702214931
 20
26.44509961583119
 10
657.391304347826
 20
25.551684088269244
 10
658.5397867104183
 20
24.83695166621991
 10
659.4585726004922
 20
23.764853033145794
 10
660.4922067268253
 20
22.87143750558385
 10
661.6406890894176
 20
21.97802197802212
 10
662.7891714520099
 20
21.084606450460175
 10
663.9376538146021
 20
20.19119092289823
 10
665.0861361771945
 20
19.29777539533628
 10
666.2346185397867
 20
18.404359867774556
 10
667.3831009023789
 20
17.689627445724998
 10
668.7612797374898
 20
16.974895023675664
 10
670.1394585726005
 20
16.260162601626106
 10
671.402789171452
 20
15.366747074064158
 10
673.0106644790811
 20
14.652014652014822
 10
674.2739950779327
 20
13.758599124452875
 10
675.422477440525
 20
12.865183596890928
 10
677.0303527481542
 20
12.150451174841592
 10
678.2936833470056
 20
11.257035647279645
 10
679.4421657095979
 20
9.291521486643362
 10
718.3757178014766
 20
7.504690431519689
 10
756.8498769483183
 20
7.3260073260073
 10
795.0943396226415
 20
7.504690431519689
 10
833.3388022969648
 20
8.576789064594026
 10
870.664479081214
 20
9.648887697668362
 10
907.760459392945
 20
11.078352541767256
 10
944.8564397046758
 20
14.473331546502433
 10
944.0525020508613
 20
18.046993656749557
 10
943.2485643970467
 20
20.727240239435396
 10
942.4446267432321
 20
23.407486822121015
 10
941.6406890894175
 20
29.48271240954181
 10
941.5258408531583
 20
35.91530420798716
 10
941.5258408531583
 20
42.88394532296969
 10
941.6406890894175
 20
49.31653712141504
 10
942.329778506973
 20
55.570445814348226
 10
943.0188679245283
 20
63.07513624586791
 10
943.7079573420837
 20
70.40114357187521
 10
944.2821985233799
 20
73.79612257661039
 10
944.6267432321574
 20
77.19110158134556
 10
944.6267432321574
 20
79.87134816403119
 10
944.3970467596391
 20
82.5515947467168
 10
943.7079573420837
 20
85.58920754042698
 10
942.5594749794913
 20
86.66130617350132
 10
941.4109926168991
 20
87.91208791208783
 10
940.377358490566
 20
89.16286965067455
 10
939.2288761279736
 20
90.23496828374866
 10
938.0803937653815
 20
91.307066916823
 10
936.9319114027891
 20
92.37916554989734
 10
935.7834290401969
 20
93.80863039399622
 10
934.9794913863823
 20
95.41677834360752
 10
934.2904019688268
 20
101.13463772000352
 10
933.4864643150122
 20
106.85249709639932
 10
932.7973748974568
 20
113.10640578933251
 10
932.33798195242
 20
119.53899758777831
 10
931.9934372436422
 20
128.29446975788449
 10
931.7637407711239
 20
136.5138926114535
 10
931.7637407711239
 20
144.5546323595106
 10
931.7637407711239
 20
149.02170999731968
 10
931.9934372436422
 20
153.4887876351292
 10
932.2231337161609
 20
157.95586527293827
 10
932.6825266611977
 20
162.42294291074776
 10
933.1419196062346
 20
165.10318949343338
 10
933.371616078753
 20
167.78343607611902
 10
933.4864643150122
 20
173.8586616635398
 10
933.7161607875306
 20
179.39783793442322
 10
933.83100902379
 20
185.473063521844
 10
934.0607054963084
 20
191.01223979272763
 10
934.1755537325677
 20
197.08746538014844
 10
934.1755537325677
 20
202.62664165103183
 10
934.2904019688268
 20
210.6673813990887
 10
934.1755537325677
 20
215.67050835343514
 10
933.9458572600493
 20
221.0310015188064
 10
933.6013125512715
 20
225.8554453676407
 10
933.1419196062346
 20
233.00276958813538
 10
932.7973748974568
 20
239.61404449209334
 10
932.6825266611977
 20
246.0466362905389
 10
932.5676784249384
 20
250.51371392834798
 10
932.7973748974568
 20
254.80210846064512
 10
933.371616078753
 20
258.55445367640505
 10
934.0607054963084
 20
262.84284820870175
 10
934.864643150123
 20
264.808362369338
 10
935.5537325676785
 20
267.30992584651125
 10
936.0131255127153
 20
269.9901724291969
 10
936.4725184577524
 20
272.6704190118825
 10
936.5873666940115
 20
275.1719824890557
 10
936.242821985234
 20
277.85222907174114
 10
935.8982772764562
 20
280.5324756544267
 10
935.0943396226415
 20
283.03403913159997
 10
934.1755537325677
 20
284.99955329223627
 10
933.371616078753
 20
287.50111676940946
 10
932.4528301886793
 20
289.28794782453315
 10
931.6488925348647
 20
291.25346198516945
 10
930.9598031173093
 20
293.75502546234264
 10
930.0410172272356
 20
295.5418565174661
 10
929.35192780968
 20
297.5073706781024
 10
928.7776866283838
 20
300.00893415527565
 10
928.0885972108284
 20
301.9744483159117
 10
927.5143560295325
 20
304.65469489859754
 10
926.9401148482362
 20
307.33494148128295
 10
926.36587366694
 20
310.19387116948093
 10
925.9064807219032
 20
313.2314839631911
 10
925.5619360131255
 20
316.6264629679263
 10
925.1025430680887
 20
319.4853926561243
 10
924.7579983593109
 20
322.88037166085945
 10
924.298605414274
 20
325.5606182435451
 10
923.839212469237
 20
328.2408648262305
 10
923.3798195242002
 20
330.9211114089163
 10
922.9204265791632
 20
333.60135799160196
 10
922.4610336341262
 20
337.3537032073619
 10
922.0016406890894
 20
341.10604842312165
 10
921.5422477440525
 20
346.64522469400504
 10
921.0828547990156
 20
352.36308407040127
 10
920.7383100902379
 20
358.6169927633342
 10
920.278917145201
 20
364.1561690342179
 10
919.9343724364232
 20
372.01822567676214
 10
919.4749794913865
 20
378.45081747520794
 10
919.1304347826087
 20
385.41945859019023
 10
918.6710418375718
 20
390.0652193335121
 10
918.326497128794
 20
533.3690699544358
 10
918.0968006562756
 20
676.1368712588225
 10
918.0968006562756
 20
818.7259894576969
 10
918.0968006562756
 20
959.5282766014473
 10
918.326497128794
 20
1100.3305637451977
 10
918.785890073831
 20
1240.418118466899
 10
919.3601312551273
 20
1381.935138032699
 10
919.7046759639048
 20
1384.6153846153845
 10
919.8195242001641
 20
1387.2956311980702
 10
919.8195242001641
 20
1396.2297864736888
 10
919.9343724364232
 20
1404.6278924327705
 10
920.1640689089419
 20
1412.8473152863396
 10
920.1640689089419
 20
1421.7814705619585
 10
920.278917145201
 20
1429.286160993478
 10
920.7383100902379
 20
1436.7908514249978
 10
921.3125512715341
 20
1444.8315911730547
 10
922.0016406890894
 20
1446.7971053336908
 10
922.805578342904
 20
1448.5839363888144
 10
923.3798195242002
 20
1450.9068167604753
 10
924.0689089417554
 20
1452.693647815599
 10
925.1025430680887
 20
1454.3017957652105
 10
926.1361771944216
 20
1456.0886268203342
 10
927.1698113207547
 20
1457.8754578754579
 10
928.2034454470878
 20
1459.6622889305816
 10
929.1222313371616
 20
1461.4491199857055
 10
930.0410172272356
 20
1465.2014652014652
 10
930.7301066447909
 20
1468.953810417225
 10
930.9598031173093
 20
1474.3143035825963
 10
930.9598031173093
 20
1479.6747967479673
 10
930.9598031173093
 20
1512.1951219512196
 10
930.7301066447909
 20
1544.7154471544716
 10
930.3855619360131
 20
1580.6307513624586
 10
930.1558654634947
 20
1614.223175198785
 10
930.0410172272356
 20
1649.2450638792102
 10
930.0410172272356
 20
1682.8374877155366
 10
930.1558654634947
 20
1721.4330385062092
 10
930.1558654634947
 20
1732.332707942464
 10
930.270713699754
 20
1743.768426695256
 10
930.270713699754
 20
1751.9878495488254
 10
930.1558654634947
 20
1760.7433217189314
 10
929.9261689909763
 20
1768.0693290449387
 10
929.5816242821985
 20
1778.2542660591441
 10
929.35192780968
 20
1783.4360761190028
 10
929.2370795734208
 20
1788.796569284374
 10
929.2370795734208
 20
1793.6210131332082
 10
929.4667760459392
 20
1798.26677387653
 10
929.6964725184578
 20
1802.9125346198516
 10
930.1558654634947
 20
1807.5582953631736
 10
930.8449548810501
 20
1809.1664433127848
 10
931.4191960623463
 20
1811.3106405789333
 10
932.1082854799015
 20
1813.2761547395692
 10
933.1419196062346
 20
1815.062985794693
 10
934.0607054963084
 20
1817.0284999553292
 10
935.0943396226415
 20
1818.4579647994283
 10
936.4725184577524
 20
1819.7087465380148
 10
937.6210008203445
 20
1821.1382113821137
 10
938.8843314191961
 20
1822.0316269096757
 10
940.6070549630846
 20
1822.7463593317252
 10
941.9852337981953
 20
1823.639774859287
 10
943.4782608695652
 20
1824.3545072813365
 10
944.9712879409351
 20
1825.069239703386
 10
946.2346185397868
 20
1825.7839721254356
 10
947.4979491386383
 20
1826.8560707585098
 10
948.7612797374898
 20
1827.928169391584
 10
951.6324856439705
 20
1829.0002680246582
 10
954.388843314192
 20
1830.251049763245
 10
957.1452009844136
 20
1831.6805146073439
 10
960.2461033634125
 20
1832.9312963459306
 10
963.1173092698933
 20
1834.3607611900295
 10
966.1033634126334
 20
1835.4328598231039
 10
968.974569319114
 20
1836.504958456178
 10
969.7785069729285
 20
1837.7557401947647
 10
971.7309269893356
 20
1838.6491557223264
 10
973.5684987694832
 20
1843.6522826766727
 10
974.1427399507794
 20
1848.6554096310192
 10
974.6021328958162
 20
1853.658536585366
 10
974.946677604594
 20
1861.5205932279105
 10
975.4060705496307
 20
1869.3826498704548
 10
976.5545529122231
 20
1877.0660234074867
 10
976.5545529122231
 20
1886.3575448941303
 10
975.7506152584085
 20
1891.3606718484768
 10
975.6357670221494
 20
1896.5424819083357
 10
975.6357670221494
 20
1905.1192709729294
 10
975.7506152584085
 20
1910.8371303493254
 10
976.5545529122231
 20
1916.376306620209
 10
976.5545529122231
 20
1931.3856874832484
 10
932.7973748974568
 20
1944.7869203966766
 10
889.8441345365054
 20
1956.7586884660054
 10
846.8908941755536
 20
1968.3730903243097
  0
LWPOLYLINE
  5
32
330
17
100
AcDbEntity
  8
PROFILE_WINDOW
100
AcDbPolyline
 90
1249
 70
1
 10
842.3658736669402
 20
1812.3827392120074
 10
845.2600492206727
 20
1812.6328955597248
 10
847.8326497128793
 20
1812.3827392120074
 10
850.5660377358491
 20
1811.8824265165729
 10
853.2994257588188
 20
1810.8818011257035
 10
853.7817883511075
 20
1804.878048780488
 10
853.9425758818704
 20
1798.874296435272
 10
853.9425758818704
 20
1793.370856785491
 10
853.7817883511075
 20
1786.3664790494058
 10
853.2994257588188
 20
1779.3621013133206
 10
852.656275635767
 20
1777.3608505315824
 10
852.1739130434783
 20
1772.1075672295185
 10
851.6915504511896
 20
1766.6041275797372
 10
851.2091878589007
 20
1761.6010006253907
 10
850.726825266612
 20
1756.5978736710445
 10
850.4052502050861
 20
1748.0925578486554
 10
850.2444626743231
 20
1743.089430894309
 10
850.4052502050861
 20
1738.0863039399626
 10
850.5660377358491
 20
1721.5759849906192
 10
850.726825266612
 20
1705.0656660412758
 10
850.8876127973749
 20
1659.537210756723
 10
850.726825266612
 20
1613.7585991244528
 10
850.4052502050861
 20
1565.4784240150095
 10
849.9228876127975
 20
1529.455909943715
 10
849.6013125512715
 20
1491.9324577861164
 10
849.1189499589829
 20
1486.6791744840525
 10
848.797374897457
 20
1479.42464040025
 10
848.6365873666939
 20
1474.6716697936208
 10
848.6365873666939
 20
1469.6685428392743
 10
848.797374897457
 20
1466.4165103189493
 10
849.2797374897458
 20
1463.1644777986241
 10
849.7621000820344
 20
1461.9136960600376
 10
850.4052502050861
 20
1460.9130706691683
 10
851.2091878589007
 20
1460.162601626016
 10
851.8523379819524
 20
1458.6616635397122
 10
852.4954881050043
 20
1457.1607254534085
 10
853.6210008203445
 20
1455.9099437148218
 10
854.585726004922
 20
1454.4090056285177
 10
855.3896636587366
 20
1451.6572858036275
 10
856.3543888433143
 20
1449.6560350218886
 10
857.3191140278918
 20
1447.65478424015
 10
857.8014766201804
 20
1445.1532207629766
 10
858.2838392124692
 20
1442.901813633521
 10
858.9269893355211
 20
1441.9011882426519
 10
859.4093519278097
 20
1437.1482176360225
 10
859.5701394585727
 20
1432.3952470293934
 10
859.7309269893356
 20
1423.3896185115698
 10
859.5701394585727
 20
1414.1338336460287
 10
859.0877768662838
 20
1405.128205128205
 10
858.4446267432321
 20
1399.624765478424
 10
857.9622641509434
 20
1392.3702313946217
 10
857.8014766201804
 20
1389.8686679174484
 10
857.9622641509434
 20
1387.3671044402752
 10
858.2838392124692
 20
1383.8649155722326
 10
859.0877768662838
 20
1380.6128830519074
 10
860.0525020508613
 20
1379.1119449656035
 10
860.695652173913
 20
1204.7529706066293
 10
861.3388022969648
 20
1030.3939962476547
 10
861.9819524200165
 20
835.7723577235774
 10
862.1427399507794
 20
640.9005628517825
 10
862.1427399507794
 20
445.2782989368356
 10
861.9819524200165
 20
422.2639149468417
 10
861.6603773584905
 20
395.9974984365227
 10
861.1780147662018
 20
390.7442151344591
 10
860.856439704676
 20
384.7404627892432
 10
860.3740771123872
 20
379.4871794871797
 10
860.0525020508613
 20
373.4834271419636
 10
859.8917145200984
 20
370.7317073170733
 10
859.8917145200984
 20
364.7279549718574
 10
859.7309269893356
 20
359.4746716697936
 10
859.5701394585727
 20
354.4715447154472
 10
859.4093519278097
 20
349.46841776110074
 10
858.9269893355211
 20
344.46529080675424
 10
858.4446267432321
 20
342.2138836772981
 10
857.9622641509434
 20
339.9624765478424
 10
857.6406890894176
 20
336.2101313320824
 10
857.1583264971288
 20
333.20825515947485
 10
856.6759639048399
 20
330.4565353345841
 10
856.1936013125513
 20
327.4546591619762
 10
855.7112387202626
 20
324.4527829893684
 10
855.0680885972108
 20
322.9518449030644
 10
854.585726004922
 20
321.20075046904304
 10
854.1033634126334
 20
319.19949968730464
 10
853.6210008203445
 20
315.4471544715447
 10
853.1386382280558
 20
311.69480925578495
 10
852.656275635767
 20
307.942464040025
 10
852.1739130434783
 20
303.68980612883047
 10
851.6915504511896
 20
299.4371482176361
 10
850.8876127973749
 20
297.9362101313321
 10
850.2444626743231
 20
295.6848030018764
 10
849.6013125512715
 20
293.18323952470314
 10
848.6365873666939
 20
291.6823014383991
 10
847.8326497128793
 20
290.1813633520951
 10
847.1894995898277
 20
288.43026891807375
 10
846.385561936013
 20
287.67979987492186
 10
845.7424118129614
 20
286.6791744840527
 10
845.2600492206727
 20
285.42839274546594
 10
844.7776866283839
 20
283.4271419637273
 10
844.2953240360952
 20
281.4258911819887
 10
843.9737489745693
 20
278.42401500938087
 10
843.4913863822807
 20
275.67229518449034
 10
843.1698113207547
 20
272.6704190118825
 10
842.6874487284659
 20
270.41901188242656
 10
842.2050861361771
 20
268.4177611006877
 10
841.7227235438885
 20
267.1669793621012
 10
841.2403609515998
 20
265.9161976235145
 10
840.7579983593108
 20
264.1651031894936
 10
840.2756357670222
 20
262.414008755472
 10
839.4716981132076
 20
260.66291432145096
 10
838.667760459393
 20
258.1613508442777
 10
837.8638228055785
 20
255.65978736710449
 10
836.5775225594749
 20
254.15884928080047
 10
835.2912223133717
 20
252.65791119449665
 10
834.4872846595571
 20
250.40650406504074
 10
833.5225594749794
 20
248.9055659787367
 10
832.2362592288762
 20
247.6547842401502
 10
831.2715340442986
 20
246.15384615384616
 10
830.467596390484
 20
244.15259537210753
 10
829.5028712059064
 20
242.65165728580374
 10
828.0557834290402
 20
241.400875547217
 10
827.0910582444627
 20
239.3996247654786
 10
826.126333059885
 20
237.39837398373976
 10
824.5184577522559
 20
236.14759224515325
 10
822.9105824446268
 20
234.8968105065665
 10
821.7850697292864
 20
233.64602876798003
 10
820.6595570139459
 20
232.8955597248281
 10
819.5340442986054
 20
232.14509068167598
 10
818.7301066447908
 20
231.3946216385241
 10
818.0869565217392
 20
230.39399624765488
 10
817.4438063986875
 20
229.14321450906817
 10
815.9967186218212
 20
228.14258911819897
 10
814.7104183757178
 20
227.14196372732954
 10
813.5849056603774
 20
225.8911819887428
 10
811.9770303527481
 20
225.1407129455909
 10
810.5299425758818
 20
224.39024390243924
 10
809.7260049220673
 20
223.38961851156958
 10
808.2789171452009
 20
222.63914946841768
 10
806.8318293683348
 20
221.888680425266
 10
805.5455291222313
 20
221.13821138211387
 10
804.098441345365
 20
220.38774233896197
 10
802.6513535684987
 20
219.88742964352716
 10
801.8474159146841
 20
219.13696060037523
 10
801.0434782608695
 20
218.3864915572231
 10
799.9179655455291
 20
217.63602251407121
 10
798.7924528301887
 20
216.88555347091955
 10
796.380639868745
 20
216.1350844277672
 10
793.8080393765382
 20
215.3846153846155
 10
790.7530762920426
 20
214.88430268918069
 10
788.1804757998359
 20
214.1338336460288
 10
782.5529122231337
 20
213.63352095059395
 10
778.2116488925349
 20
213.38336460287667
 10
772.5840853158327
 20
213.38336460287667
 10
767.4388843314192
 20
213.63352095059395
 10
761.811320754717
 20
214.1338336460288
 10
759.2387202625102
 20
214.88430268918069
 10
756.1837571780148
 20
215.3846153846155
 10
754.4150943396226
 20
216.1350844277672
 10
752.1640689089418
 20
216.635397123202
 10
750.3954060705496
 20
217.3858661663539
 10
748.7875307629204
 20
218.13633520950603
 10
747.1796554552913
 20
218.88680425265795
 10
745.571780147662
 20
219.63727329580985
 10
743.9639048400328
 20
220.38774233896197
 10
742.3560295324036
 20
221.13821138211387
 10
740.7481542247745
 20
221.888680425266
 10
739.1402789171451
 20
222.63914946841768
 10
737.532403609516
 20
223.38961851156958
 10
736.5676784249384
 20
224.39024390243924
 10
735.1205906480723
 20
225.1407129455909
 10
733.5127153404429
 20
225.8911819887428
 10
732.5479901558656
 20
226.89180737961246
 10
731.1009023789992
 20
227.64227642276413
 10
729.49302707137
 20
228.39274546591605
 10
728.5283018867925
 20
229.39337085678568
 10
727.5635767022148
 20
230.39399624765488
 10
726.1164889253487
 20
231.14446529080678
 10
725.1517637407711
 20
232.14509068167598
 10
724.3478260869565
 20
233.1457160725454
 10
722.9007383100903
 20
233.8961851156973
 10
721.4536505332239
 20
234.64665415884923
 10
720.4889253486464
 20
235.64727954971863
 10
719.5242001640689
 20
236.64790494058786
 10
718.0771123872026
 20
237.39837398373976
 10
717.1123872026251
 20
238.39899937460896
 10
716.3084495488105
 20
239.3996247654786
 10
714.8613617719442
 20
240.15009380863052
 10
713.4142739950779
 20
240.90056285178218
 10
712.4495488105005
 20
241.90118824265184
 10
711.4848236259229
 20
242.90181363352104
 10
710.0377358490566
 20
243.65228267667294
 10
709.073010664479
 20
244.65290806754214
 10
708.2690730106646
 20
245.65353345841157
 10
706.9827727645611
 20
246.40400250156347
 10
705.6964725184578
 20
247.15447154471536
 10
704.8925348646432
 20
248.40525328330187
 10
704.0885972108285
 20
249.6560350218886
 10
702.4807219031993
 20
250.65666041275801
 10
701.1944216570961
 20
251.90744215134475
 10
700.0689089417556
 20
253.65853658536585
 10
698.3002461033634
 20
254.90931832395236
 10
696.5315832649712
 20
256.1601000625391
 10
695.5668580803938
 20
258.1613508442777
 10
694.6021328958162
 20
260.16260162601634
 10
693.1550451189499
 20
261.41338336460285
 10
692.1903199343725
 20
262.91432145090687
 10
691.3863822805579
 20
264.665415884928
 10
690.4216570959803
 20
265.6660412757974
 10
689.4569319114028
 20
266.66666666666686
 10
688.974569319114
 20
267.9174484052533
 10
688.3314191960624
 20
268.91807379612254
 10
687.5274815422478
 20
269.66854283927444
 10
686.884331419196
 20
270.66916823014384
 10
686.0803937653814
 20
271.4196372732958
 10
685.115668580804
 20
272.1701063164477
 10
684.4725184577522
 20
273.4208880550342
 10
683.8293683347006
 20
274.4215134459038
 10
683.025430680886
 20
275.422138836773
 10
682.0607054963085
 20
276.42276422764223
 10
681.095980311731
 20
277.4233896185114
 10
680.1312551271534
 20
278.67417135709815
 10
679.1665299425758
 20
280.17510944340216
 10
677.7194421657096
 20
281.4258911819887
 10
676.5939294503692
 20
282.9268292682927
 10
675.6292042657916
 20
284.9280800500311
 10
674.0213289581624
 20
286.17886178861784
 10
672.4134536505333
 20
287.42964352720435
 10
671.4487284659557
 20
289.68105065666026
 10
670.0016406890894
 20
291.6823014383991
 10
668.3937653814602
 20
293.18323952470314
 10
667.4290401968827
 20
295.6848030018764
 10
665.9819524200165
 20
297.9362101313321
 10
664.3740771123871
 20
299.4371482176361
 10
663.4093519278098
 20
301.93871169480934
 10
661.9622641509434
 20
304.19011882426526
 10
660.3543888433142
 20
305.69105691056933
 10
659.3896636587367
 20
308.1926203877425
 10
657.9425758818703
 20
310.44402751719826
 10
656.3347005742412
 20
311.9449656035023
 10
655.3699753896636
 20
314.6966854283926
 10
654.0836751435603
 20
317.19824890556583
 10
652.636587366694
 20
318.94934333958713
 10
651.8326497128794
 20
321.4509068167606
 10
651.0287120590648
 20
323.9524702939338
 10
650.2247744052502
 20
325.45340838023765
 10
649.5816242821986
 20
326.95434646654166
 10
648.9384741591468
 20
328.45528455284546
 10
648.2953240360952
 20
329.70606629143197
 10
647.6521739130435
 20
330.7066916823016
 10
646.8482362592289
 20
331.7073170731708
 10
646.3658736669402
 20
333.20825515947485
 10
645.8835110746513
 20
334.45903689806136
 10
645.2403609515997
 20
335.45966228893053
 10
644.7579983593109
 20
336.96060037523455
 10
644.1148482362593
 20
338.2113821138213
 10
643.3109105824446
 20
339.2120075046905
 10
642.6677604593929
 20
340.71294559099454
 10
642.0246103363412
 20
342.2138836772981
 10
641.3814602132895
 20
343.46466541588484
 10
640.577522559475
 20
344.71544715447135
 10
639.7735849056603
 20
345.9662288930581
 10
638.9696472518457
 20
347.7173233270794
 10
637.8441345365053
 20
349.2182614133834
 10
636.557834290402
 20
350.7191994996874
 10
635.7538966365873
 20
353.22076297686067
 10
634.9499589827727
 20
355.7223264540339
 10
634.1460213289581
 20
357.473420888055
 10
633.6636587366694
 20
359.22451532207634
 10
633.1812961443807
 20
360.9756097560974
 10
632.6989335520918
 20
362.22639149468415
 10
632.0557834290403
 20
363.2270168855536
 10
631.2518457752257
 20
364.2276422764228
 10
630.6086956521739
 20
365.9787367104439
 10
629.9655455291222
 20
367.7298311444652
 10
629.0008203445448
 20
368.98061288305195
 10
628.19688269073
 20
370.48155096935596
 10
627.5537325676785
 20
372.7329580988117
 10
626.7497949138639
 20
374.48405253283323
 10
626.1066447908121
 20
376.23514696685413
 10
625.6242821985234
 20
377.98624140087566
 10
625.1419196062346
 20
379.7373358348968
 10
624.6595570139459
 20
380.9881175734833
 10
624.0164068908942
 20
381.9887429643529
 10
623.2124692370796
 20
382.98936835522215
 10
622.5693191140278
 20
384.7404627892432
 10
621.9261689909763
 20
386.4915572232646
 10
620.8006562756359
 20
387.7423389618511
 10
619.8359310910582
 20
389.2432770481551
 10
619.0319934372436
 20
391.494684177611
 10
618.067268252666
 20
393.2457786116323
 10
616.9417555373257
 20
394.74671669793617
 10
616.137817883511
 20
396.49781113195746
 10
615.4946677604594
 20
398.74921826141343
 10
614.6907301066448
 20
399.9999999999999
 10
613.8867924528302
 20
401.2507817385866
 10
613.4044298605414
 20
403.001876172608
 10
612.9220672682527
 20
404.75297060662905
 10
612.4397046759639
 20
406.00375234521556
 10
611.7965545529122
 20
407.2545340838023
 10
611.1534044298606
 20
408.5053158223888
 10
610.5102543068089
 20
410.25641025641033
 10
609.8671041837572
 20
412.0075046904317
 10
608.9023789991796
 20
413.50844277673525
 10
608.0984413453651
 20
415.25953721075683
 10
607.4552912223133
 20
417.5109443402125
 10
606.6513535684988
 20
418.76172607879926
 10
605.8474159146842
 20
420.01250781738577
 10
605.3650533223954
 20
421.76360225140706
 10
604.8826907301067
 20
423.2645403377111
 10
604.239540607055
 20
424.26516572858054
 10
603.7571780147662
 20
425.51594746716705
 10
603.1140278917145
 20
426.5165728580362
 10
602.3100902379
 20
427.2670419011881
 10
601.6669401148482
 20
429.0181363352095
 10
600.8630024610336
 20
430.5190744215135
 10
599.8982772764562
 20
432.0200125078175
 10
599.2551271534044
 20
434.52157598499076
 10
598.6119770303527
 20
436.7729831144467
 10
597.8080393765382
 20
438.27392120075046
 10
597.3256767842494
 20
440.2751719824891
 10
596.8433141919605
 20
442.2764227642275
 10
596.3609515996718
 20
443.52720450281424
 10
595.5570139458572
 20
444.77798624140075
 10
594.7530762920426
 20
446.0287679799875
 10
593.9491386382281
 20
447.7798624140088
 10
592.8236259228876
 20
449.2808005003128
 10
591.5373256767842
 20
450.7817385866168
 10
590.7333880229696
 20
453.5334584115072
 10
589.7686628383922
 20
456.0350218886804
 10
588.6431501230518
 20
457.78611632270173
 10
588.0
 20
460.53783614759226
 10
587.3568498769483
 20
463.03939962476545
 10
586.5529122231337
 20
464.5403377110695
 10
586.070549630845
 20
467.0419011882427
 10
585.5881870385562
 20
469.54346466541597
 10
584.6234618539787
 20
471.04440275171976
 10
583.6587366694012
 20
472.7954971857411
 10
582.8547990155865
 20
475.046904315197
 10
581.890073831009
 20
476.5478424015008
 10
580.7645611156685
 20
477.79862414008755
 10
579.960623461854
 20
479.2995622263916
 10
579.3174733388024
 20
481.30081300813
 10
578.5135356849877
 20
482.5515947467167
 10
577.7095980311731
 20
483.8023764853032
 10
577.2272354388843
 20
485.30331457160725
 10
576.7448728465956
 20
486.554096310194
 10
576.101722723544
 20
487.30456535334565
 10
575.6193601312551
 20
488.5553470919324
 10
574.9762100082035
 20
489.5559724828018
 10
574.172272354389
 20
490.556597873671
 10
573.5291222313372
 20
492.55784865540966
 10
572.4036095159967
 20
494.30894308943095
 10
571.1173092698933
 20
495.809881175735
 10
570.1525840853159
 20
498.5616010006253
 10
568.8662838392125
 20
501.0631644777985
 10
567.4191960623461
 20
502.8142589118199
 10
566.6152584085316
 20
505.31582238899307
 10
565.8113207547169
 20
507.8173858661663
 10
565.0073831009023
 20
509.5684803001876
 10
564.5250205086137
 20
511.56973108192625
 10
564.2034454470877
 20
513.5709818636647
 10
563.3995077932732
 20
514.8217636022514
 10
562.5955701394586
 20
516.0725453408379
 10
561.791632485644
 20
517.8236397748592
 10
560.5053322395406
 20
519.3245778611632
 10
559.0582444626742
 20
520.8255159474672
 10
558.0935192780969
 20
523.3270794246405
 10
556.6464315012305
 20
525.5784865540965
 10
555.0385561936014
 20
527.0794246404005
 10
554.0738310090238
 20
529.5809881175737
 10
552.9483182936833
 20
531.8323952470294
 10
551.6620180475801
 20
533.3333333333335
 10
551.0188679245283
 20
535.8348968105066
 10
550.3757178014766
 20
538.0863039399626
 10
549.571780147662
 20
539.5872420262666
 10
549.0894175553733
 20
541.5884928080051
 10
548.4462674323216
 20
543.3395872420264
 10
547.642329778507
 20
544.3402126328956
 10
546.9991796554552
 20
545.5909943714823
 10
546.3560295324036
 20
546.5916197623515
 10
545.552091878589
 20
547.3420888055034
 10
545.0697292863002
 20
548.5928705440899
 10
544.4265791632486
 20
549.5934959349595
 10
543.622641509434
 20
550.5941213258287
 10
542.9794913863823
 20
551.8449030644152
 10
542.3363412633306
 20
552.8455284552845
 10
541.532403609516
 20
553.5959974984363
 10
541.0500410172273
 20
555.0969355847404
 10
540.5676784249384
 20
556.3477173233271
 10
539.9245283018868
 20
557.5984990619136
 10
538.9598031173093
 20
558.8492808005003
 10
537.9950779327318
 20
560.1000625390868
 10
537.0303527481542
 20
561.3508442776736
 10
536.0656275635766
 20
562.8517823639776
 10
534.7793273174733
 20
564.1025641025641
 10
533.8146021328959
 20
565.6035021888681
 10
533.0106644790812
 20
567.6047529706066
 10
532.0459392945037
 20
569.1056910569106
 10
530.7596390484005
 20
570.3564727954973
 10
529.7949138638228
 20
571.8574108818011
 10
528.9909762100082
 20
574.108818011257
 10
527.543888433142
 20
575.609756097561
 10
526.0968006562756
 20
577.1106941838651
 10
525.1320754716982
 20
579.6122576610383
 10
524.1673502871206
 20
582.1138211382115
 10
522.7202625102543
 20
583.6147592245151
 10
521.7555373256768
 20
585.3658536585367
 10
520.9515996718621
 20
587.6172607879923
 10
519.9868744872847
 20
589.1181988742964
 10
518.7005742411812
 20
590.3689806128831
 10
517.7358490566038
 20
591.8699186991871
 10
516.9319114027892
 20
593.6210131332081
 10
515.9671862182116
 20
594.6216385240776
 10
515.0024610336341
 20
595.6222639149469
 10
514.5200984413453
 20
596.8730456535336
 10
513.8769483182937
 20
597.8736710444028
 10
513.073010664479
 20
598.6241400875547
 10
512.4298605414274
 20
599.6247654784241
 10
511.7867104183757
 20
600.3752345215761
 10
510.98277276456116
 20
601.1257035647279
 10
510.5004101722723
 20
602.3764853033144
 10
509.85726004922066
 20
603.3771106941839
 10
509.05332239540616
 20
604.3777360850532
 10
508.41017227235443
 20
605.8786741713571
 10
507.76702214930276
 20
607.1294559099438
 10
506.96308449548815
 20
608.130081300813
 10
506.48072190319937
 20
609.3808630393997
 10
505.83757178014775
 20
610.381488430269
 10
505.0336341263331
 20
611.1319574734208
 10
504.39048400328136
 20
612.3827392120073
 10
503.74733388022975
 20
613.383364602877
 10
502.9433962264151
 20
614.3839899937462
 10
502.46103363412635
 20
615.6347717323328
 10
501.8178835110747
 20
616.6353971232019
 10
501.01394585726007
 20
617.3858661663538
 10
500.37079573420834
 20
618.3864915572235
 10
499.4060705496309
 20
619.1369606003751
 10
498.2805578342904
 20
619.8874296435271
 10
497.4766201804758
 20
621.1382113821138
 10
496.0295324036095
 20
622.1388367729832
 10
494.4216570959804
 20
623.1394621638524
 10
493.2961443806399
 20
625.1407129455911
 10
491.6882690730107
 20
626.8918073796124
 10
489.9196062346185
 20
628.3927454659164
 10
488.954881050041
 20
630.6441525953721
 10
487.99015586546346
 20
632.895559724828
 10
486.54306808859724
 20
634.1463414634145
 10
485.5783429040197
 20
635.6472795497185
 10
484.77440525020506
 20
637.6485303314572
 10
483.80968006562756
 20
638.8993120700437
 10
482.84495488105006
 20
640.1500938086305
 10
482.04101722723544
 20
641.400875547217
 10
481.23707957342083
 20
642.6516572858036
 10
480.43314191960627
 20
643.4021263289558
 10
479.1468416735029
 20
644.1525953721077
 10
477.8605414273995
 20
644.9030644152593
 10
476.89581624282204
 20
646.1538461538461
 10
475.4487284659557
 20
647.1544715447155
 10
473.84085315832647
 20
648.1550969355847
 10
472.876127973749
 20
649.6560350218888
 10
471.4290401968827
 20
650.9068167604754
 10
469.82116488925345
 20
651.9074421513446
 10
468.856439704676
 20
653.1582238899312
 10
467.40935192780967
 20
654.1588492808006
 10
465.80147662018044
 20
654.9093183239522
 10
464.836751435603
 20
656.4102564102564
 10
463.38966365873665
 20
657.661038148843
 10
461.7817883511074
 20
658.9118198874295
 10
460.01312551271536
 20
660.1626016260162
 10
458.2444626743232
 20
661.4133833646027
 10
456.47579983593107
 20
662.1638524077549
 10
454.70713699753895
 20
662.9143214509068
 10
452.93847415914684
 20
663.6647904940587
 10
451.97374897456933
 20
664.6654158849282
 10
450.52666119770305
 20
665.41588492808
 10
448.9187858900738
 20
666.166353971232
 10
447.3109105824446
 20
666.916823014384
 10
445.7030352748154
 20
667.667292057536
 10
444.0951599671862
 20
668.417761100688
 10
442.487284659557
 20
669.16823014384
 10
440.8794093519278
 20
669.9186991869916
 10
439.27153404429856
 20
670.669168230144
 10
437.6636587366694
 20
671.4196372732956
 10
435.7342083675144
 20
671.9199499687305
 10
434.2871205906481
 20
672.6704190118824
 10
432.84003281378176
 20
673.1707317073173
 10
431.8753076292043
 20
673.9212007504689
 10
429.62428219852336
 20
674.4215134459038
 10
427.5340442986054
 20
675.1719824890556
 10
424.96144380639873
 20
675.6722951844905
 10
422.38884331419194
 20
676.4227642276421
 10
419.9770303527481
 20
677.1732332707943
 10
415.95734208367514
 20
677.9237023139461
 10
411.93765381460213
 20
678.6741713570981
 10
405.5061525840853
 20
679.4246404002502
 10
399.07465135356847
 20
680.1751094434021
 10
391.1960623461854
 20
680.6754221388369
 10
386.050861361772
 20
680.6754221388369
 10
380.5840853158326
 20
680.4252657911194
 10
378.01148482362595
 20
679.9249530956848
 10
373.9917965545529
 20
679.1744840525329
 10
371.41919606234615
 20
678.1738586616636
 10
369.00738310090236
 20
677.4233896185116
 10
364.82690730106646
 20
676.6729205753596
 10
360.64643150123055
 20
675.9224515322078
 10
357.9130434782609
 20
675.1719824890556
 10
355.0188679245283
 20
674.4215134459038
 10
351.9639048400328
 20
673.9212007504689
 10
351.15996718621824
 20
673.1707317073173
 10
350.35602953240357
 20
672.4202626641649
 10
349.0697292863003
 20
671.6697936210132
 10
347.7834290401969
 20
670.9193245778613
 10
346.17555373256766
 20
670.1688555347092
 10
344.40689089417555
 20
669.4183864915573
 10
342.1558654634947
 20
668.9180737961225
 10
340.5479901558655
 20
668.1676047529708
 10
338.94011484823625
 20
667.4171357098185
 10
337.3322395406071
 20
666.6666666666667
 10
335.8851517637408
 20
665.9161976235148
 10
334.9204265791633
 20
664.9155722326452
 10
333.31255127153406
 20
664.1651031894935
 10
331.7046759639049
 20
663.4146341463417
 10
330.7399507793273
 20
662.414008755472
 10
329.6144380639868
 20
661.4133833646027
 10
328.1673502871206
 20
660.6629143214509
 10
327.363412633306
 20
659.4121325828644
 10
326.55947497949137
 20
658.1613508442776
 10
325.27317473338803
 20
657.1607254534084
 10
323.98687448728464
 20
656.160100062539
 10
320.9319114027892
 20
655.1594746716698
 10
317.7161607875308
 20
654.9093183239522
 10
314.6611977030352
 20
658.6616635397122
 10
312.2493847415915
 20
662.6641651031895
 10
310.3199343724364
 20
666.916823014384
 10
310.8022969647252
 20
671.4196372732956
 10
311.4454470877768
 20
676.4227642276421
 10
312.2493847415915
 20
677.9237023139461
 10
313.21410992616904
 20
679.1744840525329
 10
313.85726004922066
 20
680.9255784865542
 10
314.5004101722724
 20
682.6766729205754
 10
315.30434782608694
 20
683.6772983114445
 10
315.9474979491386
 20
684.6779237023139
 10
316.42986054142744
 20
685.9287054409007
 10
316.9122231337161
 20
687.6797998749217
 10
317.39458572600495
 20
689.4308943089432
 10
318.0377358490566
 20
691.1819887429642
 10
318.84167350287123
 20
692.9330831769855
 10
319.48482362592284
 20
695.4346466541588
 10
320.2887612797375
 20
697.1857410881803
 10
321.2534864643151
 20
698.6866791744839
 10
321.8966365873667
 20
700.6879299562228
 10
322.5397867104184
 20
702.6891807379611
 10
323.34372436423297
 20
703.6898061288304
 10
323.98687448728464
 20
704.6904315197
 10
324.4692370795734
 20
705.9412132582866
 10
324.95159967186214
 20
707.6923076923076
 10
325.4339622641509
 20
709.4434021263289
 10
326.07711238720265
 20
711.1944965603501
 10
326.88105004101726
 20
712.9455909943714
 10
327.5242001640689
 20
715.1969981238273
 10
328.32813781788354
 20
716.6979362101314
 10
329.1320754716981
 20
717.9487179487178
 10
329.6144380639868
 20
719.6998123827392
 10
330.09680065627566
 20
721.4509068167605
 10
330.9007383100902
 20
722.4515322076297
 10
331.5438884331419
 20
723.4521575984991
 10
332.18703855619356
 20
724.7029393370856
 10
332.8301886792453
 20
726.454033771107
 10
333.47333880229695
 20
728.2051282051283
 10
334.1164889253487
 20
729.9562226391494
 10
334.9204265791633
 20
731.7073170731708
 10
335.5635767022149
 20
733.9587242026266
 10
336.3675143560295
 20
735.4596622889306
 10
337.3322395406071
 20
736.7104440275172
 10
337.9753896636587
 20
738.4615384615385
 10
338.6185397867104
 20
740.2126328955596
 10
339.42247744052503
 20
741.213258286429
 10
340.0656275635767
 20
742.2138836772982
 10
340.5479901558655
 20
743.464665415885
 10
341.1911402789171
 20
744.2151344590369
 10
341.6735028712059
 20
745.7160725453409
 10
342.1558654634947
 20
747.4671669793622
 10
342.9598031173093
 20
748.968105065666
 10
343.60295324036093
 20
751.219512195122
 10
344.24610336341266
 20
753.7210756722952
 10
345.3716160787531
 20
755.222013758599
 10
346.49712879409356
 20
756.722951844903
 10
347.3010664479081
 20
758.9743589743589
 10
348.2657916324856
 20
760.475297060663
 10
349.552091878589
 20
761.7260787992494
 10
350.35602953240357
 20
763.2270168855536
 10
351.15996718621824
 20
764.7279549718573
 10
351.9639048400328
 20
765.9787367104441
 10
352.7678424938474
 20
767.2295184490305
 10
353.41099261689914
 20
768.4803001876172
 10
354.05414273995075
 20
769.9812382739212
 10
354.6972928630025
 20
771.4821763602251
 10
355.50123051681703
 20
772.4828017510945
 10
356.1443806398687
 20
773.4834271419637
 10
356.62674323215754
 20
774.7342088805502
 10
357.26989335520915
 20
775.4846779237023
 10
357.75225594749793
 20
776.9856160100064
 10
358.23461853978677
 20
778.7367104440275
 10
359.19934372436427
 20
780.2376485303315
 10
360.0032813781788
 20
782.4890556597875
 10
360.80721903199344
 20
784.9906191369606
 10
362.0935192780968
 20
786.4915572232645
 10
363.2190319934372
 20
788.7429643527204
 10
364.0229696472519
 20
791.2445278298936
 10
365.30926989335524
 20
792.7454659161976
 10
366.4347826086957
 20
794.4965603502189
 10
367.2387202625103
 20
796.4978111319574
 10
368.04265791632486
 20
797.7485928705441
 10
368.8465955701394
 20
798.9993746091307
 10
369.48974569319114
 20
800.2501563477174
 10
370.1328958162428
 20
801.7510944340214
 10
370.77604593929453
 20
803.2520325203252
 10
371.5799835931091
 20
804.5028142589119
 10
372.38392124692365
 20
805.7535959974985
 10
373.0270713699754
 20
807.0043777360852
 10
373.67022149302704
 20
808.505315822389
 10
374.31337161607877
 20
810.006253908693
 10
375.2780968006563
 20
811.5071919949968
 10
376.0820344544709
 20
813.7585991244529
 10
376.8859721082855
 20
816.2601626016261
 10
378.1722723543888
 20
817.7611006879299
 10
379.4585726004922
 20
819.2620387742339
 10
380.26251025430685
 20
821.7636022514072
 10
381.22723543888435
 20
823.5146966854284
 10
382.3527481542248
 20
825.0156347717324
 10
383.1566858080394
 20
826.7667292057537
 10
383.96062346185397
 20
828.2676672920577
 10
384.76456111566864
 20
829.5184490306442
 10
385.5684987694832
 20
830.769230769231
 10
386.2116488925348
 20
832.0200125078175
 10
386.69401148482365
 20
833.2707942464042
 10
387.1763740771124
 20
834.771732332708
 10
387.98031173092704
 20
835.5222013758598
 10
388.62346185397865
 20
836.522826766729
 10
389.2666119770304
 20
837.7736085053158
 10
390.07054963084494
 20
838.7742338961853
 10
390.71369975389666
 20
840.0250156347718
 10
391.1960623461854
 20
841.5259537210756
 10
392.0
 20
842.5265791119449
 10
392.64315012305167
 20
843.5272045028141
 10
393.28630024610334
 20
844.7779862414009
 10
393.92945036915506
 20
846.5290806754219
 10
394.57260049220673
 20
848.2801751094436
 10
395.3765381460213
 20
850.0312695434646
 10
396.18047579983596
 20
852.5328330206379
 10
396.9844134536505
 20
855.0343964978111
 10
398.27071369975386
 20
856.5353345841149
 10
399.55701394585725
 20
858.036272670419
 10
400.36095159967186
 20
860.2876797998748
 10
401.32567678424937
 20
861.7886178861789
 10
402.4511894995898
 20
863.0393996247653
 10
403.0943396226415
 20
864.5403377110695
 10
403.73748974569315
 20
866.0412757973733
 10
404.5414273995078
 20
866.7917448405253
 10
405.1845775225595
 20
867.7923702313946
 10
405.6669401148483
 20
869.0431519699813
 10
406.4708777686629
 20
870.0437773608505
 10
407.1140278917145
 20
871.2945590994372
 10
407.7571780147662
 20
872.795497185741
 10
408.5611156685808
 20
873.7961225766104
 10
409.20426579163245
 20
874.7967479674796
 10
409.6866283839213
 20
876.0475297060664
 10
410.32977850697296
 20
876.7979987492183
 10
410.8121410992617
 20
878.0487804878047
 10
411.29450369155046
 20
879.5497185741089
 10
412.0984413453651
 20
880.8005003126955
 10
412.7415914684167
 20
883.0519074421514
 10
413.38474159146847
 20
885.5534709193247
 10
414.51025430680886
 20
887.3045653533458
 10
415.6357670221493
 20
889.0556597873671
 10
416.43970467596387
 20
891.5572232645403
 10
417.4044298605414
 20
893.0581613508443
 10
418.5299425758819
 20
894.3089430894308
 10
419.17309269893354
 20
896.0600375234523
 10
419.81624282198527
 20
897.8111319574733
 10
420.6201804757999
 20
898.8117573483428
 10
421.2633305988515
 20
899.8123827392119
 10
421.74569319114033
 20
901.0631644777986
 10
422.22805578342906
 20
902.8142589118198
 10
422.7104183757178
 20
904.5653533458413
 10
423.51435602953234
 20
906.3164477798624
 10
424.31829368334695
 20
908.8180112570357
 10
425.12223133716157
 20
911.3195747342089
 10
426.40853158326496
 20
912.8205128205127
 10
427.5340442986054
 20
914.3214509068167
 10
428.33798195241997
 20
916.072545340838
 10
429.1419196062346
 20
917.3233270794245
 10
429.9458572600492
 20
918.5741088180113
 10
430.5890073831009
 20
919.8248905565978
 10
431.23215750615253
 20
921.3258286429018
 10
431.8753076292043
 20
922.8267667292056
 10
432.6792452830189
 20
923.827392120075
 10
433.3223954060706
 20
924.8280175109443
 10
433.8047579983593
 20
926.0787992495309
 10
434.447908121411
 20
926.8292682926829
 10
434.93027071369977
 20
928.3302063789869
 10
435.41263330598855
 20
930.0813008130082
 10
436.377358490566
 20
931.5822388993121
 10
437.1812961443806
 20
933.8336460287679
 10
437.9852337981952
 20
936.3352095059412
 10
439.11074651353573
 20
937.8361475922452
 10
440.0754716981132
 20
939.337085678549
 10
440.7186218211649
 20
941.0881801125703
 10
441.36177194421657
 20
942.5891181988744
 10
442.0049220672682
 20
944.0900562851782
 10
442.64807219031997
 20
945.5909943714822
 10
443.2912223133716
 20
947.0919324577862
 10
443.9343724364233
 20
948.59287054409
 10
444.738310090238
 20
949.343339587242
 10
445.3814602132896
 20
950.3439649781113
 10
445.86382280557837
 20
951.5947467166978
 10
446.50697292863
 20
952.5953721075673
 10
446.9893355209188
 20
954.0963101938711
 10
447.47169811320754
 20
955.8474046278924
 10
448.2756357670222
 20
957.0981863664791
 10
449.07957342083677
 20
958.3489681050656
 10
449.7227235438884
 20
960.6003752345216
 10
450.52666119770305
 20
962.3514696685429
 10
451.4913863822806
 20
963.8524077548467
 10
452.1345365053322
 20
965.603502188868
 10
452.77768662838395
 20
967.3545966228894
 10
453.4208367514356
 20
968.6053783614759
 10
454.0639868744873
 20
969.8561601000625
 10
454.70713699753895
 20
971.106941838649
 10
455.3502871205907
 20
972.8580362726705
 10
455.99343724364235
 20
974.6091307066918
 10
456.95816242821985
 20
975.8599124452783
 10
457.7621000820344
 20
978.1113195747342
 10
458.4052502050862
 20
980.6128830519074
 10
459.5307629204266
 20
982.3639774859288
 10
460.65627563576703
 20
984.1150719199499
 10
461.4602132895816
 20
986.6166353971231
 10
462.42493847415915
 20
988.1175734834271
 10
463.38966365873665
 20
989.3683552220139
 10
463.87202625102543
 20
991.1194496560349
 10
464.3543888433142
 20
992.8705440900562
 10
465.1583264971288
 20
993.8711694809257
 10
465.80147662018044
 20
994.8717948717949
 10
466.4446267432322
 20
996.1225766103814
 10
467.08777686628383
 20
997.8736710444027
 10
467.7309269893355
 20
999.624765478424
 10
468.3740771123872
 20
1001.3758599124452
 10
469.17801476620184
 20
1003.1269543464667
 10
469.82116488925345
 20
1005.3783614759224
 10
470.62510254306807
 20
1006.8792995622265
 10
471.5898277276456
 20
1008.1300813008131
 10
472.2329778506973
 20
1009.8811757348343
 10
472.876127973749
 20
1011.6322701688554
 10
473.68006562756364
 20
1012.6328955597251
 10
474.32321575061525
 20
1013.6335209505942
 10
474.8055783429041
 20
1014.8843026891807
 10
475.2879409351928
 20
1016.6353971232019
 10
475.77030352748153
 20
1018.3864915572234
 10
476.5742411812961
 20
1020.1375859912445
 10
477.3781788351107
 20
1022.6391494684179
 10
478.1821164889253
 20
1025.1407129455908
 10
479.4684167350287
 20
1026.6416510318948
 10
480.59392945036916
 20
1028.142589118199
 10
481.3978671041837
 20
1029.8936835522202
 10
482.20180475799833
 20
1031.1444652908067
 10
483.00574241181295
 20
1032.3952470293934
 10
483.48810500410167
 20
1033.6460287679802
 10
483.9704675963905
 20
1035.3971232020012
 10
484.45283018867923
 20
1037.1482176360228
 10
485.2567678424939
 20
1038.3989993746093
 10
486.06070549630846
 20
1039.6497811131958
 10
486.70385561936007
 20
1041.9011882426516
 10
487.50779327317474
 20
1043.652282676673
 10
488.4725184577523
 20
1045.1532207629768
 10
489.27645611156686
 20
1046.9043151969981
 10
489.9196062346185
 20
1049.155722326454
 10
490.7235438884331
 20
1050.656660412758
 10
491.6882690730107
 20
1051.9074421513446
 10
492.3314191960623
 20
1053.908692933083
 10
492.9745693191141
 20
1055.9099437148218
 10
493.7785069729287
 20
1057.1607254534085
 10
494.58244462674327
 20
1058.411507191995
 10
495.064807219032
 20
1060.9130706691683
 10
495.7079573420838
 20
1062.914321450907
 10
496.67268252666116
 20
1064.665415884928
 10
497.4766201804758
 20
1067.4171357098185
 10
498.2805578342904
 20
1070.168855534709
 10
499.4060705496309
 20
1071.669793621013
 10
500.37079573420834
 20
1073.1707317073171
 10
501.01394585726007
 20
1074.9218261413382
 10
501.8178835110747
 20
1075.6722951844902
 10
502.46103363412635
 20
1076.6729205753595
 10
502.9433962264151
 20
1077.9237023139463
 10
503.58654634946674
 20
1078.9243277048156
 10
504.06890894175547
 20
1080.675422138837
 10
504.55127153404436
 20
1082.6766729205754
 10
505.35520918785886
 20
1084.1776110068793
 10
505.99835931091053
 20
1086.4290181363351
 10
506.64150943396226
 20
1088.9305816135084
 10
507.60623461853976
 20
1090.4315196998123
 10
508.41017227235443
 20
1091.9324577861164
 10
509.05332239540616
 20
1093.6835522201375
 10
509.85726004922066
 20
1094.4340212632894
 10
510.5004101722723
 20
1095.4346466541588
 10
510.98277276456116
 20
1096.6854283927455
 10
511.62592288761283
 20
1097.6860537836149
 10
512.1082854799016
 20
1099.1869918699185
 10
512.5906480721903
 20
1100.93808630394
 10
513.394585726005
 20
1102.1888680425268
 10
514.0377358490566
 20
1104.4402751719824
 10
514.6808859721084
 20
1106.941838649156
 10
515.8063986874488
 20
1108.692933083177
 10
516.9319114027892
 20
1110.444027517198
 10
517.7358490566038
 20
1112.9455909943715
 10
518.7005742411812
 20
1114.4465290806754
 10
519.8260869565217
 20
1115.6973108192622
 10
520.4692370795734
 20
1117.6985616010006
 10
521.1123872026252
 20
1119.6998123827393
 10
521.9163248564397
 20
1120.950594121326
 10
522.7202625102543
 20
1122.2013758599126
 10
523.202625102543
 20
1124.4527829893682
 10
523.8457752255947
 20
1126.2038774233895
 10
524.8105004101723
 20
1127.7048155096936
 10
525.6144380639869
 20
1130.2063789868669
 10
526.4183757178015
 20
1132.7079424640401
 10
527.543888433142
 20
1134.2088805503438
 10
528.5086136177194
 20
1135.9599749843653
 10
529.1517637407711
 20
1137.9612257661038
 10
529.9557013945857
 20
1138.9618511569731
 10
530.5988515176374
 20
1139.9624765478422
 10
531.0812141099261
 20
1141.213258286429
 10
531.7243642329778
 20
1141.9637273295812
 10
532.2067268252665
 20
1143.4646654158848
 10
532.6890894175555
 20
1145.2157598499061
 10
533.6538146021328
 20
1146.7166979362103
 10
534.4577522559475
 20
1148.968105065666
 10
535.2616899097621
 20
1151.4696685428394
 10
536.3872026251026
 20
1152.9706066291433
 10
537.35192780968
 20
1154.471544715447
 10
537.9950779327318
 20
1156.2226391494685
 10
538.7990155865464
 20
1156.9731081926204
 10
539.442165709598
 20
1157.9737335834895
 10
539.9245283018868
 20
1159.224515322076
 10
540.4068908941755
 20
1161.225766103815
 10
540.8892534864643
 20
1163.2270168855534
 10
541.532403609516
 20
1165.2282676672921
 10
542.3363412633306
 20
1166.9793621013134
 10
542.9794913863823
 20
1169.230769230769
 10
543.7834290401968
 20
1170.7317073170734
 10
544.5873666940115
 20
1171.98248905566
 10
545.0697292863002
 20
1173.9837398373984
 10
545.552091878589
 20
1175.984990619137
 10
546.3560295324036
 20
1177.2357723577236
 10
546.9991796554552
 20
1179.4871794871794
 10
547.642329778507
 20
1181.9887429643527
 10
548.6070549630845
 20
1183.7398373983738
 10
549.4109926168991
 20
1185.7410881801127
 10
550.0541427399507
 20
1187.9924953095683
 10
550.8580803937654
 20
1188.9931207004379
 10
551.501230516817
 20
1190.2439024390246
 10
551.9835931091058
 20
1191.7448405253283
 10
552.4659557013947
 20
1193.7460913070668
 10
552.9483182936833
 20
1195.7473420888057
 10
553.7522559474979
 20
1197.748592870544
 10
554.5561936013124
 20
1200.2501563477174
 10
555.360131255127
 20
1202.7517198248904
 10
556.3248564397047
 20
1204.2526579111943
 10
557.1287940935192
 20
1206.2539086929332
 10
557.611156685808
 20
1208.505315822389
 10
558.4150943396227
 20
1209.7560975609758
 10
559.0582444626742
 20
1212.0075046904315
 10
559.701394585726
 20
1214.5090681676047
 10
560.6661197703036
 20
1216.260162601626
 10
561.4700574241182
 20
1218.011257035647
 10
562.1132075471698
 20
1220.0125078173858
 10
562.9171452009845
 20
1220.762976860538
 10
563.560295324036
 20
1221.763602251407
 10
564.0426579163249
 20
1223.0143839899936
 10
564.6858080393765
 20
1224.0150093808631
 10
565.1681706316654
 20
1225.7661038148844
 10
565.6505332239541
 20
1227.7673545966227
 10
566.4544708777687
 20
1229.2682926829268
 10
567.0976210008204
 20
1231.5196998123827
 10
567.7407711238722
 20
1234.021263289556
 10
568.7054963084495
 20
1235.52220137586
 10
569.5094339622641
 20
1237.2732958098811
 10
570.1525840853159
 20
1239.2745465916198
 10
570.9565217391305
 20
1240.2751719824892
 10
571.5996718621822
 20
1241.2757973733583
 10
572.0820344544709
 20
1242.5265791119448
 10
572.5643970467596
 20
1244.277673545966
 10
573.0467596390483
 20
1246.0287679799876
 10
573.850697292863
 20
1247.7798624140087
 10
574.6546349466776
 20
1250.2814258911822
 10
575.4585726004922
 20
1252.7829893683554
 10
576.5840853158327
 20
1254.283927454659
 10
577.5488105004101
 20
1256.0350218886804
 10
578.1919606234619
 20
1258.0362726704188
 10
578.9958982772765
 20
1259.0368980612884
 10
579.6390484003281
 20
1260.0375234521578
 10
580.1214109926169
 20
1261.2883051907443
 10
580.7645611156685
 20
1262.038774233896
 10
581.2469237079574
 20
1263.5397123202004
 10
581.7292863002461
 20
1265.2908067542214
 10
582.5332239540608
 20
1266.7917448405253
 10
583.1763740771124
 20
1269.0431519699814
 10
583.8195242001641
 20
1271.5447154471544
 10
584.7842493847415
 20
1273.0456535334583
 10
585.5881870385562
 20
1274.7967479674799
 10
586.2313371616079
 20
1276.797998749218
 10
587.0352748154224
 20
1277.7986241400877
 10
587.6784249384742
 20
1278.7992495309568
 10
588.160787530763
 20
1280.0500312695435
 10
588.8039376538146
 20
1280.8005003126955
 10
589.2863002461033
 20
1282.3014383989994
 10
589.7686628383922
 20
1284.0525328330207
 10
590.7333880229696
 20
1285.5534709193246
 10
591.5373256767842
 20
1287.8048780487804
 10
592.3412633305987
 20
1290.3064415259537
 10
593.4667760459392
 20
1291.8073796122576
 10
594.4315012305168
 20
1293.3083176985615
 10
595.0746513535686
 20
1295.059412132583
 10
595.7178014766201
 20
1296.3101938711693
 10
596.3609515996718
 20
1297.5609756097558
 10
597.0041017227236
 20
1298.8117573483426
 10
597.6472518457753
 20
1300.3126954346467
 10
598.2904019688269
 20
1301.8136335209506
 10
599.0943396226415
 20
1302.81425891182
 10
599.7374897456932
 20
1303.814884302689
 10
600.2198523379819
 20
1305.0656660412758
 10
600.8630024610336
 20
1305.8161350844277
 10
601.3453650533224
 20
1307.3170731707316
 10
601.8277276456112
 20
1309.0681676047532
 10
602.6316652994258
 20
1310.5691056910568
 10
603.2748154224774
 20
1313.07066916823
 10
603.9179655455291
 20
1315.8223889931207
 10
605.0434782608695
 20
1317.573483427142
 10
606.16899097621
 20
1319.3245778611633
 10
606.9729286300246
 20
1321.8261413383364
 10
607.9376538146022
 20
1323.3270794246405
 10
609.0631665299426
 20
1324.577861163227
 10
609.7063166529942
 20
1326.328955597248
 10
610.349466776046
 20
1328.0800500312696
 10
611.1534044298606
 20
1329.080675422139
 10
611.7965545529122
 20
1330.081300813008
 10
612.278917145201
 20
1331.3320825515946
 10
612.7612797374898
 20
1333.0831769856159
 10
613.2436423297785
 20
1334.8342714196374
 10
614.0475799835931
 20
1336.5853658536587
 10
614.8515176374077
 20
1339.086929330832
 10
615.6554552912223
 20
1341.5884928080052
 10
616.9417555373257
 20
1343.0894308943089
 10
618.2280557834291
 20
1344.590368980613
 10
619.1927809680066
 20
1346.091307066917
 10
620.1575061525841
 20
1347.3420888055036
 10
621.1222313371616
 20
1348.5928705440901
 10
621.7653814602132
 20
1349.8436522826767
 10
622.247744052502
 20
1351.3445903689806
 10
622.7301066447909
 20
1353.0956848030019
 10
623.5340442986054
 20
1354.0963101938712
 10
624.1771944216571
 20
1355.0969355847403
 10
624.8203445447087
 20
1356.3477173233268
 10
625.4634946677604
 20
1357.8486554096312
 10
626.1066447908121
 20
1359.349593495935
 10
626.9105824446267
 20
1360.8505315822388
 10
627.7145200984413
 20
1363.3520950594122
 10
628.5184577522559
 20
1365.8536585365853
 10
629.9655455291222
 20
1367.6047529706066
 10
631.2518457752257
 20
1370.1063164477798
 10
632.2165709598031
 20
1372.8580362726705
 10
633.5028712059066
 20
1374.3589743589744
 10
634.628383921247
 20
1375.8599124452783
 10
635.2715340442986
 20
1377.6110068792996
 10
636.0754716981132
 20
1378.3614759224515
 10
636.7186218211649
 20
1379.3621013133209
 10
637.2009844134536
 20
1380.6128830519074
 10
637.8441345365053
 20
1381.6135084427767
 10
638.3264971287941
 20
1382.8642901813635
 10
638.8088597210829
 20
1384.3652282676674
 10
639.6127973748975
 20
1385.3658536585365
 10
640.2559474979491
 20
1386.3664790494056
 10
640.8990976210008
 20
1387.6172607879923
 10
641.5422477440525
 20
1389.3683552220136
 10
642.1853978671041
 20
1391.119449656035
 10
642.9893355209188
 20
1392.8705440900565
 10
643.7932731747334
 20
1395.3721075672295
 10
644.5972108285479
 20
1397.873671044403
 10
645.8835110746513
 20
1399.3746091307066
 10
647.1698113207547
 20
1400.8755472170108
 10
647.9737489745693
 20
1403.1269543464666
 10
648.9384741591468
 20
1404.6278924327705
 10
650.0639868744873
 20
1405.878674171357
 10
650.707136997539
 20
1407.6297686053786
 10
651.3502871205907
 20
1409.3808630393996
 10
652.1542247744053
 20
1410.3814884302687
 10
652.797374897457
 20
1411.3821138211383
 10
653.2797374897458
 20
1412.6328955597248
 10
653.7621000820345
 20
1414.3839899937461
 10
654.2444626743231
 20
1416.1350844277674
 10
655.0484003281377
 20
1417.8861788617887
 10
655.8523379819524
 20
1420.387742338962
 10
656.6562756357671
 20
1422.8893058161352
 10
657.9425758818703
 20
1424.390243902439
 10
659.0680885972108
 20
1425.891181988743
 10
659.8720262510253
 20
1427.6422764227643
 10
660.6759639048399
 20
1428.8930581613508
 10
661.4799015586545
 20
1430.1438398999373
 10
661.9622641509434
 20
1431.394621638524
 10
662.4446267432321
 20
1433.1457160725454
 10
662.926989335521
 20
1434.8968105065665
 10
663.7309269893356
 20
1436.1475922451532
 10
664.3740771123871
 20
1437.39837398374
 10
665.0172272354389
 20
1438.8993120700438
 10
665.6603773584906
 20
1440.6504065040651
 10
666.3035274815421
 20
1442.4015009380864
 10
667.1074651353568
 20
1444.1525953721075
 10
667.9114027891715
 20
1446.654158849281
 10
668.7153404429861
 20
1449.155722326454
 10
669.8408531583266
 20
1450.656660412758
 10
670.8055783429039
 20
1452.157598499062
 10
671.4487284659557
 20
1453.908692933083
 10
672.2526661197703
 20
1454.659161976235
 10
672.895816242822
 20
1455.6597873671044
 10
673.3781788351107
 20
1456.9105691056911
 10
674.0213289581624
 20
1457.9111944965603
 10
674.5036915504512
 20
1459.4121325828642
 10
674.98605414274
 20
1461.1632270168855
 10
675.7899917965545
 20
1462.4140087554722
 10
676.5939294503692
 20
1463.6647904940587
 10
677.2370795734208
 20
1465.9161976235146
 10
678.0410172272354
 20
1467.667292057536
 10
679.0057424118129
 20
1469.1682301438398
 10
679.8096800656276
 20
1470.919324577861
 10
680.4528301886792
 20
1473.1707317073171
 10
681.2567678424938
 20
1474.6716697936208
 10
682.2214930270713
 20
1475.9224515322076
 10
682.864643150123
 20
1477.4233896185117
 10
683.5077932731747
 20
1478.9243277048154
 10
684.3117309269894
 20
1479.6747967479673
 10
684.954881050041
 20
1480.6754221388367
 10
685.4372436423298
 20
1481.9262038774234
 10
686.0803937653814
 20
1482.9268292682927
 10
686.5627563576703
 20
1484.4277673545964
 10
687.045118949959
 20
1486.178861788618
 10
687.8490566037736
 20
1487.4296435272045
 10
688.6529942575881
 20
1488.680425265791
 10
689.2961443806398
 20
1490.9318323952473
 10
690.1000820344544
 20
1492.6829268292684
 10
691.2255947497948
 20
1494.1838649155723
 10
692.0295324036094
 20
1496.6854283927455
 10
692.833470057424
 20
1499.1869918699188
 10
693.9589827727646
 20
1500.6879299562227
 10
694.9237079573421
 20
1502.439024390244
 10
695.5668580803938
 20
1504.4402751719824
 10
696.3707957342084
 20
1505.4409005628518
 10
697.0139458572601
 20
1506.441525953721
 10
697.4963084495488
 20
1507.6923076923076
 10
698.1394585726006
 20
1508.4427767354596
 10
698.6218211648893
 20
1509.9437148217637
 10
699.104183757178
 20
1511.694809255785
 10
700.0689089417556
 20
1513.1957473420887
 10
700.8728465955701
 20
1515.4471544715448
 10
701.6767842493847
 20
1517.9487179487178
 10
702.9630844954881
 20
1519.449656035022
 10
704.2493847415915
 20
1520.950594121326
 10
705.0533223954061
 20
1523.2020012507817
 10
706.0180475799837
 20
1524.7029393370856
 10
706.9827727645611
 20
1525.9537210756723
 10
707.4651353568499
 20
1527.9549718574108
 10
707.9474979491387
 20
1529.9562226391495
 10
708.7514356029533
 20
1531.2070043777362
 10
709.5553732567679
 20
1532.4577861163227
 10
710.1985233798196
 20
1534.7091932457786
 10
711.0024610336341
 20
1536.4602876797999
 10
712.1279737489746
 20
1537.9612257661038
 10
712.9319114027891
 20
1540.4627892432773
 10
713.7358490566037
 20
1542.9643527204503
 10
714.8613617719442
 20
1544.4652908067542
 10
715.8260869565217
 20
1545.9662288930583
 10
716.4692370795735
 20
1547.7173233270794
 10
717.273174733388
 20
1548.4677923702316
 10
717.9163248564398
 20
1549.4684177611007
 10
718.3986874487285
 20
1550.7191994996874
 10
719.0418375717802
 20
1551.7198248905565
 10
719.5242001640689
 20
1553.2207629768607
 10
720.0065627563577
 20
1554.9718574108817
 10
720.8105004101723
 20
1556.2226391494685
 10
721.4536505332239
 20
1557.473420888055
 10
722.0968006562757
 20
1558.974358974359
 10
722.7399507793273
 20
1560.7254534083804
 10
723.3831009023789
 20
1562.4765478424015
 10
724.1870385561936
 20
1564.2276422764228
 10
724.9909762100081
 20
1566.729205753596
 10
725.7949138638228
 20
1569.2307692307693
 10
726.9204265791633
 20
1570.7317073170732
 10
727.8851517637407
 20
1572.232645403377
 10
728.5283018867925
 20
1573.9837398373984
 10
729.3322395406071
 20
1574.7342088805503
 10
729.9753896636588
 20
1575.7348342714197
 10
730.4577522559475
 20
1576.9856160100062
 10
731.1009023789992
 20
1577.9862414008755
 10
731.5832649712879
 20
1579.4871794871794
 10
732.0656275635766
 20
1581.2382739212007
 10
732.8695652173914
 20
1582.4890556597873
 10
733.673502871206
 20
1583.739837398374
 10
734.3166529942575
 20
1585.9912445278298
 10
735.1205906480723
 20
1587.742338961851
 10
736.2461033634127
 20
1589.243277048155
 10
737.0500410172273
 20
1591.7448405253283
 10
737.8539786710418
 20
1594.2464040025018
 10
738.9794913863823
 20
1595.7473420888055
 10
739.9442165709597
 20
1597.2482801751094
 10
740.5873666940115
 20
1598.9993746091307
 10
741.3913043478261
 20
1599.7498436522828
 10
742.0344544708778
 20
1600.750469043152
 10
742.5168170631665
 20
1602.0012507817385
 10
743.1599671862182
 20
1603.0018761726078
 10
743.6423297785069
 20
1604.502814258912
 10
744.1246923707957
 20
1606.253908692933
 10
744.9286300246104
 20
1607.5046904315195
 10
745.732567678425
 20
1608.7554721701063
 10
746.3757178014766
 20
1611.0068792995621
 10
747.1796554552913
 20
1612.7579737335836
 10
748.1443806398687
 20
1614.2589118198875
 10
748.9483182936834
 20
1616.0100062539086
 10
749.591468416735
 20
1618.2614133833647
 10
750.3954060705496
 20
1619.7623514696686
 10
751.3601312551272
 20
1621.013133208255
 10
752.0032813781788
 20
1623.0143839899938
 10
752.6464315012305
 20
1625.0156347717325
 10
753.4503691550452
 20
1626.2664165103188
 10
754.2543068088598
 20
1627.5171982489055
 10
754.7366694011484
 20
1629.7686053783616
 10
755.3798195242002
 20
1631.5196998123827
 10
756.1837571780148
 20
1633.0206378986866
 10
756.9876948318293
 20
1634.771732332708
 10
757.630844954881
 20
1637.023139462164
 10
758.4347826086956
 20
1638.5240775484676
 10
759.3995077932733
 20
1639.7748592870544
 10
760.0426579163249
 20
1641.776110068793
 10
760.6858080393765
 20
1643.7773608505315
 10
761.4897456931911
 20
1645.0281425891183
 10
762.2936833470058
 20
1646.2789243277048
 10
762.7760459392945
 20
1648.5303314571606
 10
763.4191960623461
 20
1650.281425891182
 10
764.3839212469237
 20
1651.782363977486
 10
765.1878589007383
 20
1654.2839274546593
 10
765.9917965545528
 20
1656.7854909318326
 10
767.1173092698933
 20
1658.2864290181362
 10
768.0820344544709
 20
1660.0375234521575
 10
768.7251845775226
 20
1662.0387742338962
 10
769.5291222313373
 20
1663.0393996247653
 10
770.1722723543888
 20
1664.040025015635
 10
770.6546349466777
 20
1665.2908067542214
 10
771.2977850697292
 20
1666.0412757973734
 10
771.7801476620181
 20
1667.5422138836773
 10
772.2625102543068
 20
1669.2933083176986
 10
773.0664479081214
 20
1670.7942464040025
 10
773.7095980311731
 20
1673.295809881176
 10
774.3527481542249
 20
1676.0475297060661
 10
775.4782608695652
 20
1677.7986241400874
 10
776.4429860541427
 20
1679.5497185741087
 10
777.2469237079573
 20
1681.5509693558474
 10
778.0508613617719
 20
1682.801751094434
 10
778.8547990155865
 20
1684.0525328330207
 10
779.3371616078753
 20
1685.3033145716072
 10
779.8195242001641
 20
1687.0544090056285
 10
780.3018867924528
 20
1688.8055034396498
 10
781.2666119770303
 20
1690.0562851782363
 10
782.0705496308449
 20
1692.3076923076924
 10
782.8744872846595
 20
1694.8092557848656
 10
784.0
 20
1696.560350218887
 10
785.1255127153404
 20
1698.3114446529082
 10
785.9294503691551
 20
1700.0625390869293
 10
786.7333880229697
 20
1701.313320825516
 10
787.5373256767842
 20
1702.5641025641025
 10
788.1804757998359
 20
1703.8148843026893
 10
788.6628383921247
 20
1705.5659787367103
 10
789.1452009844135
 20
1707.567229518449
 10
789.9491386382281
 20
1708.8180112570358
 10
790.5922887612797
 20
1711.0694183864916
 10
791.2354388843315
 20
1713.5709818636649
 10
792.3609515996719
 20
1715.322076297686
 10
793.4864643150123
 20
1717.0731707317073
 10
794.2904019688269
 20
1719.5747342088805
 10
795.2551271534045
 20
1721.0756722951846
 10
796.2198523379819
 20
1722.3264540337711
 10
796.7022149302707
 20
1724.0775484677924
 10
797.1845775225595
 20
1725.8286429018137
 10
797.9885151763741
 20
1726.8292682926829
 10
798.6316652994258
 20
1727.8298936835524
 10
799.2748154224774
 20
1729.080675422139
 10
799.9179655455291
 20
1730.8317698561602
 10
800.5611156685808
 20
1732.5828642901813
 10
801.2042657916325
 20
1734.3339587242026
 10
802.0082034454472
 20
1736.085053158224
 10
802.6513535684987
 20
1738.3364602876798
 10
803.4552912223133
 20
1739.8373983739837
 10
804.259228876128
 20
1741.0881801125704
 10
804.7415914684168
 20
1743.089430894309
 10
805.2239540607055
 20
1745.0906816760473
 10
806.02789171452
 20
1746.341463414634
 10
806.8318293683348
 20
1747.5922451532208
 10
807.4749794913863
 20
1749.8436522826767
 10
808.2789171452009
 20
1751.594746716698
 10
809.2436423297785
 20
1753.0956848030019
 10
809.8867924528302
 20
1754.846779237023
 10
810.5299425758818
 20
1756.5978736710445
 10
811.1730926989335
 20
1757.8486554096312
 10
811.8162428219852
 20
1759.0994371482177
 10
812.298605414274
 20
1760.3502188868042
 10
812.7809680065627
 20
1762.1013133208257
 10
813.2633305988516
 20
1763.8524077548468
 10
814.0672682526662
 20
1765.1031894934335
 10
814.8712059064808
 20
1766.35397123202
 10
815.5143560295325
 20
1768.605378361476
 10
816.318293683347
 20
1770.3564727954972
 10
817.2830188679245
 20
1771.8574108818011
 10
818.0869565217392
 20
1773.6085053158224
 10
818.7301066447908
 20
1775.8599124452783
 10
819.5340442986054
 20
1777.3608505315824
 10
820.498769483183
 20
1778.611632270169
 10
821.1419196062346
 20
1780.3627267041902
 10
821.7850697292864
 20
1782.1138211382115
 10
822.5890073831009
 20
1783.1144465290806
 10
823.2321575061526
 20
1784.11507191995
 10
823.7145200984413
 20
1785.3658536585367
 10
824.3576702214931
 20
1786.1163227016884
 10
824.8400328137818
 20
1787.116948092558
 10
825.3223954060704
 20
1788.3677298311445
 10
826.126333059885
 20
1789.3683552220136
 10
826.7694831829369
 20
1790.368980612883
 10
827.4126333059886
 20
1791.6197623514695
 10
828.2165709598032
 20
1792.3702313946217
 10
828.8597210828548
 20
1793.6210131332082
 10
829.3420836751435
 20
1795.1219512195123
 10
830.1460213289581
 20
1796.3727329580988
 10
830.9499589827727
 20
1797.6235146966856
 10
831.7538966365872
 20
1798.874296435272
 10
832.5578342904018
 20
1800.1250781738586
 10
833.3617719442166
 20
1801.375859912445
 10
834.1657095980312
 20
1802.6266416510318
 10
834.8088597210829
 20
1803.8774233896183
 10
835.4520098441345
 20
1805.3783614759225
 10
836.2559474979491
 20
1806.1288305190744
 10
836.8990976210008
 20
1807.1294559099438
 10
837.3814602132895
 20
1808.3802376485303
 10
838.185397867104
 20
1809.3808630393996
 10
838.8285479901559
 20
1810.381488430269
 10
839.4716981132076
 20
1811.6322701688557
  0
ENDSEC
  0
SECTION
  2
OBJECTS
  0
DICTIONARY
  5
A
330
0
100
AcDbDictionary
281
1
  3
ACAD_COLOR
350
B
  3
ACAD_GROUP
350
C
  3
ACAD_LAYOUT
350
D
  3
ACAD_MATERIAL
350
E
  3
ACAD_MLEADERSTYLE
350
F
  3
ACAD_MLINESTYLE
350
10
  3
ACAD_PLOTSETTINGS
350
11
  3
ACAD_PLOTSTYLENAME
350
12
  3
ACAD_SCALELIST
350
14
  3
ACAD_TABLESTYLE
350
15
  3
ACAD_VISUALSTYLE
350
16
  3
EZDXF_META
350
2D
  0
DICTIONARY
  5
B
330
A
100
AcDbDictionary
281
1
  0
DICTIONARY
  5
C
330
A
100
AcDbDictionary
281
1
  0
DICTIONARY
  5
D
330
A
100
AcDbDictionary
281
1
  3
Model
350
1A
  3
Layout1
350
1E
  0
DICTIONARY
  5
E
330
A
100
AcDbDictionary
281
1
  3
ByBlock
350
1F
  3
ByLayer
350
20
  3
Global
350
21
  0
DICTIONARY
  5
F
330
A
100
AcDbDictionary
281
1
  3
Standard
350
2C
  0
DICTIONARY
  5
10
330
A
100
AcDbDictionary
281
1
  3
Standard
350
22
  0
DICTIONARY
  5
11
330
A
100
AcDbDictionary
281
1
  0
ACDBDICTIONARYWDFLT
  5
12
330
A
100
AcDbDictionary
281
1
  3
Normal
350
13
100
AcDbDictionaryWithDefault
340
13
  0
ACDBPLACEHOLDER
  5
13
330
12
  0
DICTIONARY
  5
14
330
A
100
AcDbDictionary
281
1
  0
DICTIONARY
  5
15
330
A
100
AcDbDictionary
281
1
  0
DICTIONARY
  5
16
330
A
100
AcDbDictionary
281
1
  0
LAYOUT
  5
1A
330
D
100
AcDbPlotSettings
  1

  4
A3
  6

 40
7.5
 41
20.0
 42
7.5
 43
20.0
 44
420.0
 45
297.0
 46
0.0
 47
0.0
 48
0.0
 49
0.0
140
0.0
141
0.0
142
1.0
143
1.0
 70
1024
 72
1
 73
0
 74
5
  7

 75
16
 76
0
 77
2
 78
300
147
1.0
148
0.0
149
0.0
100
AcDbLayout
  1
Model
 70
1
 71
0
 10
0.0
 20
0.0
 11
420.0
 21
297.0
 12
0.0
 22
0.0
 32
0.0
 14
1e+20
 24
1e+20
 34
1e+20
 15
-1e+20
 25
-1e+20
 35
-1e+20
146
0.0
 13
0.0
 23
0.0
 33
0.0
 16
1.0
 26
0.0
 36
0.0
 17
0.0
 27
1.0
 37
0.0
 76
1
330
17
  0
LAYOUT
  5
1E
330
D
100
AcDbPlotSettings
  1

  4
A3
  6

 40
7.5
 41
20.0
 42
7.5
 43
20.0
 44
420.0
 45
297.0
 46
0.0
 47
0.0
 48
0.0
 49
0.0
140
0.0
141
0.0
142
1.0
143
1.0
 70
0
 72
1
 73
0
 74
5
  7

 75
16
 76
0
 77
2
 78
300
147
1.0
148
0.0
149
0.0
100
AcDbLayout
  1
Layout1
 70
1
 71
1
 10
0.0
 20
0.0
 11
420.0
 21
297.0
 12
0.0
 22
0.0
 32
0.0
 14
1e+20
 24
1e+20
 34
1e+20
 15
-1e+20
 25
-1e+20
 35
-1e+20
146
0.0
 13
0.0
 23
0.0
 33
0.0
 16
1.0
 26
0.0
 36
0.0
 17
0.0
 27
1.0
 37
0.0
 76
1
330
1B
  0
MATERIAL
  5
1F
102
{ACAD_REACTORS
330
E
102
}
330
E
100
AcDbMaterial
  1
ByBlock
  2

 70
0
 40
1.0
 71
1
 41
1.0
 91
-1023410177
 42
1.0
 72
1
  3

 73
1
 74
1
 75
1
 44
0.5
 73
0
 45
1.0
 46
1.0
 77
1
  4

 78
1
 79
1
170
1
 48
1.0
171
1
  6

172
1
173
1
174
1
140
1.0
141
1.0
175
1
  7

176
1
177
1
178
1
143
1.0
179
1
  8

270
1
271
1
272
1
145
1.0
146
1.0
273
1
  9

274
1
275
1
276
1
 42
1.0
 72
1
  3

 73
1
 74
1
 75
1
 94
63
  0
MATERIAL
  5
20
102
{ACAD_REACTORS
330
E
102
}
330
E
100
AcDbMaterial
  1
ByLayer
  2

 70
0
 40
1.0
 71
1
 41
1.0
 91
-1023410177
 42
1.0
 72
1
  3

 73
1
 74
1
 75
1
 44
0.5
 73
0
 45
1.0
 46
1.0
 77
1
  4

 78
1
 79
1
170
1
 48
1.0
171
1
  6

172
1
173
1
174
1
140
1.0
141
1.0
175
1
  7

176
1
177
1
178
1
143
1.0
179
1
  8

270
1
271
1
272
1
145
1.0
146
1.0
273
1
  9

274
1
275
1
276
1
 42
1.0
 72
1
  3

 73
1
 74
1
 75
1
 94
63
  0
MATERIAL
  5
21
102
{ACAD_REACTORS
330
E
102
}
330
E
100
AcDbMaterial
  1
Global
  2

 70
0
 40
1.0
 71
1
 41
1.0
 91
-1023410177
 42
1.0
 72
1
  3

 73
1
 74
1
 75
1
 44
0.5
 73
0
 45
1.0
 46
1.0
 77
1
  4

 78
1
 79
1
170
1
 48
1.0
171
1
  6

172
1
173
1
174
1
140
1.0
141
1.0
175
1
  7

176
1
177
1
178
1
143
1.0
179
1
  8

270
1
271
1
272
1
145
1.0
146
1.0
273
1
  9

274
1
275
1
276
1
 42
1.0
 72
1
  3

 73
1
 74
1
 75
1
 94
63
  0
MLINESTYLE
  5
22
102
{ACAD_REACTORS
330
10
102
}
330
10
100
AcDbMlineStyle
  2
Standard
 70
0
  3

 62
256
 51
90.0
 52
90.0
 71
2
 49
0.5
 62
256
  6
BYLAYER
 49
-0.5
 62
256
  6
BYLAYER
  0
MLEADERSTYLE
  5
2C
102
{ACAD_REACTORS
330
F
102
}
330
F
100
AcDbMLeaderStyle
179
2
170
2
171
1
172
0
 90
2
 40
0.0
 41
0.0
173
1
 91
-1056964608
 92
-2
290
1
 42
2.0
291
1
 43
8.0
  3
Standard
 44
4.0
300

342
29
174
1
175
1
176
0
178
1
 93
-1056964608
 45
4.0
292
0
297
0
 46
4.0
 94
-1056964608
 47
1.0
 49
1.0
140
1.0
294
1
141
0.0
177
0
142
1.0
295
0
296
0
143
3.75
271
0
272
9
273
9
  0
DICTIONARY
  5
2D
330
A
100
AcDbDictionary
280
1
281
1
  3
CREATED_BY_EZDXF
350
2E
  3
WRITTEN_BY_EZDXF
350
35
  0
DICTIONARYVAR
  5
2E
330
2D
100
DictionaryVariables
280
0
  1
1.4.4 @ 2026-06-05T00:26:17.043774+00:00
  0
DICTIONARYVAR
  5
35
330
2D
100
DictionaryVariables
280
0
  1
1.4.4 @ 2026-06-05T00:26:17.057781+00:00
  0
ENDSEC
  0
EOF
